  0
SECTION
  2
HEADER
  9
$ACADVER
  1
AC1014
  9
$HANDSEED
  5
FFFF
  9
$MEASUREMENT
 70
     1
  0
ENDSEC
  0
SECTION
  2
TABLES
  0
TABLE
  2
VPORT
  5
8
330
0
100
AcDbSymbolTable
 70
     4
  0
VPORT
  5
2E
330
8
100
AcDbSymbolTableRecord
100
AcDbViewportTableRecord
  2
*ACTIVE
 70
     0
 10
0.0
 20
0.0
 11
1.0
 21
1.0
 12
210.0
 22
148.5
 13
0.0
 23
0.0
 14
10.0
 24
10.0
 15
10.0
 25
10.0
 16
0.0
 26
0.0
 36
1.0
 17
0.0
 27
0.0
 37
0.0
 40
341.0
 41
1.24
 42
50.0
 43
0.0
 44
0.0
 50
0.0
 51
0.0
 71
     0
 72
   100
 73
     1
 74
     3
 75
     0
 76
     0
 77
     0
 78
     0
  0
ENDTAB
  0
TABLE
  2
LTYPE
  5
5
330
0
100
AcDbSymbolTable
 70
     1
  0
LTYPE
  5
14
330
5
100
AcDbSymbolTableRecord
100
AcDbLinetypeTableRecord
  2
BYBLOCK
 70
     0
  3

 72
    65
 73
     0
 40
0.0
  0
LTYPE
  5
15
330
5
100
AcDbSymbolTableRecord
100
AcDbLinetypeTableRecord
  2
BYLAYER
 70
     0
  3

 72
    65
 73
     0
 40
0.0
  0
LTYPE
  5
16
330
5
100
AcDbSymbolTableRecord
100
AcDbLinetypeTableRecord
  2
CONTINUOUS
 70
     0
  3
Solid line
 72
    65
 73
     0
 40
0.0
  0
ENDTAB
  0
TABLE
  2
LAYER
  5
2
100
AcDbSymbolTable
 70
2
  0
LAYER
  5
50
100
AcDbSymbolTableRecord
100
AcDbLayerTableRecord
  2
0
 70
0
  6
CONTINUOUS
  0
LAYER
  5
51
100
AcDbSymbolTableRecord
100
AcDbLayerTableRecord
  2
Layer_1
 70
0
  6
CONTINUOUS
  0
ENDTAB
  0
TABLE
  2
STYLE
  5
3
330
0
100
AcDbSymbolTable
 70
     1
  0
STYLE
  5
11
330
3
100
AcDbSymbolTableRecord
100
AcDbTextStyleTableRecord
  2
STANDARD
 70
     0
 40
0.0
 41
1.0
 50
0.0
 71
     0
 42
2.5
  3
txt
  4

  0
ENDTAB
  0
TABLE
  2
VIEW
  5
6
330
0
100
AcDbSymbolTable
 70
     0
  0
ENDTAB
  0
TABLE
  2
UCS
  5
7
330
0
100
AcDbSymbolTable
 70
     0
  0
ENDTAB
  0
TABLE
  2
APPID
  5
9
330
0
100
AcDbSymbolTable
 70
     2
  0
APPID
  5
12
330
9
100
AcDbSymbolTableRecord
100
AcDbRegAppTableRecord
  2
ACAD
 70
     0
  0
ENDTAB
  0
TABLE
  2
DIMSTYLE
  5
A
330
0
100
AcDbSymbolTable
 70
     1
  0
DIMSTYLE
105
27
330
A
100
AcDbSymbolTableRecord
100
AcDbDimStyleTableRecord
  2
ISO-25
 70
     0
  3

  4

  5

  6

  7

 40
1.0
 41
2.5
 42
0.625
 43
3.75
 44
1.25
 45
0.0
 46
0.0
 47
0.0
 48
0.0
140
2.5
141
2.5
142
0.0
143
0.03937007874016
144
1.0
145
0.0
146
1.0
147
0.625
 71
     0
 72
     0
 73
     0
 74
     0
 75
     0
 76
     0
 77
     1
 78
     8
170
     0
171
     3
172
     1
173
     0
174
     0
175
     0
176
     0
177
     0
178
     0
270
     2
271
     2
272
     2
273
     2
274
     3
340
11
275
     0
280
     0
281
     0
282
     0
283
     0
284
     8
285
     0
286
     0
287
     3
288
     0
  0
ENDTAB
  0
TABLE
  2
BLOCK_RECORD
  5
1
330
0
100
AcDbSymbolTable
 70
     1
  0
BLOCK_RECORD
  5
1F
330
1
100
AcDbSymbolTableRecord
100
AcDbBlockTableRecord
  2
*MODEL_SPACE
  0
BLOCK_RECORD
  5
1B
330
1
100
AcDbSymbolTableRecord
100
AcDbBlockTableRecord
  2
*PAPER_SPACE
  0
ENDTAB
  0
ENDSEC
  0
SECTION
  2
BLOCKS
  0
BLOCK
  5
20
330
1F
100
AcDbEntity
  8
0
100
AcDbBlockBegin
  2
*MODEL_SPACE
 70
     0
 10
0.0
 20
0.0
 30
0.0
  3
*MODEL_SPACE
  1

  0
ENDBLK
  5
21
330
1F
100
AcDbEntity
  8
0
100
AcDbBlockEnd
  0
BLOCK
  5
1C
330
1B
100
AcDbEntity
 67
     1
  8
0
100
AcDbBlockBegin
  2
*PAPER_SPACE
  1

  0
ENDBLK
  5
1D
330
1B
100
AcDbEntity
 67
     1
  8
0
100
AcDbBlockEnd
  0
ENDSEC
  0
SECTION
  2
ENTITIES
  0
LINE
  5
100
100
AcDbEntity
  8
Layer_1
 62
7
100
AcDbLine
 10
377.371412
 20
313.993653
 30
0.0
 11
387.371412
 21
313.993653
 31
0.0
  0
LINE
  5
101
100
AcDbEntity
  8
Layer_1
 62
7
100
AcDbLine
 10
387.371412
 20
313.993653
 30
0.0
 11
387.371412
 21
303.993653
 31
0.0
  0
LINE
  5
102
100
AcDbEntity
  8
Layer_1
 62
7
100
AcDbLine
 10
387.371412
 20
303.993653
 30
0.0
 11
377.371412
 21
303.993653
 31
0.0
  0
LINE
  5
103
100
AcDbEntity
  8
Layer_1
 62
7
100
AcDbLine
 10
377.371412
 20
303.993653
 30
0.0
 11
377.371412
 21
313.993653
 31
0.0
  0
SPLINE
  5
104
100
AcDbEntity
  8
Layer_1
 62
1
100
AcDbSpline
 70
8
 71
3
 72
8
 73
4
 74
0
 40
0
 40
0
 40
0
 40
0
 40
1
 40
1
 40
1
 40
1
 10
144.391089
 20
326.767378
 30
0.0
 10
144.016947
 20
326.767378
 30
0.0
 10
143.712542
 20
327.071778
 30
0.0
 10
143.712542
 20
327.445906
 30
0.0
  0
SPLINE
  5
105
100
AcDbEntity
  8
Layer_1
 62
1
100
AcDbSpline
 70
8
 71
3
 72
8
 73
4
 74
0
 40
0
 40
0
 40
0
 40
0
 40
1
 40
1
 40
1
 40
1
 10
143.712542
 20
327.445906
 30
0.0
 10
143.712542
 20
327.820386
 30
0.0
 10
144.016947
 20
328.124785
 30
0.0
 10
144.391089
 20
328.124785
 30
0.0
  0
SPLINE
  5
106
100
AcDbEntity
  8
Layer_1
 62
1
100
AcDbSpline
 70
8
 71
3
 72
8
 73
4
 74
0
 40
0
 40
0
 40
0
 40
0
 40
1
 40
1
 40
1
 40
1
 10
144.391089
 20
328.124785
 30
0.0
 10
144.765570
 20
328.124785
 30
0.0
 10
145.069975
 20
327.820386
 30
0.0
 10
145.069975
 20
327.445906
 30
0.0
  0
SPLINE
  5
107
100
AcDbEntity
  8
Layer_1
 62
1
100
AcDbSpline
 70
8
 71
3
 72
8
 73
4
 74
0
 40
0
 40
0
 40
0
 40
0
 40
1
 40
1
 40
1
 40
1
 10
145.069975
 20
327.445906
 30
0.0
 10
145.069975
 20
327.071778
 30
0.0
 10
144.765570
 20
326.767378
 30
0.0
 10
144.391089
 20
326.767378
 30
0.0
  0
LINE
  5
108
100
AcDbEntity
  8
Layer_1
 62
1
100
AcDbLine
 10
144.391089
 20
326.767378
 30
0.0
 11
144.391089
 21
326.767378
 31
0.0
  0
SPLINE
  5
109
100
AcDbEntity
  8
Layer_1
 62
1
100
AcDbSpline
 70
8
 71
3
 72
8
 73
4
 74
0
 40
0
 40
0
 40
0
 40
0
 40
1
 40
1
 40
1
 40
1
 10
144.391089
 20
327.770834
 30
0.0
 10
144.211991
 20
327.770834
 30
0.0
 10
144.066506
 20
327.625007
 30
0.0
 10
144.066506
 20
327.445906
 30
0.0
  0
SPLINE
  5
10a
100
AcDbEntity
  8
Layer_1
 62
1
100
AcDbSpline
 70
8
 71
3
 72
8
 73
4
 74
0
 40
0
 40
0
 40
0
 40
0
 40
1
 40
1
 40
1
 40
1
 10
144.066506
 20
327.445906
 30
0.0
 10
144.066506
 20
327.266805
 30
0.0
 10
144.211991
 20
327.121330
 30
0.0
 10
144.391089
 20
327.121330
 30
0.0
  0
SPLINE
  5
10b
100
AcDbEntity
  8
Layer_1
 62
1
100
AcDbSpline
 70
8
 71
3
 72
8
 73
4
 74
0
 40
0
 40
0
 40
0
 40
0
 40
1
 40
1
 40
1
 40
1
 10
144.391089
 20
327.121330
 30
0.0
 10
144.570188
 20
327.121330
 30
0.0
 10
144.716012
 20
327.266805
 30
0.0
 10
144.716012
 20
327.445906
 30
0.0
  0
SPLINE
  5
10c
100
AcDbEntity
  8
Layer_1
 62
1
100
AcDbSpline
 70
8
 71
3
 72
8
 73
4
 74
0
 40
0
 40
0
 40
0
 40
0
 40
1
 40
1
 40
1
 40
1
 10
144.716012
 20
327.445906
 30
0.0
 10
144.716012
 20
327.625007
 30
0.0
 10
144.570188
 20
327.770834
 30
0.0
 10
144.391089
 20
327.770834
 30
0.0
  0
LINE
  5
10d
100
AcDbEntity
  8
Layer_1
 62
1
100
AcDbLine
 10
144.391089
 20
327.770834
 30
0.0
 11
144.391089
 21
327.770834
 31
0.0
  0
SPLINE
  5
10e
100
AcDbEntity
  8
Layer_1
 62
1
100
AcDbSpline
 70
8
 71
3
 72
8
 73
4
 74
0
 40
0
 40
0
 40
0
 40
0
 40
1
 40
1
 40
1
 40
1
 10
144.391089
 20
328.773936
 30
0.0
 10
144.016947
 20
328.773936
 30
0.0
 10
143.712542
 20
329.078335
 30
0.0
 10
143.712542
 20
329.452463
 30
0.0
  0
SPLINE
  5
10f
100
AcDbEntity
  8
Layer_1
 62
1
100
AcDbSpline
 70
8
 71
3
 72
8
 73
4
 74
0
 40
0
 40
0
 40
0
 40
0
 40
1
 40
1
 40
1
 40
1
 10
143.712542
 20
329.452463
 30
0.0
 10
143.712542
 20
329.826947
 30
0.0
 10
144.016947
 20
330.131346
 30
0.0
 10
144.391089
 20
330.131346
 30
0.0
  0
SPLINE
  5
110
100
AcDbEntity
  8
Layer_1
 62
1
100
AcDbSpline
 70
8
 71
3
 72
8
 73
4
 74
0
 40
0
 40
0
 40
0
 40
0
 40
1
 40
1
 40
1
 40
1
 10
144.391089
 20
330.131346
 30
0.0
 10
144.765570
 20
330.131346
 30
0.0
 10
145.069975
 20
329.826947
 30
0.0
 10
145.069975
 20
329.452463
 30
0.0
  0
SPLINE
  5
111
100
AcDbEntity
  8
Layer_1
 62
1
100
AcDbSpline
 70
8
 71
3
 72
8
 73
4
 74
0
 40
0
 40
0
 40
0
 40
0
 40
1
 40
1
 40
1
 40
1
 10
145.069975
 20
329.452463
 30
0.0
 10
145.069975
 20
329.078335
 30
0.0
 10
144.765570
 20
328.773936
 30
0.0
 10
144.391089
 20
328.773936
 30
0.0
  0
LINE
  5
112
100
AcDbEntity
  8
Layer_1
 62
1
100
AcDbLine
 10
144.391089
 20
328.773936
 30
0.0
 11
144.391089
 21
328.773936
 31
0.0
  0
SPLINE
  5
113
100
AcDbEntity
  8
Layer_1
 62
1
100
AcDbSpline
 70
8
 71
3
 72
8
 73
4
 74
0
 40
0
 40
0
 40
0
 40
0
 40
1
 40
1
 40
1
 40
1
 10
144.391089
 20
329.777391
 30
0.0
 10
144.211991
 20
329.777391
 30
0.0
 10
144.066506
 20
329.631564
 30
0.0
 10
144.066506
 20
329.452463
 30
0.0
  0
SPLINE
  5
114
100
AcDbEntity
  8
Layer_1
 62
1
100
AcDbSpline
 70
8
 71
3
 72
8
 73
4
 74
0
 40
0
 40
0
 40
0
 40
0
 40
1
 40
1
 40
1
 40
1
 10
144.066506
 20
329.452463
 30
0.0
 10
144.066506
 20
329.273362
 30
0.0
 10
144.211991
 20
329.127891
 30
0.0
 10
144.391089
 20
329.127891
 30
0.0
  0
SPLINE
  5
115
100
AcDbEntity
  8
Layer_1
 62
1
100
AcDbSpline
 70
8
 71
3
 72
8
 73
4
 74
0
 40
0
 40
0
 40
0
 40
0
 40
1
 40
1
 40
1
 40
1
 10
144.391089
 20
329.127891
 30
0.0
 10
144.570188
 20
329.127891
 30
0.0
 10
144.716012
 20
329.273362
 30
0.0
 10
144.716012
 20
329.452463
 30
0.0
  0
SPLINE
  5
116
100
AcDbEntity
  8
Layer_1
 62
1
100
AcDbSpline
 70
8
 71
3
 72
8
 73
4
 74
0
 40
0
 40
0
 40
0
 40
0
 40
1
 40
1
 40
1
 40
1
 10
144.716012
 20
329.452463
 30
0.0
 10
144.716012
 20
329.631564
 30
0.0
 10
144.570188
 20
329.777391
 30
0.0
 10
144.391089
 20
329.777391
 30
0.0
  0
LINE
  5
117
100
AcDbEntity
  8
Layer_1
 62
1
100
AcDbLine
 10
144.391089
 20
329.777391
 30
0.0
 11
144.391089
 21
329.777391
 31
0.0
  0
SPLINE
  5
118
100
AcDbEntity
  8
Layer_1
 62
7
100
AcDbSpline
 70
8
 71
3
 72
8
 73
4
 74
0
 40
0
 40
0
 40
0
 40
0
 40
1
 40
1
 40
1
 40
1
 10
218.130761
 20
352.526811
 30
0.0
 10
218.130761
 20
353.648642
 30
0.0
 10
219.026195
 20
354.558063
 30
0.0
 10
220.124350
 20
354.585337
 30
0.0
  0
LINE
  5
119
100
AcDbEntity
  8
Layer_1
 62
7
100
AcDbLine
 10
220.124350
 20
354.585337
 30
0.0
 11
229.758232
 21
354.612600
 31
0.0
  0
LINE
  5
11a
100
AcDbEntity
  8
Layer_1
 62
7
100
AcDbLine
 10
229.758232
 20
354.612597
 30
0.0
 11
229.758232
 21
356.217736
 31
0.0
  0
LINE
  5
11b
100
AcDbEntity
  8
Layer_1
 62
7
100
AcDbLine
 10
229.758232
 20
356.217736
 30
0.0
 11
233.524120
 21
356.217736
 31
0.0
  0
LINE
  5
11c
100
AcDbEntity
  8
Layer_1
 62
7
100
AcDbLine
 10
233.524120
 20
356.217736
 30
0.0
 11
233.524120
 21
355.662111
 31
0.0
  0
LINE
  5
11d
100
AcDbEntity
  8
Layer_1
 62
7
100
AcDbLine
 10
233.524120
 20
355.662111
 30
0.0
 11
235.182176
 21
355.662111
 31
0.0
  0
LINE
  5
11e
100
AcDbEntity
  8
Layer_1
 62
7
100
AcDbLine
 10
235.182176
 20
355.662111
 30
0.0
 11
235.182176
 21
389.528780
 31
0.0
  0
LINE
  5
11f
100
AcDbEntity
  8
Layer_1
 62
7
100
AcDbLine
 10
235.182176
 20
389.528780
 30
0.0
 11
233.524120
 21
389.528780
 31
0.0
  0
LINE
  5
120
100
AcDbEntity
  8
Layer_1
 62
7
100
AcDbLine
 10
233.524120
 20
389.528780
 30
0.0
 11
233.524120
 21
388.973155
 31
0.0
  0
LINE
  5
121
100
AcDbEntity
  8
Layer_1
 62
7
100
AcDbLine
 10
233.524120
 20
388.973155
 30
0.0
 11
229.758232
 21
388.973155
 31
0.0
  0
LINE
  5
122
100
AcDbEntity
  8
Layer_1
 62
7
100
AcDbLine
 10
229.758232
 20
388.973155
 30
0.0
 11
229.758232
 21
390.578294
 31
0.0
  0
LINE
  5
123
100
AcDbEntity
  8
Layer_1
 62
7
100
AcDbLine
 10
229.758232
 20
390.578294
 30
0.0
 11
223.119603
 21
390.603356
 31
0.0
  0
SPLINE
  5
124
100
AcDbEntity
  8
Layer_1
 62
7
100
AcDbSpline
 70
8
 71
3
 72
8
 73
4
 74
0
 40
0
 40
0
 40
0
 40
0
 40
1
 40
1
 40
1
 40
1
 10
223.119603
 20
390.603356
 30
0.0
 10
222.016707
 20
390.628417
 30
0.0
 10
221.121272
 20
391.537844
 30
0.0
 10
221.121272
 20
392.659677
 30
0.0
  0
LINE
  5
125
100
AcDbEntity
  8
Layer_1
 62
7
100
AcDbLine
 10
221.121272
 20
392.659677
 30
0.0
 11
221.121272
 21
392.659683
 31
0.0
  0
SPLINE
  5
126
100
AcDbEntity
  8
Layer_1
 62
7
100
AcDbSpline
 70
8
 71
3
 72
8
 73
4
 74
0
 40
0
 40
0
 40
0
 40
0
 40
1
 40
1
 40
1
 40
1
 10
221.121272
 20
392.659683
 30
0.0
 10
221.121272
 20
393.781514
 30
0.0
 10
222.016707
 20
394.690935
 30
0.0
 10
223.119603
 20
394.716002
 30
0.0
  0
LINE
  5
127
100
AcDbEntity
  8
Layer_1
 62
7
100
AcDbLine
 10
223.119603
 20
394.716002
 30
0.0
 11
229.758232
 21
394.741063
 31
0.0
  0
LINE
  5
128
100
AcDbEntity
  8
Layer_1
 62
7
100
AcDbLine
 10
229.758232
 20
394.741066
 30
0.0
 11
229.758232
 21
396.355025
 31
0.0
  0
LINE
  5
129
100
AcDbEntity
  8
Layer_1
 62
7
100
AcDbLine
 10
229.758232
 20
396.355025
 30
0.0
 11
233.524120
 21
396.355025
 31
0.0
  0
LINE
  5
12a
100
AcDbEntity
  8
Layer_1
 62
7
100
AcDbLine
 10
233.524120
 20
396.355025
 30
0.0
 11
233.524120
 21
395.799400
 31
0.0
  0
LINE
  5
12b
100
AcDbEntity
  8
Layer_1
 62
7
100
AcDbLine
 10
233.524120
 20
395.799400
 30
0.0
 11
235.182176
 21
395.799400
 31
0.0
  0
LINE
  5
12c
100
AcDbEntity
  8
Layer_1
 62
7
100
AcDbLine
 10
235.182176
 20
395.799400
 30
0.0
 11
235.182176
 21
405.915302
 31
0.0
  0
SPLINE
  5
12d
100
AcDbEntity
  8
Layer_1
 62
7
100
AcDbSpline
 70
8
 71
3
 72
8
 73
4
 74
0
 40
0
 40
0
 40
0
 40
0
 40
1
 40
1
 40
1
 40
1
 10
235.182176
 20
405.915302
 30
0.0
 10
235.182176
 20
408.547296
 30
0.0
 10
234.158528
 20
411.021227
 30
0.0
 10
232.298232
 20
412.882664
 30
0.0
  0
LINE
  5
12e
100
AcDbEntity
  8
Layer_1
 62
7
100
AcDbLine
 10
232.298232
 20
412.882664
 30
0.0
 11
217.816676
 21
434.904828
 31
0.0
  0
SPLINE
  5
12f
100
AcDbEntity
  8
Layer_1
 62
7
100
AcDbSpline
 70
8
 71
3
 72
8
 73
4
 74
0
 40
0
 40
0
 40
0
 40
0
 40
1
 40
1
 40
1
 40
1
 10
217.816676
 20
434.904828
 30
0.0
 10
215.990274
 20
436.660789
 30
0.0
 10
213.562571
 20
437.638855
 30
0.0
 10
210.999259
 20
437.638855
 30
0.0
  0
LINE
  5
130
100
AcDbEntity
  8
Layer_1
 62
7
100
AcDbLine
 10
210.999259
 20
437.638855
 30
0.0
 11
193.580842
 21
437.638855
 31
0.0
  0
LINE
  5
131
100
AcDbEntity
  8
Layer_1
 62
7
100
AcDbLine
 10
193.580842
 20
437.638855
 30
0.0
 11
193.580842
 21
422.689903
 31
0.0
  0
LINE
  5
132
100
AcDbEntity
  8
Layer_1
 62
7
100
AcDbLine
 10
193.580842
 20
422.689903
 30
0.0
 11
211.960564
 21
422.689903
 31
0.0
  0
LINE
  5
133
100
AcDbEntity
  8
Layer_1
 62
7
100
AcDbLine
 10
211.960564
 20
422.689903
 30
0.0
 11
211.960564
 21
319.996289
 31
0.0
  0
LINE
  5
134
100
AcDbEntity
  8
Layer_1
 62
7
100
AcDbLine
 10
211.960564
 20
319.996289
 30
0.0
 11
148.390009
 21
319.996289
 31
0.0
  0
LINE
  5
135
100
AcDbEntity
  8
Layer_1
 62
7
100
AcDbLine
 10
148.390009
 20
319.996289
 30
0.0
 11
148.390009
 21
422.689903
 31
0.0
  0
LINE
  5
136
100
AcDbEntity
  8
Layer_1
 62
7
100
AcDbLine
 10
148.390009
 20
422.689903
 30
0.0
 11
156.134751
 21
422.689903
 31
0.0
  0
LINE
  5
137
100
AcDbEntity
  8
Layer_1
 62
7
100
AcDbLine
 10
156.134751
 20
422.689903
 30
0.0
 11
156.134751
 21
437.638855
 31
0.0
  0
LINE
  5
138
100
AcDbEntity
  8
Layer_1
 62
7
100
AcDbLine
 10
156.134751
 20
437.638855
 30
0.0
 11
149.536537
 21
437.638855
 31
0.0
  0
LINE
  5
139
100
AcDbEntity
  8
Layer_1
 62
7
100
AcDbLine
 10
149.536537
 20
437.638855
 30
0.0
 11
149.360148
 21
437.638855
 31
0.0
  0
SPLINE
  5
13a
100
AcDbEntity
  8
Layer_1
 62
7
100
AcDbSpline
 70
8
 71
3
 72
8
 73
4
 74
0
 40
0
 40
0
 40
0
 40
0
 40
1
 40
1
 40
1
 40
1
 10
149.360148
 20
437.638855
 30
0.0
 10
146.796836
 20
437.638855
 30
0.0
 10
144.370233
 20
436.656276
 30
0.0
 10
142.525092
 20
434.878369
 30
0.0
  0
LINE
  5
13b
100
AcDbEntity
  8
Layer_1
 62
7
100
AcDbLine
 10
142.525092
 20
434.878369
 30
0.0
 11
128.184670
 21
413.050247
 31
0.0
  0
LINE
  5
13c
100
AcDbEntity
  8
Layer_1
 62
7
100
AcDbLine
 10
128.184670
 20
413.050247
 30
0.0
 11
128.202309
 21
413.032608
 31
0.0
  0
LINE
  5
13d
100
AcDbEntity
  8
Layer_1
 62
7
100
AcDbLine
 10
128.202309
 20
413.032608
 30
0.0
 11
128.070017
 21
412.882680
 31
0.0
  0
SPLINE
  5
13e
100
AcDbEntity
  8
Layer_1
 62
7
100
AcDbSpline
 70
8
 71
3
 72
8
 73
4
 74
0
 40
0
 40
0
 40
0
 40
0
 40
1
 40
1
 40
1
 40
1
 10
128.070017
 20
412.882680
 30
0.0
 10
126.209639
 20
411.021241
 30
0.0
 10
125.186059
 20
408.546960
 30
0.0
 10
125.186059
 20
405.915319
 30
0.0
  0
LINE
  5
13f
100
AcDbEntity
  8
Layer_1
 62
7
100
AcDbLine
 10
125.186059
 20
405.915319
 30
0.0
 11
125.168420
 21
395.799417
 31
0.0
  0
LINE
  5
140
100
AcDbEntity
  8
Layer_1
 62
7
100
AcDbLine
 10
125.168420
 20
395.799417
 30
0.0
 11
126.817656
 21
395.799417
 31
0.0
  0
LINE
  5
141
100
AcDbEntity
  8
Layer_1
 62
7
100
AcDbLine
 10
126.817656
 20
395.799417
 30
0.0
 11
126.817656
 21
396.355042
 31
0.0
  0
LINE
  5
142
100
AcDbEntity
  8
Layer_1
 62
7
100
AcDbLine
 10
126.817656
 20
396.355042
 30
0.0
 11
130.583559
 21
396.355042
 31
0.0
  0
LINE
  5
143
100
AcDbEntity
  8
Layer_1
 62
7
100
AcDbLine
 10
130.583559
 20
396.355042
 30
0.0
 11
130.583559
 21
394.741083
 31
0.0
  0
LINE
  5
144
100
AcDbEntity
  8
Layer_1
 62
7
100
AcDbLine
 10
130.583559
 20
394.741083
 30
0.0
 11
137.222464
 21
394.716022
 31
0.0
  0
SPLINE
  5
145
100
AcDbEntity
  8
Layer_1
 62
7
100
AcDbSpline
 70
8
 71
3
 72
8
 73
4
 74
0
 40
0
 40
0
 40
0
 40
0
 40
1
 40
1
 40
1
 40
1
 10
137.222464
 20
394.716019
 30
0.0
 10
138.316826
 20
394.690958
 30
0.0
 10
139.212258
 20
393.781531
 30
0.0
 10
139.212258
 20
392.659697
 30
0.0
  0
SPLINE
  5
146
100
AcDbEntity
  8
Layer_1
 62
7
100
AcDbSpline
 70
8
 71
3
 72
8
 73
4
 74
0
 40
0
 40
0
 40
0
 40
0
 40
1
 40
1
 40
1
 40
1
 10
139.212258
 20
392.659697
 30
0.0
 10
139.212258
 20
391.537872
 30
0.0
 10
138.316826
 20
390.628451
 30
0.0
 10
137.222464
 20
390.603378
 30
0.0
  0
LINE
  5
147
100
AcDbEntity
  8
Layer_1
 62
7
100
AcDbLine
 10
137.222464
 20
390.603378
 30
0.0
 11
130.583559
 21
390.578289
 31
0.0
  0
LINE
  5
148
100
AcDbEntity
  8
Layer_1
 62
7
100
AcDbLine
 10
130.583559
 20
390.578291
 30
0.0
 11
130.583559
 21
388.973152
 31
0.0
  0
LINE
  5
149
100
AcDbEntity
  8
Layer_1
 62
7
100
AcDbLine
 10
130.583559
 20
388.973152
 30
0.0
 11
126.817656
 21
388.973152
 31
0.0
  0
LINE
  5
14a
100
AcDbEntity
  8
Layer_1
 62
7
100
AcDbLine
 10
126.817656
 20
388.973152
 30
0.0
 11
126.817656
 21
389.528777
 31
0.0
  0
LINE
  5
14b
100
AcDbEntity
  8
Layer_1
 62
7
100
AcDbLine
 10
126.817656
 20
389.528777
 30
0.0
 11
125.168420
 21
389.528777
 31
0.0
  0
LINE
  5
14c
100
AcDbEntity
  8
Layer_1
 62
7
100
AcDbLine
 10
125.168420
 20
389.528777
 30
0.0
 11
125.168420
 21
355.662108
 31
0.0
  0
LINE
  5
14d
100
AcDbEntity
  8
Layer_1
 62
7
100
AcDbLine
 10
125.168420
 20
355.662108
 30
0.0
 11
126.817656
 21
355.662108
 31
0.0
  0
LINE
  5
14e
100
AcDbEntity
  8
Layer_1
 62
7
100
AcDbLine
 10
126.817656
 20
355.662108
 30
0.0
 11
126.817656
 21
356.217733
 31
0.0
  0
LINE
  5
14f
100
AcDbEntity
  8
Layer_1
 62
7
100
AcDbLine
 10
126.817656
 20
356.217733
 30
0.0
 11
130.583559
 21
356.217733
 31
0.0
  0
LINE
  5
150
100
AcDbEntity
  8
Layer_1
 62
7
100
AcDbLine
 10
130.583559
 20
356.217733
 30
0.0
 11
130.583559
 21
354.612594
 31
0.0
  0
LINE
  5
151
100
AcDbEntity
  8
Layer_1
 62
7
100
AcDbLine
 10
130.583559
 20
354.612594
 30
0.0
 11
137.222464
 21
354.587533
 31
0.0
  0
SPLINE
  5
152
100
AcDbEntity
  8
Layer_1
 62
7
100
AcDbSpline
 70
8
 71
3
 72
8
 73
4
 74
0
 40
0
 40
0
 40
0
 40
0
 40
1
 40
1
 40
1
 40
1
 10
137.222464
 20
354.587536
 30
0.0
 10
138.316826
 20
354.562474
 30
0.0
 10
139.212258
 20
353.653050
 30
0.0
 10
139.212258
 20
352.531222
 30
0.0
  0
SPLINE
  5
153
100
AcDbEntity
  8
Layer_1
 62
7
100
AcDbSpline
 70
8
 71
3
 72
8
 73
4
 74
0
 40
0
 40
0
 40
0
 40
0
 40
1
 40
1
 40
1
 40
1
 10
139.212258
 20
352.531222
 30
0.0
 10
139.212258
 20
351.409394
 30
0.0
 10
138.316826
 20
350.499970
 30
0.0
 10
137.222464
 20
350.474900
 30
0.0
  0
LINE
  5
154
100
AcDbEntity
  8
Layer_1
 62
7
100
AcDbLine
 10
137.222464
 20
350.474900
 30
0.0
 11
130.583559
 21
350.449839
 31
0.0
  0
LINE
  5
155
100
AcDbEntity
  8
Layer_1
 62
7
100
AcDbLine
 10
130.583559
 20
350.449842
 30
0.0
 11
130.583559
 21
348.844700
 31
0.0
  0
LINE
  5
156
100
AcDbEntity
  8
Layer_1
 62
7
100
AcDbLine
 10
130.583559
 20
348.844700
 30
0.0
 11
126.817656
 21
348.844700
 31
0.0
  0
LINE
  5
157
100
AcDbEntity
  8
Layer_1
 62
7
100
AcDbLine
 10
126.817656
 20
348.844700
 30
0.0
 11
126.817656
 21
349.391508
 31
0.0
  0
LINE
  5
158
100
AcDbEntity
  8
Layer_1
 62
7
100
AcDbLine
 10
126.817656
 20
349.391508
 30
0.0
 11
125.168420
 21
349.391508
 31
0.0
  0
LINE
  5
159
100
AcDbEntity
  8
Layer_1
 62
7
100
AcDbLine
 10
125.168420
 20
349.391508
 30
0.0
 11
125.186059
 21
344.426161
 31
0.0
  0
SPLINE
  5
15a
100
AcDbEntity
  8
Layer_1
 62
7
100
AcDbSpline
 70
8
 71
3
 72
8
 73
4
 74
0
 40
0
 40
0
 40
0
 40
0
 40
1
 40
1
 40
1
 40
1
 10
125.186059
 20
344.426161
 30
0.0
 10
125.186059
 20
341.794524
 30
0.0
 10
126.209639
 20
339.320595
 30
0.0
 10
128.070017
 20
337.458797
 30
0.0
  0
LINE
  5
15b
100
AcDbEntity
  8
Layer_1
 62
7
100
AcDbLine
 10
128.070017
 20
337.458797
 30
0.0
 11
128.211128
 21
337.317686
 31
0.0
  0
LINE
  5
15c
100
AcDbEntity
  8
Layer_1
 62
7
100
AcDbLine
 10
128.211128
 20
337.317686
 30
0.0
 11
128.184684
 21
337.300047
 31
0.0
  0
LINE
  5
15d
100
AcDbEntity
  8
Layer_1
 62
7
100
AcDbLine
 10
128.184684
 20
337.300047
 30
0.0
 11
142.542731
 21
316.697825
 31
0.0
  0
SPLINE
  5
15e
100
AcDbEntity
  8
Layer_1
 62
7
100
AcDbSpline
 70
8
 71
3
 72
8
 73
4
 74
0
 40
0
 40
0
 40
0
 40
0
 40
1
 40
1
 40
1
 40
1
 10
142.542731
 20
316.697825
 30
0.0
 10
144.369132
 20
314.941869
 30
0.0
 10
146.796836
 20
312.711436
 30
0.0
 10
149.360176
 20
312.711436
 30
0.0
  0
LINE
  5
15f
100
AcDbEntity
  8
Layer_1
 62
7
100
AcDbLine
 10
149.360176
 20
312.711436
 30
0.0
 11
210.999259
 21
312.711436
 31
0.0
  0
SPLINE
  5
160
100
AcDbEntity
  8
Layer_1
 62
7
100
AcDbSpline
 70
8
 71
3
 72
8
 73
4
 74
0
 40
0
 40
0
 40
0
 40
0
 40
1
 40
1
 40
1
 40
1
 10
210.999259
 20
312.711436
 30
0.0
 10
213.562599
 20
312.711436
 30
0.0
 10
215.989174
 20
314.946382
 30
0.0
 10
217.834343
 20
316.724286
 30
0.0
  0
LINE
  5
161
100
AcDbEntity
  8
Layer_1
 62
7
100
AcDbLine
 10
217.834343
 20
316.724286
 30
0.0
 11
232.280564
 21
337.441150
 31
0.0
  0
SPLINE
  5
162
100
AcDbEntity
  8
Layer_1
 62
7
100
AcDbSpline
 70
8
 71
3
 72
8
 73
4
 74
0
 40
0
 40
0
 40
0
 40
0
 40
1
 40
1
 40
1
 40
1
 10
232.280564
 20
337.441150
 30
0.0
 10
234.157935
 20
339.322409
 30
0.0
 10
235.182176
 20
341.794865
 30
0.0
 10
235.182176
 20
344.426150
 30
0.0
  0
LINE
  5
163
100
AcDbEntity
  8
Layer_1
 62
7
100
AcDbLine
 10
235.182176
 20
344.426150
 30
0.0
 11
235.182176
 21
349.391497
 31
0.0
  0
LINE
  5
164
100
AcDbEntity
  8
Layer_1
 62
7
100
AcDbLine
 10
235.182176
 20
349.391497
 30
0.0
 11
233.524120
 21
349.391497
 31
0.0
  0
LINE
  5
165
100
AcDbEntity
  8
Layer_1
 62
7
100
AcDbLine
 10
233.524120
 20
349.391497
 30
0.0
 11
233.524120
 21
348.844694
 31
0.0
  0
LINE
  5
166
100
AcDbEntity
  8
Layer_1
 62
7
100
AcDbLine
 10
233.524120
 20
348.844694
 30
0.0
 11
229.758232
 21
348.844694
 31
0.0
  0
LINE
  5
167
100
AcDbEntity
  8
Layer_1
 62
7
100
AcDbLine
 10
229.758232
 20
348.844694
 30
0.0
 11
229.758232
 21
350.441011
 31
0.0
  0
LINE
  5
168
100
AcDbEntity
  8
Layer_1
 62
7
100
AcDbLine
 10
229.758232
 20
350.441011
 30
0.0
 11
220.124350
 21
350.468274
 31
0.0
  0
SPLINE
  5
169
100
AcDbEntity
  8
Layer_1
 62
7
100
AcDbSpline
 70
8
 71
3
 72
8
 73
4
 74
0
 40
0
 40
0
 40
0
 40
0
 40
1
 40
1
 40
1
 40
1
 10
220.124350
 20
350.468276
 30
0.0
 10
219.026195
 20
350.495539
 30
0.0
 10
218.130761
 20
351.404969
 30
0.0
 10
218.130761
 20
352.526803
 30
0.0
  0
LINE
  5
16a
100
AcDbEntity
  8
Layer_1
 62
7
100
AcDbLine
 10
218.130761
 20
352.526803
 30
0.0
 11
218.130761
 21
352.526811
 31
0.0
  0
SPLINE
  5
16b
100
AcDbEntity
  8
Layer_1
 62
7
100
AcDbSpline
 70
8
 71
3
 72
8
 73
4
 74
0
 40
0
 40
0
 40
0
 40
0
 40
1
 40
1
 40
1
 40
1
 10
141.531102
 20
417.748217
 30
0.0
 10
141.531102
 20
417.204163
 30
0.0
 10
141.245183
 20
416.701438
 30
0.0
 10
140.781097
 20
416.429412
 30
0.0
  0
SPLINE
  5
16c
100
AcDbEntity
  8
Layer_1
 62
7
100
AcDbSpline
 70
8
 71
3
 72
8
 73
4
 74
0
 40
0
 40
0
 40
0
 40
0
 40
1
 40
1
 40
1
 40
1
 10
140.781097
 20
416.429412
 30
0.0
 10
140.317010
 20
416.157387
 30
0.0
 10
139.745200
 20
416.157387
 30
0.0
 10
139.281114
 20
416.429412
 30
0.0
  0
SPLINE
  5
16d
100
AcDbEntity
  8
Layer_1
 62
7
100
AcDbSpline
 70
8
 71
3
 72
8
 73
4
 74
0
 40
0
 40
0
 40
0
 40
0
 40
1
 40
1
 40
1
 40
1
 10
139.281114
 20
416.429412
 30
0.0
 10
138.816999
 20
416.701438
 30
0.0
 10
138.531108
 20
417.204163
 30
0.0
 10
138.531108
 20
417.748217
 30
0.0
  0
SPLINE
  5
16e
100
AcDbEntity
  8
Layer_1
 62
7
100
AcDbSpline
 70
8
 71
3
 72
8
 73
4
 74
0
 40
0
 40
0
 40
0
 40
0
 40
1
 40
1
 40
1
 40
1
 10
138.531108
 20
417.748217
 30
0.0
 10
138.531108
 20
418.292268
 30
0.0
 10
138.816999
 20
418.794993
 30
0.0
 10
139.281114
 20
419.067019
 30
0.0
  0
SPLINE
  5
16f
100
AcDbEntity
  8
Layer_1
 62
7
100
AcDbSpline
 70
8
 71
3
 72
8
 73
4
 74
0
 40
0
 40
0
 40
0
 40
0
 40
1
 40
1
 40
1
 40
1
 10
139.281114
 20
419.067019
 30
0.0
 10
139.745200
 20
419.339047
 30
0.0
 10
140.317010
 20
419.339047
 30
0.0
 10
140.781097
 20
419.067019
 30
0.0
  0
LINE
  5
170
100
AcDbEntity
  8
Layer_1
 62
7
100
AcDbLine
 10
141.531102
 20
417.748217
 30
0.0
 11
141.531102
 21
417.748217
 31
0.0
  0
SPLINE
  5
171
100
AcDbEntity
  8
Layer_1
 62
7
100
AcDbSpline
 70
8
 71
3
 72
8
 73
4
 74
0
 40
0
 40
0
 40
0
 40
0
 40
1
 40
1
 40
1
 40
1
 10
140.781097
 20
419.067019
 30
0.0
 10
141.245183
 20
418.794993
 30
0.0
 10
141.531102
 20
418.292268
 30
0.0
 10
141.531102
 20
417.748217
 30
0.0
  0
SPLINE
  5
172
100
AcDbEntity
  8
Layer_1
 62
7
100
AcDbSpline
 70
8
 71
3
 72
8
 73
4
 74
0
 40
0
 40
0
 40
0
 40
0
 40
1
 40
1
 40
1
 40
1
 10
136.513812
 20
372.598337
 30
0.0
 10
136.513812
 20
372.054286
 30
0.0
 10
136.227893
 20
371.551561
 30
0.0
 10
135.763806
 20
371.279535
 30
0.0
  0
SPLINE
  5
173
100
AcDbEntity
  8
Layer_1
 62
7
100
AcDbSpline
 70
8
 71
3
 72
8
 73
4
 74
0
 40
0
 40
0
 40
0
 40
0
 40
1
 40
1
 40
1
 40
1
 10
135.763806
 20
371.279535
 30
0.0
 10
135.299720
 20
371.007507
 30
0.0
 10
134.727910
 20
371.007507
 30
0.0
 10
134.263823
 20
371.279535
 30
0.0
  0
SPLINE
  5
174
100
AcDbEntity
  8
Layer_1
 62
7
100
AcDbSpline
 70
8
 71
3
 72
8
 73
4
 74
0
 40
0
 40
0
 40
0
 40
0
 40
1
 40
1
 40
1
 40
1
 10
134.263823
 20
371.279535
 30
0.0
 10
133.799709
 20
371.551561
 30
0.0
 10
133.513818
 20
372.054286
 30
0.0
 10
133.513818
 20
372.598337
 30
0.0
  0
SPLINE
  5
175
100
AcDbEntity
  8
Layer_1
 62
7
100
AcDbSpline
 70
8
 71
3
 72
8
 73
4
 74
0
 40
0
 40
0
 40
0
 40
0
 40
1
 40
1
 40
1
 40
1
 10
133.513818
 20
372.598337
 30
0.0
 10
133.513818
 20
373.142391
 30
0.0
 10
133.799709
 20
373.645116
 30
0.0
 10
134.263823
 20
373.917142
 30
0.0
  0
SPLINE
  5
176
100
AcDbEntity
  8
Layer_1
 62
7
100
AcDbSpline
 70
8
 71
3
 72
8
 73
4
 74
0
 40
0
 40
0
 40
0
 40
0
 40
1
 40
1
 40
1
 40
1
 10
134.263823
 20
373.917142
 30
0.0
 10
134.727910
 20
374.189167
 30
0.0
 10
135.299720
 20
374.189167
 30
0.0
 10
135.763806
 20
373.917142
 30
0.0
  0
LINE
  5
177
100
AcDbEntity
  8
Layer_1
 62
7
100
AcDbLine
 10
136.513812
 20
372.598337
 30
0.0
 11
136.513812
 21
372.598337
 31
0.0
  0
SPLINE
  5
178
100
AcDbEntity
  8
Layer_1
 62
7
100
AcDbSpline
 70
8
 71
3
 72
8
 73
4
 74
0
 40
0
 40
0
 40
0
 40
0
 40
1
 40
1
 40
1
 40
1
 10
135.763806
 20
373.917142
 30
0.0
 10
136.227893
 20
373.645116
 30
0.0
 10
136.513812
 20
373.142391
 30
0.0
 10
136.513812
 20
372.598337
 30
0.0
  0
SPLINE
  5
179
100
AcDbEntity
  8
Layer_1
 62
7
100
AcDbSpline
 70
8
 71
3
 72
8
 73
4
 74
0
 40
0
 40
0
 40
0
 40
0
 40
1
 40
1
 40
1
 40
1
 10
141.531102
 20
337.481251
 30
0.0
 10
141.531102
 20
336.937200
 30
0.0
 10
141.245183
 20
336.434474
 30
0.0
 10
140.781097
 20
336.162449
 30
0.0
  0
SPLINE
  5
17a
100
AcDbEntity
  8
Layer_1
 62
7
100
AcDbSpline
 70
8
 71
3
 72
8
 73
4
 74
0
 40
0
 40
0
 40
0
 40
0
 40
1
 40
1
 40
1
 40
1
 10
140.781097
 20
336.162449
 30
0.0
 10
140.317010
 20
335.890421
 30
0.0
 10
139.745200
 20
335.890421
 30
0.0
 10
139.281114
 20
336.162449
 30
0.0
  0
SPLINE
  5
17b
100
AcDbEntity
  8
Layer_1
 62
7
100
AcDbSpline
 70
8
 71
3
 72
8
 73
4
 74
0
 40
0
 40
0
 40
0
 40
0
 40
1
 40
1
 40
1
 40
1
 10
139.281114
 20
336.162449
 30
0.0
 10
138.816999
 20
336.434474
 30
0.0
 10
138.531108
 20
336.937200
 30
0.0
 10
138.531108
 20
337.481251
 30
0.0
  0
SPLINE
  5
17c
100
AcDbEntity
  8
Layer_1
 62
7
100
AcDbSpline
 70
8
 71
3
 72
8
 73
4
 74
0
 40
0
 40
0
 40
0
 40
0
 40
1
 40
1
 40
1
 40
1
 10
138.531108
 20
337.481251
 30
0.0
 10
138.531108
 20
338.025305
 30
0.0
 10
138.816999
 20
338.528030
 30
0.0
 10
139.281114
 20
338.800056
 30
0.0
  0
SPLINE
  5
17d
100
AcDbEntity
  8
Layer_1
 62
7
100
AcDbSpline
 70
8
 71
3
 72
8
 73
4
 74
0
 40
0
 40
0
 40
0
 40
0
 40
1
 40
1
 40
1
 40
1
 10
139.281114
 20
338.800056
 30
0.0
 10
139.745200
 20
339.072081
 30
0.0
 10
140.317010
 20
339.072081
 30
0.0
 10
140.781097
 20
338.800056
 30
0.0
  0
LINE
  5
17e
100
AcDbEntity
  8
Layer_1
 62
7
100
AcDbLine
 10
141.531102
 20
337.481251
 30
0.0
 11
141.531102
 21
337.481251
 31
0.0
  0
SPLINE
  5
17f
100
AcDbEntity
  8
Layer_1
 62
7
100
AcDbSpline
 70
8
 71
3
 72
8
 73
4
 74
0
 40
0
 40
0
 40
0
 40
0
 40
1
 40
1
 40
1
 40
1
 10
140.781097
 20
338.800056
 30
0.0
 10
141.245183
 20
338.528030
 30
0.0
 10
141.531102
 20
338.025305
 30
0.0
 10
141.531102
 20
337.481251
 30
0.0
  0
SPLINE
  5
180
100
AcDbEntity
  8
Layer_1
 62
7
100
AcDbSpline
 70
8
 71
3
 72
8
 73
4
 74
0
 40
0
 40
0
 40
0
 40
0
 40
1
 40
1
 40
1
 40
1
 10
221.798065
 20
417.748217
 30
0.0
 10
221.798065
 20
417.204163
 30
0.0
 10
221.512146
 20
416.701438
 30
0.0
 10
221.048060
 20
416.429412
 30
0.0
  0
SPLINE
  5
181
100
AcDbEntity
  8
Layer_1
 62
7
100
AcDbSpline
 70
8
 71
3
 72
8
 73
4
 74
0
 40
0
 40
0
 40
0
 40
0
 40
1
 40
1
 40
1
 40
1
 10
221.048060
 20
416.429412
 30
0.0
 10
220.583974
 20
416.157387
 30
0.0
 10
220.012163
 20
416.157387
 30
0.0
 10
219.548077
 20
416.429412
 30
0.0
  0
SPLINE
  5
182
100
AcDbEntity
  8
Layer_1
 62
7
100
AcDbSpline
 70
8
 71
3
 72
8
 73
4
 74
0
 40
0
 40
0
 40
0
 40
0
 40
1
 40
1
 40
1
 40
1
 10
219.548077
 20
416.429412
 30
0.0
 10
219.083963
 20
416.701438
 30
0.0
 10
218.798071
 20
417.204163
 30
0.0
 10
218.798071
 20
417.748217
 30
0.0
  0
SPLINE
  5
183
100
AcDbEntity
  8
Layer_1
 62
7
100
AcDbSpline
 70
8
 71
3
 72
8
 73
4
 74
0
 40
0
 40
0
 40
0
 40
0
 40
1
 40
1
 40
1
 40
1
 10
218.798071
 20
417.748217
 30
0.0
 10
218.798071
 20
418.292268
 30
0.0
 10
219.083963
 20
418.794993
 30
0.0
 10
219.548077
 20
419.067019
 30
0.0
  0
SPLINE
  5
184
100
AcDbEntity
  8
Layer_1
 62
7
100
AcDbSpline
 70
8
 71
3
 72
8
 73
4
 74
0
 40
0
 40
0
 40
0
 40
0
 40
1
 40
1
 40
1
 40
1
 10
219.548077
 20
419.067019
 30
0.0
 10
220.012163
 20
419.339047
 30
0.0
 10
220.583974
 20
419.339047
 30
0.0
 10
221.048060
 20
419.067019
 30
0.0
  0
LINE
  5
185
100
AcDbEntity
  8
Layer_1
 62
7
100
AcDbLine
 10
221.798065
 20
417.748217
 30
0.0
 11
221.798065
 21
417.748217
 31
0.0
  0
SPLINE
  5
186
100
AcDbEntity
  8
Layer_1
 62
7
100
AcDbSpline
 70
8
 71
3
 72
8
 73
4
 74
0
 40
0
 40
0
 40
0
 40
0
 40
1
 40
1
 40
1
 40
1
 10
221.048060
 20
419.067019
 30
0.0
 10
221.512146
 20
418.794993
 30
0.0
 10
221.798065
 20
418.292268
 30
0.0
 10
221.798065
 20
417.748217
 30
0.0
  0
SPLINE
  5
187
100
AcDbEntity
  8
Layer_1
 62
7
100
AcDbSpline
 70
8
 71
3
 72
8
 73
4
 74
0
 40
0
 40
0
 40
0
 40
0
 40
1
 40
1
 40
1
 40
1
 10
226.814989
 20
372.598337
 30
0.0
 10
226.814989
 20
372.054286
 30
0.0
 10
226.529069
 20
371.551561
 30
0.0
 10
226.064983
 20
371.279535
 30
0.0
  0
SPLINE
  5
188
100
AcDbEntity
  8
Layer_1
 62
7
100
AcDbSpline
 70
8
 71
3
 72
8
 73
4
 74
0
 40
0
 40
0
 40
0
 40
0
 40
1
 40
1
 40
1
 40
1
 10
226.064983
 20
371.279535
 30
0.0
 10
225.600897
 20
371.007507
 30
0.0
 10
225.029087
 20
371.007507
 30
0.0
 10
224.565000
 20
371.279535
 30
0.0
  0
SPLINE
  5
189
100
AcDbEntity
  8
Layer_1
 62
7
100
AcDbSpline
 70
8
 71
3
 72
8
 73
4
 74
0
 40
0
 40
0
 40
0
 40
0
 40
1
 40
1
 40
1
 40
1
 10
224.565000
 20
371.279535
 30
0.0
 10
224.100886
 20
371.551561
 30
0.0
 10
223.814995
 20
372.054286
 30
0.0
 10
223.814995
 20
372.598337
 30
0.0
  0
SPLINE
  5
18a
100
AcDbEntity
  8
Layer_1
 62
7
100
AcDbSpline
 70
8
 71
3
 72
8
 73
4
 74
0
 40
0
 40
0
 40
0
 40
0
 40
1
 40
1
 40
1
 40
1
 10
223.814995
 20
372.598337
 30
0.0
 10
223.814995
 20
373.142391
 30
0.0
 10
224.100886
 20
373.645116
 30
0.0
 10
224.565000
 20
373.917142
 30
0.0
  0
SPLINE
  5
18b
100
AcDbEntity
  8
Layer_1
 62
7
100
AcDbSpline
 70
8
 71
3
 72
8
 73
4
 74
0
 40
0
 40
0
 40
0
 40
0
 40
1
 40
1
 40
1
 40
1
 10
224.565000
 20
373.917142
 30
0.0
 10
225.029087
 20
374.189167
 30
0.0
 10
225.600897
 20
374.189167
 30
0.0
 10
226.064983
 20
373.917142
 30
0.0
  0
LINE
  5
18c
100
AcDbEntity
  8
Layer_1
 62
7
100
AcDbLine
 10
226.814989
 20
372.598337
 30
0.0
 11
226.814989
 21
372.598337
 31
0.0
  0
SPLINE
  5
18d
100
AcDbEntity
  8
Layer_1
 62
7
100
AcDbSpline
 70
8
 71
3
 72
8
 73
4
 74
0
 40
0
 40
0
 40
0
 40
0
 40
1
 40
1
 40
1
 40
1
 10
226.064983
 20
373.917142
 30
0.0
 10
226.529069
 20
373.645116
 30
0.0
 10
226.814989
 20
373.142391
 30
0.0
 10
226.814989
 20
372.598337
 30
0.0
  0
SPLINE
  5
18e
100
AcDbEntity
  8
Layer_1
 62
7
100
AcDbSpline
 70
8
 71
3
 72
8
 73
4
 74
0
 40
0
 40
0
 40
0
 40
0
 40
1
 40
1
 40
1
 40
1
 10
221.798065
 20
337.481251
 30
0.0
 10
221.798065
 20
336.937200
 30
0.0
 10
221.512146
 20
336.434474
 30
0.0
 10
221.048060
 20
336.162449
 30
0.0
  0
SPLINE
  5
18f
100
AcDbEntity
  8
Layer_1
 62
7
100
AcDbSpline
 70
8
 71
3
 72
8
 73
4
 74
0
 40
0
 40
0
 40
0
 40
0
 40
1
 40
1
 40
1
 40
1
 10
221.048060
 20
336.162449
 30
0.0
 10
220.583974
 20
335.890421
 30
0.0
 10
220.012163
 20
335.890421
 30
0.0
 10
219.548077
 20
336.162449
 30
0.0
  0
SPLINE
  5
190
100
AcDbEntity
  8
Layer_1
 62
7
100
AcDbSpline
 70
8
 71
3
 72
8
 73
4
 74
0
 40
0
 40
0
 40
0
 40
0
 40
1
 40
1
 40
1
 40
1
 10
219.548077
 20
336.162449
 30
0.0
 10
219.083963
 20
336.434474
 30
0.0
 10
218.798071
 20
336.937200
 30
0.0
 10
218.798071
 20
337.481251
 30
0.0
  0
SPLINE
  5
191
100
AcDbEntity
  8
Layer_1
 62
7
100
AcDbSpline
 70
8
 71
3
 72
8
 73
4
 74
0
 40
0
 40
0
 40
0
 40
0
 40
1
 40
1
 40
1
 40
1
 10
218.798071
 20
337.481251
 30
0.0
 10
218.798071
 20
338.025305
 30
0.0
 10
219.083963
 20
338.528030
 30
0.0
 10
219.548077
 20
338.800056
 30
0.0
  0
SPLINE
  5
192
100
AcDbEntity
  8
Layer_1
 62
7
100
AcDbSpline
 70
8
 71
3
 72
8
 73
4
 74
0
 40
0
 40
0
 40
0
 40
0
 40
1
 40
1
 40
1
 40
1
 10
219.548077
 20
338.800056
 30
0.0
 10
220.012163
 20
339.072081
 30
0.0
 10
220.583974
 20
339.072081
 30
0.0
 10
221.048060
 20
338.800056
 30
0.0
  0
SPLINE
  5
193
100
AcDbEntity
  8
Layer_1
 62
7
100
AcDbSpline
 70
8
 71
3
 72
8
 73
4
 74
0
 40
0
 40
0
 40
0
 40
0
 40
1
 40
1
 40
1
 40
1
 10
221.048060
 20
338.800056
 30
0.0
 10
221.512146
 20
338.528030
 30
0.0
 10
221.798065
 20
338.025305
 30
0.0
 10
221.798065
 20
337.481251
 30
0.0
  0
LINE
  5
194
100
AcDbEntity
  8
Layer_1
 62
7
100
AcDbLine
 10
221.798065
 20
337.481251
 30
0.0
 11
221.798065
 21
337.481251
 31
0.0
  0
ENDSEC
  0
SECTION
  2
OBJECTS
  0
DICTIONARY
  5
C
330
0
100
AcDbDictionary
  3
ACAD_GROUP
350
D
  3
ACAD_MLINESTYLE
350
17
  0
DICTIONARY
  5
D
330
C
100
AcDbDictionary
  0
DICTIONARY
  5
1A
330
C
100
AcDbDictionary
  0
DICTIONARY
  5
17
330
C
100
AcDbDictionary
  3
STANDARD
350
18
  0
DICTIONARY
  5
19
330
C
100
AcDbDictionary
  0
ENDSEC
  0
EOF
