  0
SECTION
  2
HEADER
  9
$ACADVER
  1
AC1014
  9
$HANDSEED
  5
FFFF
  9
$MEASUREMENT
 70
     1
  0
ENDSEC
  0
SECTION
  2
TABLES
  0
TABLE
  2
VPORT
  5
8
330
0
100
AcDbSymbolTable
 70
     4
  0
VPORT
  5
2E
330
8
100
AcDbSymbolTableRecord
100
AcDbViewportTableRecord
  2
*ACTIVE
 70
     0
 10
0.0
 20
0.0
 11
1.0
 21
1.0
 12
210.0
 22
148.5
 13
0.0
 23
0.0
 14
10.0
 24
10.0
 15
10.0
 25
10.0
 16
0.0
 26
0.0
 36
1.0
 17
0.0
 27
0.0
 37
0.0
 40
341.0
 41
1.24
 42
50.0
 43
0.0
 44
0.0
 50
0.0
 51
0.0
 71
     0
 72
   100
 73
     1
 74
     3
 75
     0
 76
     0
 77
     0
 78
     0
  0
ENDTAB
  0
TABLE
  2
LTYPE
  5
5
330
0
100
AcDbSymbolTable
 70
     1
  0
LTYPE
  5
14
330
5
100
AcDbSymbolTableRecord
100
AcDbLinetypeTableRecord
  2
BYBLOCK
 70
     0
  3

 72
    65
 73
     0
 40
0.0
  0
LTYPE
  5
15
330
5
100
AcDbSymbolTableRecord
100
AcDbLinetypeTableRecord
  2
BYLAYER
 70
     0
  3

 72
    65
 73
     0
 40
0.0
  0
LTYPE
  5
16
330
5
100
AcDbSymbolTableRecord
100
AcDbLinetypeTableRecord
  2
CONTINUOUS
 70
     0
  3
Solid line
 72
    65
 73
     0
 40
0.0
  0
ENDTAB
  0
TABLE
  2
LAYER
  5
2
100
AcDbSymbolTable
 70
2
  0
LAYER
  5
50
100
AcDbSymbolTableRecord
100
AcDbLayerTableRecord
  2
0
 70
0
  6
CONTINUOUS
  0
LAYER
  5
51
100
AcDbSymbolTableRecord
100
AcDbLayerTableRecord
  2
Layer_1
 70
0
  6
CONTINUOUS
  0
ENDTAB
  0
TABLE
  2
STYLE
  5
3
330
0
100
AcDbSymbolTable
 70
     1
  0
STYLE
  5
11
330
3
100
AcDbSymbolTableRecord
100
AcDbTextStyleTableRecord
  2
STANDARD
 70
     0
 40
0.0
 41
1.0
 50
0.0
 71
     0
 42
2.5
  3
txt
  4

  0
ENDTAB
  0
TABLE
  2
VIEW
  5
6
330
0
100
AcDbSymbolTable
 70
     0
  0
ENDTAB
  0
TABLE
  2
UCS
  5
7
330
0
100
AcDbSymbolTable
 70
     0
  0
ENDTAB
  0
TABLE
  2
APPID
  5
9
330
0
100
AcDbSymbolTable
 70
     2
  0
APPID
  5
12
330
9
100
AcDbSymbolTableRecord
100
AcDbRegAppTableRecord
  2
ACAD
 70
     0
  0
ENDTAB
  0
TABLE
  2
DIMSTYLE
  5
A
330
0
100
AcDbSymbolTable
 70
     1
  0
DIMSTYLE
105
27
330
A
100
AcDbSymbolTableRecord
100
AcDbDimStyleTableRecord
  2
ISO-25
 70
     0
  3

  4

  5

  6

  7

 40
1.0
 41
2.5
 42
0.625
 43
3.75
 44
1.25
 45
0.0
 46
0.0
 47
0.0
 48
0.0
140
2.5
141
2.5
142
0.0
143
0.03937007874016
144
1.0
145
0.0
146
1.0
147
0.625
 71
     0
 72
     0
 73
     0
 74
     0
 75
     0
 76
     0
 77
     1
 78
     8
170
     0
171
     3
172
     1
173
     0
174
     0
175
     0
176
     0
177
     0
178
     0
270
     2
271
     2
272
     2
273
     2
274
     3
340
11
275
     0
280
     0
281
     0
282
     0
283
     0
284
     8
285
     0
286
     0
287
     3
288
     0
  0
ENDTAB
  0
TABLE
  2
BLOCK_RECORD
  5
1
330
0
100
AcDbSymbolTable
 70
     1
  0
BLOCK_RECORD
  5
1F
330
1
100
AcDbSymbolTableRecord
100
AcDbBlockTableRecord
  2
*MODEL_SPACE
  0
BLOCK_RECORD
  5
1B
330
1
100
AcDbSymbolTableRecord
100
AcDbBlockTableRecord
  2
*PAPER_SPACE
  0
ENDTAB
  0
ENDSEC
  0
SECTION
  2
BLOCKS
  0
BLOCK
  5
20
330
1F
100
AcDbEntity
  8
0
100
AcDbBlockBegin
  2
*MODEL_SPACE
 70
     0
 10
0.0
 20
0.0
 30
0.0
  3
*MODEL_SPACE
  1

  0
ENDBLK
  5
21
330
1F
100
AcDbEntity
  8
0
100
AcDbBlockEnd
  0
BLOCK
  5
1C
330
1B
100
AcDbEntity
 67
     1
  8
0
100
AcDbBlockBegin
  2
*PAPER_SPACE
  1

  0
ENDBLK
  5
1D
330
1B
100
AcDbEntity
 67
     1
  8
0
100
AcDbBlockEnd
  0
ENDSEC
  0
SECTION
  2
ENTITIES
  0
LINE
  5
100
100
AcDbEntity
  8
Layer_1
 62
7
100
AcDbLine
 10
377.371412
 20
313.993653
 30
0.0
 11
387.371412
 21
313.993653
 31
0.0
  0
LINE
  5
101
100
AcDbEntity
  8
Layer_1
 62
7
100
AcDbLine
 10
387.371412
 20
313.993653
 30
0.0
 11
387.371412
 21
303.993653
 31
0.0
  0
LINE
  5
102
100
AcDbEntity
  8
Layer_1
 62
7
100
AcDbLine
 10
387.371412
 20
303.993653
 30
0.0
 11
377.371412
 21
303.993653
 31
0.0
  0
LINE
  5
103
100
AcDbEntity
  8
Layer_1
 62
7
100
AcDbLine
 10
377.371412
 20
303.993653
 30
0.0
 11
377.371412
 21
313.993653
 31
0.0
  0
SPLINE
  5
104
100
AcDbEntity
  8
Layer_1
 62
7
100
AcDbSpline
 70
8
 71
3
 72
8
 73
4
 74
0
 40
0
 40
0
 40
0
 40
0
 40
1
 40
1
 40
1
 40
1
 10
161.920157
 20
360.884757
 30
0.0
 10
161.534726
 20
360.884757
 30
0.0
 10
161.139333
 20
361.059255
 30
0.0
 10
160.835662
 20
361.363302
 30
0.0
  0
SPLINE
  5
105
100
AcDbEntity
  8
Layer_1
 62
7
100
AcDbSpline
 70
8
 71
3
 72
8
 73
4
 74
0
 40
0
 40
0
 40
0
 40
0
 40
1
 40
1
 40
1
 40
1
 10
160.835662
 20
361.363302
 30
0.0
 10
160.277821
 20
361.921131
 30
0.0
 10
160.198178
 20
362.749383
 30
0.0
 10
160.658313
 20
363.209521
 30
0.0
  0
LINE
  5
106
100
AcDbEntity
  8
Layer_1
 62
7
100
AcDbLine
 10
160.658313
 20
363.209521
 30
0.0
 11
197.651353
 21
400.201852
 31
0.0
  0
SPLINE
  5
107
100
AcDbEntity
  8
Layer_1
 62
7
100
AcDbSpline
 70
8
 71
3
 72
8
 73
4
 74
0
 40
0
 40
0
 40
0
 40
0
 40
1
 40
1
 40
1
 40
1
 10
197.651353
 20
400.201852
 30
0.0
 10
197.845324
 20
400.395818
 30
0.0
 10
198.115750
 20
400.502357
 30
0.0
 10
198.413071
 20
400.502357
 30
0.0
  0
SPLINE
  5
108
100
AcDbEntity
  8
Layer_1
 62
7
100
AcDbSpline
 70
8
 71
3
 72
8
 73
4
 74
0
 40
0
 40
0
 40
0
 40
0
 40
1
 40
1
 40
1
 40
1
 10
198.413071
 20
400.502357
 30
0.0
 10
198.798530
 20
400.502357
 30
0.0
 10
199.193895
 20
400.328209
 30
0.0
 10
199.497566
 20
400.024168
 30
0.0
  0
SPLINE
  5
109
100
AcDbEntity
  8
Layer_1
 62
7
100
AcDbSpline
 70
8
 71
3
 72
8
 73
4
 74
0
 40
0
 40
0
 40
0
 40
0
 40
1
 40
1
 40
1
 40
1
 10
199.497566
 20
400.024168
 30
0.0
 10
200.055407
 20
399.465980
 30
0.0
 10
200.135050
 20
398.637731
 30
0.0
 10
199.674915
 20
398.177591
 30
0.0
  0
LINE
  5
10a
100
AcDbEntity
  8
Layer_1
 62
7
100
AcDbLine
 10
199.674915
 20
398.177591
 30
0.0
 11
162.682242
 21
361.185618
 31
0.0
  0
SPLINE
  5
10b
100
AcDbEntity
  8
Layer_1
 62
7
100
AcDbSpline
 70
8
 71
3
 72
8
 73
4
 74
0
 40
0
 40
0
 40
0
 40
0
 40
1
 40
1
 40
1
 40
1
 10
162.682242
 20
361.185618
 30
0.0
 10
162.488270
 20
360.991649
 30
0.0
 10
162.217845
 20
360.884757
 30
0.0
 10
161.920157
 20
360.884757
 30
0.0
  0
LINE
  5
10c
100
AcDbEntity
  8
Layer_1
 62
7
100
AcDbLine
 10
161.920157
 20
360.884757
 30
0.0
 11
161.920157
 21
360.884757
 31
0.0
  0
SPLINE
  5
10d
100
AcDbEntity
  8
Layer_1
 62
7
100
AcDbSpline
 70
8
 71
3
 72
8
 73
4
 74
0
 40
0
 40
0
 40
0
 40
0
 40
1
 40
1
 40
1
 40
1
 10
161.920157
 20
368.911699
 30
0.0
 10
161.534726
 20
368.911699
 30
0.0
 10
161.139333
 20
369.086203
 30
0.0
 10
160.835662
 20
369.390247
 30
0.0
  0
SPLINE
  5
10e
100
AcDbEntity
  8
Layer_1
 62
7
100
AcDbSpline
 70
8
 71
3
 72
8
 73
4
 74
0
 40
0
 40
0
 40
0
 40
0
 40
1
 40
1
 40
1
 40
1
 10
160.835662
 20
369.390247
 30
0.0
 10
160.570542
 20
369.655358
 30
0.0
 10
160.403467
 20
369.988784
 30
0.0
 10
160.365592
 20
370.330349
 30
0.0
  0
SPLINE
  5
10f
100
AcDbEntity
  8
Layer_1
 62
7
100
AcDbSpline
 70
8
 71
3
 72
8
 73
4
 74
0
 40
0
 40
0
 40
0
 40
0
 40
1
 40
1
 40
1
 40
1
 10
160.365592
 20
370.330349
 30
0.0
 10
160.325968
 20
370.686070
 30
0.0
 10
160.430024
 20
371.007812
 30
0.0
 10
160.657975
 20
371.236113
 30
0.0
  0
LINE
  5
110
100
AcDbEntity
  8
Layer_1
 62
7
100
AcDbLine
 10
160.657975
 20
371.236113
 30
0.0
 11
195.644443
 21
406.222233
 31
0.0
  0
SPLINE
  5
111
100
AcDbEntity
  8
Layer_1
 62
7
100
AcDbSpline
 70
8
 71
3
 72
8
 73
4
 74
0
 40
0
 40
0
 40
0
 40
0
 40
1
 40
1
 40
1
 40
1
 10
195.644443
 20
406.222233
 30
0.0
 10
195.838414
 20
406.416205
 30
0.0
 10
196.108839
 20
406.522744
 30
0.0
 10
196.406160
 20
406.522744
 30
0.0
  0
SPLINE
  5
112
100
AcDbEntity
  8
Layer_1
 62
7
100
AcDbSpline
 70
8
 71
3
 72
8
 73
4
 74
0
 40
0
 40
0
 40
0
 40
0
 40
1
 40
1
 40
1
 40
1
 10
196.406160
 20
406.522744
 30
0.0
 10
196.791620
 20
406.522744
 30
0.0
 10
197.186985
 20
406.348596
 30
0.0
 10
197.490656
 20
406.044552
 30
0.0
  0
SPLINE
  5
113
100
AcDbEntity
  8
Layer_1
 62
7
100
AcDbSpline
 70
8
 71
3
 72
8
 73
4
 74
0
 40
0
 40
0
 40
0
 40
0
 40
1
 40
1
 40
1
 40
1
 10
197.490656
 20
406.044552
 30
0.0
 10
198.048496
 20
405.486364
 30
0.0
 10
198.128139
 20
404.658116
 30
0.0
 10
197.668004
 20
404.197978
 30
0.0
  0
LINE
  5
114
100
AcDbEntity
  8
Layer_1
 62
7
100
AcDbLine
 10
197.668004
 20
404.197978
 30
0.0
 11
162.681508
 21
369.212210
 31
0.0
  0
SPLINE
  5
115
100
AcDbEntity
  8
Layer_1
 62
7
100
AcDbSpline
 70
8
 71
3
 72
8
 73
4
 74
0
 40
0
 40
0
 40
0
 40
0
 40
1
 40
1
 40
1
 40
1
 10
162.681508
 20
369.212210
 30
0.0
 10
162.488270
 20
369.018244
 30
0.0
 10
162.217845
 20
368.911699
 30
0.0
 10
161.920157
 20
368.911699
 30
0.0
  0
LINE
  5
116
100
AcDbEntity
  8
Layer_1
 62
7
100
AcDbLine
 10
161.920157
 20
368.911699
 30
0.0
 11
161.920157
 21
368.911699
 31
0.0
  0
SPLINE
  5
117
100
AcDbEntity
  8
Layer_1
 62
7
100
AcDbSpline
 70
8
 71
3
 72
8
 73
4
 74
0
 40
0
 40
0
 40
0
 40
0
 40
1
 40
1
 40
1
 40
1
 10
161.920157
 20
376.937586
 30
0.0
 10
161.534726
 20
376.937586
 30
0.0
 10
161.139333
 20
377.111731
 30
0.0
 10
160.835662
 20
377.415775
 30
0.0
  0
SPLINE
  5
118
100
AcDbEntity
  8
Layer_1
 62
7
100
AcDbSpline
 70
8
 71
3
 72
8
 73
4
 74
0
 40
0
 40
0
 40
0
 40
0
 40
1
 40
1
 40
1
 40
1
 10
160.835662
 20
377.415775
 30
0.0
 10
160.277821
 20
377.973607
 30
0.0
 10
160.198178
 20
378.801855
 30
0.0
 10
160.658313
 20
379.261996
 30
0.0
  0
LINE
  5
119
100
AcDbEntity
  8
Layer_1
 62
7
100
AcDbLine
 10
160.658313
 20
379.261996
 30
0.0
 11
187.617845
 21
406.221881
 31
0.0
  0
SPLINE
  5
11a
100
AcDbEntity
  8
Layer_1
 62
7
100
AcDbSpline
 70
8
 71
3
 72
8
 73
4
 74
0
 40
0
 40
0
 40
0
 40
0
 40
1
 40
1
 40
1
 40
1
 10
187.617845
 20
406.221881
 30
0.0
 10
187.811816
 20
406.415846
 30
0.0
 10
188.082242
 20
406.522385
 30
0.0
 10
188.379563
 20
406.522385
 30
0.0
  0
SPLINE
  5
11b
100
AcDbEntity
  8
Layer_1
 62
7
100
AcDbSpline
 70
8
 71
3
 72
8
 73
4
 74
0
 40
0
 40
0
 40
0
 40
0
 40
1
 40
1
 40
1
 40
1
 10
188.379563
 20
406.522385
 30
0.0
 10
188.765022
 20
406.522385
 30
0.0
 10
189.160387
 20
406.348243
 30
0.0
 10
189.464086
 20
406.044194
 30
0.0
  0
SPLINE
  5
11c
100
AcDbEntity
  8
Layer_1
 62
7
100
AcDbSpline
 70
8
 71
3
 72
8
 73
4
 74
0
 40
0
 40
0
 40
0
 40
0
 40
1
 40
1
 40
1
 40
1
 10
189.464086
 20
406.044194
 30
0.0
 10
190.021899
 20
405.486012
 30
0.0
 10
190.101542
 20
404.657766
 30
0.0
 10
189.641407
 20
404.197628
 30
0.0
  0
LINE
  5
11d
100
AcDbEntity
  8
Layer_1
 62
7
100
AcDbLine
 10
189.641407
 20
404.197628
 30
0.0
 11
162.681875
 21
377.238093
 31
0.0
  0
SPLINE
  5
11e
100
AcDbEntity
  8
Layer_1
 62
7
100
AcDbSpline
 70
8
 71
3
 72
8
 73
4
 74
0
 40
0
 40
0
 40
0
 40
0
 40
1
 40
1
 40
1
 40
1
 10
162.681875
 20
377.238093
 30
0.0
 10
162.488270
 20
377.044483
 30
0.0
 10
162.217478
 20
376.937586
 30
0.0
 10
161.920157
 20
376.937586
 30
0.0
  0
LINE
  5
11f
100
AcDbEntity
  8
Layer_1
 62
7
100
AcDbLine
 10
161.920157
 20
376.937586
 30
0.0
 11
161.920157
 21
376.937586
 31
0.0
  0
SPLINE
  5
120
100
AcDbEntity
  8
Layer_1
 62
7
100
AcDbSpline
 70
8
 71
3
 72
8
 73
4
 74
0
 40
0
 40
0
 40
0
 40
0
 40
1
 40
1
 40
1
 40
1
 10
161.920157
 20
384.964528
 30
0.0
 10
161.534726
 20
384.964528
 30
0.0
 10
161.139333
 20
385.139026
 30
0.0
 10
160.835662
 20
385.442719
 30
0.0
  0
SPLINE
  5
121
100
AcDbEntity
  8
Layer_1
 62
7
100
AcDbSpline
 70
8
 71
3
 72
8
 73
4
 74
0
 40
0
 40
0
 40
0
 40
0
 40
1
 40
1
 40
1
 40
1
 10
160.835662
 20
385.442719
 30
0.0
 10
160.277821
 20
386.000548
 30
0.0
 10
160.198178
 20
386.829156
 30
0.0
 10
160.658313
 20
387.288938
 30
0.0
  0
LINE
  5
122
100
AcDbEntity
  8
Layer_1
 62
7
100
AcDbLine
 10
160.658313
 20
387.288938
 30
0.0
 11
179.591276
 21
406.221881
 31
0.0
  0
SPLINE
  5
123
100
AcDbEntity
  8
Layer_1
 62
7
100
AcDbSpline
 70
8
 71
3
 72
8
 73
4
 74
0
 40
0
 40
0
 40
0
 40
0
 40
1
 40
1
 40
1
 40
1
 10
179.591276
 20
406.221881
 30
0.0
 10
179.785219
 20
406.415846
 30
0.0
 10
180.055644
 20
406.522385
 30
0.0
 10
180.352965
 20
406.522385
 30
0.0
  0
SPLINE
  5
124
100
AcDbEntity
  8
Layer_1
 62
7
100
AcDbSpline
 70
8
 71
3
 72
8
 73
4
 74
0
 40
0
 40
0
 40
0
 40
0
 40
1
 40
1
 40
1
 40
1
 10
180.352965
 20
406.522385
 30
0.0
 10
180.738424
 20
406.522385
 30
0.0
 10
181.133790
 20
406.348243
 30
0.0
 10
181.437489
 20
406.044194
 30
0.0
  0
SPLINE
  5
125
100
AcDbEntity
  8
Layer_1
 62
7
100
AcDbSpline
 70
8
 71
3
 72
8
 73
4
 74
0
 40
0
 40
0
 40
0
 40
0
 40
1
 40
1
 40
1
 40
1
 10
181.437489
 20
406.044194
 30
0.0
 10
181.995301
 20
405.486012
 30
0.0
 10
182.074944
 20
404.657766
 30
0.0
 10
181.614809
 20
404.197628
 30
0.0
  0
LINE
  5
126
100
AcDbEntity
  8
Layer_1
 62
7
100
AcDbLine
 10
181.614809
 20
404.197628
 30
0.0
 11
162.681875
 21
385.264679
 31
0.0
  0
SPLINE
  5
127
100
AcDbEntity
  8
Layer_1
 62
7
100
AcDbSpline
 70
8
 71
3
 72
8
 73
4
 74
0
 40
0
 40
0
 40
0
 40
0
 40
1
 40
1
 40
1
 40
1
 10
162.681875
 20
385.264679
 30
0.0
 10
162.488270
 20
385.071066
 30
0.0
 10
162.217845
 20
384.964528
 30
0.0
 10
161.920157
 20
384.964528
 30
0.0
  0
LINE
  5
128
100
AcDbEntity
  8
Layer_1
 62
7
100
AcDbLine
 10
161.920157
 20
384.964528
 30
0.0
 11
161.920157
 21
384.964528
 31
0.0
  0
SPLINE
  5
129
100
AcDbEntity
  8
Layer_1
 62
7
100
AcDbSpline
 70
8
 71
3
 72
8
 73
4
 74
0
 40
0
 40
0
 40
0
 40
0
 40
1
 40
1
 40
1
 40
1
 10
161.920157
 20
392.991119
 30
0.0
 10
161.534726
 20
392.991119
 30
0.0
 10
161.139333
 20
393.165617
 30
0.0
 10
160.835662
 20
393.469311
 30
0.0
  0
SPLINE
  5
12a
100
AcDbEntity
  8
Layer_1
 62
7
100
AcDbSpline
 70
8
 71
3
 72
8
 73
4
 74
0
 40
0
 40
0
 40
0
 40
0
 40
1
 40
1
 40
1
 40
1
 10
160.835662
 20
393.469311
 30
0.0
 10
160.277821
 20
394.027138
 30
0.0
 10
160.198178
 20
394.855745
 30
0.0
 10
160.658313
 20
395.315530
 30
0.0
  0
LINE
  5
12b
100
AcDbEntity
  8
Layer_1
 62
7
100
AcDbLine
 10
160.658313
 20
395.315530
 30
0.0
 11
171.564311
 21
406.221531
 31
0.0
  0
SPLINE
  5
12c
100
AcDbEntity
  8
Layer_1
 62
7
100
AcDbSpline
 70
8
 71
3
 72
8
 73
4
 74
0
 40
0
 40
0
 40
0
 40
0
 40
1
 40
1
 40
1
 40
1
 10
171.564311
 20
406.221531
 30
0.0
 10
171.758283
 20
406.415494
 30
0.0
 10
172.028708
 20
406.522033
 30
0.0
 10
172.326029
 20
406.522033
 30
0.0
  0
SPLINE
  5
12d
100
AcDbEntity
  8
Layer_1
 62
7
100
AcDbSpline
 70
8
 71
3
 72
8
 73
4
 74
0
 40
0
 40
0
 40
0
 40
0
 40
1
 40
1
 40
1
 40
1
 10
172.326029
 20
406.522033
 30
0.0
 10
172.711488
 20
406.522033
 30
0.0
 10
173.106853
 20
406.347884
 30
0.0
 10
173.410553
 20
406.043844
 30
0.0
  0
SPLINE
  5
12e
100
AcDbEntity
  8
Layer_1
 62
7
100
AcDbSpline
 70
8
 71
3
 72
8
 73
4
 74
0
 40
0
 40
0
 40
0
 40
0
 40
1
 40
1
 40
1
 40
1
 10
173.410553
 20
406.043844
 30
0.0
 10
173.968365
 20
405.485659
 30
0.0
 10
174.048008
 20
404.657413
 30
0.0
 10
173.587873
 20
404.197272
 30
0.0
  0
LINE
  5
12f
100
AcDbEntity
  8
Layer_1
 62
7
100
AcDbLine
 10
173.587873
 20
404.197272
 30
0.0
 11
162.681875
 21
393.291274
 31
0.0
  0
SPLINE
  5
130
100
AcDbEntity
  8
Layer_1
 62
7
100
AcDbSpline
 70
8
 71
3
 72
8
 73
4
 74
0
 40
0
 40
0
 40
0
 40
0
 40
1
 40
1
 40
1
 40
1
 10
162.681875
 20
393.291274
 30
0.0
 10
162.488270
 20
393.098017
 30
0.0
 10
162.217845
 20
392.991119
 30
0.0
 10
161.920157
 20
392.991119
 30
0.0
  0
LINE
  5
131
100
AcDbEntity
  8
Layer_1
 62
7
100
AcDbLine
 10
161.920157
 20
392.991119
 30
0.0
 11
161.920157
 21
392.991119
 31
0.0
  0
SPLINE
  5
132
100
AcDbEntity
  8
Layer_1
 62
7
100
AcDbSpline
 70
8
 71
3
 72
8
 73
4
 74
0
 40
0
 40
0
 40
0
 40
0
 40
1
 40
1
 40
1
 40
1
 10
161.920157
 20
401.018061
 30
0.0
 10
161.534726
 20
401.018061
 30
0.0
 10
161.139333
 20
401.192565
 30
0.0
 10
160.835662
 20
401.496256
 30
0.0
  0
SPLINE
  5
133
100
AcDbEntity
  8
Layer_1
 62
7
100
AcDbSpline
 70
8
 71
3
 72
8
 73
4
 74
0
 40
0
 40
0
 40
0
 40
0
 40
1
 40
1
 40
1
 40
1
 10
160.835662
 20
401.496256
 30
0.0
 10
160.277821
 20
402.054085
 30
0.0
 10
160.198178
 20
402.882689
 30
0.0
 10
160.658313
 20
403.342475
 30
0.0
  0
LINE
  5
134
100
AcDbEntity
  8
Layer_1
 62
7
100
AcDbLine
 10
160.658313
 20
403.342475
 30
0.0
 11
163.537375
 21
406.221881
 31
0.0
  0
SPLINE
  5
135
100
AcDbEntity
  8
Layer_1
 62
7
100
AcDbSpline
 70
8
 71
3
 72
8
 73
4
 74
0
 40
0
 40
0
 40
0
 40
0
 40
1
 40
1
 40
1
 40
1
 10
163.537375
 20
406.221881
 30
0.0
 10
163.731346
 20
406.415846
 30
0.0
 10
164.001772
 20
406.522385
 30
0.0
 10
164.299093
 20
406.522385
 30
0.0
  0
SPLINE
  5
136
100
AcDbEntity
  8
Layer_1
 62
7
100
AcDbSpline
 70
8
 71
3
 72
8
 73
4
 74
0
 40
0
 40
0
 40
0
 40
0
 40
1
 40
1
 40
1
 40
1
 10
164.299093
 20
406.522385
 30
0.0
 10
164.684552
 20
406.522385
 30
0.0
 10
165.079917
 20
406.348243
 30
0.0
 10
165.383588
 20
406.044194
 30
0.0
  0
SPLINE
  5
137
100
AcDbEntity
  8
Layer_1
 62
7
100
AcDbSpline
 70
8
 71
3
 72
8
 73
4
 74
0
 40
0
 40
0
 40
0
 40
0
 40
1
 40
1
 40
1
 40
1
 10
165.383588
 20
406.044194
 30
0.0
 10
165.941429
 20
405.486012
 30
0.0
 10
166.021072
 20
404.657766
 30
0.0
 10
165.560937
 20
404.197628
 30
0.0
  0
LINE
  5
138
100
AcDbEntity
  8
Layer_1
 62
7
100
AcDbLine
 10
165.560937
 20
404.197628
 30
0.0
 11
162.681875
 21
401.318572
 31
0.0
  0
SPLINE
  5
139
100
AcDbEntity
  8
Layer_1
 62
7
100
AcDbSpline
 70
8
 71
3
 72
8
 73
4
 74
0
 40
0
 40
0
 40
0
 40
0
 40
1
 40
1
 40
1
 40
1
 10
162.681875
 20
401.318572
 30
0.0
 10
162.488270
 20
401.124959
 30
0.0
 10
162.217845
 20
401.018061
 30
0.0
 10
161.920157
 20
401.018061
 30
0.0
  0
LINE
  5
13a
100
AcDbEntity
  8
Layer_1
 62
7
100
AcDbLine
 10
161.920157
 20
401.018061
 30
0.0
 11
161.920157
 21
401.018061
 31
0.0
  0
SPLINE
  5
13b
100
AcDbEntity
  8
Layer_1
 62
7
100
AcDbSpline
 70
8
 71
3
 72
8
 73
4
 74
0
 40
0
 40
0
 40
0
 40
0
 40
1
 40
1
 40
1
 40
1
 10
161.920157
 20
352.858524
 30
0.0
 10
161.534726
 20
352.858524
 30
0.0
 10
161.139333
 20
353.033019
 30
0.0
 10
160.835662
 20
353.337066
 30
0.0
  0
SPLINE
  5
13c
100
AcDbEntity
  8
Layer_1
 62
7
100
AcDbSpline
 70
8
 71
3
 72
8
 73
4
 74
0
 40
0
 40
0
 40
0
 40
0
 40
1
 40
1
 40
1
 40
1
 10
160.835662
 20
353.337066
 30
0.0
 10
160.277821
 20
353.894898
 30
0.0
 10
160.198178
 20
354.723144
 30
0.0
 10
160.658313
 20
355.183282
 30
0.0
  0
LINE
  5
13d
100
AcDbEntity
  8
Layer_1
 62
7
100
AcDbLine
 10
160.658313
 20
355.183282
 30
0.0
 11
197.651353
 21
392.175613
 31
0.0
  0
SPLINE
  5
13e
100
AcDbEntity
  8
Layer_1
 62
7
100
AcDbSpline
 70
8
 71
3
 72
8
 73
4
 74
0
 40
0
 40
0
 40
0
 40
0
 40
1
 40
1
 40
1
 40
1
 10
197.651353
 20
392.175613
 30
0.0
 10
197.845324
 20
392.369579
 30
0.0
 10
198.115750
 20
392.476118
 30
0.0
 10
198.413071
 20
392.476118
 30
0.0
  0
SPLINE
  5
13f
100
AcDbEntity
  8
Layer_1
 62
7
100
AcDbSpline
 70
8
 71
3
 72
8
 73
4
 74
0
 40
0
 40
0
 40
0
 40
0
 40
1
 40
1
 40
1
 40
1
 10
198.413071
 20
392.476118
 30
0.0
 10
198.798530
 20
392.476118
 30
0.0
 10
199.193895
 20
392.301972
 30
0.0
 10
199.497566
 20
391.997932
 30
0.0
  0
SPLINE
  5
140
100
AcDbEntity
  8
Layer_1
 62
7
100
AcDbSpline
 70
8
 71
3
 72
8
 73
4
 74
0
 40
0
 40
0
 40
0
 40
0
 40
1
 40
1
 40
1
 40
1
 10
199.497566
 20
391.997932
 30
0.0
 10
200.055407
 20
391.439747
 30
0.0
 10
200.135050
 20
390.611495
 30
0.0
 10
199.674915
 20
390.151357
 30
0.0
  0
LINE
  5
141
100
AcDbEntity
  8
Layer_1
 62
7
100
AcDbLine
 10
199.674915
 20
390.151357
 30
0.0
 11
162.682242
 21
353.159379
 31
0.0
  0
SPLINE
  5
142
100
AcDbEntity
  8
Layer_1
 62
7
100
AcDbSpline
 70
8
 71
3
 72
8
 73
4
 74
0
 40
0
 40
0
 40
0
 40
0
 40
1
 40
1
 40
1
 40
1
 10
162.682242
 20
353.159379
 30
0.0
 10
162.488270
 20
352.965416
 30
0.0
 10
162.217845
 20
352.858524
 30
0.0
 10
161.920157
 20
352.858524
 30
0.0
  0
LINE
  5
143
100
AcDbEntity
  8
Layer_1
 62
7
100
AcDbLine
 10
161.920157
 20
352.858524
 30
0.0
 11
161.920157
 21
352.858524
 31
0.0
  0
SPLINE
  5
144
100
AcDbEntity
  8
Layer_1
 62
7
100
AcDbSpline
 70
8
 71
3
 72
8
 73
4
 74
0
 40
0
 40
0
 40
0
 40
0
 40
1
 40
1
 40
1
 40
1
 10
166.936375
 20
349.850986
 30
0.0
 10
166.550944
 20
349.850986
 30
0.0
 10
166.155579
 20
350.025129
 30
0.0
 10
165.851880
 20
350.329175
 30
0.0
  0
SPLINE
  5
145
100
AcDbEntity
  8
Layer_1
 62
7
100
AcDbSpline
 70
8
 71
3
 72
8
 73
4
 74
0
 40
0
 40
0
 40
0
 40
0
 40
1
 40
1
 40
1
 40
1
 10
165.851880
 20
350.329175
 30
0.0
 10
165.294039
 20
350.887001
 30
0.0
 10
165.214396
 20
351.715256
 30
0.0
 10
165.674531
 20
352.175747
 30
0.0
  0
LINE
  5
146
100
AcDbEntity
  8
Layer_1
 62
7
100
AcDbLine
 10
165.674531
 20
352.175747
 30
0.0
 11
197.651353
 21
384.151855
 31
0.0
  0
SPLINE
  5
147
100
AcDbEntity
  8
Layer_1
 62
7
100
AcDbSpline
 70
8
 71
3
 72
8
 73
4
 74
0
 40
0
 40
0
 40
0
 40
0
 40
1
 40
1
 40
1
 40
1
 10
197.651353
 20
384.151855
 30
0.0
 10
197.845324
 20
384.345817
 30
0.0
 10
198.115750
 20
384.452359
 30
0.0
 10
198.413071
 20
384.452359
 30
0.0
  0
SPLINE
  5
148
100
AcDbEntity
  8
Layer_1
 62
7
100
AcDbSpline
 70
8
 71
3
 72
8
 73
4
 74
0
 40
0
 40
0
 40
0
 40
0
 40
1
 40
1
 40
1
 40
1
 10
198.413071
 20
384.452359
 30
0.0
 10
198.798530
 20
384.452359
 30
0.0
 10
199.193895
 20
384.278217
 30
0.0
 10
199.497566
 20
383.974526
 30
0.0
  0
SPLINE
  5
149
100
AcDbEntity
  8
Layer_1
 62
7
100
AcDbSpline
 70
8
 71
3
 72
8
 73
4
 74
0
 40
0
 40
0
 40
0
 40
0
 40
1
 40
1
 40
1
 40
1
 10
199.497566
 20
383.974526
 30
0.0
 10
200.055407
 20
383.416341
 30
0.0
 10
200.135050
 20
382.588087
 30
0.0
 10
199.674915
 20
382.127952
 30
0.0
  0
LINE
  5
14a
100
AcDbEntity
  8
Layer_1
 62
7
100
AcDbLine
 10
199.674915
 20
382.127952
 30
0.0
 11
167.698093
 21
350.151844
 31
0.0
  0
SPLINE
  5
14b
100
AcDbEntity
  8
Layer_1
 62
7
100
AcDbSpline
 70
8
 71
3
 72
8
 73
4
 74
0
 40
0
 40
0
 40
0
 40
0
 40
1
 40
1
 40
1
 40
1
 10
167.698093
 20
350.151844
 30
0.0
 10
167.504488
 20
349.957878
 30
0.0
 10
167.233696
 20
349.850986
 30
0.0
 10
166.936375
 20
349.850986
 30
0.0
  0
LINE
  5
14c
100
AcDbEntity
  8
Layer_1
 62
7
100
AcDbLine
 10
166.936375
 20
349.850986
 30
0.0
 11
166.936375
 21
349.850986
 31
0.0
  0
SPLINE
  5
14d
100
AcDbEntity
  8
Layer_1
 62
7
100
AcDbSpline
 70
8
 71
3
 72
8
 73
4
 74
0
 40
0
 40
0
 40
0
 40
0
 40
1
 40
1
 40
1
 40
1
 10
174.962634
 20
349.850986
 30
0.0
 10
174.577175
 20
349.850986
 30
0.0
 10
174.181810
 20
350.025129
 30
0.0
 10
173.878110
 20
350.329175
 30
0.0
  0
SPLINE
  5
14e
100
AcDbEntity
  8
Layer_1
 62
7
100
AcDbSpline
 70
8
 71
3
 72
8
 73
4
 74
0
 40
0
 40
0
 40
0
 40
0
 40
1
 40
1
 40
1
 40
1
 10
173.878110
 20
350.329175
 30
0.0
 10
173.320270
 20
350.887001
 30
0.0
 10
173.240655
 20
351.715256
 30
0.0
 10
173.700790
 20
352.175747
 30
0.0
  0
LINE
  5
14f
100
AcDbEntity
  8
Layer_1
 62
7
100
AcDbLine
 10
173.700790
 20
352.175747
 30
0.0
 11
197.651353
 21
376.125615
 31
0.0
  0
SPLINE
  5
150
100
AcDbEntity
  8
Layer_1
 62
7
100
AcDbSpline
 70
8
 71
3
 72
8
 73
4
 74
0
 40
0
 40
0
 40
0
 40
0
 40
1
 40
1
 40
1
 40
1
 10
197.651353
 20
376.125615
 30
0.0
 10
197.845324
 20
376.319587
 30
0.0
 10
198.115750
 20
376.426476
 30
0.0
 10
198.413071
 20
376.426476
 30
0.0
  0
SPLINE
  5
151
100
AcDbEntity
  8
Layer_1
 62
7
100
AcDbSpline
 70
8
 71
3
 72
8
 73
4
 74
0
 40
0
 40
0
 40
0
 40
0
 40
1
 40
1
 40
1
 40
1
 10
198.413071
 20
376.426476
 30
0.0
 10
198.798530
 20
376.426476
 30
0.0
 10
199.193895
 20
376.252330
 30
0.0
 10
199.497566
 20
375.948287
 30
0.0
  0
SPLINE
  5
152
100
AcDbEntity
  8
Layer_1
 62
7
100
AcDbSpline
 70
8
 71
3
 72
8
 73
4
 74
0
 40
0
 40
0
 40
0
 40
0
 40
1
 40
1
 40
1
 40
1
 10
199.497566
 20
375.948287
 30
0.0
 10
200.055407
 20
375.390105
 30
0.0
 10
200.135050
 20
374.561850
 30
0.0
 10
199.674915
 20
374.101715
 30
0.0
  0
LINE
  5
153
100
AcDbEntity
  8
Layer_1
 62
7
100
AcDbLine
 10
199.674915
 20
374.101715
 30
0.0
 11
175.724323
 21
350.151844
 31
0.0
  0
SPLINE
  5
154
100
AcDbEntity
  8
Layer_1
 62
7
100
AcDbSpline
 70
8
 71
3
 72
8
 73
4
 74
0
 40
0
 40
0
 40
0
 40
0
 40
1
 40
1
 40
1
 40
1
 10
175.724323
 20
350.151844
 30
0.0
 10
175.530719
 20
349.957878
 30
0.0
 10
175.259955
 20
349.850986
 30
0.0
 10
174.962634
 20
349.850986
 30
0.0
  0
LINE
  5
155
100
AcDbEntity
  8
Layer_1
 62
7
100
AcDbLine
 10
174.962634
 20
349.850986
 30
0.0
 11
174.962634
 21
349.850986
 31
0.0
  0
SPLINE
  5
156
100
AcDbEntity
  8
Layer_1
 62
7
100
AcDbSpline
 70
8
 71
3
 72
8
 73
4
 74
0
 40
0
 40
0
 40
0
 40
0
 40
1
 40
1
 40
1
 40
1
 10
182.988864
 20
349.850986
 30
0.0
 10
182.603405
 20
349.850986
 30
0.0
 10
182.208040
 20
350.025129
 30
0.0
 10
181.904341
 20
350.329175
 30
0.0
  0
SPLINE
  5
157
100
AcDbEntity
  8
Layer_1
 62
7
100
AcDbSpline
 70
8
 71
3
 72
8
 73
4
 74
0
 40
0
 40
0
 40
0
 40
0
 40
1
 40
1
 40
1
 40
1
 10
181.904341
 20
350.329175
 30
0.0
 10
181.346529
 20
350.887001
 30
0.0
 10
181.266886
 20
351.715256
 30
0.0
 10
181.727021
 20
352.175747
 30
0.0
  0
LINE
  5
158
100
AcDbEntity
  8
Layer_1
 62
7
100
AcDbLine
 10
181.727021
 20
352.175747
 30
0.0
 11
197.651353
 21
368.100088
 31
0.0
  0
SPLINE
  5
159
100
AcDbEntity
  8
Layer_1
 62
7
100
AcDbSpline
 70
8
 71
3
 72
8
 73
4
 74
0
 40
0
 40
0
 40
0
 40
0
 40
1
 40
1
 40
1
 40
1
 10
197.651353
 20
368.100088
 30
0.0
 10
197.845324
 20
368.294056
 30
0.0
 10
198.115750
 20
368.400951
 30
0.0
 10
198.413071
 20
368.400951
 30
0.0
  0
SPLINE
  5
15a
100
AcDbEntity
  8
Layer_1
 62
7
100
AcDbSpline
 70
8
 71
3
 72
8
 73
4
 74
0
 40
0
 40
0
 40
0
 40
0
 40
1
 40
1
 40
1
 40
1
 10
198.413071
 20
368.400951
 30
0.0
 10
198.798530
 20
368.400951
 30
0.0
 10
199.193895
 20
368.226800
 30
0.0
 10
199.497566
 20
367.922759
 30
0.0
  0
SPLINE
  5
15b
100
AcDbEntity
  8
Layer_1
 62
7
100
AcDbSpline
 70
8
 71
3
 72
8
 73
4
 74
0
 40
0
 40
0
 40
0
 40
0
 40
1
 40
1
 40
1
 40
1
 10
199.497566
 20
367.922759
 30
0.0
 10
200.055407
 20
367.364571
 30
0.0
 10
200.135050
 20
366.536328
 30
0.0
 10
199.674915
 20
366.076184
 30
0.0
  0
LINE
  5
15c
100
AcDbEntity
  8
Layer_1
 62
7
100
AcDbLine
 10
199.674915
 20
366.076184
 30
0.0
 11
183.750554
 21
350.151844
 31
0.0
  0
SPLINE
  5
15d
100
AcDbEntity
  8
Layer_1
 62
7
100
AcDbSpline
 70
8
 71
3
 72
8
 73
4
 74
0
 40
0
 40
0
 40
0
 40
0
 40
1
 40
1
 40
1
 40
1
 10
183.750554
 20
350.151844
 30
0.0
 10
183.556950
 20
349.957878
 30
0.0
 10
183.286186
 20
349.850986
 30
0.0
 10
182.988864
 20
349.850986
 30
0.0
  0
LINE
  5
15e
100
AcDbEntity
  8
Layer_1
 62
7
100
AcDbLine
 10
182.988864
 20
349.850986
 30
0.0
 11
182.988864
 21
349.850986
 31
0.0
  0
SPLINE
  5
15f
100
AcDbEntity
  8
Layer_1
 62
7
100
AcDbSpline
 70
8
 71
3
 72
8
 73
4
 74
0
 40
0
 40
0
 40
0
 40
0
 40
1
 40
1
 40
1
 40
1
 10
191.015462
 20
349.851692
 30
0.0
 10
190.630003
 20
349.851692
 30
0.0
 10
190.234638
 20
350.025837
 30
0.0
 10
189.930938
 20
350.329881
 30
0.0
  0
SPLINE
  5
160
100
AcDbEntity
  8
Layer_1
 62
7
100
AcDbSpline
 70
8
 71
3
 72
8
 73
4
 74
0
 40
0
 40
0
 40
0
 40
0
 40
1
 40
1
 40
1
 40
1
 10
189.930938
 20
350.329881
 30
0.0
 10
189.373098
 20
350.887713
 30
0.0
 10
189.293483
 20
351.715961
 30
0.0
 10
189.753618
 20
352.176455
 30
0.0
  0
LINE
  5
161
100
AcDbEntity
  8
Layer_1
 62
7
100
AcDbLine
 10
189.753618
 20
352.176455
 30
0.0
 11
197.651014
 21
360.073851
 31
0.0
  0
SPLINE
  5
162
100
AcDbEntity
  8
Layer_1
 62
7
100
AcDbSpline
 70
8
 71
3
 72
8
 73
4
 74
0
 40
0
 40
0
 40
0
 40
0
 40
1
 40
1
 40
1
 40
1
 10
197.651014
 20
360.073851
 30
0.0
 10
197.844986
 20
360.267820
 30
0.0
 10
198.115383
 20
360.374709
 30
0.0
 10
198.412704
 20
360.374709
 30
0.0
  0
SPLINE
  5
163
100
AcDbEntity
  8
Layer_1
 62
7
100
AcDbSpline
 70
8
 71
3
 72
8
 73
4
 74
0
 40
0
 40
0
 40
0
 40
0
 40
1
 40
1
 40
1
 40
1
 10
198.412704
 20
360.374709
 30
0.0
 10
198.798163
 20
360.374709
 30
0.0
 10
199.193528
 20
360.200566
 30
0.0
 10
199.497228
 20
359.896523
 30
0.0
  0
SPLINE
  5
164
100
AcDbEntity
  8
Layer_1
 62
7
100
AcDbSpline
 70
8
 71
3
 72
8
 73
4
 74
0
 40
0
 40
0
 40
0
 40
0
 40
1
 40
1
 40
1
 40
1
 10
199.497228
 20
359.896523
 30
0.0
 10
200.055040
 20
359.338341
 30
0.0
 10
200.134683
 20
358.510089
 30
0.0
 10
199.674548
 20
358.049951
 30
0.0
  0
LINE
  5
165
100
AcDbEntity
  8
Layer_1
 62
7
100
AcDbLine
 10
199.674548
 20
358.049951
 30
0.0
 11
191.777152
 21
350.152552
 31
0.0
  0
SPLINE
  5
166
100
AcDbEntity
  8
Layer_1
 62
7
100
AcDbSpline
 70
8
 71
3
 72
8
 73
4
 74
0
 40
0
 40
0
 40
0
 40
0
 40
1
 40
1
 40
1
 40
1
 10
191.777152
 20
350.152552
 30
0.0
 10
191.583547
 20
349.958583
 30
0.0
 10
191.313122
 20
349.851692
 30
0.0
 10
191.015462
 20
349.851692
 30
0.0
  0
LINE
  5
167
100
AcDbEntity
  8
Layer_1
 62
7
100
AcDbLine
 10
191.015462
 20
349.851692
 30
0.0
 11
191.015462
 21
349.851692
 31
0.0
  0
LINE
  5
168
100
AcDbEntity
  8
Layer_1
 62
7
100
AcDbLine
 10
171.883928
 20
411.900703
 30
0.0
 11
166.867372
 21
411.900703
 31
0.0
  0
SPLINE
  5
169
100
AcDbEntity
  8
Layer_1
 62
7
100
AcDbSpline
 70
8
 71
3
 72
8
 73
4
 74
0
 40
0
 40
0
 40
0
 40
0
 40
1
 40
1
 40
1
 40
1
 10
166.867372
 20
411.900703
 30
0.0
 10
166.216454
 20
411.900703
 30
0.0
 10
165.686921
 20
412.430216
 30
0.0
 10
165.686921
 20
413.081137
 30
0.0
  0
LINE
  5
16a
100
AcDbEntity
  8
Layer_1
 62
7
100
AcDbLine
 10
165.686921
 20
413.081137
 30
0.0
 11
165.686921
 21
421.107729
 31
0.0
  0
SPLINE
  5
16b
100
AcDbEntity
  8
Layer_1
 62
7
100
AcDbSpline
 70
8
 71
3
 72
8
 73
4
 74
0
 40
0
 40
0
 40
0
 40
0
 40
1
 40
1
 40
1
 40
1
 10
165.686921
 20
421.107729
 30
0.0
 10
165.686921
 20
421.758646
 30
0.0
 10
166.216454
 20
422.287807
 30
0.0
 10
166.867372
 20
422.287807
 30
0.0
  0
LINE
  5
16c
100
AcDbEntity
  8
Layer_1
 62
7
100
AcDbLine
 10
166.867372
 20
422.287807
 30
0.0
 11
171.883928
 21
422.287807
 31
0.0
  0
SPLINE
  5
16d
100
AcDbEntity
  8
Layer_1
 62
7
100
AcDbSpline
 70
8
 71
3
 72
8
 73
4
 74
0
 40
0
 40
0
 40
0
 40
0
 40
1
 40
1
 40
1
 40
1
 10
171.883928
 20
422.287807
 30
0.0
 10
172.534874
 20
422.287807
 30
0.0
 10
173.064379
 20
421.758293
 30
0.0
 10
173.064379
 20
421.107729
 30
0.0
  0
LINE
  5
16e
100
AcDbEntity
  8
Layer_1
 62
7
100
AcDbLine
 10
173.064379
 20
421.107729
 30
0.0
 11
173.064379
 21
413.081137
 31
0.0
  0
SPLINE
  5
16f
100
AcDbEntity
  8
Layer_1
 62
7
100
AcDbSpline
 70
8
 71
3
 72
8
 73
4
 74
0
 40
0
 40
0
 40
0
 40
0
 40
1
 40
1
 40
1
 40
1
 10
173.064379
 20
413.081137
 30
0.0
 10
173.064379
 20
412.430216
 30
0.0
 10
172.534874
 20
411.900703
 30
0.0
 10
171.883928
 20
411.900703
 30
0.0
  0
LINE
  5
170
100
AcDbEntity
  8
Layer_1
 62
7
100
AcDbLine
 10
171.883928
 20
411.900703
 30
0.0
 11
171.883928
 21
411.900703
 31
0.0
  0
LINE
  5
171
100
AcDbEntity
  8
Layer_1
 62
7
100
AcDbLine
 10
191.448701
 20
409.893787
 30
0.0
 11
186.432117
 21
409.893787
 31
0.0
  0
SPLINE
  5
172
100
AcDbEntity
  8
Layer_1
 62
7
100
AcDbSpline
 70
8
 71
3
 72
8
 73
4
 74
0
 40
0
 40
0
 40
0
 40
0
 40
1
 40
1
 40
1
 40
1
 10
186.432117
 20
409.893787
 30
0.0
 10
185.781199
 20
409.893787
 30
0.0
 10
185.251666
 20
410.423300
 30
0.0
 10
185.251666
 20
411.074221
 30
0.0
  0
LINE
  5
173
100
AcDbEntity
  8
Layer_1
 62
7
100
AcDbLine
 10
185.251666
 20
411.074221
 30
0.0
 11
185.251666
 21
419.100810
 31
0.0
  0
SPLINE
  5
174
100
AcDbEntity
  8
Layer_1
 62
7
100
AcDbSpline
 70
8
 71
3
 72
8
 73
4
 74
0
 40
0
 40
0
 40
0
 40
0
 40
1
 40
1
 40
1
 40
1
 10
185.251666
 20
419.100810
 30
0.0
 10
185.251666
 20
419.751733
 30
0.0
 10
185.781199
 20
420.280894
 30
0.0
 10
186.432117
 20
420.280894
 30
0.0
  0
LINE
  5
175
100
AcDbEntity
  8
Layer_1
 62
7
100
AcDbLine
 10
186.432117
 20
420.280894
 30
0.0
 11
191.448701
 21
420.280894
 31
0.0
  0
SPLINE
  5
176
100
AcDbEntity
  8
Layer_1
 62
7
100
AcDbSpline
 70
8
 71
3
 72
8
 73
4
 74
0
 40
0
 40
0
 40
0
 40
0
 40
1
 40
1
 40
1
 40
1
 10
191.448701
 20
420.280894
 30
0.0
 10
192.099619
 20
420.280894
 30
0.0
 10
192.629124
 20
419.751380
 30
0.0
 10
192.629124
 20
419.100810
 30
0.0
  0
LINE
  5
177
100
AcDbEntity
  8
Layer_1
 62
7
100
AcDbLine
 10
192.629124
 20
419.100810
 30
0.0
 11
192.629124
 21
411.074221
 31
0.0
  0
SPLINE
  5
178
100
AcDbEntity
  8
Layer_1
 62
7
100
AcDbSpline
 70
8
 71
3
 72
8
 73
4
 74
0
 40
0
 40
0
 40
0
 40
0
 40
1
 40
1
 40
1
 40
1
 10
192.629124
 20
411.074221
 30
0.0
 10
192.629124
 20
410.423300
 30
0.0
 10
192.099619
 20
409.893787
 30
0.0
 10
191.448701
 20
409.893787
 30
0.0
  0
LINE
  5
179
100
AcDbEntity
  8
Layer_1
 62
7
100
AcDbLine
 10
191.448701
 20
409.893787
 30
0.0
 11
191.448701
 21
409.893787
 31
0.0
  0
LINE
  5
17a
100
AcDbEntity
  8
Layer_1
 62
1
100
AcDbLine
 10
136.463515
 20
395.329692
 30
0.0
 11
137.235486
 21
395.329692
 31
0.0
  0
LINE
  5
17b
100
AcDbEntity
  8
Layer_1
 62
1
100
AcDbLine
 10
137.235486
 20
395.329692
 30
0.0
 11
135.477758
 21
400.030188
 31
0.0
  0
LINE
  5
17c
100
AcDbEntity
  8
Layer_1
 62
1
100
AcDbLine
 10
135.477758
 20
400.030188
 30
0.0
 11
134.583317
 21
400.030188
 31
0.0
  0
LINE
  5
17d
100
AcDbEntity
  8
Layer_1
 62
1
100
AcDbLine
 10
134.583317
 20
400.030188
 30
0.0
 11
132.805765
 21
395.329692
 31
0.0
  0
LINE
  5
17e
100
AcDbEntity
  8
Layer_1
 62
1
100
AcDbLine
 10
132.805765
 20
395.329692
 30
0.0
 11
133.543051
 21
395.329692
 31
0.0
  0
LINE
  5
17f
100
AcDbEntity
  8
Layer_1
 62
1
100
AcDbLine
 10
133.543051
 20
395.329692
 30
0.0
 11
133.939478
 21
396.455262
 31
0.0
  0
LINE
  5
180
100
AcDbEntity
  8
Layer_1
 62
1
100
AcDbLine
 10
133.939478
 20
396.455262
 30
0.0
 11
136.081601
 21
396.455262
 31
0.0
  0
LINE
  5
181
100
AcDbEntity
  8
Layer_1
 62
1
100
AcDbLine
 10
136.081601
 20
396.455262
 30
0.0
 11
136.463515
 21
395.329692
 31
0.0
  0
LINE
  5
182
100
AcDbEntity
  8
Layer_1
 62
1
100
AcDbLine
 10
136.463515
 20
395.329692
 30
0.0
 11
136.463515
 21
395.329692
 31
0.0
  0
LINE
  5
183
100
AcDbEntity
  8
Layer_1
 62
1
100
AcDbLine
 10
135.912411
 20
396.929559
 30
0.0
 11
134.104067
 21
396.929559
 31
0.0
  0
LINE
  5
184
100
AcDbEntity
  8
Layer_1
 62
1
100
AcDbLine
 10
134.104067
 20
396.929559
 30
0.0
 11
134.887719
 21
399.138221
 31
0.0
  0
LINE
  5
185
100
AcDbEntity
  8
Layer_1
 62
1
100
AcDbLine
 10
134.887719
 20
399.138221
 30
0.0
 11
135.153183
 21
399.138221
 31
0.0
  0
LINE
  5
186
100
AcDbEntity
  8
Layer_1
 62
1
100
AcDbLine
 10
135.153183
 20
399.138221
 30
0.0
 11
135.912411
 21
396.929559
 31
0.0
  0
LINE
  5
187
100
AcDbEntity
  8
Layer_1
 62
1
100
AcDbLine
 10
135.912411
 20
396.929559
 30
0.0
 11
135.912411
 21
396.929559
 31
0.0
  0
LINE
  5
188
100
AcDbEntity
  8
Layer_1
 62
1
100
AcDbLine
 10
133.080433
 20
355.197802
 30
0.0
 11
135.352813
 21
355.197802
 31
0.0
  0
SPLINE
  5
189
100
AcDbEntity
  8
Layer_1
 62
1
100
AcDbSpline
 70
8
 71
3
 72
8
 73
4
 74
0
 40
0
 40
0
 40
0
 40
0
 40
1
 40
1
 40
1
 40
1
 10
135.352813
 20
355.197802
 30
0.0
 10
135.563060
 20
355.197802
 30
0.0
 10
135.770829
 20
355.224359
 30
0.0
 10
135.969750
 20
355.277087
 30
0.0
  0
SPLINE
  5
18a
100
AcDbEntity
  8
Layer_1
 62
1
100
AcDbSpline
 70
8
 71
3
 72
8
 73
4
 74
0
 40
0
 40
0
 40
0
 40
0
 40
1
 40
1
 40
1
 40
1
 10
135.969750
 20
355.277087
 30
0.0
 10
136.163363
 20
355.328409
 30
0.0
 10
136.337156
 20
355.407341
 30
0.0
 10
136.486169
 20
355.512466
 30
0.0
  0
SPLINE
  5
18b
100
AcDbEntity
  8
Layer_1
 62
1
100
AcDbSpline
 70
8
 71
3
 72
8
 73
4
 74
0
 40
0
 40
0
 40
0
 40
0
 40
1
 40
1
 40
1
 40
1
 10
136.486169
 20
355.512466
 30
0.0
 10
136.630227
 20
355.613696
 30
0.0
 10
136.746324
 20
355.746072
 30
0.0
 10
136.831626
 20
355.907119
 30
0.0
  0
SPLINE
  5
18c
100
AcDbEntity
  8
Layer_1
 62
1
100
AcDbSpline
 70
8
 71
3
 72
8
 73
4
 74
0
 40
0
 40
0
 40
0
 40
0
 40
1
 40
1
 40
1
 40
1
 10
136.831626
 20
355.907119
 30
0.0
 10
136.916575
 20
356.066756
 30
0.0
 10
136.959758
 20
356.261783
 30
0.0
 10
136.959758
 20
356.486541
 30
0.0
  0
SPLINE
  5
18d
100
AcDbEntity
  8
Layer_1
 62
1
100
AcDbSpline
 70
8
 71
3
 72
8
 73
4
 74
0
 40
0
 40
0
 40
0
 40
0
 40
1
 40
1
 40
1
 40
1
 10
136.959758
 20
356.486541
 30
0.0
 10
136.959758
 20
356.764748
 30
0.0
 10
136.892860
 20
357.003669
 30
0.0
 10
136.760836
 20
357.196929
 30
0.0
  0
SPLINE
  5
18e
100
AcDbEntity
  8
Layer_1
 62
1
100
AcDbSpline
 70
8
 71
3
 72
8
 73
4
 74
0
 40
0
 40
0
 40
0
 40
0
 40
1
 40
1
 40
1
 40
1
 10
136.760836
 20
357.196929
 30
0.0
 10
136.630227
 20
357.387708
 30
0.0
 10
136.433783
 20
357.518668
 30
0.0
 10
136.160533
 20
357.597600
 30
0.0
  0
LINE
  5
18f
100
AcDbEntity
  8
Layer_1
 62
1
100
AcDbLine
 10
136.160533
 20
357.597600
 30
0.0
 11
135.714198
 21
357.726440
 31
0.0
  0
LINE
  5
190
100
AcDbEntity
  8
Layer_1
 62
1
100
AcDbLine
 10
135.714198
 20
357.726440
 30
0.0
 11
136.133278
 21
357.927134
 31
0.0
  0
SPLINE
  5
191
100
AcDbEntity
  8
Layer_1
 62
1
100
AcDbSpline
 70
8
 71
3
 72
8
 73
4
 74
0
 40
0
 40
0
 40
0
 40
0
 40
1
 40
1
 40
1
 40
1
 10
136.133278
 20
357.927134
 30
0.0
 10
136.330075
 20
358.021636
 30
0.0
 10
136.479444
 20
358.141628
 30
0.0
 10
136.576427
 20
358.284622
 30
0.0
  0
SPLINE
  5
192
100
AcDbEntity
  8
Layer_1
 62
1
100
AcDbSpline
 70
8
 71
3
 72
8
 73
4
 74
0
 40
0
 40
0
 40
0
 40
0
 40
1
 40
1
 40
1
 40
1
 10
136.576427
 20
358.284622
 30
0.0
 10
136.671287
 20
358.424082
 30
0.0
 10
136.719423
 20
358.604597
 30
0.0
 10
136.719423
 20
358.822633
 30
0.0
  0
SPLINE
  5
193
100
AcDbEntity
  8
Layer_1
 62
1
100
AcDbSpline
 70
8
 71
3
 72
8
 73
4
 74
0
 40
0
 40
0
 40
0
 40
0
 40
1
 40
1
 40
1
 40
1
 10
136.719423
 20
358.822633
 30
0.0
 10
136.719423
 20
359.030399
 30
0.0
 10
136.686152
 20
359.204195
 30
0.0
 10
136.620318
 20
359.340113
 30
0.0
  0
SPLINE
  5
194
100
AcDbEntity
  8
Layer_1
 62
1
100
AcDbSpline
 70
8
 71
3
 72
8
 73
4
 74
0
 40
0
 40
0
 40
0
 40
0
 40
1
 40
1
 40
1
 40
1
 10
136.620318
 20
359.340113
 30
0.0
 10
136.555545
 20
359.473198
 30
0.0
 10
136.467410
 20
359.576906
 30
0.0
 10
136.350604
 20
359.657255
 30
0.0
  0
SPLINE
  5
195
100
AcDbEntity
  8
Layer_1
 62
1
100
AcDbSpline
 70
8
 71
3
 72
8
 73
4
 74
0
 40
0
 40
0
 40
0
 40
0
 40
1
 40
1
 40
1
 40
1
 10
136.350604
 20
359.657255
 30
0.0
 10
136.228136
 20
359.740434
 30
0.0
 10
136.077706
 20
359.801668
 30
0.0
 10
135.903916
 20
359.838831
 30
0.0
  0
SPLINE
  5
196
100
AcDbEntity
  8
Layer_1
 62
1
100
AcDbSpline
 70
8
 71
3
 72
8
 73
4
 74
0
 40
0
 40
0
 40
0
 40
0
 40
1
 40
1
 40
1
 40
1
 10
135.903916
 20
359.838831
 30
0.0
 10
135.720568
 20
359.878472
 30
0.0
 10
135.511738
 20
359.898648
 30
0.0
 10
135.282728
 20
359.898648
 30
0.0
  0
LINE
  5
197
100
AcDbEntity
  8
Layer_1
 62
1
100
AcDbLine
 10
135.282728
 20
359.898648
 30
0.0
 11
133.080788
 21
359.898648
 31
0.0
  0
LINE
  5
198
100
AcDbEntity
  8
Layer_1
 62
1
100
AcDbLine
 10
133.080788
 20
359.898648
 30
0.0
 11
133.080788
 21
355.197802
 31
0.0
  0
LINE
  5
199
100
AcDbEntity
  8
Layer_1
 62
1
100
AcDbLine
 10
133.080788
 20
355.197802
 30
0.0
 11
133.080506
 21
355.197802
 31
0.0
  0
LINE
  5
19a
100
AcDbEntity
  8
Layer_1
 62
1
100
AcDbLine
 10
135.204152
 20
355.707140
 30
0.0
 11
133.838247
 21
355.707140
 31
0.0
  0
LINE
  5
19b
100
AcDbEntity
  8
Layer_1
 62
1
100
AcDbLine
 10
133.838247
 20
355.707140
 30
0.0
 11
133.838247
 21
357.448589
 31
0.0
  0
LINE
  5
19c
100
AcDbEntity
  8
Layer_1
 62
1
100
AcDbLine
 10
133.838247
 20
357.448589
 30
0.0
 11
135.225742
 21
357.448589
 31
0.0
  0
SPLINE
  5
19d
100
AcDbEntity
  8
Layer_1
 62
1
100
AcDbSpline
 70
8
 71
3
 72
8
 73
4
 74
0
 40
0
 40
0
 40
0
 40
0
 40
1
 40
1
 40
1
 40
1
 10
135.225742
 20
357.448589
 30
0.0
 10
135.504657
 20
357.448589
 30
0.0
 10
135.735788
 20
357.380983
 30
0.0
 10
135.912764
 20
357.246834
 30
0.0
  0
SPLINE
  5
19e
100
AcDbEntity
  8
Layer_1
 62
1
100
AcDbSpline
 70
8
 71
3
 72
8
 73
4
 74
0
 40
0
 40
0
 40
0
 40
0
 40
1
 40
1
 40
1
 40
1
 10
135.912764
 20
357.246834
 30
0.0
 10
136.104963
 20
357.100649
 30
0.0
 10
136.202299
 20
356.866334
 30
0.0
 10
136.202299
 20
356.549898
 30
0.0
  0
SPLINE
  5
19f
100
AcDbEntity
  8
Layer_1
 62
1
100
AcDbSpline
 70
8
 71
3
 72
8
 73
4
 74
0
 40
0
 40
0
 40
0
 40
0
 40
1
 40
1
 40
1
 40
1
 10
136.202299
 20
356.549898
 30
0.0
 10
136.202299
 20
356.389559
 30
0.0
 10
136.172919
 20
356.251874
 30
0.0
 10
136.114163
 20
356.141793
 30
0.0
  0
SPLINE
  5
1a0
100
AcDbEntity
  8
Layer_1
 62
1
100
AcDbSpline
 70
8
 71
3
 72
8
 73
4
 74
0
 40
0
 40
0
 40
0
 40
0
 40
1
 40
1
 40
1
 40
1
 10
136.114163
 20
356.141793
 30
0.0
 10
136.056469
 20
356.031357
 30
0.0
 10
135.975770
 20
355.941807
 30
0.0
 10
135.874893
 20
355.874909
 30
0.0
  0
SPLINE
  5
1a1
100
AcDbEntity
  8
Layer_1
 62
1
100
AcDbSpline
 70
8
 71
3
 72
8
 73
4
 74
0
 40
0
 40
0
 40
0
 40
0
 40
1
 40
1
 40
1
 40
1
 10
135.874893
 20
355.874909
 30
0.0
 10
135.782157
 20
355.813326
 30
0.0
 10
135.673846
 20
355.769082
 30
0.0
 10
135.552795
 20
355.743242
 30
0.0
  0
SPLINE
  5
1a2
100
AcDbEntity
  8
Layer_1
 62
1
100
AcDbSpline
 70
8
 71
3
 72
8
 73
4
 74
0
 40
0
 40
0
 40
0
 40
0
 40
1
 40
1
 40
1
 40
1
 10
135.552795
 20
355.743242
 30
0.0
 10
135.439175
 20
355.719168
 30
0.0
 10
135.322372
 20
355.707140
 30
0.0
 10
135.204152
 20
355.707140
 30
0.0
  0
LINE
  5
1a3
100
AcDbEntity
  8
Layer_1
 62
1
100
AcDbLine
 10
135.204152
 20
355.707140
 30
0.0
 11
135.204152
 21
355.707140
 31
0.0
  0
LINE
  5
1a4
100
AcDbEntity
  8
Layer_1
 62
1
100
AcDbLine
 10
135.140440
 20
357.852446
 30
0.0
 11
133.837894
 21
357.852446
 31
0.0
  0
LINE
  5
1a5
100
AcDbEntity
  8
Layer_1
 62
1
100
AcDbLine
 10
133.837894
 20
357.852446
 30
0.0
 11
133.837894
 21
359.388602
 31
0.0
  0
LINE
  5
1a6
100
AcDbEntity
  8
Layer_1
 62
1
100
AcDbLine
 10
133.837894
 20
359.388602
 30
0.0
 11
135.055136
 21
359.388602
 31
0.0
  0
SPLINE
  5
1a7
100
AcDbEntity
  8
Layer_1
 62
1
100
AcDbSpline
 70
8
 71
3
 72
8
 73
4
 74
0
 40
0
 40
0
 40
0
 40
0
 40
1
 40
1
 40
1
 40
1
 10
135.055136
 20
359.388602
 30
0.0
 10
135.164155
 20
359.388602
 30
0.0
 10
135.271047
 20
359.379401
 30
0.0
 10
135.373341
 20
359.361000
 30
0.0
  0
SPLINE
  5
1a8
100
AcDbEntity
  8
Layer_1
 62
1
100
AcDbSpline
 70
8
 71
3
 72
8
 73
4
 74
0
 40
0
 40
0
 40
0
 40
0
 40
1
 40
1
 40
1
 40
1
 10
135.373341
 20
359.361003
 30
0.0
 10
135.487314
 20
359.340119
 30
0.0
 10
135.589605
 20
359.302956
 30
0.0
 10
135.677741
 20
359.249864
 30
0.0
  0
SPLINE
  5
1a9
100
AcDbEntity
  8
Layer_1
 62
1
100
AcDbSpline
 70
8
 71
3
 72
8
 73
4
 74
0
 40
0
 40
0
 40
0
 40
0
 40
1
 40
1
 40
1
 40
1
 10
135.677741
 20
359.249864
 30
0.0
 10
135.773662
 20
359.192878
 30
0.0
 10
135.852239
 20
359.111109
 30
0.0
 10
135.910286
 20
359.008465
 30
0.0
  0
SPLINE
  5
1aa
100
AcDbEntity
  8
Layer_1
 62
1
100
AcDbSpline
 70
8
 71
3
 72
8
 73
4
 74
0
 40
0
 40
0
 40
0
 40
0
 40
1
 40
1
 40
1
 40
1
 10
135.910286
 20
359.008465
 30
0.0
 10
135.967628
 20
358.906526
 30
0.0
 10
135.996652
 20
358.779812
 30
0.0
 10
135.996652
 20
358.631507
 30
0.0
  0
SPLINE
  5
1ab
100
AcDbEntity
  8
Layer_1
 62
1
100
AcDbSpline
 70
8
 71
3
 72
8
 73
4
 74
0
 40
0
 40
0
 40
0
 40
0
 40
1
 40
1
 40
1
 40
1
 10
135.996652
 20
358.631507
 30
0.0
 10
135.996652
 20
358.360376
 30
0.0
 10
135.908164
 20
358.157565
 30
0.0
 10
135.733666
 20
358.029078
 30
0.0
  0
SPLINE
  5
1ac
100
AcDbEntity
  8
Layer_1
 62
1
100
AcDbSpline
 70
8
 71
3
 72
8
 73
4
 74
0
 40
0
 40
0
 40
0
 40
0
 40
1
 40
1
 40
1
 40
1
 10
135.733666
 20
358.029078
 30
0.0
 10
135.577219
 20
357.911922
 30
0.0
 10
135.377233
 20
357.852458
 30
0.0
 10
135.140440
 20
357.852458
 30
0.0
  0
LINE
  5
1ad
100
AcDbEntity
  8
Layer_1
 62
1
100
AcDbLine
 10
135.140440
 20
357.852458
 30
0.0
 11
135.140440
 21
357.852446
 31
0.0
  0
SPLINE
  5
1ae
100
AcDbEntity
  8
Layer_1
 62
1
100
AcDbSpline
 70
8
 71
3
 72
8
 73
4
 74
0
 40
0
 40
0
 40
0
 40
0
 40
1
 40
1
 40
1
 40
1
 10
225.452246
 20
400.147344
 30
0.0
 10
225.091904
 20
400.147344
 30
0.0
 10
224.764865
 20
400.083276
 30
0.0
 10
224.479934
 20
399.957273
 30
0.0
  0
SPLINE
  5
1af
100
AcDbEntity
  8
Layer_1
 62
1
100
AcDbSpline
 70
8
 71
3
 72
8
 73
4
 74
0
 40
0
 40
0
 40
0
 40
0
 40
1
 40
1
 40
1
 40
1
 10
224.479934
 20
399.957273
 30
0.0
 10
224.195708
 20
399.831619
 30
0.0
 10
223.952884
 20
399.656057
 30
0.0
 10
223.758574
 20
399.435543
 30
0.0
  0
SPLINE
  5
1b0
100
AcDbEntity
  8
Layer_1
 62
1
100
AcDbSpline
 70
8
 71
3
 72
8
 73
4
 74
0
 40
0
 40
0
 40
0
 40
0
 40
1
 40
1
 40
1
 40
1
 10
223.758574
 20
399.435543
 30
0.0
 10
223.562119
 20
399.213262
 30
0.0
 10
223.409578
 20
398.948150
 30
0.0
 10
223.304450
 20
398.647999
 30
0.0
  0
SPLINE
  5
1b1
100
AcDbEntity
  8
Layer_1
 62
1
100
AcDbSpline
 70
8
 71
3
 72
8
 73
4
 74
0
 40
0
 40
0
 40
0
 40
0
 40
1
 40
1
 40
1
 40
1
 10
223.304450
 20
398.647999
 30
0.0
 10
223.198250
 20
398.345016
 30
0.0
 10
223.144120
 20
398.011238
 30
0.0
 10
223.144120
 20
397.655161
 30
0.0
  0
SPLINE
  5
1b2
100
AcDbEntity
  8
Layer_1
 62
1
100
AcDbSpline
 70
8
 71
3
 72
8
 73
4
 74
0
 40
0
 40
0
 40
0
 40
0
 40
1
 40
1
 40
1
 40
1
 10
223.144120
 20
397.655161
 30
0.0
 10
223.144120
 20
397.308992
 30
0.0
 10
223.197911
 20
396.982298
 30
0.0
 10
223.304083
 20
396.684268
 30
0.0
  0
SPLINE
  5
1b3
100
AcDbEntity
  8
Layer_1
 62
1
100
AcDbSpline
 70
8
 71
3
 72
8
 73
4
 74
0
 40
0
 40
0
 40
0
 40
0
 40
1
 40
1
 40
1
 40
1
 10
223.304083
 20
396.684268
 30
0.0
 10
223.408872
 20
396.389069
 30
0.0
 10
223.561413
 20
396.128917
 30
0.0
 10
223.757163
 20
395.911589
 30
0.0
  0
SPLINE
  5
1b4
100
AcDbEntity
  8
Layer_1
 62
1
100
AcDbSpline
 70
8
 71
3
 72
8
 73
4
 74
0
 40
0
 40
0
 40
0
 40
0
 40
1
 40
1
 40
1
 40
1
 10
223.757163
 20
395.911589
 30
0.0
 10
223.951473
 20
395.695678
 30
0.0
 10
224.194297
 20
395.523305
 30
0.0
 10
224.478523
 20
395.399770
 30
0.0
  0
SPLINE
  5
1b5
100
AcDbEntity
  8
Layer_1
 62
1
100
AcDbSpline
 70
8
 71
3
 72
8
 73
4
 74
0
 40
0
 40
0
 40
0
 40
0
 40
1
 40
1
 40
1
 40
1
 10
224.478523
 20
395.399770
 30
0.0
 10
224.763793
 20
395.275533
 30
0.0
 10
225.091199
 20
395.212886
 30
0.0
 10
225.451879
 20
395.212886
 30
0.0
  0
SPLINE
  5
1b6
100
AcDbEntity
  8
Layer_1
 62
1
100
AcDbSpline
 70
8
 71
3
 72
8
 73
4
 74
0
 40
0
 40
0
 40
0
 40
0
 40
1
 40
1
 40
1
 40
1
 10
225.451879
 20
395.212886
 30
0.0
 10
225.741411
 20
395.212886
 30
0.0
 10
226.009352
 20
395.257133
 30
0.0
 10
226.248282
 20
395.343851
 30
0.0
  0
SPLINE
  5
1b7
100
AcDbEntity
  8
Layer_1
 62
1
100
AcDbSpline
 70
8
 71
3
 72
8
 73
4
 74
0
 40
0
 40
0
 40
0
 40
0
 40
1
 40
1
 40
1
 40
1
 10
226.248282
 20
395.343851
 30
0.0
 10
226.484728
 20
395.429861
 30
0.0
 10
226.693205
 20
395.555868
 30
0.0
 10
226.868042
 20
395.717979
 30
0.0
  0
SPLINE
  5
1b8
100
AcDbEntity
  8
Layer_1
 62
1
100
AcDbSpline
 70
8
 71
3
 72
8
 73
4
 74
0
 40
0
 40
0
 40
0
 40
0
 40
1
 40
1
 40
1
 40
1
 10
226.868042
 20
395.717979
 30
0.0
 10
227.043612
 20
395.880796
 30
0.0
 10
227.187320
 20
396.081487
 30
0.0
 10
227.294903
 20
396.313677
 30
0.0
  0
SPLINE
  5
1b9
100
AcDbEntity
  8
Layer_1
 62
1
100
AcDbSpline
 70
8
 71
3
 72
8
 73
4
 74
0
 40
0
 40
0
 40
0
 40
0
 40
1
 40
1
 40
1
 40
1
 10
227.294903
 20
396.313677
 30
0.0
 10
227.379513
 20
396.496672
 30
0.0
 10
227.439683
 20
396.699486
 30
0.0
 10
227.474735
 20
396.918939
 30
0.0
  0
LINE
  5
1ba
100
AcDbEntity
  8
Layer_1
 62
1
100
AcDbLine
 10
227.474735
 20
396.918939
 30
0.0
 11
226.749480
 21
396.918939
 31
0.0
  0
SPLINE
  5
1bb
100
AcDbEntity
  8
Layer_1
 62
1
100
AcDbSpline
 70
8
 71
3
 72
8
 73
4
 74
0
 40
0
 40
0
 40
0
 40
0
 40
1
 40
1
 40
1
 40
1
 10
226.749480
 20
396.918939
 30
0.0
 10
226.688238
 20
396.612770
 30
0.0
 10
226.564004
 20
396.356154
 30
0.0
 10
226.378527
 20
396.154754
 30
0.0
  0
SPLINE
  5
1bc
100
AcDbEntity
  8
Layer_1
 62
1
100
AcDbSpline
 70
8
 71
3
 72
8
 73
4
 74
0
 40
0
 40
0
 40
0
 40
0
 40
1
 40
1
 40
1
 40
1
 10
226.378527
 20
396.154754
 30
0.0
 10
226.153766
 20
395.910175
 30
0.0
 10
225.841938
 20
395.785938
 30
0.0
 10
225.451879
 20
395.785938
 30
0.0
  0
SPLINE
  5
1bd
100
AcDbEntity
  8
Layer_1
 62
1
100
AcDbSpline
 70
8
 71
3
 72
8
 73
4
 74
0
 40
0
 40
0
 40
0
 40
0
 40
1
 40
1
 40
1
 40
1
 10
225.451879
 20
395.785938
 30
0.0
 10
225.172620
 20
395.785938
 30
0.0
 10
224.929090
 20
395.842216
 30
0.0
 10
224.729108
 20
395.953358
 30
0.0
  0
SPLINE
  5
1be
100
AcDbEntity
  8
Layer_1
 62
1
100
AcDbSpline
 70
8
 71
3
 72
8
 73
4
 74
0
 40
0
 40
0
 40
0
 40
0
 40
1
 40
1
 40
1
 40
1
 10
224.729108
 20
395.953358
 30
0.0
 10
224.530903
 20
396.063083
 30
0.0
 10
224.367722
 20
396.211744
 30
0.0
 10
224.243488
 20
396.394734
 30
0.0
  0
SPLINE
  5
1bf
100
AcDbEntity
  8
Layer_1
 62
1
100
AcDbSpline
 70
8
 71
3
 72
8
 73
4
 74
0
 40
0
 40
0
 40
0
 40
0
 40
1
 40
1
 40
1
 40
1
 10
224.243488
 20
396.394734
 30
0.0
 10
224.124193
 20
396.571360
 30
0.0
 10
224.036083
 20
396.772401
 30
0.0
 10
223.981219
 20
396.992918
 30
0.0
  0
SPLINE
  5
1c0
100
AcDbEntity
  8
Layer_1
 62
1
100
AcDbSpline
 70
8
 71
3
 72
8
 73
4
 74
0
 40
0
 40
0
 40
0
 40
0
 40
1
 40
1
 40
1
 40
1
 10
223.981219
 20
396.992918
 30
0.0
 10
223.928472
 20
397.207057
 30
0.0
 10
223.901576
 20
397.429690
 30
0.0
 10
223.901576
 20
397.655161
 30
0.0
  0
SPLINE
  5
1c1
100
AcDbEntity
  8
Layer_1
 62
1
100
AcDbSpline
 70
8
 71
3
 72
8
 73
4
 74
0
 40
0
 40
0
 40
0
 40
0
 40
1
 40
1
 40
1
 40
1
 10
223.901576
 20
397.655161
 30
0.0
 10
223.901576
 20
397.889126
 30
0.0
 10
223.928105
 20
398.119549
 30
0.0
 10
223.980852
 20
398.340416
 30
0.0
  0
SPLINE
  5
1c2
100
AcDbEntity
  8
Layer_1
 62
1
100
AcDbSpline
 70
8
 71
3
 72
8
 73
4
 74
0
 40
0
 40
0
 40
0
 40
0
 40
1
 40
1
 40
1
 40
1
 10
223.980852
 20
398.340416
 30
0.0
 10
224.035349
 20
398.568361
 30
0.0
 10
224.123487
 20
398.774361
 30
0.0
 10
224.242782
 20
398.953462
 30
0.0
  0
SPLINE
  5
1c3
100
AcDbEntity
  8
Layer_1
 62
1
100
AcDbSpline
 70
8
 71
3
 72
8
 73
4
 74
0
 40
0
 40
0
 40
0
 40
0
 40
1
 40
1
 40
1
 40
1
 10
224.242782
 20
398.953462
 30
0.0
 10
224.366650
 20
399.138933
 30
0.0
 10
224.530198
 20
399.289010
 30
0.0
 10
224.729108
 20
399.399444
 30
0.0
  0
SPLINE
  5
1c4
100
AcDbEntity
  8
Layer_1
 62
1
100
AcDbSpline
 70
8
 71
3
 72
8
 73
4
 74
0
 40
0
 40
0
 40
0
 40
0
 40
1
 40
1
 40
1
 40
1
 10
224.729108
 20
399.399444
 30
0.0
 10
224.929457
 20
399.510230
 30
0.0
 10
225.172620
 20
399.566861
 30
0.0
 10
225.451879
 20
399.566861
 30
0.0
  0
SPLINE
  5
1c5
100
AcDbEntity
  8
Layer_1
 62
1
100
AcDbSpline
 70
8
 71
3
 72
8
 73
4
 74
0
 40
0
 40
0
 40
0
 40
0
 40
1
 40
1
 40
1
 40
1
 10
225.451879
 20
399.566861
 30
0.0
 10
225.608315
 20
399.566861
 30
0.0
 10
225.760517
 20
399.540670
 30
0.0
 10
225.904592
 20
399.489343
 30
0.0
  0
SPLINE
  5
1c6
100
AcDbEntity
  8
Layer_1
 62
1
100
AcDbSpline
 70
8
 71
3
 72
8
 73
4
 74
0
 40
0
 40
0
 40
0
 40
0
 40
1
 40
1
 40
1
 40
1
 10
225.904592
 20
399.489343
 30
0.0
 10
226.047932
 20
399.438020
 30
0.0
 10
226.178206
 20
399.365106
 30
0.0
 10
226.292506
 20
399.272726
 30
0.0
  0
SPLINE
  5
1c7
100
AcDbEntity
  8
Layer_1
 62
1
100
AcDbSpline
 70
8
 71
3
 72
8
 73
4
 74
0
 40
0
 40
0
 40
0
 40
0
 40
1
 40
1
 40
1
 40
1
 10
226.292506
 20
399.272726
 30
0.0
 10
226.405790
 20
399.181052
 30
0.0
 10
226.502423
 20
399.072387
 30
0.0
 10
226.579216
 20
398.949567
 30
0.0
  0
SPLINE
  5
1c8
100
AcDbEntity
  8
Layer_1
 62
1
100
AcDbSpline
 70
8
 71
3
 72
8
 73
4
 74
0
 40
0
 40
0
 40
0
 40
0
 40
1
 40
1
 40
1
 40
1
 10
226.579216
 20
398.949567
 30
0.0
 10
226.631257
 20
398.866035
 30
0.0
 10
226.671248
 20
398.776483
 30
0.0
 10
226.698511
 20
398.682334
 30
0.0
  0
LINE
  5
1c9
100
AcDbEntity
  8
Layer_1
 62
1
100
AcDbLine
 10
226.698511
 20
398.682334
 30
0.0
 11
227.425515
 21
398.682334
 31
0.0
  0
SPLINE
  5
1ca
100
AcDbEntity
  8
Layer_1
 62
1
100
AcDbSpline
 70
8
 71
3
 72
8
 73
4
 74
0
 40
0
 40
0
 40
0
 40
0
 40
1
 40
1
 40
1
 40
1
 10
227.425515
 20
398.682334
 30
0.0
 10
227.386936
 20
398.871696
 30
0.0
 10
227.323944
 20
399.044069
 30
0.0
 10
227.237584
 20
399.197336
 30
0.0
  0
SPLINE
  5
1cb
100
AcDbEntity
  8
Layer_1
 62
1
100
AcDbSpline
 70
8
 71
3
 72
8
 73
4
 74
0
 40
0
 40
0
 40
0
 40
0
 40
1
 40
1
 40
1
 40
1
 10
227.237584
 20
399.197336
 30
0.0
 10
227.121844
 20
399.402627
 30
0.0
 10
226.973875
 20
399.576417
 30
0.0
 10
226.797599
 20
399.714460
 30
0.0
  0
SPLINE
  5
1cc
100
AcDbEntity
  8
Layer_1
 62
1
100
AcDbSpline
 70
8
 71
3
 72
8
 73
4
 74
0
 40
0
 40
0
 40
0
 40
0
 40
1
 40
1
 40
1
 40
1
 10
226.797599
 20
399.714460
 30
0.0
 10
226.618868
 20
399.854273
 30
0.0
 10
226.413212
 20
399.962578
 30
0.0
 10
226.186701
 20
400.035849
 30
0.0
  0
SPLINE
  5
1cd
100
AcDbEntity
  8
Layer_1
 62
1
100
AcDbSpline
 70
8
 71
3
 72
8
 73
4
 74
0
 40
0
 40
0
 40
0
 40
0
 40
1
 40
1
 40
1
 40
1
 10
226.186701
 20
400.035849
 30
0.0
 10
225.957678
 20
400.109822
 30
0.0
 10
225.710620
 20
400.147344
 30
0.0
 10
225.452246
 20
400.147344
 30
0.0
  0
LINE
  5
1ce
100
AcDbEntity
  8
Layer_1
 62
1
100
AcDbLine
 10
225.452246
 20
400.147344
 30
0.0
 11
225.452246
 21
400.147344
 31
0.0
  0
LINE
  5
1cf
100
AcDbEntity
  8
Layer_1
 62
1
100
AcDbLine
 10
223.261609
 20
355.197443
 30
0.0
 11
225.264991
 21
355.197443
 31
0.0
  0
SPLINE
  5
1d0
100
AcDbEntity
  8
Layer_1
 62
1
100
AcDbSpline
 70
8
 71
3
 72
8
 73
4
 74
0
 40
0
 40
0
 40
0
 40
0
 40
1
 40
1
 40
1
 40
1
 10
225.264991
 20
355.197443
 30
0.0
 10
225.624599
 20
355.197443
 30
0.0
 10
225.939277
 20
355.257619
 30
0.0
 10
226.200502
 20
355.376195
 30
0.0
  0
SPLINE
  5
1d1
100
AcDbEntity
  8
Layer_1
 62
1
100
AcDbSpline
 70
8
 71
3
 72
8
 73
4
 74
0
 40
0
 40
0
 40
0
 40
0
 40
1
 40
1
 40
1
 40
1
 10
226.200502
 20
355.376195
 30
0.0
 10
226.460287
 20
355.494415
 30
0.0
 10
226.680110
 20
355.658293
 30
0.0
 10
226.853536
 20
355.863937
 30
0.0
  0
SPLINE
  5
1d2
100
AcDbEntity
  8
Layer_1
 62
1
100
AcDbSpline
 70
8
 71
3
 72
8
 73
4
 74
0
 40
0
 40
0
 40
0
 40
0
 40
1
 40
1
 40
1
 40
1
 10
226.853536
 20
355.863937
 30
0.0
 10
227.027667
 20
356.070295
 30
0.0
 10
227.160424
 20
356.320541
 30
0.0
 10
227.247828
 20
356.608301
 30
0.0
  0
SPLINE
  5
1d3
100
AcDbEntity
  8
Layer_1
 62
1
100
AcDbSpline
 70
8
 71
3
 72
8
 73
4
 74
0
 40
0
 40
0
 40
0
 40
0
 40
1
 40
1
 40
1
 40
1
 10
227.247828
 20
356.608301
 30
0.0
 10
227.336672
 20
356.901377
 30
0.0
 10
227.381630
 20
357.227014
 30
0.0
 10
227.381630
 20
357.576362
 30
0.0
  0
SPLINE
  5
1d4
100
AcDbEntity
  8
Layer_1
 62
1
100
AcDbSpline
 70
8
 71
3
 72
8
 73
4
 74
0
 40
0
 40
0
 40
0
 40
0
 40
1
 40
1
 40
1
 40
1
 10
227.381630
 20
357.576362
 30
0.0
 10
227.381630
 20
357.973147
 30
0.0
 10
227.327133
 20
358.321435
 30
0.0
 10
227.219154
 20
358.612028
 30
0.0
  0
SPLINE
  5
1d5
100
AcDbEntity
  8
Layer_1
 62
1
100
AcDbSpline
 70
8
 71
3
 72
8
 73
4
 74
0
 40
0
 40
0
 40
0
 40
0
 40
1
 40
1
 40
1
 40
1
 10
227.219154
 20
358.612028
 30
0.0
 10
227.112982
 20
358.898731
 30
0.0
 10
226.964675
 20
359.139063
 30
0.0
 10
226.778154
 20
359.327371
 30
0.0
  0
SPLINE
  5
1d6
100
AcDbEntity
  8
Layer_1
 62
1
100
AcDbSpline
 70
8
 71
3
 72
8
 73
4
 74
0
 40
0
 40
0
 40
0
 40
0
 40
1
 40
1
 40
1
 40
1
 10
226.778154
 20
359.327371
 30
0.0
 10
226.591972
 20
359.515672
 30
0.0
 10
226.368254
 20
359.659377
 30
0.0
 10
226.113408
 20
359.753176
 30
0.0
  0
SPLINE
  5
1d7
100
AcDbEntity
  8
Layer_1
 62
1
100
AcDbSpline
 70
8
 71
3
 72
8
 73
4
 74
0
 40
0
 40
0
 40
0
 40
0
 40
1
 40
1
 40
1
 40
1
 10
226.113408
 20
359.753176
 30
0.0
 10
225.853622
 20
359.849098
 30
0.0
 10
225.568324
 20
359.897586
 30
0.0
 10
225.265358
 20
359.897586
 30
0.0
  0
LINE
  5
1d8
100
AcDbEntity
  8
Layer_1
 62
1
100
AcDbLine
 10
225.265358
 20
359.897586
 30
0.0
 11
223.261976
 21
359.897586
 31
0.0
  0
LINE
  5
1d9
100
AcDbEntity
  8
Layer_1
 62
1
100
AcDbLine
 10
223.261976
 20
359.897586
 30
0.0
 11
223.261976
 21
355.197443
 31
0.0
  0
LINE
  5
1da
100
AcDbEntity
  8
Layer_1
 62
1
100
AcDbLine
 10
223.261976
 20
355.197443
 30
0.0
 11
223.261693
 21
355.197443
 31
0.0
  0
LINE
  5
1db
100
AcDbEntity
  8
Layer_1
 62
1
100
AcDbLine
 10
225.186759
 20
355.777927
 30
0.0
 11
224.018726
 21
355.777927
 31
0.0
  0
LINE
  5
1dc
100
AcDbEntity
  8
Layer_1
 62
1
100
AcDbLine
 10
224.018726
 20
355.777927
 30
0.0
 11
224.018726
 21
359.317459
 31
0.0
  0
LINE
  5
1dd
100
AcDbEntity
  8
Layer_1
 62
1
100
AcDbLine
 10
224.018726
 20
359.317459
 30
0.0
 11
224.988555
 21
359.317459
 31
0.0
  0
SPLINE
  5
1de
100
AcDbEntity
  8
Layer_1
 62
1
100
AcDbSpline
 70
8
 71
3
 72
8
 73
4
 74
0
 40
0
 40
0
 40
0
 40
0
 40
1
 40
1
 40
1
 40
1
 10
224.988555
 20
359.317459
 30
0.0
 10
225.283054
 20
359.317459
 30
0.0
 10
225.538239
 20
359.273568
 30
0.0
 10
225.746716
 20
359.187205
 30
0.0
  0
SPLINE
  5
1df
100
AcDbEntity
  8
Layer_1
 62
1
100
AcDbSpline
 70
8
 71
3
 72
8
 73
4
 74
0
 40
0
 40
0
 40
0
 40
0
 40
1
 40
1
 40
1
 40
1
 10
225.746716
 20
359.187205
 30
0.0
 10
225.961939
 20
359.096945
 30
0.0
 10
226.137481
 20
358.964918
 30
0.0
 10
226.268461
 20
358.795379
 30
0.0
  0
SPLINE
  5
1e0
100
AcDbEntity
  8
Layer_1
 62
1
100
AcDbSpline
 70
8
 71
3
 72
8
 73
4
 74
0
 40
0
 40
0
 40
0
 40
0
 40
1
 40
1
 40
1
 40
1
 10
226.268461
 20
358.795379
 30
0.0
 10
226.395884
 20
358.631142
 30
0.0
 10
226.488961
 20
358.431513
 30
0.0
 10
226.544530
 20
358.201801
 30
0.0
  0
SPLINE
  5
1e1
100
AcDbEntity
  8
Layer_1
 62
1
100
AcDbSpline
 70
8
 71
3
 72
8
 73
4
 74
0
 40
0
 40
0
 40
0
 40
0
 40
1
 40
1
 40
1
 40
1
 10
226.544530
 20
358.201801
 30
0.0
 10
226.597278
 20
357.983056
 30
0.0
 10
226.623807
 20
357.737060
 30
0.0
 10
226.623807
 20
357.469823
 30
0.0
  0
SPLINE
  5
1e2
100
AcDbEntity
  8
Layer_1
 62
1
100
AcDbSpline
 70
8
 71
3
 72
8
 73
4
 74
0
 40
0
 40
0
 40
0
 40
0
 40
1
 40
1
 40
1
 40
1
 10
226.623807
 20
357.469823
 30
0.0
 10
226.623807
 20
357.172505
 30
0.0
 10
226.584521
 20
356.914117
 30
0.0
 10
226.507023
 20
356.701392
 30
0.0
  0
SPLINE
  5
1e3
100
AcDbEntity
  8
Layer_1
 62
1
100
AcDbSpline
 70
8
 71
3
 72
8
 73
4
 74
0
 40
0
 40
0
 40
0
 40
0
 40
1
 40
1
 40
1
 40
1
 10
226.507023
 20
356.701392
 30
0.0
 10
226.427719
 20
356.484416
 30
0.0
 10
226.318724
 20
356.304613
 30
0.0
 10
226.183512
 20
356.166925
 30
0.0
  0
SPLINE
  5
1e4
100
AcDbEntity
  8
Layer_1
 62
1
100
AcDbSpline
 70
8
 71
3
 72
8
 73
4
 74
0
 40
0
 40
0
 40
0
 40
0
 40
1
 40
1
 40
1
 40
1
 10
226.183512
 20
356.166925
 30
0.0
 10
226.046521
 20
356.027112
 30
0.0
 10
225.887940
 20
355.925529
 30
0.0
 10
225.711326
 20
355.865001
 30
0.0
  0
SPLINE
  5
1e5
100
AcDbEntity
  8
Layer_1
 62
1
100
AcDbSpline
 70
8
 71
3
 72
8
 73
4
 74
0
 40
0
 40
0
 40
0
 40
0
 40
1
 40
1
 40
1
 40
1
 10
225.711326
 20
355.865001
 30
0.0
 10
225.543206
 20
355.807309
 30
0.0
 10
225.366930
 20
355.777927
 30
0.0
 10
225.186759
 20
355.777927
 30
0.0
  0
LINE
  5
1e6
100
AcDbEntity
  8
Layer_1
 62
1
100
AcDbLine
 10
225.186759
 20
355.777927
 30
0.0
 11
225.186759
 21
355.777927
 31
0.0
  0
LINE
  5
1e7
100
AcDbEntity
  8
Layer_1
 62
7
100
AcDbLine
 10
128.172879
 20
337.297124
 30
0.0
 11
142.534172
 21
316.700862
 31
0.0
  0
SPLINE
  5
1e8
100
AcDbEntity
  8
Layer_1
 62
7
100
AcDbSpline
 70
8
 71
3
 72
8
 73
4
 74
0
 40
0
 40
0
 40
0
 40
0
 40
1
 40
1
 40
1
 40
1
 10
142.534172
 20
316.700862
 30
0.0
 10
144.360573
 20
314.944904
 30
0.0
 10
146.788672
 20
312.711337
 30
0.0
 10
149.352011
 20
312.711337
 30
0.0
  0
LINE
  5
1e9
100
AcDbEntity
  8
Layer_1
 62
7
100
AcDbLine
 10
149.352011
 20
312.711337
 30
0.0
 11
210.986889
 21
312.711337
 31
0.0
  0
SPLINE
  5
1ea
100
AcDbEntity
  8
Layer_1
 62
7
100
AcDbSpline
 70
8
 71
3
 72
8
 73
4
 74
0
 40
0
 40
0
 40
0
 40
0
 40
1
 40
1
 40
1
 40
1
 10
210.986889
 20
312.711337
 30
0.0
 10
213.550229
 20
312.711337
 30
0.0
 10
215.978695
 20
314.944904
 30
0.0
 10
217.823836
 20
316.722791
 30
0.0
  0
LINE
  5
1eb
100
AcDbEntity
  8
Layer_1
 62
7
100
AcDbLine
 10
217.823836
 20
316.722791
 30
0.0
 11
232.273275
 21
337.441890
 31
0.0
  0
SPLINE
  5
1ec
100
AcDbEntity
  8
Layer_1
 62
7
100
AcDbSpline
 70
8
 71
3
 72
8
 73
4
 74
0
 40
0
 40
0
 40
0
 40
0
 40
1
 40
1
 40
1
 40
1
 10
232.273275
 20
337.441890
 30
0.0
 10
234.150645
 20
339.322793
 30
0.0
 10
235.175338
 20
341.797637
 30
0.0
 10
235.175338
 20
344.428922
 30
0.0
  0
LINE
  5
1ed
100
AcDbEntity
  8
Layer_1
 62
7
100
AcDbLine
 10
235.175338
 20
344.428922
 30
0.0
 11
235.171104
 21
347.061623
 31
0.0
  0
LINE
  5
1ee
100
AcDbEntity
  8
Layer_1
 62
7
100
AcDbLine
 10
235.171076
 20
347.061623
 30
0.0
 11
235.175309
 21
405.920453
 31
0.0
  0
SPLINE
  5
1ef
100
AcDbEntity
  8
Layer_1
 62
7
100
AcDbSpline
 70
8
 71
3
 72
8
 73
4
 74
0
 40
0
 40
0
 40
0
 40
0
 40
1
 40
1
 40
1
 40
1
 10
235.175338
 20
405.920453
 30
0.0
 10
235.175338
 20
408.552446
 30
0.0
 10
234.150645
 20
411.026579
 30
0.0
 10
232.290264
 20
412.888018
 30
0.0
  0
LINE
  5
1f0
100
AcDbEntity
  8
Layer_1
 62
7
100
AcDbLine
 10
232.290264
 20
412.888018
 30
0.0
 11
217.804729
 21
434.903039
 31
0.0
  0
SPLINE
  5
1f1
100
AcDbEntity
  8
Layer_1
 62
7
100
AcDbSpline
 70
8
 71
3
 72
8
 73
4
 74
0
 40
0
 40
0
 40
0
 40
0
 40
1
 40
1
 40
1
 40
1
 10
217.804729
 20
434.903039
 30
0.0
 10
215.978328
 20
436.659003
 30
0.0
 10
213.550229
 20
437.638387
 30
0.0
 10
210.986889
 20
437.638387
 30
0.0
  0
LINE
  5
1f2
100
AcDbEntity
  8
Layer_1
 62
7
100
AcDbLine
 10
210.986889
 20
437.638387
 30
0.0
 11
187.939945
 21
437.638669
 31
0.0
  0
LINE
  5
1f3
100
AcDbEntity
  8
Layer_1
 62
7
100
AcDbLine
 10
187.939945
 20
437.638669
 30
0.0
 11
172.387977
 21
437.638105
 31
0.0
  0
LINE
  5
1f4
100
AcDbEntity
  8
Layer_1
 62
7
100
AcDbLine
 10
172.387977
 20
437.638108
 30
0.0
 11
149.527582
 21
437.638954
 31
0.0
  0
LINE
  5
1f5
100
AcDbEntity
  8
Layer_1
 62
7
100
AcDbLine
 10
149.527582
 20
437.638952
 30
0.0
 11
149.352011
 21
437.638105
 31
0.0
  0
SPLINE
  5
1f6
100
AcDbEntity
  8
Layer_1
 62
7
100
AcDbSpline
 70
8
 71
3
 72
8
 73
4
 74
0
 40
0
 40
0
 40
0
 40
0
 40
1
 40
1
 40
1
 40
1
 10
149.352011
 20
437.638108
 30
0.0
 10
146.788672
 20
437.638108
 30
0.0
 10
144.360206
 20
436.658720
 30
0.0
 10
142.515051
 20
434.880814
 30
0.0
  0
LINE
  5
1f7
100
AcDbEntity
  8
Layer_1
 62
7
100
AcDbLine
 10
142.515051
 20
434.880814
 30
0.0
 11
128.172879
 21
413.052674
 31
0.0
  0
LINE
  5
1f8
100
AcDbEntity
  8
Layer_1
 62
7
100
AcDbLine
 10
128.172879
 20
413.052674
 30
0.0
 11
128.194836
 21
413.036052
 31
0.0
  0
LINE
  5
1f9
100
AcDbEntity
  8
Layer_1
 62
7
100
AcDbLine
 10
128.194836
 20
413.036052
 30
0.0
 11
128.060334
 21
412.887747
 31
0.0
  0
SPLINE
  5
1fa
100
AcDbEntity
  8
Layer_1
 62
7
100
AcDbSpline
 70
8
 71
3
 72
8
 73
4
 74
0
 40
0
 40
0
 40
0
 40
0
 40
1
 40
1
 40
1
 40
1
 10
128.060334
 20
412.887747
 30
0.0
 10
126.199956
 20
411.026305
 30
0.0
 10
125.175261
 20
408.551823
 30
0.0
 10
125.175261
 20
405.920182
 30
0.0
  0
LINE
  5
1fb
100
AcDbEntity
  8
Layer_1
 62
7
100
AcDbLine
 10
125.175261
 20
405.920182
 30
0.0
 11
125.175261
 21
344.429001
 31
0.0
  0
SPLINE
  5
1fc
100
AcDbEntity
  8
Layer_1
 62
7
100
AcDbSpline
 70
8
 71
3
 72
8
 73
4
 74
0
 40
0
 40
0
 40
0
 40
0
 40
1
 40
1
 40
1
 40
1
 10
125.175261
 20
344.429001
 30
0.0
 10
125.175261
 20
341.797357
 30
0.0
 10
126.199956
 20
339.322872
 30
0.0
 10
128.060334
 20
337.461439
 30
0.0
  0
LINE
  5
1fd
100
AcDbEntity
  8
Layer_1
 62
7
100
AcDbLine
 10
128.060334
 20
337.461439
 30
0.0
 11
128.202625
 21
337.319145
 31
0.0
  0
LINE
  5
1fe
100
AcDbEntity
  8
Layer_1
 62
7
100
AcDbLine
 10
128.202625
 20
337.319145
 30
0.0
 11
128.172879
 21
337.297132
 31
0.0
  0
LINE
  5
1ff
100
AcDbEntity
  8
Layer_1
 62
1
100
AcDbLine
 10
167.802515
 20
322.262483
 30
0.0
 11
169.961628
 21
322.262483
 31
0.0
  0
LINE
  5
200
100
AcDbEntity
  8
Layer_1
 62
1
100
AcDbLine
 10
169.961628
 20
322.262483
 30
0.0
 11
169.961628
 21
322.678024
 31
0.0
  0
LINE
  5
201
100
AcDbEntity
  8
Layer_1
 62
1
100
AcDbLine
 10
169.961628
 20
322.678024
 30
0.0
 11
168.311841
 21
322.678024
 31
0.0
  0
LINE
  5
202
100
AcDbEntity
  8
Layer_1
 62
1
100
AcDbLine
 10
168.311841
 20
322.678024
 30
0.0
 11
168.311841
 21
325.777939
 31
0.0
  0
LINE
  5
203
100
AcDbEntity
  8
Layer_1
 62
1
100
AcDbLine
 10
168.311841
 20
325.777939
 30
0.0
 11
167.802515
 21
325.777939
 31
0.0
  0
LINE
  5
204
100
AcDbEntity
  8
Layer_1
 62
1
100
AcDbLine
 10
167.802515
 20
325.777939
 30
0.0
 11
167.802515
 21
322.262483
 31
0.0
  0
LINE
  5
205
100
AcDbEntity
  8
Layer_1
 62
1
100
AcDbLine
 10
167.802515
 20
322.262483
 30
0.0
 11
167.802515
 21
322.262483
 31
0.0
  0
SPLINE
  5
206
100
AcDbEntity
  8
Layer_1
 62
1
100
AcDbSpline
 70
8
 71
3
 72
8
 73
4
 74
0
 40
0
 40
0
 40
0
 40
0
 40
1
 40
1
 40
1
 40
1
 10
171.057468
 20
326.098625
 30
0.0
 10
170.967919
 20
326.098625
 30
0.0
 10
170.897477
 20
326.070307
 30
0.0
 10
170.836234
 20
326.009429
 30
0.0
  0
SPLINE
  5
207
100
AcDbEntity
  8
Layer_1
 62
1
100
AcDbSpline
 70
8
 71
3
 72
8
 73
4
 74
0
 40
0
 40
0
 40
0
 40
0
 40
1
 40
1
 40
1
 40
1
 10
170.836234
 20
326.009429
 30
0.0
 10
170.775359
 20
325.948548
 30
0.0
 10
170.747052
 20
325.878463
 30
0.0
 10
170.747052
 20
325.788911
 30
0.0
  0
SPLINE
  5
208
100
AcDbEntity
  8
Layer_1
 62
1
100
AcDbSpline
 70
8
 71
3
 72
8
 73
4
 74
0
 40
0
 40
0
 40
0
 40
0
 40
1
 40
1
 40
1
 40
1
 10
170.747052
 20
325.788911
 30
0.0
 10
170.747052
 20
325.699010
 30
0.0
 10
170.775359
 20
325.628573
 30
0.0
 10
170.836234
 20
325.567692
 30
0.0
  0
SPLINE
  5
209
100
AcDbEntity
  8
Layer_1
 62
1
100
AcDbSpline
 70
8
 71
3
 72
8
 73
4
 74
0
 40
0
 40
0
 40
0
 40
0
 40
1
 40
1
 40
1
 40
1
 10
170.836234
 20
325.567692
 30
0.0
 10
170.958352
 20
325.445932
 30
0.0
 10
171.155851
 20
325.445932
 30
0.0
 10
171.278336
 20
325.567692
 30
0.0
  0
SPLINE
  5
20a
100
AcDbEntity
  8
Layer_1
 62
1
100
AcDbSpline
 70
8
 71
3
 72
8
 73
4
 74
0
 40
0
 40
0
 40
0
 40
0
 40
1
 40
1
 40
1
 40
1
 10
171.278336
 20
325.567692
 30
0.0
 10
171.338844
 20
325.628573
 30
0.0
 10
171.367179
 20
325.698657
 30
0.0
 10
171.367179
 20
325.788911
 30
0.0
  0
SPLINE
  5
20b
100
AcDbEntity
  8
Layer_1
 62
1
100
AcDbSpline
 70
8
 71
3
 72
8
 73
4
 74
0
 40
0
 40
0
 40
0
 40
0
 40
1
 40
1
 40
1
 40
1
 10
171.367179
 20
325.788911
 30
0.0
 10
171.367179
 20
325.878463
 30
0.0
 10
171.338844
 20
325.948548
 30
0.0
 10
171.277969
 20
326.009429
 30
0.0
  0
SPLINE
  5
20c
100
AcDbEntity
  8
Layer_1
 62
1
100
AcDbSpline
 70
8
 71
3
 72
8
 73
4
 74
0
 40
0
 40
0
 40
0
 40
0
 40
1
 40
1
 40
1
 40
1
 10
171.277969
 20
326.009429
 30
0.0
 10
171.217432
 20
326.070307
 30
0.0
 10
171.147356
 20
326.098625
 30
0.0
 10
171.057468
 20
326.098625
 30
0.0
  0
LINE
  5
20d
100
AcDbEntity
  8
Layer_1
 62
1
100
AcDbLine
 10
171.057468
 20
326.098625
 30
0.0
 11
171.057468
 21
326.098625
 31
0.0
  0
LINE
  5
20e
100
AcDbEntity
  8
Layer_1
 62
1
100
AcDbLine
 10
170.819245
 20
322.262483
 30
0.0
 11
171.295664
 21
322.262483
 31
0.0
  0
LINE
  5
20f
100
AcDbEntity
  8
Layer_1
 62
1
100
AcDbLine
 10
171.295664
 20
322.262483
 30
0.0
 11
171.295664
 21
324.886687
 31
0.0
  0
LINE
  5
210
100
AcDbEntity
  8
Layer_1
 62
1
100
AcDbLine
 10
171.295664
 20
324.886687
 30
0.0
 11
170.819245
 21
324.886687
 31
0.0
  0
LINE
  5
211
100
AcDbEntity
  8
Layer_1
 62
1
100
AcDbLine
 10
170.819245
 20
324.886687
 30
0.0
 11
170.819245
 21
322.262483
 31
0.0
  0
LINE
  5
212
100
AcDbEntity
  8
Layer_1
 62
1
100
AcDbLine
 10
170.819245
 20
322.262483
 30
0.0
 11
170.819245
 21
322.262483
 31
0.0
  0
LINE
  5
213
100
AcDbEntity
  8
Layer_1
 62
1
100
AcDbLine
 10
176.392597
 20
322.262483
 30
0.0
 11
176.874322
 21
322.262483
 31
0.0
  0
LINE
  5
214
100
AcDbEntity
  8
Layer_1
 62
1
100
AcDbLine
 10
176.874322
 20
322.262483
 30
0.0
 11
176.874322
 21
323.895262
 31
0.0
  0
SPLINE
  5
215
100
AcDbEntity
  8
Layer_1
 62
1
100
AcDbSpline
 70
8
 71
3
 72
8
 73
4
 74
0
 40
0
 40
0
 40
0
 40
0
 40
1
 40
1
 40
1
 40
1
 10
176.874322
 20
323.895262
 30
0.0
 10
176.874322
 20
324.243556
 30
0.0
 10
176.786551
 20
324.498400
 30
0.0
 10
176.606719
 20
324.674317
 30
0.0
  0
SPLINE
  5
216
100
AcDbEntity
  8
Layer_1
 62
1
100
AcDbSpline
 70
8
 71
3
 72
8
 73
4
 74
0
 40
0
 40
0
 40
0
 40
0
 40
1
 40
1
 40
1
 40
1
 10
176.606719
 20
324.674317
 30
0.0
 10
176.425504
 20
324.850585
 30
0.0
 10
176.188720
 20
324.936242
 30
0.0
 10
175.883610
 20
324.936242
 30
0.0
  0
SPLINE
  5
217
100
AcDbEntity
  8
Layer_1
 62
1
100
AcDbSpline
 70
8
 71
3
 72
8
 73
4
 74
0
 40
0
 40
0
 40
0
 40
0
 40
1
 40
1
 40
1
 40
1
 10
175.883610
 20
324.936242
 30
0.0
 10
175.717240
 20
324.936242
 30
0.0
 10
175.548047
 20
324.892703
 30
0.0
 10
175.380633
 20
324.806693
 30
0.0
  0
SPLINE
  5
218
100
AcDbEntity
  8
Layer_1
 62
1
100
AcDbSpline
 70
8
 71
3
 72
8
 73
4
 74
0
 40
0
 40
0
 40
0
 40
0
 40
1
 40
1
 40
1
 40
1
 10
175.380633
 20
324.806693
 30
0.0
 10
175.213924
 20
324.721036
 30
0.0
 10
175.085429
 20
324.603877
 30
0.0
 10
174.987385
 20
324.448494
 30
0.0
  0
LINE
  5
219
100
AcDbEntity
  8
Layer_1
 62
1
100
AcDbLine
 10
174.987385
 20
324.448494
 30
0.0
 11
174.817854
 21
324.179844
 31
0.0
  0
LINE
  5
21a
100
AcDbEntity
  8
Layer_1
 62
1
100
AcDbLine
 10
174.817854
 20
324.179844
 30
0.0
 11
174.678408
 21
324.465128
 31
0.0
  0
SPLINE
  5
21b
100
AcDbEntity
  8
Layer_1
 62
1
100
AcDbSpline
 70
8
 71
3
 72
8
 73
4
 74
0
 40
0
 40
0
 40
0
 40
0
 40
1
 40
1
 40
1
 40
1
 10
174.678408
 20
324.465128
 30
0.0
 10
174.612904
 20
324.598921
 30
0.0
 10
174.518049
 20
324.709711
 30
0.0
 10
174.387804
 20
324.803863
 30
0.0
  0
SPLINE
  5
21c
100
AcDbEntity
  8
Layer_1
 62
1
100
AcDbSpline
 70
8
 71
3
 72
8
 73
4
 74
0
 40
0
 40
0
 40
0
 40
0
 40
1
 40
1
 40
1
 40
1
 10
174.387804
 20
324.803863
 30
0.0
 10
174.264614
 20
324.893059
 30
0.0
 10
174.130840
 20
324.936242
 30
0.0
 10
173.979682
 20
324.936242
 30
0.0
  0
SPLINE
  5
21d
100
AcDbEntity
  8
Layer_1
 62
1
100
AcDbSpline
 70
8
 71
3
 72
8
 73
4
 74
0
 40
0
 40
0
 40
0
 40
0
 40
1
 40
1
 40
1
 40
1
 10
173.979682
 20
324.936242
 30
0.0
 10
173.735475
 20
324.936242
 30
0.0
 10
173.521692
 20
324.828995
 30
0.0
 10
173.326309
 20
324.608128
 30
0.0
  0
LINE
  5
21e
100
AcDbEntity
  8
Layer_1
 62
1
100
AcDbLine
 10
173.326309
 20
324.608128
 30
0.0
 11
173.016599
 21
324.258068
 31
0.0
  0
LINE
  5
21f
100
AcDbEntity
  8
Layer_1
 62
1
100
AcDbLine
 10
173.016599
 20
324.258068
 30
0.0
 11
173.016599
 21
324.886334
 31
0.0
  0
LINE
  5
220
100
AcDbEntity
  8
Layer_1
 62
1
100
AcDbLine
 10
173.016599
 20
324.886334
 30
0.0
 11
172.540179
 21
324.886334
 31
0.0
  0
LINE
  5
221
100
AcDbEntity
  8
Layer_1
 62
1
100
AcDbLine
 10
172.540179
 20
324.886334
 30
0.0
 11
172.540179
 21
322.262124
 31
0.0
  0
LINE
  5
222
100
AcDbEntity
  8
Layer_1
 62
1
100
AcDbLine
 10
172.540179
 20
322.262124
 30
0.0
 11
173.016599
 21
322.262124
 31
0.0
  0
LINE
  5
223
100
AcDbEntity
  8
Layer_1
 62
1
100
AcDbLine
 10
173.016599
 20
322.262124
 30
0.0
 11
173.016599
 21
323.690327
 31
0.0
  0
SPLINE
  5
224
100
AcDbEntity
  8
Layer_1
 62
1
100
AcDbSpline
 70
8
 71
3
 72
8
 73
4
 74
0
 40
0
 40
0
 40
0
 40
0
 40
1
 40
1
 40
1
 40
1
 10
173.016599
 20
323.690327
 30
0.0
 10
173.016599
 20
323.971364
 30
0.0
 10
173.096947
 20
324.191878
 30
0.0
 10
173.255500
 20
324.346203
 30
0.0
  0
SPLINE
  5
225
100
AcDbEntity
  8
Layer_1
 62
1
100
AcDbSpline
 70
8
 71
3
 72
8
 73
4
 74
0
 40
0
 40
0
 40
0
 40
0
 40
1
 40
1
 40
1
 40
1
 10
173.255500
 20
324.346203
 30
0.0
 10
173.413008
 20
324.499111
 30
0.0
 10
173.598118
 20
324.575918
 30
0.0
 10
173.805184
 20
324.575918
 30
0.0
  0
SPLINE
  5
226
100
AcDbEntity
  8
Layer_1
 62
1
100
AcDbSpline
 70
8
 71
3
 72
8
 73
4
 74
0
 40
0
 40
0
 40
0
 40
0
 40
1
 40
1
 40
1
 40
1
 10
173.805184
 20
324.575918
 30
0.0
 10
174.083766
 20
324.575918
 30
0.0
 10
174.229223
 20
324.441769
 30
0.0
 10
174.302149
 20
324.329566
 30
0.0
  0
SPLINE
  5
227
100
AcDbEntity
  8
Layer_1
 62
1
100
AcDbSpline
 70
8
 71
3
 72
8
 73
4
 74
0
 40
0
 40
0
 40
0
 40
0
 40
1
 40
1
 40
1
 40
1
 10
174.302149
 20
324.329566
 30
0.0
 10
174.393815
 20
324.188695
 30
0.0
 10
174.438773
 20
323.986587
 30
0.0
 10
174.438773
 20
323.712628
 30
0.0
  0
LINE
  5
228
100
AcDbEntity
  8
Layer_1
 62
1
100
AcDbLine
 10
174.438773
 20
323.712628
 30
0.0
 11
174.438773
 21
322.262124
 31
0.0
  0
LINE
  5
229
100
AcDbEntity
  8
Layer_1
 62
1
100
AcDbLine
 10
174.438773
 20
322.262124
 30
0.0
 11
174.920498
 21
322.262124
 31
0.0
  0
LINE
  5
22a
100
AcDbEntity
  8
Layer_1
 62
1
100
AcDbLine
 10
174.920498
 20
322.262124
 30
0.0
 11
174.920498
 21
323.690327
 31
0.0
  0
SPLINE
  5
22b
100
AcDbEntity
  8
Layer_1
 62
1
100
AcDbSpline
 70
8
 71
3
 72
8
 73
4
 74
0
 40
0
 40
0
 40
0
 40
0
 40
1
 40
1
 40
1
 40
1
 10
174.920498
 20
323.690327
 30
0.0
 10
174.920498
 20
323.970655
 30
0.0
 10
174.999774
 20
324.190817
 30
0.0
 10
175.155871
 20
324.345142
 30
0.0
  0
SPLINE
  5
22c
100
AcDbEntity
  8
Layer_1
 62
1
100
AcDbSpline
 70
8
 71
3
 72
8
 73
4
 74
0
 40
0
 40
0
 40
0
 40
0
 40
1
 40
1
 40
1
 40
1
 10
175.155871
 20
324.345142
 30
0.0
 10
175.311968
 20
324.498755
 30
0.0
 10
175.498856
 20
324.575918
 30
0.0
 10
175.711934
 20
324.575918
 30
0.0
  0
SPLINE
  5
22d
100
AcDbEntity
  8
Layer_1
 62
1
100
AcDbSpline
 70
8
 71
3
 72
8
 73
4
 74
0
 40
0
 40
0
 40
0
 40
0
 40
1
 40
1
 40
1
 40
1
 10
175.711934
 20
324.575918
 30
0.0
 10
175.966075
 20
324.575918
 30
0.0
 10
176.392597
 20
324.463712
 30
0.0
 10
176.392597
 20
323.712628
 30
0.0
  0
LINE
  5
22e
100
AcDbEntity
  8
Layer_1
 62
1
100
AcDbLine
 10
176.392597
 20
323.712628
 30
0.0
 11
176.392597
 21
322.262483
 31
0.0
  0
LINE
  5
22f
100
AcDbEntity
  8
Layer_1
 62
1
100
AcDbLine
 10
176.392597
 20
322.262483
 30
0.0
 11
176.392597
 21
322.262483
 31
0.0
  0
SPLINE
  5
230
100
AcDbEntity
  8
Layer_1
 62
1
100
AcDbSpline
 70
8
 71
3
 72
8
 73
4
 74
0
 40
0
 40
0
 40
0
 40
0
 40
1
 40
1
 40
1
 40
1
 10
179.453918
 20
324.936242
 30
0.0
 10
179.086521
 20
324.936242
 30
0.0
 10
178.777178
 20
324.815544
 30
0.0
 10
178.508163
 20
324.567775
 30
0.0
  0
SPLINE
  5
231
100
AcDbEntity
  8
Layer_1
 62
1
100
AcDbSpline
 70
8
 71
3
 72
8
 73
4
 74
0
 40
0
 40
0
 40
0
 40
0
 40
1
 40
1
 40
1
 40
1
 10
178.508163
 20
324.567775
 30
0.0
 10
178.243044
 20
324.323902
 30
0.0
 10
178.114209
 20
324.000390
 30
0.0
 10
178.114209
 20
323.579893
 30
0.0
  0
SPLINE
  5
232
100
AcDbEntity
  8
Layer_1
 62
1
100
AcDbSpline
 70
8
 71
3
 72
8
 73
4
 74
0
 40
0
 40
0
 40
0
 40
0
 40
1
 40
1
 40
1
 40
1
 10
178.114209
 20
323.579893
 30
0.0
 10
178.114209
 20
323.158691
 30
0.0
 10
178.240927
 20
322.834113
 30
0.0
 10
178.501446
 20
322.587764
 30
0.0
  0
SPLINE
  5
233
100
AcDbEntity
  8
Layer_1
 62
1
100
AcDbSpline
 70
8
 71
3
 72
8
 73
4
 74
0
 40
0
 40
0
 40
0
 40
0
 40
1
 40
1
 40
1
 40
1
 10
178.501446
 20
322.587764
 30
0.0
 10
178.765127
 20
322.338937
 30
0.0
 10
179.092194
 20
322.217883
 30
0.0
 10
179.500993
 20
322.217883
 30
0.0
  0
SPLINE
  5
234
100
AcDbEntity
  8
Layer_1
 62
1
100
AcDbSpline
 70
8
 71
3
 72
8
 73
4
 74
0
 40
0
 40
0
 40
0
 40
0
 40
1
 40
1
 40
1
 40
1
 10
179.500993
 20
322.217883
 30
0.0
 10
179.851428
 20
322.217883
 30
0.0
 10
180.156539
 20
322.320883
 30
0.0
 10
180.428375
 20
322.531838
 30
0.0
  0
LINE
  5
235
100
AcDbEntity
  8
Layer_1
 62
1
100
AcDbLine
 10
180.428375
 20
322.531838
 30
0.0
 11
180.205363
 21
322.773587
 31
0.0
  0
SPLINE
  5
236
100
AcDbEntity
  8
Layer_1
 62
1
100
AcDbSpline
 70
8
 71
3
 72
8
 73
4
 74
0
 40
0
 40
0
 40
0
 40
0
 40
1
 40
1
 40
1
 40
1
 10
180.205363
 20
322.773587
 30
0.0
 10
180.007864
 20
322.625638
 30
0.0
 10
179.770713
 20
322.550601
 30
0.0
 10
179.498171
 20
322.550601
 30
0.0
  0
SPLINE
  5
237
100
AcDbEntity
  8
Layer_1
 62
1
100
AcDbSpline
 70
8
 71
3
 72
8
 73
4
 74
0
 40
0
 40
0
 40
0
 40
0
 40
1
 40
1
 40
1
 40
1
 10
179.498171
 20
322.550601
 30
0.0
 10
179.280860
 20
322.550601
 30
0.0
 10
179.082288
 20
322.613957
 30
0.0
 10
178.908129
 20
322.738546
 30
0.0
  0
SPLINE
  5
238
100
AcDbEntity
  8
Layer_1
 62
1
100
AcDbSpline
 70
8
 71
3
 72
8
 73
4
 74
0
 40
0
 40
0
 40
0
 40
0
 40
1
 40
1
 40
1
 40
1
 10
178.908129
 20
322.738546
 30
0.0
 10
178.724430
 20
322.870573
 30
0.0
 10
178.614702
 20
323.043657
 30
0.0
 10
178.581795
 20
323.253548
 30
0.0
  0
LINE
  5
239
100
AcDbEntity
  8
Layer_1
 62
1
100
AcDbLine
 10
178.581795
 20
323.253548
 30
0.0
 11
178.549227
 21
323.458134
 31
0.0
  0
LINE
  5
23a
100
AcDbEntity
  8
Layer_1
 62
1
100
AcDbLine
 10
178.549227
 20
323.458134
 30
0.0
 11
180.749403
 21
323.458134
 31
0.0
  0
LINE
  5
23b
100
AcDbEntity
  8
Layer_1
 62
1
100
AcDbLine
 10
180.749403
 20
323.458134
 30
0.0
 11
180.749403
 21
323.723601
 31
0.0
  0
SPLINE
  5
23c
100
AcDbEntity
  8
Layer_1
 62
1
100
AcDbSpline
 70
8
 71
3
 72
8
 73
4
 74
0
 40
0
 40
0
 40
0
 40
0
 40
1
 40
1
 40
1
 40
1
 10
180.749403
 20
323.723601
 30
0.0
 10
180.749403
 20
324.105160
 30
0.0
 10
180.629063
 20
324.394691
 30
0.0
 10
180.381639
 20
324.607775
 30
0.0
  0
SPLINE
  5
23d
100
AcDbEntity
  8
Layer_1
 62
1
100
AcDbSpline
 70
8
 71
3
 72
8
 73
4
 74
0
 40
0
 40
0
 40
0
 40
0
 40
1
 40
1
 40
1
 40
1
 10
180.381639
 20
324.607775
 30
0.0
 10
180.126426
 20
324.829345
 30
0.0
 10
179.822754
 20
324.936242
 30
0.0
 10
179.453918
 20
324.936242
 30
0.0
  0
LINE
  5
23e
100
AcDbEntity
  8
Layer_1
 62
1
100
AcDbLine
 10
179.453918
 20
324.936242
 30
0.0
 11
179.453918
 21
324.936242
 31
0.0
  0
LINE
  5
23f
100
AcDbEntity
  8
Layer_1
 62
1
100
AcDbLine
 10
180.281112
 20
323.696344
 30
0.0
 11
178.576828
 21
323.696344
 31
0.0
  0
LINE
  5
240
100
AcDbEntity
  8
Layer_1
 62
1
100
AcDbLine
 10
178.576828
 20
323.696344
 30
0.0
 11
178.603075
 21
323.895974
 31
0.0
  0
SPLINE
  5
241
100
AcDbEntity
  8
Layer_1
 62
1
100
AcDbSpline
 70
8
 71
3
 72
8
 73
4
 74
0
 40
0
 40
0
 40
0
 40
0
 40
1
 40
1
 40
1
 40
1
 10
178.603018
 20
323.895974
 30
0.0
 10
178.631692
 20
324.115424
 30
0.0
 10
178.735747
 20
324.291692
 30
0.0
 10
178.912390
 20
324.420532
 30
0.0
  0
SPLINE
  5
242
100
AcDbEntity
  8
Layer_1
 62
1
100
AcDbSpline
 70
8
 71
3
 72
8
 73
4
 74
0
 40
0
 40
0
 40
0
 40
0
 40
1
 40
1
 40
1
 40
1
 10
178.912390
 20
324.420532
 30
0.0
 10
179.249335
 20
324.666881
 30
0.0
 10
179.709837
 20
324.661928
 30
0.0
 10
179.999369
 20
324.418274
 30
0.0
  0
SPLINE
  5
243
100
AcDbEntity
  8
Layer_1
 62
1
100
AcDbSpline
 70
8
 71
3
 72
8
 73
4
 74
0
 40
0
 40
0
 40
0
 40
0
 40
1
 40
1
 40
1
 40
1
 10
179.999369
 20
324.418274
 30
0.0
 10
180.149455
 20
324.291912
 30
0.0
 10
180.237565
 20
324.114583
 30
0.0
 10
180.260594
 20
323.891238
 30
0.0
  0
LINE
  5
244
100
AcDbEntity
  8
Layer_1
 62
1
100
AcDbLine
 10
180.260594
 20
323.891238
 30
0.0
 11
180.281196
 21
323.696205
 31
0.0
  0
LINE
  5
245
100
AcDbEntity
  8
Layer_1
 62
1
100
AcDbLine
 10
180.281112
 20
323.696205
 30
0.0
 11
180.281112
 21
323.696344
 31
0.0
  0
SPLINE
  5
246
100
AcDbEntity
  8
Layer_1
 62
1
100
AcDbSpline
 70
8
 71
3
 72
8
 73
4
 74
0
 40
0
 40
0
 40
0
 40
0
 40
1
 40
1
 40
1
 40
1
 10
181.485975
 20
322.742441
 30
0.0
 10
181.912497
 20
322.389903
 30
0.0
 10
182.375116
 20
322.218239
 30
0.0
 10
182.895759
 20
322.218239
 30
0.0
  0
SPLINE
  5
247
100
AcDbEntity
  8
Layer_1
 62
1
100
AcDbSpline
 70
8
 71
3
 72
8
 73
4
 74
0
 40
0
 40
0
 40
0
 40
0
 40
1
 40
1
 40
1
 40
1
 10
182.895759
 20
322.218239
 30
0.0
 10
183.275913
 20
322.218239
 30
0.0
 10
183.583507
 20
322.313805
 30
0.0
 10
183.809313
 20
322.501754
 30
0.0
  0
SPLINE
  5
248
100
AcDbEntity
  8
Layer_1
 62
1
100
AcDbSpline
 70
8
 71
3
 72
8
 73
4
 74
0
 40
0
 40
0
 40
0
 40
0
 40
1
 40
1
 40
1
 40
1
 10
183.809313
 20
322.501754
 30
0.0
 10
184.029136
 20
322.684041
 30
0.0
 10
184.135674
 20
322.915525
 30
0.0
 10
184.135674
 20
323.209657
 30
0.0
  0
SPLINE
  5
249
100
AcDbEntity
  8
Layer_1
 62
1
100
AcDbSpline
 70
8
 71
3
 72
8
 73
4
 74
0
 40
0
 40
0
 40
0
 40
0
 40
1
 40
1
 40
1
 40
1
 10
184.135674
 20
323.209657
 30
0.0
 10
184.135674
 20
323.506273
 30
0.0
 10
184.055326
 20
323.721826
 30
0.0
 10
183.890367
 20
323.869075
 30
0.0
  0
SPLINE
  5
24a
100
AcDbEntity
  8
Layer_1
 62
1
100
AcDbSpline
 70
8
 71
3
 72
8
 73
4
 74
0
 40
0
 40
0
 40
0
 40
0
 40
1
 40
1
 40
1
 40
1
 10
183.890367
 20
323.869075
 30
0.0
 10
183.710224
 20
324.029061
 30
0.0
 10
183.447927
 20
324.152590
 30
0.0
 10
183.110615
 20
324.235769
 30
0.0
  0
SPLINE
  5
24b
100
AcDbEntity
  8
Layer_1
 62
1
100
AcDbSpline
 70
8
 71
3
 72
8
 73
4
 74
0
 40
0
 40
0
 40
0
 40
0
 40
1
 40
1
 40
1
 40
1
 10
183.110615
 20
324.235769
 30
0.0
 10
182.589605
 20
324.363901
 30
0.0
 10
182.428907
 20
324.444955
 30
0.0
 10
182.352792
 20
324.494508
 30
0.0
  0
SPLINE
  5
24c
100
AcDbEntity
  8
Layer_1
 62
1
100
AcDbSpline
 70
8
 71
3
 72
8
 73
4
 74
0
 40
0
 40
0
 40
0
 40
0
 40
1
 40
1
 40
1
 40
1
 10
182.352792
 20
324.494508
 30
0.0
 10
182.200956
 20
324.593616
 30
0.0
 10
182.120608
 20
324.738029
 30
0.0
 10
182.120608
 20
324.911466
 30
0.0
  0
SPLINE
  5
24d
100
AcDbEntity
  8
Layer_1
 62
1
100
AcDbSpline
 70
8
 71
3
 72
8
 73
4
 74
0
 40
0
 40
0
 40
0
 40
0
 40
1
 40
1
 40
1
 40
1
 10
182.120608
 20
324.911466
 30
0.0
 10
182.120608
 20
325.076055
 30
0.0
 10
182.186083
 20
325.216926
 30
0.0
 10
182.309612
 20
325.318865
 30
0.0
  0
SPLINE
  5
24e
100
AcDbEntity
  8
Layer_1
 62
1
100
AcDbSpline
 70
8
 71
3
 72
8
 73
4
 74
0
 40
0
 40
0
 40
0
 40
0
 40
1
 40
1
 40
1
 40
1
 10
182.309612
 20
325.318865
 30
0.0
 10
182.424646
 20
325.413722
 30
0.0
 10
182.576848
 20
325.461505
 30
0.0
 10
182.762692
 20
325.461505
 30
0.0
  0
SPLINE
  5
24f
100
AcDbEntity
  8
Layer_1
 62
1
100
AcDbSpline
 70
8
 71
3
 72
8
 73
4
 74
0
 40
0
 40
0
 40
0
 40
0
 40
1
 40
1
 40
1
 40
1
 10
182.762692
 20
325.461505
 30
0.0
 10
183.104237
 20
325.461505
 30
0.0
 10
183.438727
 20
325.356739
 30
0.0
 10
183.759049
 20
325.149672
 30
0.0
  0
LINE
  5
250
100
AcDbEntity
  8
Layer_1
 62
1
100
AcDbLine
 10
183.759049
 20
325.149672
 30
0.0
 11
183.999051
 21
325.496193
 31
0.0
  0
SPLINE
  5
251
100
AcDbEntity
  8
Layer_1
 62
1
100
AcDbSpline
 70
8
 71
3
 72
8
 73
4
 74
0
 40
0
 40
0
 40
0
 40
0
 40
1
 40
1
 40
1
 40
1
 10
183.999051
 20
325.496193
 30
0.0
 10
183.853198
 20
325.598135
 30
0.0
 10
183.688634
 20
325.680606
 30
0.0
 10
183.507758
 20
325.742901
 30
0.0
  0
SPLINE
  5
252
100
AcDbEntity
  8
Layer_1
 62
1
100
AcDbSpline
 70
8
 71
3
 72
8
 73
4
 74
0
 40
0
 40
0
 40
0
 40
0
 40
1
 40
1
 40
1
 40
1
 10
183.507758
 20
325.742901
 30
0.0
 10
183.269196
 20
325.824311
 30
0.0
 10
183.027783
 20
325.866077
 30
0.0
 10
182.790293
 20
325.866077
 30
0.0
  0
SPLINE
  5
253
100
AcDbEntity
  8
Layer_1
 62
1
100
AcDbSpline
 70
8
 71
3
 72
8
 73
4
 74
0
 40
0
 40
0
 40
0
 40
0
 40
1
 40
1
 40
1
 40
1
 10
182.790293
 20
325.866077
 30
0.0
 10
182.436330
 20
325.866077
 30
0.0
 10
182.140081
 20
325.777589
 30
0.0
 10
181.908941
 20
325.603091
 30
0.0
  0
SPLINE
  5
254
100
AcDbEntity
  8
Layer_1
 62
1
100
AcDbSpline
 70
8
 71
3
 72
8
 73
4
 74
0
 40
0
 40
0
 40
0
 40
0
 40
1
 40
1
 40
1
 40
1
 10
181.908941
 20
325.603091
 30
0.0
 10
181.689852
 20
325.437793
 30
0.0
 10
181.583652
 20
325.206309
 30
0.0
 10
181.583652
 20
324.894829
 30
0.0
  0
SPLINE
  5
255
100
AcDbEntity
  8
Layer_1
 62
1
100
AcDbSpline
 70
8
 71
3
 72
8
 73
4
 74
0
 40
0
 40
0
 40
0
 40
0
 40
1
 40
1
 40
1
 40
1
 10
181.583652
 20
324.894829
 30
0.0
 10
181.583652
 20
324.580162
 30
0.0
 10
181.664706
 20
324.360715
 30
0.0
 10
181.831782
 20
324.223380
 30
0.0
  0
SPLINE
  5
256
100
AcDbEntity
  8
Layer_1
 62
1
100
AcDbSpline
 70
8
 71
3
 72
8
 73
4
 74
0
 40
0
 40
0
 40
0
 40
0
 40
1
 40
1
 40
1
 40
1
 10
181.831782
 20
324.223380
 30
0.0
 10
182.017597
 20
324.069766
 30
0.0
 10
182.325896
 20
323.941282
 30
0.0
 10
182.748157
 20
323.840757
 30
0.0
  0
SPLINE
  5
257
100
AcDbEntity
  8
Layer_1
 62
1
100
AcDbSpline
 70
8
 71
3
 72
8
 73
4
 74
0
 40
0
 40
0
 40
0
 40
0
 40
1
 40
1
 40
1
 40
1
 10
182.748157
 20
323.840757
 30
0.0
 10
183.062835
 20
323.763242
 30
0.0
 10
183.263156
 20
323.688554
 30
0.0
 10
183.380335
 20
323.605378
 30
0.0
  0
SPLINE
  5
258
100
AcDbEntity
  8
Layer_1
 62
1
100
AcDbSpline
 70
8
 71
3
 72
8
 73
4
 74
0
 40
0
 40
0
 40
0
 40
0
 40
1
 40
1
 40
1
 40
1
 10
183.380335
 20
323.605378
 30
0.0
 10
183.522970
 20
323.503442
 30
0.0
 10
183.598352
 20
323.357965
 30
0.0
 10
183.598352
 20
323.184884
 30
0.0
  0
SPLINE
  5
259
100
AcDbEntity
  8
Layer_1
 62
1
100
AcDbSpline
 70
8
 71
3
 72
8
 73
4
 74
0
 40
0
 40
0
 40
0
 40
0
 40
1
 40
1
 40
1
 40
1
 10
183.598352
 20
323.184884
 30
0.0
 10
183.598352
 20
323.013214
 30
0.0
 10
183.527232
 20
322.868448
 30
0.0
 10
183.392358
 20
322.766512
 30
0.0
  0
SPLINE
  5
25a
100
AcDbEntity
  8
Layer_1
 62
1
100
AcDbSpline
 70
8
 71
3
 72
8
 73
4
 74
0
 40
0
 40
0
 40
0
 40
0
 40
1
 40
1
 40
1
 40
1
 10
183.392358
 20
322.766512
 30
0.0
 10
183.271312
 20
322.674838
 30
0.0
 10
183.109543
 20
322.628116
 30
0.0
 10
182.912044
 20
322.628116
 30
0.0
  0
SPLINE
  5
25b
100
AcDbEntity
  8
Layer_1
 62
1
100
AcDbSpline
 70
8
 71
3
 72
8
 73
4
 74
0
 40
0
 40
0
 40
0
 40
0
 40
1
 40
1
 40
1
 40
1
 10
182.912044
 20
322.628116
 30
0.0
 10
182.556669
 20
322.628116
 30
0.0
 10
182.176177
 20
322.787391
 30
0.0
 10
181.779401
 20
323.102763
 30
0.0
  0
LINE
  5
25c
100
AcDbEntity
  8
Layer_1
 62
1
100
AcDbLine
 10
181.779401
 20
323.102763
 30
0.0
 11
181.485975
 21
322.742441
 31
0.0
  0
LINE
  5
25d
100
AcDbEntity
  8
Layer_1
 62
1
100
AcDbLine
 10
181.485975
 20
322.742441
 30
0.0
 11
181.485975
 21
322.742441
 31
0.0
  0
LINE
  5
25e
100
AcDbEntity
  8
Layer_1
 62
1
100
AcDbLine
 10
185.258750
 20
322.262483
 30
0.0
 11
186.404854
 21
322.262483
 31
0.0
  0
SPLINE
  5
25f
100
AcDbEntity
  8
Layer_1
 62
1
100
AcDbSpline
 70
8
 71
3
 72
8
 73
4
 74
0
 40
0
 40
0
 40
0
 40
0
 40
1
 40
1
 40
1
 40
1
 10
186.404854
 20
322.262483
 30
0.0
 10
187.091529
 20
322.262483
 30
0.0
 10
187.604044
 20
322.422469
 30
0.0
 10
187.927923
 20
322.738546
 30
0.0
  0
SPLINE
  5
260
100
AcDbEntity
  8
Layer_1
 62
1
100
AcDbSpline
 70
8
 71
3
 72
8
 73
4
 74
0
 40
0
 40
0
 40
0
 40
0
 40
1
 40
1
 40
1
 40
1
 10
187.927923
 20
322.738546
 30
0.0
 10
188.255329
 20
323.057105
 30
0.0
 10
188.414248
 20
323.482908
 30
0.0
 10
188.414248
 20
324.040031
 30
0.0
  0
SPLINE
  5
261
100
AcDbEntity
  8
Layer_1
 62
1
100
AcDbSpline
 70
8
 71
3
 72
8
 73
4
 74
0
 40
0
 40
0
 40
0
 40
0
 40
1
 40
1
 40
1
 40
1
 10
188.414248
 20
324.040031
 30
0.0
 10
188.414248
 20
324.594321
 30
0.0
 10
188.252140
 20
325.012340
 30
0.0
 10
187.918355
 20
325.317451
 30
0.0
  0
SPLINE
  5
262
100
AcDbEntity
  8
Layer_1
 62
1
100
AcDbSpline
 70
8
 71
3
 72
8
 73
4
 74
0
 40
0
 40
0
 40
0
 40
0
 40
1
 40
1
 40
1
 40
1
 10
187.918355
 20
325.317451
 30
0.0
 10
187.584938
 20
325.622911
 30
0.0
 10
187.090456
 20
325.777939
 30
0.0
 10
186.449106
 20
325.777939
 30
0.0
  0
LINE
  5
263
100
AcDbEntity
  8
Layer_1
 62
1
100
AcDbLine
 10
186.449106
 20
325.777939
 30
0.0
 11
185.258750
 21
325.777939
 31
0.0
  0
LINE
  5
264
100
AcDbEntity
  8
Layer_1
 62
1
100
AcDbLine
 10
185.258750
 20
325.777939
 30
0.0
 11
185.258750
 21
322.262483
 31
0.0
  0
LINE
  5
265
100
AcDbEntity
  8
Layer_1
 62
1
100
AcDbLine
 10
185.258750
 20
322.262483
 30
0.0
 11
185.258750
 21
322.262483
 31
0.0
  0
LINE
  5
266
100
AcDbEntity
  8
Layer_1
 62
1
100
AcDbLine
 10
186.493331
 20
322.672360
 30
0.0
 11
185.768443
 21
322.672360
 31
0.0
  0
LINE
  5
267
100
AcDbEntity
  8
Layer_1
 62
1
100
AcDbLine
 10
185.768443
 20
322.672360
 30
0.0
 11
185.768443
 21
325.378685
 31
0.0
  0
LINE
  5
268
100
AcDbEntity
  8
Layer_1
 62
1
100
AcDbLine
 10
185.768443
 20
325.378685
 30
0.0
 11
186.427150
 21
325.378685
 31
0.0
  0
SPLINE
  5
269
100
AcDbEntity
  8
Layer_1
 62
1
100
AcDbSpline
 70
8
 71
3
 72
8
 73
4
 74
0
 40
0
 40
0
 40
0
 40
0
 40
1
 40
1
 40
1
 40
1
 10
186.427150
 20
325.378685
 30
0.0
 10
186.911358
 20
325.378685
 30
0.0
 10
187.281606
 20
325.258689
 30
0.0
 10
187.526885
 20
325.022252
 30
0.0
  0
SPLINE
  5
26a
100
AcDbEntity
  8
Layer_1
 62
1
100
AcDbSpline
 70
8
 71
3
 72
8
 73
4
 74
0
 40
0
 40
0
 40
0
 40
0
 40
1
 40
1
 40
1
 40
1
 10
187.526885
 20
325.022252
 30
0.0
 10
187.773942
 20
324.782981
 30
0.0
 10
187.899249
 20
324.444955
 30
0.0
 10
187.899249
 20
324.017380
 30
0.0
  0
SPLINE
  5
26b
100
AcDbEntity
  8
Layer_1
 62
1
100
AcDbSpline
 70
8
 71
3
 72
8
 73
4
 74
0
 40
0
 40
0
 40
0
 40
0
 40
1
 40
1
 40
1
 40
1
 10
187.899249
 20
324.017380
 30
0.0
 10
187.899249
 20
323.588385
 30
0.0
 10
187.773604
 20
323.252487
 30
0.0
 10
187.525107
 20
323.018881
 30
0.0
  0
SPLINE
  5
26c
100
AcDbEntity
  8
Layer_1
 62
1
100
AcDbSpline
 70
8
 71
3
 72
8
 73
4
 74
0
 40
0
 40
0
 40
0
 40
0
 40
1
 40
1
 40
1
 40
1
 10
187.525107
 20
323.018881
 30
0.0
 10
187.279461
 20
322.788810
 30
0.0
 10
186.932610
 20
322.672360
 30
0.0
 10
186.493331
 20
322.672360
 30
0.0
  0
LINE
  5
26d
100
AcDbEntity
  8
Layer_1
 62
1
100
AcDbLine
 10
186.493331
 20
322.672360
 30
0.0
 11
186.493331
 21
322.672360
 31
0.0
  0
LINE
  5
26e
100
AcDbEntity
  8
Layer_1
 62
1
100
AcDbLine
 10
191.738572
 20
322.262483
 30
0.0
 11
192.366488
 21
322.262483
 31
0.0
  0
LINE
  5
26f
100
AcDbEntity
  8
Layer_1
 62
1
100
AcDbLine
 10
192.366488
 20
322.262483
 30
0.0
 11
191.451157
 21
323.555822
 31
0.0
  0
LINE
  5
270
100
AcDbEntity
  8
Layer_1
 62
1
100
AcDbLine
 10
191.451157
 20
323.555822
 30
0.0
 11
191.668129
 21
323.635816
 31
0.0
  0
SPLINE
  5
271
100
AcDbEntity
  8
Layer_1
 62
1
100
AcDbSpline
 70
8
 71
3
 72
8
 73
4
 74
0
 40
0
 40
0
 40
0
 40
0
 40
1
 40
1
 40
1
 40
1
 10
191.668129
 20
323.635816
 30
0.0
 10
192.085451
 20
323.789082
 30
0.0
 10
192.288256
 20
324.127814
 30
0.0
 10
192.288256
 20
324.670420
 30
0.0
  0
SPLINE
  5
272
100
AcDbEntity
  8
Layer_1
 62
1
100
AcDbSpline
 70
8
 71
3
 72
8
 73
4
 74
0
 40
0
 40
0
 40
0
 40
0
 40
1
 40
1
 40
1
 40
1
 10
192.288256
 20
324.670420
 30
0.0
 10
192.288256
 20
325.067201
 30
0.0
 10
192.184568
 20
325.342580
 30
0.0
 10
191.970756
 20
325.512125
 30
0.0
  0
SPLINE
  5
273
100
AcDbEntity
  8
Layer_1
 62
1
100
AcDbSpline
 70
8
 71
3
 72
8
 73
4
 74
0
 40
0
 40
0
 40
0
 40
0
 40
1
 40
1
 40
1
 40
1
 10
191.970756
 20
325.512125
 30
0.0
 10
191.747434
 20
325.688390
 30
0.0
 10
191.351335
 20
325.777939
 30
0.0
 10
190.793522
 20
325.777939
 30
0.0
  0
LINE
  5
274
100
AcDbEntity
  8
Layer_1
 62
1
100
AcDbLine
 10
190.793522
 20
325.777939
 30
0.0
 11
189.503710
 21
325.777939
 31
0.0
  0
LINE
  5
275
100
AcDbEntity
  8
Layer_1
 62
1
100
AcDbLine
 10
189.503710
 20
325.777939
 30
0.0
 11
189.503710
 21
322.262483
 31
0.0
  0
LINE
  5
276
100
AcDbEntity
  8
Layer_1
 62
1
100
AcDbLine
 10
189.503710
 20
322.262483
 30
0.0
 11
190.013404
 21
322.262483
 31
0.0
  0
LINE
  5
277
100
AcDbEntity
  8
Layer_1
 62
1
100
AcDbLine
 10
190.013404
 20
322.262483
 30
0.0
 11
190.013404
 21
323.497067
 31
0.0
  0
LINE
  5
278
100
AcDbEntity
  8
Layer_1
 62
1
100
AcDbLine
 10
190.013404
 20
323.497067
 30
0.0
 11
190.880588
 21
323.497067
 31
0.0
  0
LINE
  5
279
100
AcDbEntity
  8
Layer_1
 62
1
100
AcDbLine
 10
190.880588
 20
323.497067
 30
0.0
 11
191.738572
 21
322.262483
 31
0.0
  0
LINE
  5
27a
100
AcDbEntity
  8
Layer_1
 62
1
100
AcDbLine
 10
191.738572
 20
322.262483
 30
0.0
 11
191.738572
 21
322.262483
 31
0.0
  0
LINE
  5
27b
100
AcDbEntity
  8
Layer_1
 62
1
100
AcDbLine
 10
190.821491
 20
323.890309
 30
0.0
 11
190.013404
 21
323.890309
 31
0.0
  0
LINE
  5
27c
100
AcDbEntity
  8
Layer_1
 62
1
100
AcDbLine
 10
190.013404
 20
323.890309
 30
0.0
 11
190.013404
 21
325.389652
 31
0.0
  0
LINE
  5
27d
100
AcDbEntity
  8
Layer_1
 62
1
100
AcDbLine
 10
190.013404
 20
325.389652
 30
0.0
 11
190.838114
 21
325.389652
 31
0.0
  0
SPLINE
  5
27e
100
AcDbEntity
  8
Layer_1
 62
1
100
AcDbSpline
 70
8
 71
3
 72
8
 73
4
 74
0
 40
0
 40
0
 40
0
 40
0
 40
1
 40
1
 40
1
 40
1
 10
190.838114
 20
325.389652
 30
0.0
 10
191.154908
 20
325.389652
 30
0.0
 10
191.378259
 20
325.341163
 30
0.0
 10
191.520894
 20
325.241699
 30
0.0
  0
SPLINE
  5
27f
100
AcDbEntity
  8
Layer_1
 62
1
100
AcDbSpline
 70
8
 71
3
 72
8
 73
4
 74
0
 40
0
 40
0
 40
0
 40
0
 40
1
 40
1
 40
1
 40
1
 10
191.520894
 20
325.241699
 30
0.0
 10
191.681224
 20
325.129496
 30
0.0
 10
191.762278
 20
324.936242
 30
0.0
 10
191.762278
 20
324.667239
 30
0.0
  0
SPLINE
  5
280
100
AcDbEntity
  8
Layer_1
 62
1
100
AcDbSpline
 70
8
 71
3
 72
8
 73
4
 74
0
 40
0
 40
0
 40
0
 40
0
 40
1
 40
1
 40
1
 40
1
 10
191.762278
 20
324.667239
 30
0.0
 10
191.762278
 20
324.407786
 30
0.0
 10
191.688675
 20
324.209932
 30
0.0
 10
191.543189
 20
324.079322
 30
0.0
  0
SPLINE
  5
281
100
AcDbEntity
  8
Layer_1
 62
1
100
AcDbSpline
 70
8
 71
3
 72
8
 73
4
 74
0
 40
0
 40
0
 40
0
 40
0
 40
1
 40
1
 40
1
 40
1
 10
191.543189
 20
324.079322
 30
0.0
 10
191.401260
 20
323.952252
 30
0.0
 10
191.165181
 20
323.890309
 30
0.0
 10
190.821491
 20
323.890309
 30
0.0
  0
LINE
  5
282
100
AcDbEntity
  8
Layer_1
 62
1
100
AcDbLine
 10
190.821491
 20
323.890309
 30
0.0
 11
190.821491
 21
323.890309
 31
0.0
  0
LINE
  5
283
100
AcDbEntity
  8
Layer_1
 62
1
100
AcDbLine
 10
187.088707
 20
326.456116
 30
0.0
 11
187.047643
 21
326.821749
 31
0.0
  0
SPLINE
  5
284
100
AcDbEntity
  8
Layer_1
 62
1
100
AcDbSpline
 70
8
 71
3
 72
8
 73
4
 74
0
 40
0
 40
0
 40
0
 40
0
 40
1
 40
1
 40
1
 40
1
 10
187.047643
 20
326.821749
 30
0.0
 10
187.033814
 20
326.945277
 30
0.0
 10
186.990296
 20
327.079071
 30
0.0
 10
186.914180
 20
327.230917
 30
0.0
  0
SPLINE
  5
285
100
AcDbEntity
  8
Layer_1
 62
1
100
AcDbSpline
 70
8
 71
3
 72
8
 73
4
 74
0
 40
0
 40
0
 40
0
 40
0
 40
1
 40
1
 40
1
 40
1
 10
186.914180
 20
327.230917
 30
0.0
 10
185.813401
 20
329.388614
 30
0.0
 10
178.821769
 20
333.786480
 30
0.0
 10
173.313186
 20
333.786480
 30
0.0
  0
LINE
  5
286
100
AcDbEntity
  8
Layer_1
 62
1
100
AcDbLine
 10
173.313186
 20
333.786480
 30
0.0
 11
173.025799
 21
333.786480
 31
0.0
  0
SPLINE
  5
287
100
AcDbEntity
  8
Layer_1
 62
1
100
AcDbSpline
 70
8
 71
3
 72
8
 73
4
 74
0
 40
0
 40
0
 40
0
 40
0
 40
1
 40
1
 40
1
 40
1
 10
173.025799
 20
333.786480
 30
0.0
 10
171.083997
 20
333.728077
 30
0.0
 10
170.391678
 20
332.897703
 30
0.0
 10
170.153821
 20
332.211742
 30
0.0
  0
SPLINE
  5
288
100
AcDbEntity
  8
Layer_1
 62
1
100
AcDbSpline
 70
8
 71
3
 72
8
 73
4
 74
0
 40
0
 40
0
 40
0
 40
0
 40
1
 40
1
 40
1
 40
1
 10
170.153821
 20
332.211742
 30
0.0
 10
169.820037
 20
331.293944
 30
0.0
 10
170.105674
 20
330.028208
 30
0.0
 10
170.936762
 20
328.736988
 30
0.0
  0
LINE
  5
289
100
AcDbEntity
  8
Layer_1
 62
1
100
AcDbLine
 10
170.936762
 20
328.736988
 30
0.0
 11
170.645819
 21
328.535588
 31
0.0
  0
SPLINE
  5
28a
100
AcDbEntity
  8
Layer_1
 62
1
100
AcDbSpline
 70
8
 71
3
 72
8
 73
4
 74
0
 40
0
 40
0
 40
0
 40
0
 40
1
 40
1
 40
1
 40
1
 10
170.645819
 20
328.535588
 30
0.0
 10
169.730121
 20
329.767344
 30
0.0
 10
169.205583
 20
331.112720
 30
0.0
 10
169.129467
 20
332.426239
 30
0.0
  0
SPLINE
  5
28b
100
AcDbEntity
  8
Layer_1
 62
1
100
AcDbSpline
 70
8
 71
3
 72
8
 73
4
 74
0
 40
0
 40
0
 40
0
 40
0
 40
1
 40
1
 40
1
 40
1
 10
169.129467
 20
332.426239
 30
0.0
 10
169.050191
 20
333.771612
 30
0.0
 10
169.439178
 20
334.921253
 30
0.0
 10
170.253276
 20
335.751274
 30
0.0
  0
SPLINE
  5
28c
100
AcDbEntity
  8
Layer_1
 62
1
100
AcDbSpline
 70
8
 71
3
 72
8
 73
4
 74
0
 40
0
 40
0
 40
0
 40
0
 40
1
 40
1
 40
1
 40
1
 10
170.253276
 20
335.751274
 30
0.0
 10
171.351234
 20
336.879675
 30
0.0
 10
173.062234
 20
337.452368
 30
0.0
 10
175.338864
 20
337.452368
 30
0.0
  0
SPLINE
  5
28d
100
AcDbEntity
  8
Layer_1
 62
1
100
AcDbSpline
 70
8
 71
3
 72
8
 73
4
 74
0
 40
0
 40
0
 40
0
 40
0
 40
1
 40
1
 40
1
 40
1
 10
175.338864
 20
337.452368
 30
0.0
 10
181.562429
 20
337.452368
 30
0.0
 10
189.647051
 20
333.307582
 30
0.0
 10
189.774136
 20
330.767261
 30
0.0
  0
LINE
  5
28e
100
AcDbEntity
  8
Layer_1
 62
1
100
AcDbLine
 10
189.774136
 20
330.767261
 30
0.0
 11
189.776958
 21
330.738945
 31
0.0
  0
LINE
  5
28f
100
AcDbEntity
  8
Layer_1
 62
1
100
AcDbLine
 10
189.775547
 20
330.738945
 30
0.0
 11
189.722800
 21
330.544980
 31
0.0
  0
SPLINE
  5
290
100
AcDbEntity
  8
Layer_1
 62
1
100
AcDbSpline
 70
8
 71
3
 72
8
 73
4
 74
0
 40
0
 40
0
 40
0
 40
0
 40
1
 40
1
 40
1
 40
1
 10
189.722800
 20
330.544980
 30
0.0
 10
189.316823
 20
329.465068
 30
0.0
 10
189.184461
 20
329.236770
 30
0.0
 10
188.692096
 20
328.386219
 30
0.0
  0
SPLINE
  5
291
100
AcDbEntity
  8
Layer_1
 62
1
100
AcDbSpline
 70
8
 71
3
 72
8
 73
4
 74
0
 40
0
 40
0
 40
0
 40
0
 40
1
 40
1
 40
1
 40
1
 10
188.692096
 20
328.386219
 30
0.0
 10
188.350184
 20
327.865556
 30
0.0
 10
188.300992
 20
327.806445
 30
0.0
 10
187.696783
 20
327.084735
 30
0.0
  0
LINE
  5
292
100
AcDbEntity
  8
Layer_1
 62
1
100
AcDbLine
 10
187.696783
 20
327.084735
 30
0.0
 11
187.600855
 21
326.970054
 31
0.0
  0
LINE
  5
293
100
AcDbEntity
  8
Layer_1
 62
1
100
AcDbLine
 10
187.600855
 20
326.970054
 30
0.0
 11
187.088707
 21
326.456116
 31
0.0
  0
LINE
  5
294
100
AcDbEntity
  8
Layer_1
 62
1
100
AcDbLine
 10
187.088707
 20
326.456116
 30
0.0
 11
187.088707
 21
326.456116
 31
0.0
  0
SPLINE
  5
295
100
AcDbEntity
  8
Layer_1
 62
1
100
AcDbSpline
 70
8
 71
3
 72
8
 73
4
 74
0
 40
0
 40
0
 40
0
 40
0
 40
1
 40
1
 40
1
 40
1
 10
173.312847
 20
334.140431
 30
0.0
 10
178.938214
 20
334.140431
 30
0.0
 10
186.095849
 20
329.613375
 30
0.0
 10
187.229931
 20
327.390904
 30
0.0
  0
SPLINE
  5
296
100
AcDbEntity
  8
Layer_1
 62
1
100
AcDbSpline
 70
8
 71
3
 72
8
 73
4
 74
0
 40
0
 40
0
 40
0
 40
0
 40
1
 40
1
 40
1
 40
1
 10
187.229931
 20
327.390904
 30
0.0
 10
187.264954
 20
327.320822
 30
0.0
 10
187.294701
 20
327.253216
 30
0.0
 10
187.319113
 20
327.187735
 30
0.0
  0
LINE
  5
297
100
AcDbEntity
  8
Layer_1
 62
1
100
AcDbLine
 10
187.319113
 20
327.187735
 30
0.0
 11
187.425652
 21
327.311972
 31
0.0
  0
SPLINE
  5
298
100
AcDbEntity
  8
Layer_1
 62
1
100
AcDbSpline
 70
8
 71
3
 72
8
 73
4
 74
0
 40
0
 40
0
 40
0
 40
0
 40
1
 40
1
 40
1
 40
1
 10
187.425652
 20
327.311972
 30
0.0
 10
188.029494
 20
328.034037
 30
0.0
 10
188.065958
 20
328.077220
 30
0.0
 10
188.391247
 20
328.572046
 30
0.0
  0
SPLINE
  5
299
100
AcDbEntity
  8
Layer_1
 62
1
100
AcDbSpline
 70
8
 71
3
 72
8
 73
4
 74
0
 40
0
 40
0
 40
0
 40
0
 40
1
 40
1
 40
1
 40
1
 10
188.391247
 20
328.572046
 30
0.0
 10
188.878645
 20
329.415162
 30
0.0
 10
188.995795
 20
329.617270
 30
0.0
 10
189.386560
 20
330.654349
 30
0.0
  0
LINE
  5
29a
100
AcDbEntity
  8
Layer_1
 62
1
100
AcDbLine
 10
189.386560
 20
330.654349
 30
0.0
 11
189.419128
 21
330.776464
 31
0.0
  0
SPLINE
  5
29b
100
AcDbEntity
  8
Layer_1
 62
1
100
AcDbSpline
 70
8
 71
3
 72
8
 73
4
 74
0
 40
0
 40
0
 40
0
 40
0
 40
1
 40
1
 40
1
 40
1
 10
189.419128
 20
330.776464
 30
0.0
 10
189.242147
 20
333.135207
 30
0.0
 10
181.257685
 20
337.098417
 30
0.0
 10
175.339231
 20
337.098417
 30
0.0
  0
SPLINE
  5
29c
100
AcDbEntity
  8
Layer_1
 62
1
100
AcDbSpline
 70
8
 71
3
 72
8
 73
4
 74
0
 40
0
 40
0
 40
0
 40
0
 40
1
 40
1
 40
1
 40
1
 10
175.339231
 20
337.098417
 30
0.0
 10
173.161717
 20
337.098417
 30
0.0
 10
171.536004
 20
336.561825
 30
0.0
 10
170.506712
 20
335.503858
 30
0.0
  0
SPLINE
  5
29d
100
AcDbEntity
  8
Layer_1
 62
1
100
AcDbSpline
 70
8
 71
3
 72
8
 73
4
 74
0
 40
0
 40
0
 40
0
 40
0
 40
1
 40
1
 40
1
 40
1
 10
170.506712
 20
335.503858
 30
0.0
 10
169.763762
 20
334.746755
 30
0.0
 10
169.409799
 20
333.690205
 30
0.0
 10
169.482725
 20
332.447121
 30
0.0
  0
SPLINE
  5
29e
100
AcDbEntity
  8
Layer_1
 62
1
100
AcDbSpline
 70
8
 71
3
 72
8
 73
4
 74
0
 40
0
 40
0
 40
0
 40
0
 40
1
 40
1
 40
1
 40
1
 10
169.482725
 20
332.447121
 30
0.0
 10
169.504456
 20
332.076532
 30
0.0
 10
169.563779
 20
331.702404
 30
0.0
 10
169.659706
 20
331.329337
 30
0.0
  0
SPLINE
  5
29f
100
AcDbEntity
  8
Layer_1
 62
1
100
AcDbSpline
 70
8
 71
3
 72
8
 73
4
 74
0
 40
0
 40
0
 40
0
 40
0
 40
1
 40
1
 40
1
 40
1
 10
169.659706
 20
331.329337
 30
0.0
 10
169.654909
 20
331.686475
 30
0.0
 10
169.707825
 20
332.022379
 30
0.0
 10
169.820037
 20
332.330673
 30
0.0
  0
SPLINE
  5
2a0
100
AcDbEntity
  8
Layer_1
 62
1
100
AcDbSpline
 70
8
 71
3
 72
8
 73
4
 74
0
 40
0
 40
0
 40
0
 40
0
 40
1
 40
1
 40
1
 40
1
 10
169.820037
 20
332.330673
 30
0.0
 10
170.043726
 20
332.975929
 30
0.0
 10
170.758369
 20
334.072828
 30
0.0
 10
173.020126
 20
334.140787
 30
0.0
  0
LINE
  5
2a1
100
AcDbEntity
  8
Layer_1
 62
1
100
AcDbLine
 10
173.020126
 20
334.140787
 30
0.0
 11
173.312847
 21
334.140787
 31
0.0
  0
LINE
  5
2a2
100
AcDbEntity
  8
Layer_1
 62
1
100
AcDbLine
 10
173.312847
 20
334.140787
 30
0.0
 11
173.312847
 21
334.140505
 31
0.0
  0
SPLINE
  5
2a3
100
AcDbEntity
  8
Layer_1
 62
1
100
AcDbSpline
 70
8
 71
3
 72
8
 73
4
 74
0
 40
0
 40
0
 40
0
 40
0
 40
1
 40
1
 40
1
 40
1
 10
188.425226
 20
339.757667
 30
0.0
 10
187.094012
 20
341.627598
 30
0.0
 10
185.090263
 20
343.081285
 30
0.0
 10
182.782842
 20
343.850422
 30
0.0
  0
SPLINE
  5
2a4
100
AcDbEntity
  8
Layer_1
 62
1
100
AcDbSpline
 70
8
 71
3
 72
8
 73
4
 74
0
 40
0
 40
0
 40
0
 40
0
 40
1
 40
1
 40
1
 40
1
 10
182.782842
 20
343.850422
 30
0.0
 10
180.442176
 20
344.629827
 30
0.0
 10
177.924838
 20
344.653542
 30
0.0
 10
175.802555
 20
343.956256
 30
0.0
  0
LINE
  5
2a5
100
AcDbEntity
  8
Layer_1
 62
1
100
AcDbLine
 10
175.802555
 20
343.956256
 30
0.0
 11
175.668048
 21
344.282601
 31
0.0
  0
SPLINE
  5
2a6
100
AcDbEntity
  8
Layer_1
 62
1
100
AcDbSpline
 70
8
 71
3
 72
8
 73
4
 74
0
 40
0
 40
0
 40
0
 40
0
 40
1
 40
1
 40
1
 40
1
 10
175.668048
 20
344.282601
 30
0.0
 10
177.037503
 20
344.967145
 30
0.0
 10
178.503930
 20
345.314018
 30
0.0
 10
180.026265
 20
345.314018
 30
0.0
  0
SPLINE
  5
2a7
100
AcDbEntity
  8
Layer_1
 62
1
100
AcDbSpline
 70
8
 71
3
 72
8
 73
4
 74
0
 40
0
 40
0
 40
0
 40
0
 40
1
 40
1
 40
1
 40
1
 10
180.026265
 20
345.314018
 30
0.0
 10
181.073253
 20
345.314018
 30
0.0
 10
182.109996
 20
345.143060
 30
0.0
 10
183.107087
 20
344.805386
 30
0.0
  0
SPLINE
  5
2a8
100
AcDbEntity
  8
Layer_1
 62
1
100
AcDbSpline
 70
8
 71
3
 72
8
 73
4
 74
0
 40
0
 40
0
 40
0
 40
0
 40
1
 40
1
 40
1
 40
1
 10
183.107087
 20
344.805386
 30
0.0
 10
185.518902
 20
344.001561
 30
0.0
 10
187.567948
 20
342.228257
 30
0.0
 10
188.727148
 20
339.939951
 30
0.0
  0
LINE
  5
2a9
100
AcDbEntity
  8
Layer_1
 62
1
100
AcDbLine
 10
188.727148
 20
339.939951
 30
0.0
 11
188.425226
 21
339.757667
 31
0.0
  0
LINE
  5
2aa
100
AcDbEntity
  8
Layer_1
 62
1
100
AcDbLine
 10
188.425226
 20
339.757667
 30
0.0
 11
188.425226
 21
339.757667
 31
0.0
  0
SPLINE
  5
2ab
100
AcDbEntity
  8
Layer_1
 62
1
100
AcDbSpline
 70
8
 71
3
 72
8
 73
4
 74
0
 40
0
 40
0
 40
0
 40
0
 40
1
 40
1
 40
1
 40
1
 10
179.073793
 20
344.815298
 30
0.0
 10
180.356860
 20
344.815298
 30
0.0
 10
181.642410
 20
344.603634
 30
0.0
 10
182.894715
 20
344.187032
 30
0.0
  0
SPLINE
  5
2ac
100
AcDbEntity
  8
Layer_1
 62
1
100
AcDbSpline
 70
8
 71
3
 72
8
 73
4
 74
0
 40
0
 40
0
 40
0
 40
0
 40
1
 40
1
 40
1
 40
1
 10
182.894715
 20
344.187032
 30
0.0
 10
184.400060
 20
343.684772
 30
0.0
 10
185.780494
 20
342.899351
 30
0.0
 10
186.939693
 20
341.900851
 30
0.0
  0
SPLINE
  5
2ad
100
AcDbEntity
  8
Layer_1
 62
1
100
AcDbSpline
 70
8
 71
3
 72
8
 73
4
 74
0
 40
0
 40
0
 40
0
 40
0
 40
1
 40
1
 40
1
 40
1
 10
186.939693
 20
341.900851
 30
0.0
 10
185.864370
 20
343.071373
 30
0.0
 10
184.503410
 20
343.967581
 30
0.0
 10
182.994509
 20
344.470549
 30
0.0
  0
SPLINE
  5
2ae
100
AcDbEntity
  8
Layer_1
 62
1
100
AcDbSpline
 70
8
 71
3
 72
8
 73
4
 74
0
 40
0
 40
0
 40
0
 40
0
 40
1
 40
1
 40
1
 40
1
 10
182.994509
 20
344.470549
 30
0.0
 10
181.444573
 20
344.995107
 30
0.0
 10
179.773196
 20
345.094212
 30
0.0
 10
178.205536
 20
344.783796
 30
0.0
  0
SPLINE
  5
2af
100
AcDbEntity
  8
Layer_1
 62
1
100
AcDbSpline
 70
8
 71
3
 72
8
 73
4
 74
0
 40
0
 40
0
 40
0
 40
0
 40
1
 40
1
 40
1
 40
1
 10
178.205536
 20
344.783796
 30
0.0
 10
178.491540
 20
344.804342
 30
0.0
 10
178.781072
 20
344.815298
 30
0.0
 10
179.073793
 20
344.815298
 30
0.0
  0
LINE
  5
2b0
100
AcDbEntity
  8
Layer_1
 62
1
100
AcDbLine
 10
179.073793
 20
344.815298
 30
0.0
 11
179.073793
 21
344.815298
 31
0.0
  0
LINE
  5
2b1
100
AcDbEntity
  8
Layer_1
 62
1
100
AcDbLine
 10
172.329557
 20
325.943236
 30
0.0
 11
171.587312
 21
326.866698
 31
0.0
  0
SPLINE
  5
2b2
100
AcDbEntity
  8
Layer_1
 62
1
100
AcDbSpline
 70
8
 71
3
 72
8
 73
4
 74
0
 40
0
 40
0
 40
0
 40
0
 40
1
 40
1
 40
1
 40
1
 10
171.587312
 20
326.866698
 30
0.0
 10
170.914100
 20
327.704506
 30
0.0
 10
170.650419
 20
328.539836
 30
0.0
 10
170.844391
 20
329.219071
 30
0.0
  0
SPLINE
  5
2b3
100
AcDbEntity
  8
Layer_1
 62
1
100
AcDbSpline
 70
8
 71
3
 72
8
 73
4
 74
0
 40
0
 40
0
 40
0
 40
0
 40
1
 40
1
 40
1
 40
1
 10
170.844391
 20
329.219071
 30
0.0
 10
171.091448
 20
330.075283
 30
0.0
 10
172.031530
 20
330.624973
 30
0.0
 10
173.492312
 20
330.767261
 30
0.0
  0
SPLINE
  5
2b4
100
AcDbEntity
  8
Layer_1
 62
1
100
AcDbSpline
 70
8
 71
3
 72
8
 73
4
 74
0
 40
0
 40
0
 40
0
 40
0
 40
1
 40
1
 40
1
 40
1
 10
173.492312
 20
330.767261
 30
0.0
 10
173.549999
 20
330.768107
 30
0.0
 10
173.590356
 20
330.771522
 30
0.0
 10
173.630686
 20
330.774683
 30
0.0
  0
SPLINE
  5
2b5
100
AcDbEntity
  8
Layer_1
 62
1
100
AcDbSpline
 70
8
 71
3
 72
8
 73
4
 74
0
 40
0
 40
0
 40
0
 40
0
 40
1
 40
1
 40
1
 40
1
 10
173.630686
 20
330.774694
 30
0.0
 10
173.680950
 20
330.778956
 30
0.0
 10
173.731214
 20
330.782851
 30
0.0
 10
173.781477
 20
330.782851
 30
0.0
  0
SPLINE
  5
2b6
100
AcDbEntity
  8
Layer_1
 62
1
100
AcDbSpline
 70
8
 71
3
 72
8
 73
4
 74
0
 40
0
 40
0
 40
0
 40
0
 40
1
 40
1
 40
1
 40
1
 10
173.781477
 20
330.782836
 30
0.0
 10
173.975449
 20
330.795593
 30
0.0
 10
174.186410
 20
330.801943
 30
0.0
 10
174.402310
 20
330.801943
 30
0.0
  0
SPLINE
  5
2b7
100
AcDbEntity
  8
Layer_1
 62
1
100
AcDbSpline
 70
8
 71
3
 72
8
 73
4
 74
0
 40
0
 40
0
 40
0
 40
0
 40
1
 40
1
 40
1
 40
1
 10
174.402310
 20
330.801949
 30
0.0
 10
176.212427
 20
330.801949
 30
0.0
 10
178.390307
 20
330.334377
 30
0.0
 10
180.539147
 20
329.484182
 30
0.0
  0
LINE
  5
2b8
100
AcDbEntity
  8
Layer_1
 62
1
100
AcDbLine
 10
180.539147
 20
329.484182
 30
0.0
 11
180.929912
 21
330.171913
 31
0.0
  0
LINE
  5
2b9
100
AcDbEntity
  8
Layer_1
 62
1
100
AcDbLine
 10
180.929912
 20
330.171913
 30
0.0
 11
183.149195
 21
326.438418
 31
0.0
  0
LINE
  5
2ba
100
AcDbEntity
  8
Layer_1
 62
1
100
AcDbLine
 10
183.149195
 20
326.438418
 30
0.0
 11
178.748842
 21
326.420722
 31
0.0
  0
LINE
  5
2bb
100
AcDbEntity
  8
Layer_1
 62
1
100
AcDbLine
 10
178.748842
 20
326.420720
 30
0.0
 11
179.073793
 21
327.034474
 31
0.0
  0
SPLINE
  5
2bc
100
AcDbEntity
  8
Layer_1
 62
1
100
AcDbSpline
 70
8
 71
3
 72
8
 73
4
 74
0
 40
0
 40
0
 40
0
 40
0
 40
1
 40
1
 40
1
 40
1
 10
179.073793
 20
327.034474
 30
0.0
 10
178.807601
 20
327.159772
 30
0.0
 10
178.552416
 20
327.273039
 30
0.0
 10
178.310664
 20
327.372500
 30
0.0
  0
SPLINE
  5
2bd
100
AcDbEntity
  8
Layer_1
 62
1
100
AcDbSpline
 70
8
 71
3
 72
8
 73
4
 74
0
 40
0
 40
0
 40
0
 40
0
 40
1
 40
1
 40
1
 40
1
 10
178.310664
 20
327.372500
 30
0.0
 10
176.389747
 20
328.144118
 30
0.0
 10
174.582114
 20
328.538066
 30
0.0
 10
173.294785
 20
328.448162
 30
0.0
  0
SPLINE
  5
2be
100
AcDbEntity
  8
Layer_1
 62
1
100
AcDbSpline
 70
8
 71
3
 72
8
 73
4
 74
0
 40
0
 40
0
 40
0
 40
0
 40
1
 40
1
 40
1
 40
1
 10
173.294785
 20
328.448162
 30
0.0
 10
172.559624
 20
328.391884
 30
0.0
 10
172.069404
 20
328.187298
 30
0.0
 10
171.878622
 20
327.856000
 30
0.0
  0
SPLINE
  5
2bf
100
AcDbEntity
  8
Layer_1
 62
1
100
AcDbSpline
 70
8
 71
3
 72
8
 73
4
 74
0
 40
0
 40
0
 40
0
 40
0
 40
1
 40
1
 40
1
 40
1
 10
171.878622
 20
327.856000
 30
0.0
 10
171.756166
 20
327.635486
 30
0.0
 10
171.759355
 20
327.368252
 30
0.0
 10
171.889629
 20
327.042260
 30
0.0
  0
LINE
  5
2c0
100
AcDbEntity
  8
Layer_1
 62
1
100
AcDbLine
 10
171.889601
 20
327.042260
 30
0.0
 11
172.329557
 21
325.943236
 31
0.0
  0
LINE
  5
2c1
100
AcDbEntity
  8
Layer_1
 62
1
100
AcDbLine
 10
172.329557
 20
325.943236
 30
0.0
 11
172.329557
 21
325.943236
 31
0.0
  0
SPLINE
  5
2c2
100
AcDbEntity
  8
Layer_1
 62
1
100
AcDbSpline
 70
8
 71
3
 72
8
 73
4
 74
0
 40
0
 40
0
 40
0
 40
0
 40
1
 40
1
 40
1
 40
1
 10
173.659021
 20
328.815211
 30
0.0
 10
174.956594
 20
328.815211
 30
0.0
 10
176.655939
 20
328.419491
 30
0.0
 10
178.444099
 20
327.701320
 30
0.0
  0
SPLINE
  5
2c3
100
AcDbEntity
  8
Layer_1
 62
1
100
AcDbSpline
 70
8
 71
3
 72
8
 73
4
 74
0
 40
0
 40
0
 40
0
 40
0
 40
1
 40
1
 40
1
 40
1
 10
178.444099
 20
327.701320
 30
0.0
 10
178.704618
 20
327.594073
 30
0.0
 10
178.982099
 20
327.470897
 30
0.0
 10
179.270220
 20
327.334273
 30
0.0
  0
LINE
  5
2c4
100
AcDbEntity
  8
Layer_1
 62
1
100
AcDbLine
 10
179.270220
 20
327.334273
 30
0.0
 11
179.556562
 21
327.191982
 31
0.0
  0
LINE
  5
2c5
100
AcDbEntity
  8
Layer_1
 62
1
100
AcDbLine
 10
179.556562
 20
327.191982
 30
0.0
 11
179.337473
 21
326.777858
 31
0.0
  0
LINE
  5
2c6
100
AcDbEntity
  8
Layer_1
 62
1
100
AcDbLine
 10
179.337473
 20
326.777858
 30
0.0
 11
182.527996
 21
326.790614
 31
0.0
  0
LINE
  5
2c7
100
AcDbEntity
  8
Layer_1
 62
1
100
AcDbLine
 10
182.527996
 20
326.790600
 30
0.0
 11
180.936629
 21
329.468254
 31
0.0
  0
LINE
  5
2c8
100
AcDbEntity
  8
Layer_1
 62
1
100
AcDbLine
 10
180.936629
 20
329.468254
 30
0.0
 11
180.691688
 21
329.036431
 31
0.0
  0
LINE
  5
2c9
100
AcDbEntity
  8
Layer_1
 62
1
100
AcDbLine
 10
180.691688
 20
329.036431
 30
0.0
 11
180.440736
 21
329.143326
 31
0.0
  0
SPLINE
  5
2ca
100
AcDbEntity
  8
Layer_1
 62
1
100
AcDbSpline
 70
8
 71
3
 72
8
 73
4
 74
0
 40
0
 40
0
 40
0
 40
0
 40
1
 40
1
 40
1
 40
1
 10
180.440736
 20
329.143326
 30
0.0
 10
178.076335
 20
330.083072
 30
0.0
 10
175.681143
 20
330.549227
 30
0.0
 10
173.792456
 20
330.429943
 30
0.0
  0
SPLINE
  5
2cb
100
AcDbEntity
  8
Layer_1
 62
1
100
AcDbSpline
 70
8
 71
3
 72
8
 73
4
 74
0
 40
0
 40
0
 40
0
 40
0
 40
1
 40
1
 40
1
 40
1
 10
173.792456
 20
330.429943
 30
0.0
 10
173.740781
 20
330.429661
 30
0.0
 10
173.700423
 20
330.426048
 30
0.0
 10
173.659727
 20
330.422521
 30
0.0
  0
SPLINE
  5
2cc
100
AcDbEntity
  8
Layer_1
 62
1
100
AcDbSpline
 70
8
 71
3
 72
8
 73
4
 74
0
 40
0
 40
0
 40
0
 40
0
 40
1
 40
1
 40
1
 40
1
 10
173.659727
 20
330.422512
 30
0.0
 10
173.609463
 20
330.418279
 30
0.0
 10
173.559199
 20
330.414356
 30
0.0
 10
173.508935
 20
330.414356
 30
0.0
  0
SPLINE
  5
2cd
100
AcDbEntity
  8
Layer_1
 62
1
100
AcDbSpline
 70
8
 71
3
 72
8
 73
4
 74
0
 40
0
 40
0
 40
0
 40
0
 40
1
 40
1
 40
1
 40
1
 10
173.508935
 20
330.414370
 30
0.0
 10
172.219829
 20
330.288008
 30
0.0
 10
171.388064
 20
329.828578
 30
0.0
 10
171.184186
 20
329.121733
 30
0.0
  0
SPLINE
  5
2ce
100
AcDbEntity
  8
Layer_1
 62
1
100
AcDbSpline
 70
8
 71
3
 72
8
 73
4
 74
0
 40
0
 40
0
 40
0
 40
0
 40
1
 40
1
 40
1
 40
1
 10
171.184186
 20
329.121733
 30
0.0
 10
171.067008
 20
328.712212
 30
0.0
 10
171.161608
 20
328.220216
 30
0.0
 10
171.449983
 20
327.696720
 30
0.0
  0
SPLINE
  5
2cf
100
AcDbEntity
  8
Layer_1
 62
1
100
AcDbSpline
 70
8
 71
3
 72
8
 73
4
 74
0
 40
0
 40
0
 40
0
 40
0
 40
1
 40
1
 40
1
 40
1
 10
171.449983
 20
327.696720
 30
0.0
 10
171.470868
 20
327.813878
 30
0.0
 10
171.510520
 20
327.925373
 30
0.0
 10
171.569984
 20
328.031912
 30
0.0
  0
SPLINE
  5
2d0
100
AcDbEntity
  8
Layer_1
 62
1
100
AcDbSpline
 70
8
 71
3
 72
8
 73
4
 74
0
 40
0
 40
0
 40
0
 40
0
 40
1
 40
1
 40
1
 40
1
 10
171.569984
 20
328.031912
 30
0.0
 10
171.826947
 20
328.477541
 30
0.0
 10
172.397883
 20
328.735927
 30
0.0
 10
173.268595
 20
328.802822
 30
0.0
  0
SPLINE
  5
2d1
100
AcDbEntity
  8
Layer_1
 62
1
100
AcDbSpline
 70
8
 71
3
 72
8
 73
4
 74
0
 40
0
 40
0
 40
0
 40
0
 40
1
 40
1
 40
1
 40
1
 10
173.268595
 20
328.802822
 30
0.0
 10
173.395313
 20
328.811317
 30
0.0
 10
173.525220
 20
328.815211
 30
0.0
 10
173.659021
 20
328.815211
 30
0.0
  0
LINE
  5
2d2
100
AcDbEntity
  8
Layer_1
 62
1
100
AcDbLine
 10
173.659021
 20
328.815211
 30
0.0
 11
173.659021
 21
328.815211
 31
0.0
  0
LINE
  5
2d3
100
AcDbEntity
  8
Layer_1
 62
1
100
AcDbLine
 10
190.243133
 20
333.144763
 30
0.0
 11
189.910760
 21
333.758164
 31
0.0
  0
SPLINE
  5
2d4
100
AcDbEntity
  8
Layer_1
 62
1
100
AcDbSpline
 70
8
 71
3
 72
8
 73
4
 74
0
 40
0
 40
0
 40
0
 40
0
 40
1
 40
1
 40
1
 40
1
 10
189.910760
 20
333.758164
 30
0.0
 10
188.481840
 20
336.394758
 30
0.0
 10
180.804606
 20
340.756875
 30
0.0
 10
174.749528
 20
340.756875
 30
0.0
  0
SPLINE
  5
2d5
100
AcDbEntity
  8
Layer_1
 62
1
100
AcDbSpline
 70
8
 71
3
 72
8
 73
4
 74
0
 40
0
 40
0
 40
0
 40
0
 40
1
 40
1
 40
1
 40
1
 10
174.749528
 20
340.756875
 30
0.0
 10
174.314539
 20
340.756875
 30
0.0
 10
173.890838
 20
340.731023
 30
0.0
 10
173.489462
 20
340.679359
 30
0.0
  0
LINE
  5
2d6
100
AcDbEntity
  8
Layer_1
 62
1
100
AcDbLine
 10
173.489462
 20
340.679359
 30
0.0
 11
173.978976
 21
339.778901
 31
0.0
  0
LINE
  5
2d7
100
AcDbEntity
  8
Layer_1
 62
1
100
AcDbLine
 10
173.978976
 20
339.778901
 30
0.0
 11
170.103557
 21
339.904202
 31
0.0
  0
LINE
  5
2d8
100
AcDbEntity
  8
Layer_1
 62
1
100
AcDbLine
 10
170.103557
 20
339.904202
 30
0.0
 11
172.096667
 21
343.226051
 31
0.0
  0
LINE
  5
2d9
100
AcDbEntity
  8
Layer_1
 62
1
100
AcDbLine
 10
172.096667
 20
343.226051
 30
0.0
 11
172.686709
 21
342.132688
 31
0.0
  0
SPLINE
  5
2da
100
AcDbEntity
  8
Layer_1
 62
1
100
AcDbSpline
 70
8
 71
3
 72
8
 73
4
 74
0
 40
0
 40
0
 40
0
 40
0
 40
1
 40
1
 40
1
 40
1
 10
172.686709
 20
342.132688
 30
0.0
 10
173.759520
 20
342.526995
 30
0.0
 10
175.019953
 20
342.728392
 30
0.0
 10
176.427988
 20
342.728392
 30
0.0
  0
SPLINE
  5
2db
100
AcDbEntity
  8
Layer_1
 62
1
100
AcDbSpline
 70
8
 71
3
 72
8
 73
4
 74
0
 40
0
 40
0
 40
0
 40
0
 40
1
 40
1
 40
1
 40
1
 10
176.427988
 20
342.728392
 30
0.0
 10
180.762131
 20
342.728392
 30
0.0
 10
185.787211
 20
340.759000
 30
0.0
 10
188.932069
 20
337.827208
 30
0.0
  0
SPLINE
  5
2dc
100
AcDbEntity
  8
Layer_1
 62
1
100
AcDbSpline
 70
8
 71
3
 72
8
 73
4
 74
0
 40
0
 40
0
 40
0
 40
0
 40
1
 40
1
 40
1
 40
1
 10
188.932069
 20
337.827208
 30
0.0
 10
189.197189
 20
337.587581
 30
0.0
 10
189.676092
 20
337.094525
 30
0.0
 10
189.885642
 20
336.502008
 30
0.0
  0
LINE
  5
2dd
100
AcDbEntity
  8
Layer_1
 62
1
100
AcDbLine
 10
189.885642
 20
336.502008
 30
0.0
 11
189.936950
 21
336.268398
 31
0.0
  0
SPLINE
  5
2de
100
AcDbEntity
  8
Layer_1
 62
1
100
AcDbSpline
 70
8
 71
3
 72
8
 73
4
 74
0
 40
0
 40
0
 40
0
 40
0
 40
1
 40
1
 40
1
 40
1
 10
189.936950
 20
336.268398
 30
0.0
 10
189.981908
 20
336.088944
 30
0.0
 10
190.028277
 20
335.873033
 30
0.0
 10
190.059067
 20
335.702780
 30
0.0
  0
LINE
  5
2df
100
AcDbEntity
  8
Layer_1
 62
1
100
AcDbLine
 10
190.059067
 20
335.702780
 30
0.0
 11
190.091636
 21
335.482977
 31
0.0
  0
SPLINE
  5
2e0
100
AcDbEntity
  8
Layer_1
 62
1
100
AcDbSpline
 70
8
 71
3
 72
8
 73
4
 74
0
 40
0
 40
0
 40
0
 40
0
 40
1
 40
1
 40
1
 40
1
 10
190.091636
 20
335.482977
 30
0.0
 10
190.213386
 20
334.657203
 30
0.0
 10
190.229304
 20
334.551017
 30
0.0
 10
190.243471
 20
333.952130
 30
0.0
  0
LINE
  5
2e1
100
AcDbEntity
  8
Layer_1
 62
1
100
AcDbLine
 10
190.243471
 20
333.952130
 30
0.0
 11
190.243471
 21
333.144763
 31
0.0
  0
LINE
  5
2e2
100
AcDbEntity
  8
Layer_1
 62
1
100
AcDbLine
 10
190.243471
 20
333.144763
 30
0.0
 11
190.243189
 21
333.144763
 31
0.0
  0
SPLINE
  5
2e3
100
AcDbEntity
  8
Layer_1
 62
1
100
AcDbSpline
 70
8
 71
3
 72
8
 73
4
 74
0
 40
0
 40
0
 40
0
 40
0
 40
1
 40
1
 40
1
 40
1
 10
174.749189
 20
341.111182
 30
0.0
 10
180.525347
 20
341.111182
 30
0.0
 10
187.767225
 20
337.183721
 30
0.0
 10
189.867580
 20
334.462176
 30
0.0
  0
SPLINE
  5
2e4
100
AcDbEntity
  8
Layer_1
 62
1
100
AcDbSpline
 70
8
 71
3
 72
8
 73
4
 74
0
 40
0
 40
0
 40
0
 40
0
 40
1
 40
1
 40
1
 40
1
 10
189.867580
 20
334.462176
 30
0.0
 10
189.849517
 20
334.696138
 30
0.0
 10
189.815905
 20
334.924084
 30
0.0
 10
189.741229
 20
335.432007
 30
0.0
  0
LINE
  5
2e5
100
AcDbEntity
  8
Layer_1
 62
1
100
AcDbLine
 10
189.741229
 20
335.432007
 30
0.0
 11
189.709704
 21
335.645793
 31
0.0
  0
SPLINE
  5
2e6
100
AcDbEntity
  8
Layer_1
 62
1
100
AcDbSpline
 70
8
 71
3
 72
8
 73
4
 74
0
 40
0
 40
0
 40
0
 40
0
 40
1
 40
1
 40
1
 40
1
 10
189.709704
 20
335.645793
 30
0.0
 10
189.681031
 20
335.803305
 30
0.0
 10
189.636440
 20
336.010365
 30
0.0
 10
189.592215
 20
336.188758
 30
0.0
  0
LINE
  5
2e7
100
AcDbEntity
  8
Layer_1
 62
1
100
AcDbLine
 10
189.592215
 20
336.188758
 30
0.0
 11
189.545479
 21
336.406086
 31
0.0
  0
SPLINE
  5
2e8
100
AcDbEntity
  8
Layer_1
 62
1
100
AcDbSpline
 70
8
 71
3
 72
8
 73
4
 74
0
 40
0
 40
0
 40
0
 40
0
 40
1
 40
1
 40
1
 40
1
 10
189.545479
 20
336.406086
 30
0.0
 10
189.368159
 20
336.903037
 30
0.0
 10
188.934553
 20
337.347599
 30
0.0
 10
188.692463
 20
337.566344
 30
0.0
  0
SPLINE
  5
2e9
100
AcDbEntity
  8
Layer_1
 62
1
100
AcDbSpline
 70
8
 71
3
 72
8
 73
4
 74
0
 40
0
 40
0
 40
0
 40
0
 40
1
 40
1
 40
1
 40
1
 10
188.692463
 20
337.566344
 30
0.0
 10
185.606334
 20
340.442919
 30
0.0
 10
180.678255
 20
342.374440
 30
0.0
 10
176.427621
 20
342.374440
 30
0.0
  0
SPLINE
  5
2ea
100
AcDbEntity
  8
Layer_1
 62
1
100
AcDbSpline
 70
8
 71
3
 72
8
 73
4
 74
0
 40
0
 40
0
 40
0
 40
0
 40
1
 40
1
 40
1
 40
1
 10
176.427621
 20
342.374440
 30
0.0
 10
175.040499
 20
342.374440
 30
0.0
 10
173.804845
 20
342.174810
 30
0.0
 10
172.755374
 20
341.780862
 30
0.0
  0
LINE
  5
2eb
100
AcDbEntity
  8
Layer_1
 62
1
100
AcDbLine
 10
172.755374
 20
341.780862
 30
0.0
 11
172.517517
 21
341.700866
 31
0.0
  0
LINE
  5
2ec
100
AcDbEntity
  8
Layer_1
 62
1
100
AcDbLine
 10
172.517517
 20
341.700866
 30
0.0
 11
172.080383
 21
342.511066
 31
0.0
  0
LINE
  5
2ed
100
AcDbEntity
  8
Layer_1
 62
1
100
AcDbLine
 10
172.080383
 20
342.511066
 30
0.0
 11
170.716600
 21
340.238686
 31
0.0
  0
LINE
  5
2ee
100
AcDbEntity
  8
Layer_1
 62
1
100
AcDbLine
 10
170.716600
 20
340.238686
 30
0.0
 11
173.373017
 21
340.152676
 31
0.0
  0
LINE
  5
2ef
100
AcDbEntity
  8
Layer_1
 62
1
100
AcDbLine
 10
173.373017
 20
340.152676
 30
0.0
 11
172.922788
 21
340.980572
 31
0.0
  0
LINE
  5
2f0
100
AcDbEntity
  8
Layer_1
 62
1
100
AcDbLine
 10
172.922788
 20
340.980572
 30
0.0
 11
173.358144
 21
341.018447
 31
0.0
  0
SPLINE
  5
2f1
100
AcDbEntity
  8
Layer_1
 62
1
100
AcDbSpline
 70
8
 71
3
 72
8
 73
4
 74
0
 40
0
 40
0
 40
0
 40
0
 40
1
 40
1
 40
1
 40
1
 10
173.358144
 20
341.018447
 30
0.0
 10
173.793500
 20
341.080033
 30
0.0
 10
174.264614
 20
341.111182
 30
0.0
 10
174.749189
 20
341.111182
 30
0.0
  0
LINE
  5
2f2
100
AcDbEntity
  8
Layer_1
 62
1
100
AcDbLine
 10
174.749189
 20
341.111182
 30
0.0
 11
174.749189
 21
341.111182
 31
0.0
  0
SPLINE
  5
2f3
100
AcDbEntity
  8
Layer_1
 62
7
100
AcDbSpline
 70
8
 71
3
 72
8
 73
4
 74
0
 40
0
 40
0
 40
0
 40
0
 40
1
 40
1
 40
1
 40
1
 10
141.533327
 20
417.750057
 30
0.0
 10
141.533327
 20
417.206006
 30
0.0
 10
141.247430
 20
416.703281
 30
0.0
 10
140.783333
 20
416.431255
 30
0.0
  0
SPLINE
  5
2f4
100
AcDbEntity
  8
Layer_1
 62
7
100
AcDbSpline
 70
8
 71
3
 72
8
 73
4
 74
0
 40
0
 40
0
 40
0
 40
0
 40
1
 40
1
 40
1
 40
1
 10
140.783333
 20
416.431255
 30
0.0
 10
140.319235
 20
416.159227
 30
0.0
 10
139.747442
 20
416.159227
 30
0.0
 10
139.283344
 20
416.431255
 30
0.0
  0
SPLINE
  5
2f5
100
AcDbEntity
  8
Layer_1
 62
7
100
AcDbSpline
 70
8
 71
3
 72
8
 73
4
 74
0
 40
0
 40
0
 40
0
 40
0
 40
1
 40
1
 40
1
 40
1
 10
139.283344
 20
416.431255
 30
0.0
 10
138.819247
 20
416.703281
 30
0.0
 10
138.533353
 20
417.206006
 30
0.0
 10
138.533353
 20
417.750057
 30
0.0
  0
SPLINE
  5
2f6
100
AcDbEntity
  8
Layer_1
 62
7
100
AcDbSpline
 70
8
 71
3
 72
8
 73
4
 74
0
 40
0
 40
0
 40
0
 40
0
 40
1
 40
1
 40
1
 40
1
 10
138.533353
 20
417.750057
 30
0.0
 10
138.533353
 20
418.294111
 30
0.0
 10
138.819247
 20
418.796837
 30
0.0
 10
139.283344
 20
419.068862
 30
0.0
  0
SPLINE
  5
2f7
100
AcDbEntity
  8
Layer_1
 62
7
100
AcDbSpline
 70
8
 71
3
 72
8
 73
4
 74
0
 40
0
 40
0
 40
0
 40
0
 40
1
 40
1
 40
1
 40
1
 10
139.283344
 20
419.068862
 30
0.0
 10
139.747442
 20
419.340888
 30
0.0
 10
140.319235
 20
419.340888
 30
0.0
 10
140.783333
 20
419.068862
 30
0.0
  0
SPLINE
  5
2f8
100
AcDbEntity
  8
Layer_1
 62
7
100
AcDbSpline
 70
8
 71
3
 72
8
 73
4
 74
0
 40
0
 40
0
 40
0
 40
0
 40
1
 40
1
 40
1
 40
1
 10
140.783333
 20
419.068862
 30
0.0
 10
141.247430
 20
418.796837
 30
0.0
 10
141.533327
 20
418.294111
 30
0.0
 10
141.533327
 20
417.750057
 30
0.0
  0
LINE
  5
2f9
100
AcDbEntity
  8
Layer_1
 62
7
100
AcDbLine
 10
141.533327
 20
417.750057
 30
0.0
 11
141.533327
 21
417.750057
 31
0.0
  0
SPLINE
  5
2fa
100
AcDbEntity
  8
Layer_1
 62
7
100
AcDbSpline
 70
8
 71
3
 72
8
 73
4
 74
0
 40
0
 40
0
 40
0
 40
0
 40
1
 40
1
 40
1
 40
1
 10
136.516042
 20
372.600180
 30
0.0
 10
136.516042
 20
372.056126
 30
0.0
 10
136.230148
 20
371.553401
 30
0.0
 10
135.766051
 20
371.281375
 30
0.0
  0
SPLINE
  5
2fb
100
AcDbEntity
  8
Layer_1
 62
7
100
AcDbSpline
 70
8
 71
3
 72
8
 73
4
 74
0
 40
0
 40
0
 40
0
 40
0
 40
1
 40
1
 40
1
 40
1
 10
135.766051
 20
371.281375
 30
0.0
 10
135.301953
 20
371.009347
 30
0.0
 10
134.730160
 20
371.009347
 30
0.0
 10
134.266062
 20
371.281375
 30
0.0
  0
SPLINE
  5
2fc
100
AcDbEntity
  8
Layer_1
 62
7
100
AcDbSpline
 70
8
 71
3
 72
8
 73
4
 74
0
 40
0
 40
0
 40
0
 40
0
 40
1
 40
1
 40
1
 40
1
 10
134.266062
 20
371.281375
 30
0.0
 10
133.801965
 20
371.553401
 30
0.0
 10
133.516071
 20
372.056126
 30
0.0
 10
133.516071
 20
372.600180
 30
0.0
  0
SPLINE
  5
2fd
100
AcDbEntity
  8
Layer_1
 62
7
100
AcDbSpline
 70
8
 71
3
 72
8
 73
4
 74
0
 40
0
 40
0
 40
0
 40
0
 40
1
 40
1
 40
1
 40
1
 10
133.516071
 20
372.600180
 30
0.0
 10
133.516071
 20
373.144231
 30
0.0
 10
133.801965
 20
373.646956
 30
0.0
 10
134.266062
 20
373.918982
 30
0.0
  0
SPLINE
  5
2fe
100
AcDbEntity
  8
Layer_1
 62
7
100
AcDbSpline
 70
8
 71
3
 72
8
 73
4
 74
0
 40
0
 40
0
 40
0
 40
0
 40
1
 40
1
 40
1
 40
1
 10
134.266062
 20
373.918982
 30
0.0
 10
134.730160
 20
374.191008
 30
0.0
 10
135.301953
 20
374.191008
 30
0.0
 10
135.766051
 20
373.918982
 30
0.0
  0
SPLINE
  5
2ff
100
AcDbEntity
  8
Layer_1
 62
7
100
AcDbSpline
 70
8
 71
3
 72
8
 73
4
 74
0
 40
0
 40
0
 40
0
 40
0
 40
1
 40
1
 40
1
 40
1
 10
135.766051
 20
373.918982
 30
0.0
 10
136.230148
 20
373.646956
 30
0.0
 10
136.516042
 20
373.144231
 30
0.0
 10
136.516042
 20
372.600180
 30
0.0
  0
LINE
  5
300
100
AcDbEntity
  8
Layer_1
 62
7
100
AcDbLine
 10
136.516042
 20
372.600180
 30
0.0
 11
136.516042
 21
372.600180
 31
0.0
  0
SPLINE
  5
301
100
AcDbEntity
  8
Layer_1
 62
7
100
AcDbSpline
 70
8
 71
3
 72
8
 73
4
 74
0
 40
0
 40
0
 40
0
 40
0
 40
1
 40
1
 40
1
 40
1
 10
141.533327
 20
337.483094
 30
0.0
 10
141.533327
 20
336.939043
 30
0.0
 10
141.247430
 20
336.436318
 30
0.0
 10
140.783333
 20
336.164289
 30
0.0
  0
SPLINE
  5
302
100
AcDbEntity
  8
Layer_1
 62
7
100
AcDbSpline
 70
8
 71
3
 72
8
 73
4
 74
0
 40
0
 40
0
 40
0
 40
0
 40
1
 40
1
 40
1
 40
1
 10
140.783333
 20
336.164289
 30
0.0
 10
140.319235
 20
335.892264
 30
0.0
 10
139.747442
 20
335.892264
 30
0.0
 10
139.283344
 20
336.164289
 30
0.0
  0
SPLINE
  5
303
100
AcDbEntity
  8
Layer_1
 62
7
100
AcDbSpline
 70
8
 71
3
 72
8
 73
4
 74
0
 40
0
 40
0
 40
0
 40
0
 40
1
 40
1
 40
1
 40
1
 10
139.283344
 20
336.164289
 30
0.0
 10
138.819247
 20
336.436318
 30
0.0
 10
138.533353
 20
336.939043
 30
0.0
 10
138.533353
 20
337.483094
 30
0.0
  0
SPLINE
  5
304
100
AcDbEntity
  8
Layer_1
 62
7
100
AcDbSpline
 70
8
 71
3
 72
8
 73
4
 74
0
 40
0
 40
0
 40
0
 40
0
 40
1
 40
1
 40
1
 40
1
 10
138.533353
 20
337.483094
 30
0.0
 10
138.533353
 20
338.027148
 30
0.0
 10
138.819247
 20
338.529873
 30
0.0
 10
139.283344
 20
338.801899
 30
0.0
  0
SPLINE
  5
305
100
AcDbEntity
  8
Layer_1
 62
7
100
AcDbSpline
 70
8
 71
3
 72
8
 73
4
 74
0
 40
0
 40
0
 40
0
 40
0
 40
1
 40
1
 40
1
 40
1
 10
139.283344
 20
338.801899
 30
0.0
 10
139.747442
 20
339.073927
 30
0.0
 10
140.319235
 20
339.073927
 30
0.0
 10
140.783333
 20
338.801899
 30
0.0
  0
SPLINE
  5
306
100
AcDbEntity
  8
Layer_1
 62
7
100
AcDbSpline
 70
8
 71
3
 72
8
 73
4
 74
0
 40
0
 40
0
 40
0
 40
0
 40
1
 40
1
 40
1
 40
1
 10
140.783333
 20
338.801899
 30
0.0
 10
141.247430
 20
338.529873
 30
0.0
 10
141.533327
 20
338.027148
 30
0.0
 10
141.533327
 20
337.483094
 30
0.0
  0
LINE
  5
307
100
AcDbEntity
  8
Layer_1
 62
7
100
AcDbLine
 10
141.533327
 20
337.483094
 30
0.0
 11
141.533327
 21
337.483094
 31
0.0
  0
SPLINE
  5
308
100
AcDbEntity
  8
Layer_1
 62
7
100
AcDbSpline
 70
8
 71
3
 72
8
 73
4
 74
0
 40
0
 40
0
 40
0
 40
0
 40
1
 40
1
 40
1
 40
1
 10
221.800290
 20
417.750057
 30
0.0
 10
221.800290
 20
417.206006
 30
0.0
 10
221.514399
 20
416.703281
 30
0.0
 10
221.050285
 20
416.431255
 30
0.0
  0
SPLINE
  5
309
100
AcDbEntity
  8
Layer_1
 62
7
100
AcDbSpline
 70
8
 71
3
 72
8
 73
4
 74
0
 40
0
 40
0
 40
0
 40
0
 40
1
 40
1
 40
1
 40
1
 10
221.050285
 20
416.431255
 30
0.0
 10
220.586198
 20
416.159227
 30
0.0
 10
220.014416
 20
416.159227
 30
0.0
 10
219.550302
 20
416.431255
 30
0.0
  0
SPLINE
  5
30a
100
AcDbEntity
  8
Layer_1
 62
7
100
AcDbSpline
 70
8
 71
3
 72
8
 73
4
 74
0
 40
0
 40
0
 40
0
 40
0
 40
1
 40
1
 40
1
 40
1
 10
219.550302
 20
416.431255
 30
0.0
 10
219.086216
 20
416.703281
 30
0.0
 10
218.800324
 20
417.206006
 30
0.0
 10
218.800324
 20
417.750057
 30
0.0
  0
SPLINE
  5
30b
100
AcDbEntity
  8
Layer_1
 62
7
100
AcDbSpline
 70
8
 71
3
 72
8
 73
4
 74
0
 40
0
 40
0
 40
0
 40
0
 40
1
 40
1
 40
1
 40
1
 10
218.800324
 20
417.750057
 30
0.0
 10
218.800324
 20
418.294111
 30
0.0
 10
219.086216
 20
418.796837
 30
0.0
 10
219.550302
 20
419.068862
 30
0.0
  0
SPLINE
  5
30c
100
AcDbEntity
  8
Layer_1
 62
7
100
AcDbSpline
 70
8
 71
3
 72
8
 73
4
 74
0
 40
0
 40
0
 40
0
 40
0
 40
1
 40
1
 40
1
 40
1
 10
219.550302
 20
419.068862
 30
0.0
 10
220.014416
 20
419.340888
 30
0.0
 10
220.586198
 20
419.340888
 30
0.0
 10
221.050285
 20
419.068862
 30
0.0
  0
SPLINE
  5
30d
100
AcDbEntity
  8
Layer_1
 62
7
100
AcDbSpline
 70
8
 71
3
 72
8
 73
4
 74
0
 40
0
 40
0
 40
0
 40
0
 40
1
 40
1
 40
1
 40
1
 10
221.050285
 20
419.068862
 30
0.0
 10
221.514399
 20
418.796837
 30
0.0
 10
221.800290
 20
418.294111
 30
0.0
 10
221.800290
 20
417.750057
 30
0.0
  0
LINE
  5
30e
100
AcDbEntity
  8
Layer_1
 62
7
100
AcDbLine
 10
221.800290
 20
417.750057
 30
0.0
 11
221.800290
 21
417.750057
 31
0.0
  0
SPLINE
  5
30f
100
AcDbEntity
  8
Layer_1
 62
7
100
AcDbSpline
 70
8
 71
3
 72
8
 73
4
 74
0
 40
0
 40
0
 40
0
 40
0
 40
1
 40
1
 40
1
 40
1
 10
226.817214
 20
372.600180
 30
0.0
 10
226.817214
 20
372.056126
 30
0.0
 10
226.531322
 20
371.553401
 30
0.0
 10
226.067236
 20
371.281375
 30
0.0
  0
SPLINE
  5
310
100
AcDbEntity
  8
Layer_1
 62
7
100
AcDbSpline
 70
8
 71
3
 72
8
 73
4
 74
0
 40
0
 40
0
 40
0
 40
0
 40
1
 40
1
 40
1
 40
1
 10
226.067236
 20
371.281375
 30
0.0
 10
225.603122
 20
371.009347
 30
0.0
 10
225.031340
 20
371.009347
 30
0.0
 10
224.567225
 20
371.281375
 30
0.0
  0
SPLINE
  5
311
100
AcDbEntity
  8
Layer_1
 62
7
100
AcDbSpline
 70
8
 71
3
 72
8
 73
4
 74
0
 40
0
 40
0
 40
0
 40
0
 40
1
 40
1
 40
1
 40
1
 10
224.567225
 20
371.281375
 30
0.0
 10
224.103139
 20
371.553401
 30
0.0
 10
223.817248
 20
372.056126
 30
0.0
 10
223.817248
 20
372.600180
 30
0.0
  0
SPLINE
  5
312
100
AcDbEntity
  8
Layer_1
 62
7
100
AcDbSpline
 70
8
 71
3
 72
8
 73
4
 74
0
 40
0
 40
0
 40
0
 40
0
 40
1
 40
1
 40
1
 40
1
 10
223.817248
 20
372.600180
 30
0.0
 10
223.817248
 20
373.144231
 30
0.0
 10
224.103139
 20
373.646956
 30
0.0
 10
224.567225
 20
373.918982
 30
0.0
  0
SPLINE
  5
313
100
AcDbEntity
  8
Layer_1
 62
7
100
AcDbSpline
 70
8
 71
3
 72
8
 73
4
 74
0
 40
0
 40
0
 40
0
 40
0
 40
1
 40
1
 40
1
 40
1
 10
224.567225
 20
373.918982
 30
0.0
 10
225.031340
 20
374.191008
 30
0.0
 10
225.603122
 20
374.191008
 30
0.0
 10
226.067236
 20
373.918982
 30
0.0
  0
SPLINE
  5
314
100
AcDbEntity
  8
Layer_1
 62
7
100
AcDbSpline
 70
8
 71
3
 72
8
 73
4
 74
0
 40
0
 40
0
 40
0
 40
0
 40
1
 40
1
 40
1
 40
1
 10
226.067236
 20
373.918982
 30
0.0
 10
226.531322
 20
373.646956
 30
0.0
 10
226.817214
 20
373.144231
 30
0.0
 10
226.817214
 20
372.600180
 30
0.0
  0
LINE
  5
315
100
AcDbEntity
  8
Layer_1
 62
7
100
AcDbLine
 10
226.817214
 20
372.600180
 30
0.0
 11
226.817214
 21
372.600180
 31
0.0
  0
SPLINE
  5
316
100
AcDbEntity
  8
Layer_1
 62
7
100
AcDbSpline
 70
8
 71
3
 72
8
 73
4
 74
0
 40
0
 40
0
 40
0
 40
0
 40
1
 40
1
 40
1
 40
1
 10
221.800290
 20
337.483094
 30
0.0
 10
221.800290
 20
336.939043
 30
0.0
 10
221.514399
 20
336.436318
 30
0.0
 10
221.050285
 20
336.164289
 30
0.0
  0
SPLINE
  5
317
100
AcDbEntity
  8
Layer_1
 62
7
100
AcDbSpline
 70
8
 71
3
 72
8
 73
4
 74
0
 40
0
 40
0
 40
0
 40
0
 40
1
 40
1
 40
1
 40
1
 10
221.050285
 20
336.164289
 30
0.0
 10
220.586198
 20
335.892264
 30
0.0
 10
220.014416
 20
335.892264
 30
0.0
 10
219.550302
 20
336.164289
 30
0.0
  0
SPLINE
  5
318
100
AcDbEntity
  8
Layer_1
 62
7
100
AcDbSpline
 70
8
 71
3
 72
8
 73
4
 74
0
 40
0
 40
0
 40
0
 40
0
 40
1
 40
1
 40
1
 40
1
 10
219.550302
 20
336.164289
 30
0.0
 10
219.086216
 20
336.436318
 30
0.0
 10
218.800324
 20
336.939043
 30
0.0
 10
218.800324
 20
337.483094
 30
0.0
  0
SPLINE
  5
319
100
AcDbEntity
  8
Layer_1
 62
7
100
AcDbSpline
 70
8
 71
3
 72
8
 73
4
 74
0
 40
0
 40
0
 40
0
 40
0
 40
1
 40
1
 40
1
 40
1
 10
218.800324
 20
337.483094
 30
0.0
 10
218.800324
 20
338.027148
 30
0.0
 10
219.086216
 20
338.529873
 30
0.0
 10
219.550302
 20
338.801899
 30
0.0
  0
SPLINE
  5
31a
100
AcDbEntity
  8
Layer_1
 62
7
100
AcDbSpline
 70
8
 71
3
 72
8
 73
4
 74
0
 40
0
 40
0
 40
0
 40
0
 40
1
 40
1
 40
1
 40
1
 10
219.550302
 20
338.801899
 30
0.0
 10
220.014416
 20
339.073927
 30
0.0
 10
220.586198
 20
339.073927
 30
0.0
 10
221.050285
 20
338.801899
 30
0.0
  0
SPLINE
  5
31b
100
AcDbEntity
  8
Layer_1
 62
7
100
AcDbSpline
 70
8
 71
3
 72
8
 73
4
 74
0
 40
0
 40
0
 40
0
 40
0
 40
1
 40
1
 40
1
 40
1
 10
221.050285
 20
338.801899
 30
0.0
 10
221.514399
 20
338.529873
 30
0.0
 10
221.800290
 20
338.027148
 30
0.0
 10
221.800290
 20
337.483094
 30
0.0
  0
LINE
  5
31c
100
AcDbEntity
  8
Layer_1
 62
7
100
AcDbLine
 10
221.800290
 20
337.483094
 30
0.0
 11
221.800290
 21
337.483094
 31
0.0
  0
ENDSEC
  0
SECTION
  2
OBJECTS
  0
DICTIONARY
  5
C
330
0
100
AcDbDictionary
  3
ACAD_GROUP
350
D
  3
ACAD_MLINESTYLE
350
17
  0
DICTIONARY
  5
D
330
C
100
AcDbDictionary
  0
DICTIONARY
  5
1A
330
C
100
AcDbDictionary
  0
DICTIONARY
  5
17
330
C
100
AcDbDictionary
  3
STANDARD
350
18
  0
DICTIONARY
  5
19
330
C
100
AcDbDictionary
  0
ENDSEC
  0
EOF
