  0
SECTION
  2
HEADER
  9
$ACADVER
  1
AC1014
  9
$HANDSEED
  5
FFFF
  9
$MEASUREMENT
 70
     1
  0
ENDSEC
  0
SECTION
  2
TABLES
  0
TABLE
  2
VPORT
  5
8
330
0
100
AcDbSymbolTable
 70
     4
  0
VPORT
  5
2E
330
8
100
AcDbSymbolTableRecord
100
AcDbViewportTableRecord
  2
*ACTIVE
 70
     0
 10
0.0
 20
0.0
 11
1.0
 21
1.0
 12
210.0
 22
148.5
 13
0.0
 23
0.0
 14
10.0
 24
10.0
 15
10.0
 25
10.0
 16
0.0
 26
0.0
 36
1.0
 17
0.0
 27
0.0
 37
0.0
 40
341.0
 41
1.24
 42
50.0
 43
0.0
 44
0.0
 50
0.0
 51
0.0
 71
     0
 72
   100
 73
     1
 74
     3
 75
     0
 76
     0
 77
     0
 78
     0
  0
ENDTAB
  0
TABLE
  2
LTYPE
  5
5
330
0
100
AcDbSymbolTable
 70
     1
  0
LTYPE
  5
14
330
5
100
AcDbSymbolTableRecord
100
AcDbLinetypeTableRecord
  2
BYBLOCK
 70
     0
  3

 72
    65
 73
     0
 40
0.0
  0
LTYPE
  5
15
330
5
100
AcDbSymbolTableRecord
100
AcDbLinetypeTableRecord
  2
BYLAYER
 70
     0
  3

 72
    65
 73
     0
 40
0.0
  0
LTYPE
  5
16
330
5
100
AcDbSymbolTableRecord
100
AcDbLinetypeTableRecord
  2
CONTINUOUS
 70
     0
  3
Solid line
 72
    65
 73
     0
 40
0.0
  0
ENDTAB
  0
TABLE
  2
LAYER
  5
2
100
AcDbSymbolTable
 70
2
  0
LAYER
  5
50
100
AcDbSymbolTableRecord
100
AcDbLayerTableRecord
  2
0
 70
0
  6
CONTINUOUS
  0
LAYER
  5
51
100
AcDbSymbolTableRecord
100
AcDbLayerTableRecord
  2
Layer_1
 70
0
  6
CONTINUOUS
  0
ENDTAB
  0
TABLE
  2
STYLE
  5
3
330
0
100
AcDbSymbolTable
 70
     1
  0
STYLE
  5
11
330
3
100
AcDbSymbolTableRecord
100
AcDbTextStyleTableRecord
  2
STANDARD
 70
     0
 40
0.0
 41
1.0
 50
0.0
 71
     0
 42
2.5
  3
txt
  4

  0
ENDTAB
  0
TABLE
  2
VIEW
  5
6
330
0
100
AcDbSymbolTable
 70
     0
  0
ENDTAB
  0
TABLE
  2
UCS
  5
7
330
0
100
AcDbSymbolTable
 70
     0
  0
ENDTAB
  0
TABLE
  2
APPID
  5
9
330
0
100
AcDbSymbolTable
 70
     2
  0
APPID
  5
12
330
9
100
AcDbSymbolTableRecord
100
AcDbRegAppTableRecord
  2
ACAD
 70
     0
  0
ENDTAB
  0
TABLE
  2
DIMSTYLE
  5
A
330
0
100
AcDbSymbolTable
 70
     1
  0
DIMSTYLE
105
27
330
A
100
AcDbSymbolTableRecord
100
AcDbDimStyleTableRecord
  2
ISO-25
 70
     0
  3

  4

  5

  6

  7

 40
1.0
 41
2.5
 42
0.625
 43
3.75
 44
1.25
 45
0.0
 46
0.0
 47
0.0
 48
0.0
140
2.5
141
2.5
142
0.0
143
0.03937007874016
144
1.0
145
0.0
146
1.0
147
0.625
 71
     0
 72
     0
 73
     0
 74
     0
 75
     0
 76
     0
 77
     1
 78
     8
170
     0
171
     3
172
     1
173
     0
174
     0
175
     0
176
     0
177
     0
178
     0
270
     2
271
     2
272
     2
273
     2
274
     3
340
11
275
     0
280
     0
281
     0
282
     0
283
     0
284
     8
285
     0
286
     0
287
     3
288
     0
  0
ENDTAB
  0
TABLE
  2
BLOCK_RECORD
  5
1
330
0
100
AcDbSymbolTable
 70
     1
  0
BLOCK_RECORD
  5
1F
330
1
100
AcDbSymbolTableRecord
100
AcDbBlockTableRecord
  2
*MODEL_SPACE
  0
BLOCK_RECORD
  5
1B
330
1
100
AcDbSymbolTableRecord
100
AcDbBlockTableRecord
  2
*PAPER_SPACE
  0
ENDTAB
  0
ENDSEC
  0
SECTION
  2
BLOCKS
  0
BLOCK
  5
20
330
1F
100
AcDbEntity
  8
0
100
AcDbBlockBegin
  2
*MODEL_SPACE
 70
     0
 10
0.0
 20
0.0
 30
0.0
  3
*MODEL_SPACE
  1

  0
ENDBLK
  5
21
330
1F
100
AcDbEntity
  8
0
100
AcDbBlockEnd
  0
BLOCK
  5
1C
330
1B
100
AcDbEntity
 67
     1
  8
0
100
AcDbBlockBegin
  2
*PAPER_SPACE
  1

  0
ENDBLK
  5
1D
330
1B
100
AcDbEntity
 67
     1
  8
0
100
AcDbBlockEnd
  0
ENDSEC
  0
SECTION
  2
ENTITIES
  0
LINE
  5
100
100
AcDbEntity
  8
Layer_1
 62
7
100
AcDbLine
 10
377.371412
 20
313.993653
 30
0.0
 11
387.371412
 21
313.993653
 31
0.0
  0
LINE
  5
101
100
AcDbEntity
  8
Layer_1
 62
7
100
AcDbLine
 10
387.371412
 20
313.993653
 30
0.0
 11
387.371412
 21
303.993653
 31
0.0
  0
LINE
  5
102
100
AcDbEntity
  8
Layer_1
 62
7
100
AcDbLine
 10
387.371412
 20
303.993653
 30
0.0
 11
377.371412
 21
303.993653
 31
0.0
  0
LINE
  5
103
100
AcDbEntity
  8
Layer_1
 62
7
100
AcDbLine
 10
377.371412
 20
303.993653
 30
0.0
 11
377.371412
 21
313.993653
 31
0.0
  0
SPLINE
  5
104
100
AcDbEntity
  8
Layer_1
 62
1
100
AcDbSpline
 70
8
 71
3
 72
8
 73
4
 74
0
 40
0
 40
0
 40
0
 40
0
 40
1
 40
1
 40
1
 40
1
 10
145.048808
 20
328.775040
 30
0.0
 10
144.674680
 20
328.775040
 30
0.0
 10
144.370281
 20
329.079439
 30
0.0
 10
144.370281
 20
329.453567
 30
0.0
  0
SPLINE
  5
105
100
AcDbEntity
  8
Layer_1
 62
1
100
AcDbSpline
 70
8
 71
3
 72
8
 73
4
 74
0
 40
0
 40
0
 40
0
 40
0
 40
1
 40
1
 40
1
 40
1
 10
144.370281
 20
329.453567
 30
0.0
 10
144.370281
 20
329.828050
 30
0.0
 10
144.674680
 20
330.132449
 30
0.0
 10
145.048808
 20
330.132449
 30
0.0
  0
SPLINE
  5
106
100
AcDbEntity
  8
Layer_1
 62
1
100
AcDbSpline
 70
8
 71
3
 72
8
 73
4
 74
0
 40
0
 40
0
 40
0
 40
0
 40
1
 40
1
 40
1
 40
1
 10
145.048808
 20
330.132449
 30
0.0
 10
145.423292
 20
330.132449
 30
0.0
 10
145.727688
 20
329.828050
 30
0.0
 10
145.727688
 20
329.453567
 30
0.0
  0
SPLINE
  5
107
100
AcDbEntity
  8
Layer_1
 62
1
100
AcDbSpline
 70
8
 71
3
 72
8
 73
4
 74
0
 40
0
 40
0
 40
0
 40
0
 40
1
 40
1
 40
1
 40
1
 10
145.727688
 20
329.453567
 30
0.0
 10
145.727688
 20
329.079792
 30
0.0
 10
145.423292
 20
328.775040
 30
0.0
 10
145.048808
 20
328.775040
 30
0.0
  0
LINE
  5
108
100
AcDbEntity
  8
Layer_1
 62
1
100
AcDbLine
 10
145.048808
 20
328.775040
 30
0.0
 11
145.048808
 21
328.775040
 31
0.0
  0
SPLINE
  5
109
100
AcDbEntity
  8
Layer_1
 62
1
100
AcDbSpline
 70
8
 71
3
 72
8
 73
4
 74
0
 40
0
 40
0
 40
0
 40
0
 40
1
 40
1
 40
1
 40
1
 10
145.048808
 20
329.778495
 30
0.0
 10
144.869707
 20
329.778495
 30
0.0
 10
144.724233
 20
329.632665
 30
0.0
 10
144.724233
 20
329.453567
 30
0.0
  0
SPLINE
  5
10a
100
AcDbEntity
  8
Layer_1
 62
1
100
AcDbSpline
 70
8
 71
3
 72
8
 73
4
 74
0
 40
0
 40
0
 40
0
 40
0
 40
1
 40
1
 40
1
 40
1
 10
144.724233
 20
329.453567
 30
0.0
 10
144.724233
 20
329.274466
 30
0.0
 10
144.869707
 20
329.128991
 30
0.0
 10
145.048808
 20
329.128991
 30
0.0
  0
SPLINE
  5
10b
100
AcDbEntity
  8
Layer_1
 62
1
100
AcDbSpline
 70
8
 71
3
 72
8
 73
4
 74
0
 40
0
 40
0
 40
0
 40
0
 40
1
 40
1
 40
1
 40
1
 10
145.048808
 20
329.128991
 30
0.0
 10
145.227909
 20
329.128991
 30
0.0
 10
145.373736
 20
329.274466
 30
0.0
 10
145.373736
 20
329.453567
 30
0.0
  0
SPLINE
  5
10c
100
AcDbEntity
  8
Layer_1
 62
1
100
AcDbSpline
 70
8
 71
3
 72
8
 73
4
 74
0
 40
0
 40
0
 40
0
 40
0
 40
1
 40
1
 40
1
 40
1
 10
145.373736
 20
329.453567
 30
0.0
 10
145.373736
 20
329.632665
 30
0.0
 10
145.227909
 20
329.778495
 30
0.0
 10
145.048808
 20
329.778495
 30
0.0
  0
LINE
  5
10d
100
AcDbEntity
  8
Layer_1
 62
1
100
AcDbLine
 10
145.048808
 20
329.778495
 30
0.0
 11
145.048808
 21
329.778495
 31
0.0
  0
SPLINE
  5
10e
100
AcDbEntity
  8
Layer_1
 62
1
100
AcDbSpline
 70
8
 71
3
 72
8
 73
4
 74
0
 40
0
 40
0
 40
0
 40
0
 40
1
 40
1
 40
1
 40
1
 10
145.048808
 20
330.781597
 30
0.0
 10
144.674680
 20
330.781597
 30
0.0
 10
144.370281
 20
331.085996
 30
0.0
 10
144.370281
 20
331.460124
 30
0.0
  0
SPLINE
  5
10f
100
AcDbEntity
  8
Layer_1
 62
1
100
AcDbSpline
 70
8
 71
3
 72
8
 73
4
 74
0
 40
0
 40
0
 40
0
 40
0
 40
1
 40
1
 40
1
 40
1
 10
144.370281
 20
331.460124
 30
0.0
 10
144.370281
 20
331.834608
 30
0.0
 10
144.674680
 20
332.139007
 30
0.0
 10
145.048808
 20
332.139007
 30
0.0
  0
SPLINE
  5
110
100
AcDbEntity
  8
Layer_1
 62
1
100
AcDbSpline
 70
8
 71
3
 72
8
 73
4
 74
0
 40
0
 40
0
 40
0
 40
0
 40
1
 40
1
 40
1
 40
1
 10
145.048808
 20
332.139007
 30
0.0
 10
145.423292
 20
332.139007
 30
0.0
 10
145.727688
 20
331.834608
 30
0.0
 10
145.727688
 20
331.460124
 30
0.0
  0
SPLINE
  5
111
100
AcDbEntity
  8
Layer_1
 62
1
100
AcDbSpline
 70
8
 71
3
 72
8
 73
4
 74
0
 40
0
 40
0
 40
0
 40
0
 40
1
 40
1
 40
1
 40
1
 10
145.727688
 20
331.460124
 30
0.0
 10
145.727688
 20
331.085996
 30
0.0
 10
145.423292
 20
330.781597
 30
0.0
 10
145.048808
 20
330.781597
 30
0.0
  0
LINE
  5
112
100
AcDbEntity
  8
Layer_1
 62
1
100
AcDbLine
 10
145.048808
 20
330.781597
 30
0.0
 11
145.048808
 21
330.781597
 31
0.0
  0
SPLINE
  5
113
100
AcDbEntity
  8
Layer_1
 62
1
100
AcDbSpline
 70
8
 71
3
 72
8
 73
4
 74
0
 40
0
 40
0
 40
0
 40
0
 40
1
 40
1
 40
1
 40
1
 10
145.048808
 20
331.785055
 30
0.0
 10
144.869707
 20
331.785055
 30
0.0
 10
144.724233
 20
331.639225
 30
0.0
 10
144.724233
 20
331.460124
 30
0.0
  0
SPLINE
  5
114
100
AcDbEntity
  8
Layer_1
 62
1
100
AcDbSpline
 70
8
 71
3
 72
8
 73
4
 74
0
 40
0
 40
0
 40
0
 40
0
 40
1
 40
1
 40
1
 40
1
 10
144.724233
 20
331.460124
 30
0.0
 10
144.724233
 20
331.281026
 30
0.0
 10
144.869707
 20
331.135552
 30
0.0
 10
145.048808
 20
331.135552
 30
0.0
  0
SPLINE
  5
115
100
AcDbEntity
  8
Layer_1
 62
1
100
AcDbSpline
 70
8
 71
3
 72
8
 73
4
 74
0
 40
0
 40
0
 40
0
 40
0
 40
1
 40
1
 40
1
 40
1
 10
145.048808
 20
331.135552
 30
0.0
 10
145.227909
 20
331.135552
 30
0.0
 10
145.373736
 20
331.281026
 30
0.0
 10
145.373736
 20
331.460124
 30
0.0
  0
SPLINE
  5
116
100
AcDbEntity
  8
Layer_1
 62
1
100
AcDbSpline
 70
8
 71
3
 72
8
 73
4
 74
0
 40
0
 40
0
 40
0
 40
0
 40
1
 40
1
 40
1
 40
1
 10
145.373736
 20
331.460124
 30
0.0
 10
145.373736
 20
331.639225
 30
0.0
 10
145.227909
 20
331.785055
 30
0.0
 10
145.048808
 20
331.785055
 30
0.0
  0
LINE
  5
117
100
AcDbEntity
  8
Layer_1
 62
1
100
AcDbLine
 10
145.048808
 20
331.785055
 30
0.0
 11
145.048808
 21
331.785055
 31
0.0
  0
SPLINE
  5
118
100
AcDbEntity
  8
Layer_1
 62
1
100
AcDbSpline
 70
8
 71
3
 72
8
 73
4
 74
0
 40
0
 40
0
 40
0
 40
0
 40
1
 40
1
 40
1
 40
1
 10
145.048808
 20
332.788158
 30
0.0
 10
144.674680
 20
332.788158
 30
0.0
 10
144.370281
 20
333.092557
 30
0.0
 10
144.370281
 20
333.466685
 30
0.0
  0
SPLINE
  5
119
100
AcDbEntity
  8
Layer_1
 62
1
100
AcDbSpline
 70
8
 71
3
 72
8
 73
4
 74
0
 40
0
 40
0
 40
0
 40
0
 40
1
 40
1
 40
1
 40
1
 10
144.370281
 20
333.466685
 30
0.0
 10
144.370281
 20
333.841168
 30
0.0
 10
144.674680
 20
334.145568
 30
0.0
 10
145.048808
 20
334.145568
 30
0.0
  0
SPLINE
  5
11a
100
AcDbEntity
  8
Layer_1
 62
1
100
AcDbSpline
 70
8
 71
3
 72
8
 73
4
 74
0
 40
0
 40
0
 40
0
 40
0
 40
1
 40
1
 40
1
 40
1
 10
145.048808
 20
334.145568
 30
0.0
 10
145.423292
 20
334.145568
 30
0.0
 10
145.727688
 20
333.841168
 30
0.0
 10
145.727688
 20
333.466685
 30
0.0
  0
SPLINE
  5
11b
100
AcDbEntity
  8
Layer_1
 62
1
100
AcDbSpline
 70
8
 71
3
 72
8
 73
4
 74
0
 40
0
 40
0
 40
0
 40
0
 40
1
 40
1
 40
1
 40
1
 10
145.727688
 20
333.466685
 30
0.0
 10
145.727688
 20
333.092557
 30
0.0
 10
145.423292
 20
332.788158
 30
0.0
 10
145.048808
 20
332.788158
 30
0.0
  0
LINE
  5
11c
100
AcDbEntity
  8
Layer_1
 62
1
100
AcDbLine
 10
145.048808
 20
332.788158
 30
0.0
 11
145.048808
 21
332.788158
 31
0.0
  0
SPLINE
  5
11d
100
AcDbEntity
  8
Layer_1
 62
1
100
AcDbSpline
 70
8
 71
3
 72
8
 73
4
 74
0
 40
0
 40
0
 40
0
 40
0
 40
1
 40
1
 40
1
 40
1
 10
145.048808
 20
333.791613
 30
0.0
 10
144.869707
 20
333.791613
 30
0.0
 10
144.724233
 20
333.645786
 30
0.0
 10
144.724233
 20
333.466685
 30
0.0
  0
SPLINE
  5
11e
100
AcDbEntity
  8
Layer_1
 62
1
100
AcDbSpline
 70
8
 71
3
 72
8
 73
4
 74
0
 40
0
 40
0
 40
0
 40
0
 40
1
 40
1
 40
1
 40
1
 10
144.724233
 20
333.466685
 30
0.0
 10
144.724233
 20
333.287584
 30
0.0
 10
144.869707
 20
333.142110
 30
0.0
 10
145.048808
 20
333.142110
 30
0.0
  0
SPLINE
  5
11f
100
AcDbEntity
  8
Layer_1
 62
1
100
AcDbSpline
 70
8
 71
3
 72
8
 73
4
 74
0
 40
0
 40
0
 40
0
 40
0
 40
1
 40
1
 40
1
 40
1
 10
145.048808
 20
333.142110
 30
0.0
 10
145.227909
 20
333.142110
 30
0.0
 10
145.373736
 20
333.287584
 30
0.0
 10
145.373736
 20
333.466685
 30
0.0
  0
SPLINE
  5
120
100
AcDbEntity
  8
Layer_1
 62
1
100
AcDbSpline
 70
8
 71
3
 72
8
 73
4
 74
0
 40
0
 40
0
 40
0
 40
0
 40
1
 40
1
 40
1
 40
1
 10
145.373736
 20
333.466685
 30
0.0
 10
145.373736
 20
333.645786
 30
0.0
 10
145.227909
 20
333.791613
 30
0.0
 10
145.048808
 20
333.791613
 30
0.0
  0
LINE
  5
121
100
AcDbEntity
  8
Layer_1
 62
1
100
AcDbLine
 10
145.048808
 20
333.791613
 30
0.0
 11
145.048808
 21
333.791613
 31
0.0
  0
SPLINE
  5
122
100
AcDbEntity
  8
Layer_1
 62
1
100
AcDbSpline
 70
8
 71
3
 72
8
 73
4
 74
0
 40
0
 40
0
 40
0
 40
0
 40
1
 40
1
 40
1
 40
1
 10
145.048808
 20
334.795071
 30
0.0
 10
144.674680
 20
334.795071
 30
0.0
 10
144.370281
 20
335.099470
 30
0.0
 10
144.370281
 20
335.473598
 30
0.0
  0
SPLINE
  5
123
100
AcDbEntity
  8
Layer_1
 62
1
100
AcDbSpline
 70
8
 71
3
 72
8
 73
4
 74
0
 40
0
 40
0
 40
0
 40
0
 40
1
 40
1
 40
1
 40
1
 10
144.370281
 20
335.473598
 30
0.0
 10
144.370281
 20
335.848082
 30
0.0
 10
144.674680
 20
336.152481
 30
0.0
 10
145.048808
 20
336.152481
 30
0.0
  0
SPLINE
  5
124
100
AcDbEntity
  8
Layer_1
 62
1
100
AcDbSpline
 70
8
 71
3
 72
8
 73
4
 74
0
 40
0
 40
0
 40
0
 40
0
 40
1
 40
1
 40
1
 40
1
 10
145.048808
 20
336.152481
 30
0.0
 10
145.423292
 20
336.152481
 30
0.0
 10
145.727688
 20
335.848082
 30
0.0
 10
145.727688
 20
335.473598
 30
0.0
  0
SPLINE
  5
125
100
AcDbEntity
  8
Layer_1
 62
1
100
AcDbSpline
 70
8
 71
3
 72
8
 73
4
 74
0
 40
0
 40
0
 40
0
 40
0
 40
1
 40
1
 40
1
 40
1
 10
145.727688
 20
335.473598
 30
0.0
 10
145.727688
 20
335.099470
 30
0.0
 10
145.423292
 20
334.795071
 30
0.0
 10
145.048808
 20
334.795071
 30
0.0
  0
LINE
  5
126
100
AcDbEntity
  8
Layer_1
 62
1
100
AcDbLine
 10
145.048808
 20
334.795071
 30
0.0
 11
145.048808
 21
334.795071
 31
0.0
  0
SPLINE
  5
127
100
AcDbEntity
  8
Layer_1
 62
1
100
AcDbSpline
 70
8
 71
3
 72
8
 73
4
 74
0
 40
0
 40
0
 40
0
 40
0
 40
1
 40
1
 40
1
 40
1
 10
145.048808
 20
335.798526
 30
0.0
 10
144.869707
 20
335.798526
 30
0.0
 10
144.724233
 20
335.652699
 30
0.0
 10
144.724233
 20
335.473598
 30
0.0
  0
SPLINE
  5
128
100
AcDbEntity
  8
Layer_1
 62
1
100
AcDbSpline
 70
8
 71
3
 72
8
 73
4
 74
0
 40
0
 40
0
 40
0
 40
0
 40
1
 40
1
 40
1
 40
1
 10
144.724233
 20
335.473598
 30
0.0
 10
144.724233
 20
335.294497
 30
0.0
 10
144.869707
 20
335.149023
 30
0.0
 10
145.048808
 20
335.149023
 30
0.0
  0
SPLINE
  5
129
100
AcDbEntity
  8
Layer_1
 62
1
100
AcDbSpline
 70
8
 71
3
 72
8
 73
4
 74
0
 40
0
 40
0
 40
0
 40
0
 40
1
 40
1
 40
1
 40
1
 10
145.048808
 20
335.149023
 30
0.0
 10
145.227909
 20
335.149023
 30
0.0
 10
145.373736
 20
335.294497
 30
0.0
 10
145.373736
 20
335.473598
 30
0.0
  0
SPLINE
  5
12a
100
AcDbEntity
  8
Layer_1
 62
1
100
AcDbSpline
 70
8
 71
3
 72
8
 73
4
 74
0
 40
0
 40
0
 40
0
 40
0
 40
1
 40
1
 40
1
 40
1
 10
145.373736
 20
335.473598
 30
0.0
 10
145.373736
 20
335.652699
 30
0.0
 10
145.227909
 20
335.798526
 30
0.0
 10
145.048808
 20
335.798526
 30
0.0
  0
LINE
  5
12b
100
AcDbEntity
  8
Layer_1
 62
1
100
AcDbLine
 10
145.048808
 20
335.798526
 30
0.0
 11
145.048808
 21
335.798526
 31
0.0
  0
LINE
  5
12c
100
AcDbEntity
  8
Layer_1
 62
7
100
AcDbLine
 10
128.172695
 20
337.296948
 30
0.0
 11
142.533982
 21
316.700687
 31
0.0
  0
SPLINE
  5
12d
100
AcDbEntity
  8
Layer_1
 62
7
100
AcDbSpline
 70
8
 71
3
 72
8
 73
4
 74
0
 40
0
 40
0
 40
0
 40
0
 40
1
 40
1
 40
1
 40
1
 10
142.533982
 20
316.700687
 30
0.0
 10
144.360381
 20
314.944728
 30
0.0
 10
146.788497
 20
312.711162
 30
0.0
 10
149.351822
 20
312.711162
 30
0.0
  0
LINE
  5
12e
100
AcDbEntity
  8
Layer_1
 62
7
100
AcDbLine
 10
149.351822
 20
312.711162
 30
0.0
 11
210.987073
 21
312.711162
 31
0.0
  0
SPLINE
  5
12f
100
AcDbEntity
  8
Layer_1
 62
7
100
AcDbSpline
 70
8
 71
3
 72
8
 73
4
 74
0
 40
0
 40
0
 40
0
 40
0
 40
1
 40
1
 40
1
 40
1
 10
210.987073
 20
312.711162
 30
0.0
 10
213.550384
 20
312.711162
 30
0.0
 10
215.978850
 20
314.944728
 30
0.0
 10
217.824019
 20
316.722615
 30
0.0
  0
LINE
  5
130
100
AcDbEntity
  8
Layer_1
 62
7
100
AcDbLine
 10
217.824019
 20
316.722615
 30
0.0
 11
232.273458
 21
337.441714
 31
0.0
  0
SPLINE
  5
131
100
AcDbEntity
  8
Layer_1
 62
7
100
AcDbSpline
 70
8
 71
3
 72
8
 73
4
 74
0
 40
0
 40
0
 40
0
 40
0
 40
1
 40
1
 40
1
 40
1
 10
232.273458
 20
337.441714
 30
0.0
 10
234.150829
 20
339.322618
 30
0.0
 10
235.175521
 20
341.797462
 30
0.0
 10
235.175521
 20
344.428746
 30
0.0
  0
LINE
  5
132
100
AcDbEntity
  8
Layer_1
 62
7
100
AcDbLine
 10
235.175521
 20
344.428746
 30
0.0
 11
235.171288
 21
347.061448
 31
0.0
  0
LINE
  5
133
100
AcDbEntity
  8
Layer_1
 62
7
100
AcDbLine
 10
235.171288
 20
347.061448
 30
0.0
 11
235.175521
 21
405.920278
 31
0.0
  0
SPLINE
  5
134
100
AcDbEntity
  8
Layer_1
 62
7
100
AcDbSpline
 70
8
 71
3
 72
8
 73
4
 74
0
 40
0
 40
0
 40
0
 40
0
 40
1
 40
1
 40
1
 40
1
 10
235.175521
 20
405.920278
 30
0.0
 10
235.175521
 20
408.552271
 30
0.0
 10
234.150829
 20
411.026403
 30
0.0
 10
232.290448
 20
412.887842
 30
0.0
  0
LINE
  5
135
100
AcDbEntity
  8
Layer_1
 62
7
100
AcDbLine
 10
232.290448
 20
412.887842
 30
0.0
 11
217.804913
 21
434.902863
 31
0.0
  0
SPLINE
  5
136
100
AcDbEntity
  8
Layer_1
 62
7
100
AcDbSpline
 70
8
 71
3
 72
8
 73
4
 74
0
 40
0
 40
0
 40
0
 40
0
 40
1
 40
1
 40
1
 40
1
 10
217.804913
 20
434.902863
 30
0.0
 10
215.978511
 20
436.658827
 30
0.0
 10
213.550384
 20
437.638212
 30
0.0
 10
210.987073
 20
437.638212
 30
0.0
  0
LINE
  5
137
100
AcDbEntity
  8
Layer_1
 62
7
100
AcDbLine
 10
210.987073
 20
437.638212
 30
0.0
 11
193.576445
 21
437.638494
 31
0.0
  0
LINE
  5
138
100
AcDbEntity
  8
Layer_1
 62
7
100
AcDbLine
 10
193.576445
 20
437.638494
 30
0.0
 11
193.576445
 21
422.690713
 31
0.0
  0
LINE
  5
139
100
AcDbEntity
  8
Layer_1
 62
7
100
AcDbLine
 10
193.576445
 20
422.690713
 30
0.0
 11
212.254646
 21
422.690713
 31
0.0
  0
LINE
  5
13a
100
AcDbEntity
  8
Layer_1
 62
7
100
AcDbLine
 10
212.254646
 20
422.690713
 30
0.0
 11
212.254646
 21
319.996929
 31
0.0
  0
LINE
  5
13b
100
AcDbEntity
  8
Layer_1
 62
7
100
AcDbLine
 10
212.254646
 20
319.996929
 30
0.0
 11
148.690722
 21
319.996929
 31
0.0
  0
LINE
  5
13c
100
AcDbEntity
  8
Layer_1
 62
7
100
AcDbLine
 10
148.690722
 20
319.996929
 30
0.0
 11
148.690722
 21
422.691065
 31
0.0
  0
LINE
  5
13d
100
AcDbEntity
  8
Layer_1
 62
7
100
AcDbLine
 10
148.690722
 20
422.691065
 30
0.0
 11
156.131723
 21
422.691065
 31
0.0
  0
LINE
  5
13e
100
AcDbEntity
  8
Layer_1
 62
7
100
AcDbLine
 10
156.131723
 20
422.691065
 30
0.0
 11
156.131723
 21
437.638847
 31
0.0
  0
LINE
  5
13f
100
AcDbEntity
  8
Layer_1
 62
7
100
AcDbLine
 10
156.131723
 20
437.638847
 30
0.0
 11
149.528093
 21
437.639129
 31
0.0
  0
LINE
  5
140
100
AcDbEntity
  8
Layer_1
 62
7
100
AcDbLine
 10
149.528093
 20
437.639129
 30
0.0
 11
149.351822
 21
437.638282
 31
0.0
  0
SPLINE
  5
141
100
AcDbEntity
  8
Layer_1
 62
7
100
AcDbSpline
 70
8
 71
3
 72
8
 73
4
 74
0
 40
0
 40
0
 40
0
 40
0
 40
1
 40
1
 40
1
 40
1
 10
149.351822
 20
437.638285
 30
0.0
 10
146.788497
 20
437.638285
 30
0.0
 10
144.360025
 20
436.658895
 30
0.0
 10
142.514868
 20
434.880991
 30
0.0
  0
LINE
  5
142
100
AcDbEntity
  8
Layer_1
 62
7
100
AcDbLine
 10
142.514868
 20
434.880991
 30
0.0
 11
128.172695
 21
413.052858
 31
0.0
  0
LINE
  5
143
100
AcDbEntity
  8
Layer_1
 62
7
100
AcDbLine
 10
128.172695
 20
413.052858
 30
0.0
 11
128.194652
 21
413.036235
 31
0.0
  0
LINE
  5
144
100
AcDbEntity
  8
Layer_1
 62
7
100
AcDbLine
 10
128.194652
 20
413.036232
 30
0.0
 11
128.060148
 21
412.887924
 31
0.0
  0
SPLINE
  5
145
100
AcDbEntity
  8
Layer_1
 62
7
100
AcDbSpline
 70
8
 71
3
 72
8
 73
4
 74
0
 40
0
 40
0
 40
0
 40
0
 40
1
 40
1
 40
1
 40
1
 10
128.060148
 20
412.887924
 30
0.0
 10
126.199773
 20
411.026491
 30
0.0
 10
125.175078
 20
408.552000
 30
0.0
 10
125.175078
 20
405.920365
 30
0.0
  0
LINE
  5
146
100
AcDbEntity
  8
Layer_1
 62
7
100
AcDbLine
 10
125.175078
 20
405.920365
 30
0.0
 11
125.175078
 21
344.429184
 31
0.0
  0
SPLINE
  5
147
100
AcDbEntity
  8
Layer_1
 62
7
100
AcDbSpline
 70
8
 71
3
 72
8
 73
4
 74
0
 40
0
 40
0
 40
0
 40
0
 40
1
 40
1
 40
1
 40
1
 10
125.175078
 20
344.429184
 30
0.0
 10
125.175078
 20
341.797543
 30
0.0
 10
126.199773
 20
339.323056
 30
0.0
 10
128.060148
 20
337.461619
 30
0.0
  0
LINE
  5
148
100
AcDbEntity
  8
Layer_1
 62
7
100
AcDbLine
 10
128.060148
 20
337.461619
 30
0.0
 11
128.202436
 21
337.319331
 31
0.0
  0
LINE
  5
149
100
AcDbEntity
  8
Layer_1
 62
7
100
AcDbLine
 10
128.202436
 20
337.319331
 30
0.0
 11
128.172695
 21
337.296951
 31
0.0
  0
SPLINE
  5
14a
100
AcDbEntity
  8
Layer_1
 62
7
100
AcDbSpline
 70
8
 71
3
 72
8
 73
4
 74
0
 40
0
 40
0
 40
0
 40
0
 40
1
 40
1
 40
1
 40
1
 10
141.531797
 20
417.749882
 30
0.0
 10
141.531797
 20
417.205831
 30
0.0
 10
141.245903
 20
416.703106
 30
0.0
 10
140.781806
 20
416.431080
 30
0.0
  0
SPLINE
  5
14b
100
AcDbEntity
  8
Layer_1
 62
7
100
AcDbSpline
 70
8
 71
3
 72
8
 73
4
 74
0
 40
0
 40
0
 40
0
 40
0
 40
1
 40
1
 40
1
 40
1
 10
140.781806
 20
416.431080
 30
0.0
 10
140.317708
 20
416.159052
 30
0.0
 10
139.745915
 20
416.159052
 30
0.0
 10
139.281817
 20
416.431080
 30
0.0
  0
SPLINE
  5
14c
100
AcDbEntity
  8
Layer_1
 62
7
100
AcDbSpline
 70
8
 71
3
 72
8
 73
4
 74
0
 40
0
 40
0
 40
0
 40
0
 40
1
 40
1
 40
1
 40
1
 10
139.281817
 20
416.431080
 30
0.0
 10
138.817720
 20
416.703106
 30
0.0
 10
138.531826
 20
417.205831
 30
0.0
 10
138.531826
 20
417.749882
 30
0.0
  0
SPLINE
  5
14d
100
AcDbEntity
  8
Layer_1
 62
7
100
AcDbSpline
 70
8
 71
3
 72
8
 73
4
 74
0
 40
0
 40
0
 40
0
 40
0
 40
1
 40
1
 40
1
 40
1
 10
138.531826
 20
417.749882
 30
0.0
 10
138.531826
 20
418.293936
 30
0.0
 10
138.817720
 20
418.796661
 30
0.0
 10
139.281817
 20
419.068687
 30
0.0
  0
SPLINE
  5
14e
100
AcDbEntity
  8
Layer_1
 62
7
100
AcDbSpline
 70
8
 71
3
 72
8
 73
4
 74
0
 40
0
 40
0
 40
0
 40
0
 40
1
 40
1
 40
1
 40
1
 10
139.281817
 20
419.068687
 30
0.0
 10
139.745915
 20
419.340712
 30
0.0
 10
140.317708
 20
419.340712
 30
0.0
 10
140.781806
 20
419.068687
 30
0.0
  0
SPLINE
  5
14f
100
AcDbEntity
  8
Layer_1
 62
7
100
AcDbSpline
 70
8
 71
3
 72
8
 73
4
 74
0
 40
0
 40
0
 40
0
 40
0
 40
1
 40
1
 40
1
 40
1
 10
140.781806
 20
419.068687
 30
0.0
 10
141.245903
 20
418.796661
 30
0.0
 10
141.531797
 20
418.293936
 30
0.0
 10
141.531797
 20
417.749882
 30
0.0
  0
LINE
  5
150
100
AcDbEntity
  8
Layer_1
 62
7
100
AcDbLine
 10
141.531797
 20
417.749882
 30
0.0
 11
141.531797
 21
417.749882
 31
0.0
  0
SPLINE
  5
151
100
AcDbEntity
  8
Layer_1
 62
7
100
AcDbSpline
 70
8
 71
3
 72
8
 73
4
 74
0
 40
0
 40
0
 40
0
 40
0
 40
1
 40
1
 40
1
 40
1
 10
136.514515
 20
372.600005
 30
0.0
 10
136.514515
 20
372.055951
 30
0.0
 10
136.228622
 20
371.553226
 30
0.0
 10
135.764524
 20
371.281200
 30
0.0
  0
SPLINE
  5
152
100
AcDbEntity
  8
Layer_1
 62
7
100
AcDbSpline
 70
8
 71
3
 72
8
 73
4
 74
0
 40
0
 40
0
 40
0
 40
0
 40
1
 40
1
 40
1
 40
1
 10
135.764524
 20
371.281200
 30
0.0
 10
135.300426
 20
371.009172
 30
0.0
 10
134.728633
 20
371.009172
 30
0.0
 10
134.264535
 20
371.281200
 30
0.0
  0
SPLINE
  5
153
100
AcDbEntity
  8
Layer_1
 62
7
100
AcDbSpline
 70
8
 71
3
 72
8
 73
4
 74
0
 40
0
 40
0
 40
0
 40
0
 40
1
 40
1
 40
1
 40
1
 10
134.264535
 20
371.281200
 30
0.0
 10
133.800438
 20
371.553226
 30
0.0
 10
133.514541
 20
372.055951
 30
0.0
 10
133.514541
 20
372.600005
 30
0.0
  0
SPLINE
  5
154
100
AcDbEntity
  8
Layer_1
 62
7
100
AcDbSpline
 70
8
 71
3
 72
8
 73
4
 74
0
 40
0
 40
0
 40
0
 40
0
 40
1
 40
1
 40
1
 40
1
 10
133.514541
 20
372.600005
 30
0.0
 10
133.514541
 20
373.144056
 30
0.0
 10
133.800438
 20
373.646781
 30
0.0
 10
134.264535
 20
373.918807
 30
0.0
  0
SPLINE
  5
155
100
AcDbEntity
  8
Layer_1
 62
7
100
AcDbSpline
 70
8
 71
3
 72
8
 73
4
 74
0
 40
0
 40
0
 40
0
 40
0
 40
1
 40
1
 40
1
 40
1
 10
134.264535
 20
373.918807
 30
0.0
 10
134.728633
 20
374.190832
 30
0.0
 10
135.300426
 20
374.190832
 30
0.0
 10
135.764524
 20
373.918807
 30
0.0
  0
SPLINE
  5
156
100
AcDbEntity
  8
Layer_1
 62
7
100
AcDbSpline
 70
8
 71
3
 72
8
 73
4
 74
0
 40
0
 40
0
 40
0
 40
0
 40
1
 40
1
 40
1
 40
1
 10
135.764524
 20
373.918807
 30
0.0
 10
136.228622
 20
373.646781
 30
0.0
 10
136.514515
 20
373.144056
 30
0.0
 10
136.514515
 20
372.600005
 30
0.0
  0
LINE
  5
157
100
AcDbEntity
  8
Layer_1
 62
7
100
AcDbLine
 10
136.514515
 20
372.600005
 30
0.0
 11
136.514515
 21
372.600005
 31
0.0
  0
SPLINE
  5
158
100
AcDbEntity
  8
Layer_1
 62
7
100
AcDbSpline
 70
8
 71
3
 72
8
 73
4
 74
0
 40
0
 40
0
 40
0
 40
0
 40
1
 40
1
 40
1
 40
1
 10
141.531797
 20
337.482919
 30
0.0
 10
141.531797
 20
336.938868
 30
0.0
 10
141.245903
 20
336.436142
 30
0.0
 10
140.781806
 20
336.164114
 30
0.0
  0
SPLINE
  5
159
100
AcDbEntity
  8
Layer_1
 62
7
100
AcDbSpline
 70
8
 71
3
 72
8
 73
4
 74
0
 40
0
 40
0
 40
0
 40
0
 40
1
 40
1
 40
1
 40
1
 10
140.781806
 20
336.164114
 30
0.0
 10
140.317708
 20
335.892089
 30
0.0
 10
139.745915
 20
335.892089
 30
0.0
 10
139.281817
 20
336.164114
 30
0.0
  0
SPLINE
  5
15a
100
AcDbEntity
  8
Layer_1
 62
7
100
AcDbSpline
 70
8
 71
3
 72
8
 73
4
 74
0
 40
0
 40
0
 40
0
 40
0
 40
1
 40
1
 40
1
 40
1
 10
139.281817
 20
336.164114
 30
0.0
 10
138.817720
 20
336.436142
 30
0.0
 10
138.531826
 20
336.938868
 30
0.0
 10
138.531826
 20
337.482919
 30
0.0
  0
SPLINE
  5
15b
100
AcDbEntity
  8
Layer_1
 62
7
100
AcDbSpline
 70
8
 71
3
 72
8
 73
4
 74
0
 40
0
 40
0
 40
0
 40
0
 40
1
 40
1
 40
1
 40
1
 10
138.531826
 20
337.482919
 30
0.0
 10
138.531826
 20
338.026973
 30
0.0
 10
138.817720
 20
338.529698
 30
0.0
 10
139.281817
 20
338.801723
 30
0.0
  0
SPLINE
  5
15c
100
AcDbEntity
  8
Layer_1
 62
7
100
AcDbSpline
 70
8
 71
3
 72
8
 73
4
 74
0
 40
0
 40
0
 40
0
 40
0
 40
1
 40
1
 40
1
 40
1
 10
139.281817
 20
338.801723
 30
0.0
 10
139.745915
 20
339.073752
 30
0.0
 10
140.317708
 20
339.073752
 30
0.0
 10
140.781806
 20
338.801723
 30
0.0
  0
SPLINE
  5
15d
100
AcDbEntity
  8
Layer_1
 62
7
100
AcDbSpline
 70
8
 71
3
 72
8
 73
4
 74
0
 40
0
 40
0
 40
0
 40
0
 40
1
 40
1
 40
1
 40
1
 10
140.781806
 20
338.801723
 30
0.0
 10
141.245903
 20
338.529698
 30
0.0
 10
141.531797
 20
338.026973
 30
0.0
 10
141.531797
 20
337.482919
 30
0.0
  0
LINE
  5
15e
100
AcDbEntity
  8
Layer_1
 62
7
100
AcDbLine
 10
141.531797
 20
337.482919
 30
0.0
 11
141.531797
 21
337.482919
 31
0.0
  0
SPLINE
  5
15f
100
AcDbEntity
  8
Layer_1
 62
7
100
AcDbSpline
 70
8
 71
3
 72
8
 73
4
 74
0
 40
0
 40
0
 40
0
 40
0
 40
1
 40
1
 40
1
 40
1
 10
221.798752
 20
417.749882
 30
0.0
 10
221.798752
 20
417.205831
 30
0.0
 10
221.512861
 20
416.703106
 30
0.0
 10
221.048775
 20
416.431080
 30
0.0
  0
SPLINE
  5
160
100
AcDbEntity
  8
Layer_1
 62
7
100
AcDbSpline
 70
8
 71
3
 72
8
 73
4
 74
0
 40
0
 40
0
 40
0
 40
0
 40
1
 40
1
 40
1
 40
1
 10
221.048775
 20
416.431080
 30
0.0
 10
220.584660
 20
416.159052
 30
0.0
 10
220.012878
 20
416.159052
 30
0.0
 10
219.548792
 20
416.431080
 30
0.0
  0
SPLINE
  5
161
100
AcDbEntity
  8
Layer_1
 62
7
100
AcDbSpline
 70
8
 71
3
 72
8
 73
4
 74
0
 40
0
 40
0
 40
0
 40
0
 40
1
 40
1
 40
1
 40
1
 10
219.548792
 20
416.431080
 30
0.0
 10
219.084677
 20
416.703106
 30
0.0
 10
218.798786
 20
417.205831
 30
0.0
 10
218.798786
 20
417.749882
 30
0.0
  0
SPLINE
  5
162
100
AcDbEntity
  8
Layer_1
 62
7
100
AcDbSpline
 70
8
 71
3
 72
8
 73
4
 74
0
 40
0
 40
0
 40
0
 40
0
 40
1
 40
1
 40
1
 40
1
 10
218.798786
 20
417.749882
 30
0.0
 10
218.798786
 20
418.293936
 30
0.0
 10
219.084677
 20
418.796661
 30
0.0
 10
219.548792
 20
419.068687
 30
0.0
  0
SPLINE
  5
163
100
AcDbEntity
  8
Layer_1
 62
7
100
AcDbSpline
 70
8
 71
3
 72
8
 73
4
 74
0
 40
0
 40
0
 40
0
 40
0
 40
1
 40
1
 40
1
 40
1
 10
219.548792
 20
419.068687
 30
0.0
 10
220.012878
 20
419.340712
 30
0.0
 10
220.584660
 20
419.340712
 30
0.0
 10
221.048775
 20
419.068687
 30
0.0
  0
SPLINE
  5
164
100
AcDbEntity
  8
Layer_1
 62
7
100
AcDbSpline
 70
8
 71
3
 72
8
 73
4
 74
0
 40
0
 40
0
 40
0
 40
0
 40
1
 40
1
 40
1
 40
1
 10
221.048775
 20
419.068687
 30
0.0
 10
221.512861
 20
418.796661
 30
0.0
 10
221.798752
 20
418.293936
 30
0.0
 10
221.798752
 20
417.749882
 30
0.0
  0
LINE
  5
165
100
AcDbEntity
  8
Layer_1
 62
7
100
AcDbLine
 10
221.798752
 20
417.749882
 30
0.0
 11
221.798752
 21
417.749882
 31
0.0
  0
SPLINE
  5
166
100
AcDbEntity
  8
Layer_1
 62
7
100
AcDbSpline
 70
8
 71
3
 72
8
 73
4
 74
0
 40
0
 40
0
 40
0
 40
0
 40
1
 40
1
 40
1
 40
1
 10
226.815704
 20
372.600005
 30
0.0
 10
226.815704
 20
372.055951
 30
0.0
 10
226.529784
 20
371.553226
 30
0.0
 10
226.065698
 20
371.281200
 30
0.0
  0
SPLINE
  5
167
100
AcDbEntity
  8
Layer_1
 62
7
100
AcDbSpline
 70
8
 71
3
 72
8
 73
4
 74
0
 40
0
 40
0
 40
0
 40
0
 40
1
 40
1
 40
1
 40
1
 10
226.065698
 20
371.281200
 30
0.0
 10
225.601612
 20
371.009172
 30
0.0
 10
225.029801
 20
371.009172
 30
0.0
 10
224.565715
 20
371.281200
 30
0.0
  0
SPLINE
  5
168
100
AcDbEntity
  8
Layer_1
 62
7
100
AcDbSpline
 70
8
 71
3
 72
8
 73
4
 74
0
 40
0
 40
0
 40
0
 40
0
 40
1
 40
1
 40
1
 40
1
 10
224.565715
 20
371.281200
 30
0.0
 10
224.101601
 20
371.553226
 30
0.0
 10
223.815710
 20
372.055951
 30
0.0
 10
223.815710
 20
372.600005
 30
0.0
  0
SPLINE
  5
169
100
AcDbEntity
  8
Layer_1
 62
7
100
AcDbSpline
 70
8
 71
3
 72
8
 73
4
 74
0
 40
0
 40
0
 40
0
 40
0
 40
1
 40
1
 40
1
 40
1
 10
223.815710
 20
372.600005
 30
0.0
 10
223.815710
 20
373.144056
 30
0.0
 10
224.101601
 20
373.646781
 30
0.0
 10
224.565715
 20
373.918807
 30
0.0
  0
SPLINE
  5
16a
100
AcDbEntity
  8
Layer_1
 62
7
100
AcDbSpline
 70
8
 71
3
 72
8
 73
4
 74
0
 40
0
 40
0
 40
0
 40
0
 40
1
 40
1
 40
1
 40
1
 10
224.565715
 20
373.918807
 30
0.0
 10
225.029801
 20
374.190832
 30
0.0
 10
225.601612
 20
374.190832
 30
0.0
 10
226.065698
 20
373.918807
 30
0.0
  0
SPLINE
  5
16b
100
AcDbEntity
  8
Layer_1
 62
7
100
AcDbSpline
 70
8
 71
3
 72
8
 73
4
 74
0
 40
0
 40
0
 40
0
 40
0
 40
1
 40
1
 40
1
 40
1
 10
226.065698
 20
373.918807
 30
0.0
 10
226.529784
 20
373.646781
 30
0.0
 10
226.815704
 20
373.144056
 30
0.0
 10
226.815704
 20
372.600005
 30
0.0
  0
LINE
  5
16c
100
AcDbEntity
  8
Layer_1
 62
7
100
AcDbLine
 10
226.815704
 20
372.600005
 30
0.0
 11
226.815704
 21
372.600005
 31
0.0
  0
SPLINE
  5
16d
100
AcDbEntity
  8
Layer_1
 62
7
100
AcDbSpline
 70
8
 71
3
 72
8
 73
4
 74
0
 40
0
 40
0
 40
0
 40
0
 40
1
 40
1
 40
1
 40
1
 10
221.798752
 20
337.482919
 30
0.0
 10
221.798752
 20
336.938868
 30
0.0
 10
221.512861
 20
336.436142
 30
0.0
 10
221.048775
 20
336.164114
 30
0.0
  0
SPLINE
  5
16e
100
AcDbEntity
  8
Layer_1
 62
7
100
AcDbSpline
 70
8
 71
3
 72
8
 73
4
 74
0
 40
0
 40
0
 40
0
 40
0
 40
1
 40
1
 40
1
 40
1
 10
221.048775
 20
336.164114
 30
0.0
 10
220.584660
 20
335.892089
 30
0.0
 10
220.012878
 20
335.892089
 30
0.0
 10
219.548792
 20
336.164114
 30
0.0
  0
SPLINE
  5
16f
100
AcDbEntity
  8
Layer_1
 62
7
100
AcDbSpline
 70
8
 71
3
 72
8
 73
4
 74
0
 40
0
 40
0
 40
0
 40
0
 40
1
 40
1
 40
1
 40
1
 10
219.548792
 20
336.164114
 30
0.0
 10
219.084677
 20
336.436142
 30
0.0
 10
218.798786
 20
336.938868
 30
0.0
 10
218.798786
 20
337.482919
 30
0.0
  0
SPLINE
  5
170
100
AcDbEntity
  8
Layer_1
 62
7
100
AcDbSpline
 70
8
 71
3
 72
8
 73
4
 74
0
 40
0
 40
0
 40
0
 40
0
 40
1
 40
1
 40
1
 40
1
 10
218.798786
 20
337.482919
 30
0.0
 10
218.798786
 20
338.026973
 30
0.0
 10
219.084677
 20
338.529698
 30
0.0
 10
219.548792
 20
338.801723
 30
0.0
  0
SPLINE
  5
171
100
AcDbEntity
  8
Layer_1
 62
7
100
AcDbSpline
 70
8
 71
3
 72
8
 73
4
 74
0
 40
0
 40
0
 40
0
 40
0
 40
1
 40
1
 40
1
 40
1
 10
219.548792
 20
338.801723
 30
0.0
 10
220.012878
 20
339.073752
 30
0.0
 10
220.584660
 20
339.073752
 30
0.0
 10
221.048775
 20
338.801723
 30
0.0
  0
SPLINE
  5
172
100
AcDbEntity
  8
Layer_1
 62
7
100
AcDbSpline
 70
8
 71
3
 72
8
 73
4
 74
0
 40
0
 40
0
 40
0
 40
0
 40
1
 40
1
 40
1
 40
1
 10
221.048775
 20
338.801723
 30
0.0
 10
221.512861
 20
338.529698
 30
0.0
 10
221.798752
 20
338.026973
 30
0.0
 10
221.798752
 20
337.482919
 30
0.0
  0
LINE
  5
173
100
AcDbEntity
  8
Layer_1
 62
7
100
AcDbLine
 10
221.798752
 20
337.482919
 30
0.0
 11
221.798752
 21
337.482919
 31
0.0
  0
ENDSEC
  0
SECTION
  2
OBJECTS
  0
DICTIONARY
  5
C
330
0
100
AcDbDictionary
  3
ACAD_GROUP
350
D
  3
ACAD_MLINESTYLE
350
17
  0
DICTIONARY
  5
D
330
C
100
AcDbDictionary
  0
DICTIONARY
  5
1A
330
C
100
AcDbDictionary
  0
DICTIONARY
  5
17
330
C
100
AcDbDictionary
  3
STANDARD
350
18
  0
DICTIONARY
  5
19
330
C
100
AcDbDictionary
  0
ENDSEC
  0
EOF
