<?xml version="1.0" encoding="UTF-8" standalone="no"?>
<!-- Created with Inkscape (http://www.inkscape.org/) -->

<svg
   xmlns:dc="http://purl.org/dc/elements/1.1/"
   xmlns:cc="http://creativecommons.org/ns#"
   xmlns:rdf="http://www.w3.org/1999/02/22-rdf-syntax-ns#"
   xmlns:svg="http://www.w3.org/2000/svg"
   xmlns="http://www.w3.org/2000/svg"
   xmlns:sodipodi="http://sodipodi.sourceforge.net/DTD/sodipodi-0.dtd"
   xmlns:inkscape="http://www.inkscape.org/namespaces/inkscape"
   width="750mm"
   height="550mm"
   viewBox="0 0 2657.4803 1948.8188"
   id="svg2"
   version="1.1"
   inkscape:version="0.91 r13725"
   sodipodi:docname="LUAC-Layer04.svg">
  <defs
     id="defs4" />
  <sodipodi:namedview
     id="base"
     pagecolor="#ffffff"
     bordercolor="#666666"
     borderopacity="1.0"
     inkscape:pageopacity="0.0"
     inkscape:pageshadow="2"
     inkscape:zoom="0.98994949"
     inkscape:cx="850.49884"
     inkscape:cy="1316.1171"
     inkscape:document-units="mm"
     inkscape:current-layer="layer1"
     showgrid="false"
     inkscape:window-width="1366"
     inkscape:window-height="715"
     inkscape:window-x="167"
     inkscape:window-y="1042"
     inkscape:window-maximized="1" />
  <metadata
     id="metadata7">
    <rdf:RDF>
      <cc:Work
         rdf:about="">
        <dc:format>image/svg+xml</dc:format>
        <dc:type
           rdf:resource="http://purl.org/dc/dcmitype/StillImage" />
        <dc:title></dc:title>
      </cc:Work>
    </rdf:RDF>
  </metadata>
  <g
     inkscape:label="Layer 1"
     inkscape:groupmode="layer"
     id="layer1"
     transform="translate(0,896.45665)">
    <rect
       style="fill:none;stroke:#000000;stroke-width:0.2375275;stroke-miterlimit:4;stroke-dasharray:none;stroke-opacity:1"
       id="rect12261"
       width="35.433071"
       height="35.433071"
       x="1337.1428"
       y="-60.213688" />
    <text
       xml:space="preserve"
       style="font-style:normal;font-weight:normal;font-size:40px;line-height:125%;font-family:sans-serif;letter-spacing:0px;word-spacing:0px;fill:#000000;fill-opacity:1;stroke:none;stroke-width:1px;stroke-linecap:butt;stroke-linejoin:miter;stroke-opacity:1"
       x="1335.7142"
       y="23.790796"
       id="text12263"
       sodipodi:linespacing="125%"><tspan
         sodipodi:role="line"
         id="tspan12265"
         x="1335.7142"
         y="23.790796">This square for scale: 10mm x 10mm</tspan></text>
    <g
       id="g16639"
       transform="translate(-421.58361,210.63925)">
      <path
         id="path8564"
         d="m 935.53608,-323.22793 c -1.32565,0 -2.40423,-1.07858 -2.40423,-2.40423"
         style="fill:none;stroke:#ff0000;stroke-opacity:1"
         inkscape:connector-curvature="0" />
      <path
         id="path8566"
         d="m 933.13185,-325.63216 c 0,-1.32691 1.07858,-2.40549 2.40423,-2.40549"
         style="fill:none;stroke:#ff0000;stroke-opacity:1"
         inkscape:connector-curvature="0" />
      <path
         id="path8568"
         d="m 935.53608,-328.03765 c 1.32691,0 2.40548,1.07858 2.40548,2.40549"
         style="fill:none;stroke:#ff0000;stroke-opacity:1"
         inkscape:connector-curvature="0" />
      <path
         id="path8570"
         d="m 937.94156,-325.63216 c 0,1.3244 -1.07857,2.40423 -2.40548,2.40423"
         style="fill:none;stroke:#ff0000;stroke-opacity:1"
         inkscape:connector-curvature="0" />
      <path
         id="path8572"
         d="m 935.53608,-323.22793 0,0"
         style="fill:none;stroke:#ff0000;stroke-opacity:1"
         inkscape:connector-curvature="0" />
      <path
         id="path8574"
         d="m 935.53608,-326.78348 c -0.63461,0 -1.15007,0.51672 -1.15007,1.15132"
         style="fill:none;stroke:#ff0000;stroke-opacity:1"
         inkscape:connector-curvature="0" />
      <path
         id="path8576"
         d="m 934.38601,-325.63216 c 0,0.63461 0.51546,1.15007 1.15007,1.15007"
         style="fill:none;stroke:#ff0000;stroke-opacity:1"
         inkscape:connector-curvature="0" />
      <path
         id="path8578"
         d="m 935.53608,-324.48209 c 0.63461,0 1.15132,-0.51546 1.15132,-1.15007"
         style="fill:none;stroke:#ff0000;stroke-opacity:1"
         inkscape:connector-curvature="0" />
      <path
         id="path8580"
         d="m 936.6874,-325.63216 c 0,-0.6346 -0.51671,-1.15132 -1.15132,-1.15132"
         style="fill:none;stroke:#ff0000;stroke-opacity:1"
         inkscape:connector-curvature="0" />
      <path
         id="path8582"
         d="m 935.53608,-326.78348 0,0"
         style="fill:none;stroke:#ff0000;stroke-opacity:1"
         inkscape:connector-curvature="0" />
      <path
         id="path8584"
         d="m 935.53608,-330.33778 c -1.32565,0 -2.40423,-1.07858 -2.40423,-2.40423"
         style="fill:none;stroke:#ff0000;stroke-opacity:1"
         inkscape:connector-curvature="0" />
      <path
         id="path8586"
         d="m 933.13185,-332.74201 c 0,-1.32691 1.07858,-2.40549 2.40423,-2.40549"
         style="fill:none;stroke:#ff0000;stroke-opacity:1"
         inkscape:connector-curvature="0" />
      <path
         id="path8588"
         d="m 935.53608,-335.1475 c 1.32691,0 2.40548,1.07858 2.40548,2.40549"
         style="fill:none;stroke:#ff0000;stroke-opacity:1"
         inkscape:connector-curvature="0" />
      <path
         id="path8590"
         d="m 937.94156,-332.74201 c 0,1.32565 -1.07857,2.40423 -2.40548,2.40423"
         style="fill:none;stroke:#ff0000;stroke-opacity:1"
         inkscape:connector-curvature="0" />
      <path
         id="path8592"
         d="m 935.53608,-330.33778 0,0"
         style="fill:none;stroke:#ff0000;stroke-opacity:1"
         inkscape:connector-curvature="0" />
      <path
         id="path8594"
         d="m 935.53608,-333.89334 c -0.63461,0 -1.15007,0.51672 -1.15007,1.15133"
         style="fill:none;stroke:#ff0000;stroke-opacity:1"
         inkscape:connector-curvature="0" />
      <path
         id="path8596"
         d="m 934.38601,-332.74201 c 0,0.6346 0.51546,1.15006 1.15007,1.15006"
         style="fill:none;stroke:#ff0000;stroke-opacity:1"
         inkscape:connector-curvature="0" />
      <path
         id="path8598"
         d="m 935.53608,-331.59195 c 0.63461,0 1.15132,-0.51546 1.15132,-1.15006"
         style="fill:none;stroke:#ff0000;stroke-opacity:1"
         inkscape:connector-curvature="0" />
      <path
         id="path8600"
         d="m 936.6874,-332.74201 c 0,-0.63461 -0.51671,-1.15133 -1.15132,-1.15133"
         style="fill:none;stroke:#ff0000;stroke-opacity:1"
         inkscape:connector-curvature="0" />
      <path
         id="path8602"
         d="m 935.53608,-333.89334 0,0"
         style="fill:none;stroke:#ff0000;stroke-opacity:1"
         inkscape:connector-curvature="0" />
      <path
         id="path8604"
         d="m 935.53608,-337.44764 c -1.32565,0 -2.40423,-1.07858 -2.40423,-2.40423"
         style="fill:none;stroke:#ff0000;stroke-opacity:1"
         inkscape:connector-curvature="0" />
      <path
         id="path8606"
         d="m 933.13185,-339.85187 c 0,-1.32691 1.07858,-2.40549 2.40423,-2.40549"
         style="fill:none;stroke:#ff0000;stroke-opacity:1"
         inkscape:connector-curvature="0" />
      <path
         id="path8608"
         d="m 935.53608,-342.25736 c 1.32691,0 2.40548,1.07858 2.40548,2.40549"
         style="fill:none;stroke:#ff0000;stroke-opacity:1"
         inkscape:connector-curvature="0" />
      <path
         id="path8610"
         d="m 937.94156,-339.85187 c 0,1.32565 -1.07857,2.40423 -2.40548,2.40423"
         style="fill:none;stroke:#ff0000;stroke-opacity:1"
         inkscape:connector-curvature="0" />
      <path
         id="path8612"
         d="m 935.53608,-337.44764 0,0"
         style="fill:none;stroke:#ff0000;stroke-opacity:1"
         inkscape:connector-curvature="0" />
      <path
         id="path8614"
         d="m 935.53608,-341.00319 c -0.63461,0 -1.15007,0.51671 -1.15007,1.15132"
         style="fill:none;stroke:#ff0000;stroke-opacity:1"
         inkscape:connector-curvature="0" />
      <path
         id="path8616"
         d="m 934.38601,-339.85187 c 0,0.63461 0.51546,1.15007 1.15007,1.15007"
         style="fill:none;stroke:#ff0000;stroke-opacity:1"
         inkscape:connector-curvature="0" />
      <path
         id="path8618"
         d="m 935.53608,-338.7018 c 0.63461,0 1.15132,-0.51546 1.15132,-1.15007"
         style="fill:none;stroke:#ff0000;stroke-opacity:1"
         inkscape:connector-curvature="0" />
      <path
         id="path8620"
         d="m 936.6874,-339.85187 c 0,-0.63461 -0.51671,-1.15132 -1.15132,-1.15132"
         style="fill:none;stroke:#ff0000;stroke-opacity:1"
         inkscape:connector-curvature="0" />
      <path
         id="path8622"
         d="m 935.53608,-341.00319 0,0"
         style="fill:none;stroke:#ff0000;stroke-opacity:1"
         inkscape:connector-curvature="0" />
      <path
         id="path8624"
         d="m 935.53608,-344.55875 c -1.32565,0 -2.40423,-1.07858 -2.40423,-2.40423"
         style="fill:none;stroke:#ff0000;stroke-opacity:1"
         inkscape:connector-curvature="0" />
      <path
         id="path8626"
         d="m 933.13185,-346.96298 c 0,-1.32691 1.07858,-2.40549 2.40423,-2.40549"
         style="fill:none;stroke:#ff0000;stroke-opacity:1"
         inkscape:connector-curvature="0" />
      <path
         id="path8628"
         d="m 935.53608,-349.36847 c 1.32691,0 2.40548,1.07858 2.40548,2.40549"
         style="fill:none;stroke:#ff0000;stroke-opacity:1"
         inkscape:connector-curvature="0" />
      <path
         id="path8630"
         d="m 937.94156,-346.96298 c 0,1.32565 -1.07857,2.40423 -2.40548,2.40423"
         style="fill:none;stroke:#ff0000;stroke-opacity:1"
         inkscape:connector-curvature="0" />
      <path
         id="path8632"
         d="m 935.53608,-344.55875 0,0"
         style="fill:none;stroke:#ff0000;stroke-opacity:1"
         inkscape:connector-curvature="0" />
      <path
         id="path8634"
         d="m 935.53608,-348.1143 c -0.63461,0 -1.15007,0.51671 -1.15007,1.15132"
         style="fill:none;stroke:#ff0000;stroke-opacity:1"
         inkscape:connector-curvature="0" />
      <path
         id="path8636"
         d="m 934.38601,-346.96298 c 0,0.63461 0.51546,1.15007 1.15007,1.15007"
         style="fill:none;stroke:#ff0000;stroke-opacity:1"
         inkscape:connector-curvature="0" />
      <path
         id="path8638"
         d="m 935.53608,-345.81291 c 0.63461,0 1.15132,-0.51546 1.15132,-1.15007"
         style="fill:none;stroke:#ff0000;stroke-opacity:1"
         inkscape:connector-curvature="0" />
      <path
         id="path8640"
         d="m 936.6874,-346.96298 c 0,-0.63461 -0.51671,-1.15132 -1.15132,-1.15132"
         style="fill:none;stroke:#ff0000;stroke-opacity:1"
         inkscape:connector-curvature="0" />
      <path
         id="path8642"
         d="m 935.53608,-348.1143 0,0"
         style="fill:none;stroke:#ff0000;stroke-opacity:1"
         inkscape:connector-curvature="0" />
      <path
         id="path8644"
         d="m 875.73883,-353.42367 50.88645,72.97888"
         style="fill:none;stroke:#000000"
         inkscape:connector-curvature="0" />
      <path
         id="path8646"
         d="m 926.62528,-280.44479 c 6.47149,6.2219 15.07505,14.13611 24.1577,14.13611"
         style="fill:none;stroke:#000000"
         inkscape:connector-curvature="0" />
      <path
         id="path8648"
         d="m 950.78298,-266.30868 218.39262,0"
         style="fill:none;stroke:#000000"
         inkscape:connector-curvature="0" />
      <path
         id="path8650"
         d="m 1169.1756,-266.30868 c 9.0826,0 17.6874,-7.91421 24.2254,-14.21381"
         style="fill:none;stroke:#000000"
         inkscape:connector-curvature="0" />
      <path
         id="path8652"
         d="m 1193.401,-280.52249 51.1988,-73.41413"
         style="fill:none;stroke:#000000"
         inkscape:connector-curvature="0" />
      <path
         id="path8654"
         d="m 1244.5998,-353.93662 c 6.6521,-6.66462 10.2829,-15.43375 10.2829,-24.7572"
         style="fill:none;stroke:#000000"
         inkscape:connector-curvature="0" />
      <path
         id="path8656"
         d="m 1254.8827,-378.69382 -0.015,-9.32847"
         style="fill:none;stroke:#000000"
         inkscape:connector-curvature="0" />
      <path
         id="path8658"
         d="m 1254.8677,-388.02229 0.015,-208.55491"
         style="fill:none;stroke:#000000"
         inkscape:connector-curvature="0" />
      <path
         id="path8660"
         d="m 1254.8827,-596.5772 c 0,-9.32596 -3.6308,-18.09257 -10.2227,-24.68822"
         style="fill:none;stroke:#000000"
         inkscape:connector-curvature="0" />
      <path
         id="path8662"
         d="m 1244.66,-621.26542 -51.3267,-78.00598"
         style="fill:none;stroke:#000000"
         inkscape:connector-curvature="0" />
      <path
         id="path8664"
         d="m 1193.3333,-699.2714 c -6.4715,-6.22192 -15.0751,-9.69218 -24.1577,-9.69218"
         style="fill:none;stroke:#000000"
         inkscape:connector-curvature="0" />
      <path
         id="path8666"
         d="m 1169.1756,-708.96358 -61.6912,-10e-4"
         style="fill:none;stroke:#000000"
         inkscape:connector-curvature="0" />
      <path
         id="path8668"
         d="m 1107.4844,-708.96458 0,52.96458"
         style="fill:none;stroke:#000000"
         inkscape:connector-curvature="0" />
      <path
         id="path8670"
         d="m 1107.4844,-656 66.1826,0"
         style="fill:none;stroke:#000000"
         inkscape:connector-curvature="0"
         sodipodi:nodetypes="cc" />
      <path
         id="path8672"
         d="m 1173.667,-656 0,363.87561"
         style="fill:none;stroke:#000000"
         inkscape:connector-curvature="0"
         sodipodi:nodetypes="cc" />
      <path
         id="path8674"
         d="m 1173.667,-292.12439 -225.2265,0"
         style="fill:none;stroke:#000000"
         inkscape:connector-curvature="0"
         sodipodi:nodetypes="cc" />
      <path
         id="path8676"
         d="m 948.4405,-292.12439 0,-363.87686"
         style="fill:none;stroke:#000000"
         inkscape:connector-curvature="0"
         sodipodi:nodetypes="cc" />
      <path
         id="path8678"
         d="m 948.4405,-656.00125 26.36575,0"
         style="fill:none;stroke:#000000"
         inkscape:connector-curvature="0"
         sodipodi:nodetypes="cc" />
      <path
         id="path8680"
         d="m 974.80625,-656.00125 0,-52.96458"
         style="fill:none;stroke:#000000"
         inkscape:connector-curvature="0" />
      <path
         id="path8682"
         d="m 974.80625,-708.96583 -23.39869,-10e-4"
         style="fill:none;stroke:#000000"
         inkscape:connector-curvature="0" />
      <path
         id="path8684"
         d="m 951.40756,-708.96683 -0.62458,0.003"
         style="fill:none;stroke:#000000"
         inkscape:connector-curvature="0" />
      <path
         id="path8686"
         d="m 950.78298,-708.96384 c -9.08265,0 -17.68747,3.47028 -24.22543,9.76994"
         style="fill:none;stroke:#000000"
         inkscape:connector-curvature="0" />
      <path
         id="path8688"
         d="m 926.55755,-699.1939 -50.81872,77.34378"
         style="fill:none;stroke:#000000"
         inkscape:connector-curvature="0" />
      <path
         id="path8690"
         d="m 875.73883,-621.85012 0.0778,0.0589"
         style="fill:none;stroke:#000000"
         inkscape:connector-curvature="0" />
      <path
         id="path8692"
         d="m 875.81663,-621.79121 -0.47659,0.5255"
         style="fill:none;stroke:#000000"
         inkscape:connector-curvature="0" />
      <path
         id="path8694"
         d="m 875.34004,-621.26571 c -6.59188,6.59563 -10.22269,15.36351 -10.22269,24.6882"
         style="fill:none;stroke:#000000"
         inkscape:connector-curvature="0" />
      <path
         id="path8696"
         d="m 865.11735,-596.57751 0,217.88214"
         style="fill:none;stroke:#000000"
         inkscape:connector-curvature="0" />
      <path
         id="path8698"
         d="m 865.11735,-378.69537 c 0,9.32471 3.63081,18.09258 10.22269,24.68822"
         style="fill:none;stroke:#000000"
         inkscape:connector-curvature="0" />
      <path
         id="path8700"
         d="m 875.34004,-354.00715 0.50417,0.50417"
         style="fill:none;stroke:#000000"
         inkscape:connector-curvature="0" />
      <path
         id="path8702"
         d="m 875.84421,-353.50298 -0.10538,0.0793"
         style="fill:none;stroke:#000000"
         inkscape:connector-curvature="0" />
      <path
         id="path8704"
         d="m 923.07423,-638.49312 c 0,1.92774 -1.01301,3.70905 -2.65745,4.67292"
         style="fill:none;stroke:#000000"
         inkscape:connector-curvature="0" />
      <path
         id="path8706"
         d="m 920.41678,-633.8202 c -1.64444,0.96388 -3.67048,0.96388 -5.31492,0"
         style="fill:none;stroke:#000000"
         inkscape:connector-curvature="0" />
      <path
         id="path8708"
         d="m 915.10186,-633.8202 c -1.64444,-0.96387 -2.65745,-2.74518 -2.65745,-4.67292"
         style="fill:none;stroke:#000000"
         inkscape:connector-curvature="0" />
      <path
         id="path8710"
         d="m 912.44441,-638.49312 c 0,-1.92775 1.01301,-3.70906 2.65745,-4.67293"
         style="fill:none;stroke:#000000"
         inkscape:connector-curvature="0" />
      <path
         id="path8712"
         d="m 915.10186,-643.16605 c 1.64444,-0.96387 3.67048,-0.96387 5.31492,0"
         style="fill:none;stroke:#000000"
         inkscape:connector-curvature="0" />
      <path
         id="path8714"
         d="m 920.41678,-643.16605 c 1.64444,0.96387 2.65745,2.74518 2.65745,4.67293"
         style="fill:none;stroke:#000000"
         inkscape:connector-curvature="0" />
      <path
         id="path8716"
         d="m 923.07423,-638.49312 0,0"
         style="fill:none;stroke:#000000"
         inkscape:connector-curvature="0" />
      <path
         id="path8718"
         d="m 905.29646,-478.51324 c 0,1.92775 -1.01301,3.70906 -2.65745,4.67293"
         style="fill:none;stroke:#000000"
         inkscape:connector-curvature="0" />
      <path
         id="path8720"
         d="m 902.63901,-473.84031 c -1.64444,0.96388 -3.67048,0.96388 -5.31492,0"
         style="fill:none;stroke:#000000"
         inkscape:connector-curvature="0" />
      <path
         id="path8722"
         d="m 897.32409,-473.84031 c -1.64444,-0.96387 -2.65746,-2.74518 -2.65746,-4.67293"
         style="fill:none;stroke:#000000"
         inkscape:connector-curvature="0" />
      <path
         id="path8724"
         d="m 894.66663,-478.51324 c 0,-1.92774 1.01302,-3.70905 2.65746,-4.67292"
         style="fill:none;stroke:#000000"
         inkscape:connector-curvature="0" />
      <path
         id="path8726"
         d="m 897.32409,-483.18616 c 1.64444,-0.96387 3.67048,-0.96387 5.31492,0"
         style="fill:none;stroke:#000000"
         inkscape:connector-curvature="0" />
      <path
         id="path8728"
         d="m 902.63901,-483.18616 c 1.64444,0.96387 2.65745,2.74518 2.65745,4.67292"
         style="fill:none;stroke:#000000"
         inkscape:connector-curvature="0" />
      <path
         id="path8730"
         d="m 905.29646,-478.51324 0,0"
         style="fill:none;stroke:#000000"
         inkscape:connector-curvature="0" />
      <path
         id="path8732"
         d="m 923.07423,-354.08262 c 0,1.92774 -1.01301,3.70905 -2.65745,4.67293"
         style="fill:none;stroke:#000000"
         inkscape:connector-curvature="0" />
      <path
         id="path8734"
         d="m 920.41678,-349.40969 c -1.64444,0.96387 -3.67048,0.96387 -5.31492,0"
         style="fill:none;stroke:#000000"
         inkscape:connector-curvature="0" />
      <path
         id="path8736"
         d="m 915.10186,-349.40969 c -1.64444,-0.96388 -2.65745,-2.74519 -2.65745,-4.67293"
         style="fill:none;stroke:#000000"
         inkscape:connector-curvature="0" />
      <path
         id="path8738"
         d="m 912.44441,-354.08262 c 0,-1.92775 1.01301,-3.70906 2.65745,-4.67293"
         style="fill:none;stroke:#000000"
         inkscape:connector-curvature="0" />
      <path
         id="path8740"
         d="m 915.10186,-358.75555 c 1.64444,-0.96388 3.67048,-0.96388 5.31492,0"
         style="fill:none;stroke:#000000"
         inkscape:connector-curvature="0" />
      <path
         id="path8742"
         d="m 920.41678,-358.75555 c 1.64444,0.96387 2.65745,2.74518 2.65745,4.67293"
         style="fill:none;stroke:#000000"
         inkscape:connector-curvature="0" />
      <path
         id="path8744"
         d="m 923.07423,-354.08262 0,0"
         style="fill:none;stroke:#000000"
         inkscape:connector-curvature="0" />
      <path
         id="path8746"
         d="m 1207.4847,-638.49312 c 0,1.92774 -1.013,3.70905 -2.6574,4.67292"
         style="fill:none;stroke:#000000"
         inkscape:connector-curvature="0" />
      <path
         id="path8748"
         d="m 1204.8273,-633.8202 c -1.6445,0.96388 -3.6705,0.96388 -5.3149,0"
         style="fill:none;stroke:#000000"
         inkscape:connector-curvature="0" />
      <path
         id="path8750"
         d="m 1199.5124,-633.8202 c -1.6445,-0.96387 -2.6575,-2.74518 -2.6575,-4.67292"
         style="fill:none;stroke:#000000"
         inkscape:connector-curvature="0" />
      <path
         id="path8752"
         d="m 1196.8549,-638.49312 c 0,-1.92775 1.013,-3.70906 2.6575,-4.67293"
         style="fill:none;stroke:#000000"
         inkscape:connector-curvature="0" />
      <path
         id="path8754"
         d="m 1199.5124,-643.16605 c 1.6444,-0.96387 3.6704,-0.96387 5.3149,0"
         style="fill:none;stroke:#000000"
         inkscape:connector-curvature="0" />
      <path
         id="path8756"
         d="m 1204.8273,-643.16605 c 1.6444,0.96387 2.6574,2.74518 2.6574,4.67293"
         style="fill:none;stroke:#000000"
         inkscape:connector-curvature="0" />
      <path
         id="path8758"
         d="m 1207.4847,-638.49312 0,0"
         style="fill:none;stroke:#000000"
         inkscape:connector-curvature="0" />
      <path
         id="path8760"
         d="m 1225.2613,-478.51324 c 0,1.92775 -1.0131,3.70906 -2.6575,4.67293"
         style="fill:none;stroke:#000000"
         inkscape:connector-curvature="0" />
      <path
         id="path8762"
         d="m 1222.6038,-473.84031 c -1.6444,0.96388 -3.6705,0.96388 -5.3149,0"
         style="fill:none;stroke:#000000"
         inkscape:connector-curvature="0" />
      <path
         id="path8764"
         d="m 1217.2889,-473.84031 c -1.6445,-0.96387 -2.6575,-2.74518 -2.6575,-4.67293"
         style="fill:none;stroke:#000000"
         inkscape:connector-curvature="0" />
      <path
         id="path8766"
         d="m 1214.6314,-478.51324 c 0,-1.92774 1.013,-3.70905 2.6575,-4.67292"
         style="fill:none;stroke:#000000"
         inkscape:connector-curvature="0" />
      <path
         id="path8768"
         d="m 1217.2889,-483.18616 c 1.6444,-0.96387 3.6705,-0.96387 5.3149,0"
         style="fill:none;stroke:#000000"
         inkscape:connector-curvature="0" />
      <path
         id="path8770"
         d="m 1222.6038,-483.18616 c 1.6444,0.96387 2.6575,2.74518 2.6575,4.67292"
         style="fill:none;stroke:#000000"
         inkscape:connector-curvature="0" />
      <path
         id="path8772"
         d="m 1225.2613,-478.51324 0,0"
         style="fill:none;stroke:#000000"
         inkscape:connector-curvature="0" />
      <path
         id="path8774"
         d="m 1207.4847,-354.08262 c 0,1.92774 -1.013,3.70905 -2.6574,4.67293"
         style="fill:none;stroke:#000000"
         inkscape:connector-curvature="0" />
      <path
         id="path8776"
         d="m 1204.8273,-349.40969 c -1.6445,0.96387 -3.6705,0.96387 -5.3149,0"
         style="fill:none;stroke:#000000"
         inkscape:connector-curvature="0" />
      <path
         id="path8778"
         d="m 1199.5124,-349.40969 c -1.6445,-0.96388 -2.6575,-2.74519 -2.6575,-4.67293"
         style="fill:none;stroke:#000000"
         inkscape:connector-curvature="0" />
      <path
         id="path8780"
         d="m 1196.8549,-354.08262 c 0,-1.92775 1.013,-3.70906 2.6575,-4.67293"
         style="fill:none;stroke:#000000"
         inkscape:connector-curvature="0" />
      <path
         id="path8782"
         d="m 1199.5124,-358.75555 c 1.6444,-0.96388 3.6704,-0.96388 5.3149,0"
         style="fill:none;stroke:#000000"
         inkscape:connector-curvature="0" />
      <path
         id="path8784"
         d="m 1204.8273,-358.75555 c 1.6444,0.96387 2.6574,2.74518 2.6574,4.67293"
         style="fill:none;stroke:#000000"
         inkscape:connector-curvature="0" />
      <path
         id="path8786"
         d="m 1207.4847,-354.08262 0,0"
         style="fill:none;stroke:#000000"
         inkscape:connector-curvature="0" />
    </g>
  </g>
</svg>
