  0
SECTION
  2
HEADER
  9
$ACADVER
  1
AC1014
  9
$HANDSEED
  5
FFFF
  9
$MEASUREMENT
 70
     1
  0
ENDSEC
  0
SECTION
  2
TABLES
  0
TABLE
  2
VPORT
  5
8
330
0
100
AcDbSymbolTable
 70
     4
  0
VPORT
  5
2E
330
8
100
AcDbSymbolTableRecord
100
AcDbViewportTableRecord
  2
*ACTIVE
 70
     0
 10
0.0
 20
0.0
 11
1.0
 21
1.0
 12
210.0
 22
148.5
 13
0.0
 23
0.0
 14
10.0
 24
10.0
 15
10.0
 25
10.0
 16
0.0
 26
0.0
 36
1.0
 17
0.0
 27
0.0
 37
0.0
 40
341.0
 41
1.24
 42
50.0
 43
0.0
 44
0.0
 50
0.0
 51
0.0
 71
     0
 72
   100
 73
     1
 74
     3
 75
     0
 76
     0
 77
     0
 78
     0
  0
ENDTAB
  0
TABLE
  2
LTYPE
  5
5
330
0
100
AcDbSymbolTable
 70
     1
  0
LTYPE
  5
14
330
5
100
AcDbSymbolTableRecord
100
AcDbLinetypeTableRecord
  2
BYBLOCK
 70
     0
  3

 72
    65
 73
     0
 40
0.0
  0
LTYPE
  5
15
330
5
100
AcDbSymbolTableRecord
100
AcDbLinetypeTableRecord
  2
BYLAYER
 70
     0
  3

 72
    65
 73
     0
 40
0.0
  0
LTYPE
  5
16
330
5
100
AcDbSymbolTableRecord
100
AcDbLinetypeTableRecord
  2
CONTINUOUS
 70
     0
  3
Solid line
 72
    65
 73
     0
 40
0.0
  0
ENDTAB
  0
TABLE
  2
LAYER
  5
2
100
AcDbSymbolTable
 70
2
  0
LAYER
  5
50
100
AcDbSymbolTableRecord
100
AcDbLayerTableRecord
  2
0
 70
0
  6
CONTINUOUS
  0
LAYER
  5
51
100
AcDbSymbolTableRecord
100
AcDbLayerTableRecord
  2
Layer_1
 70
0
  6
CONTINUOUS
  0
ENDTAB
  0
TABLE
  2
STYLE
  5
3
330
0
100
AcDbSymbolTable
 70
     1
  0
STYLE
  5
11
330
3
100
AcDbSymbolTableRecord
100
AcDbTextStyleTableRecord
  2
STANDARD
 70
     0
 40
0.0
 41
1.0
 50
0.0
 71
     0
 42
2.5
  3
txt
  4

  0
ENDTAB
  0
TABLE
  2
VIEW
  5
6
330
0
100
AcDbSymbolTable
 70
     0
  0
ENDTAB
  0
TABLE
  2
UCS
  5
7
330
0
100
AcDbSymbolTable
 70
     0
  0
ENDTAB
  0
TABLE
  2
APPID
  5
9
330
0
100
AcDbSymbolTable
 70
     2
  0
APPID
  5
12
330
9
100
AcDbSymbolTableRecord
100
AcDbRegAppTableRecord
  2
ACAD
 70
     0
  0
ENDTAB
  0
TABLE
  2
DIMSTYLE
  5
A
330
0
100
AcDbSymbolTable
 70
     1
  0
DIMSTYLE
105
27
330
A
100
AcDbSymbolTableRecord
100
AcDbDimStyleTableRecord
  2
ISO-25
 70
     0
  3

  4

  5

  6

  7

 40
1.0
 41
2.5
 42
0.625
 43
3.75
 44
1.25
 45
0.0
 46
0.0
 47
0.0
 48
0.0
140
2.5
141
2.5
142
0.0
143
0.03937007874016
144
1.0
145
0.0
146
1.0
147
0.625
 71
     0
 72
     0
 73
     0
 74
     0
 75
     0
 76
     0
 77
     1
 78
     8
170
     0
171
     3
172
     1
173
     0
174
     0
175
     0
176
     0
177
     0
178
     0
270
     2
271
     2
272
     2
273
     2
274
     3
340
11
275
     0
280
     0
281
     0
282
     0
283
     0
284
     8
285
     0
286
     0
287
     3
288
     0
  0
ENDTAB
  0
TABLE
  2
BLOCK_RECORD
  5
1
330
0
100
AcDbSymbolTable
 70
     1
  0
BLOCK_RECORD
  5
1F
330
1
100
AcDbSymbolTableRecord
100
AcDbBlockTableRecord
  2
*MODEL_SPACE
  0
BLOCK_RECORD
  5
1B
330
1
100
AcDbSymbolTableRecord
100
AcDbBlockTableRecord
  2
*PAPER_SPACE
  0
ENDTAB
  0
ENDSEC
  0
SECTION
  2
BLOCKS
  0
BLOCK
  5
20
330
1F
100
AcDbEntity
  8
0
100
AcDbBlockBegin
  2
*MODEL_SPACE
 70
     0
 10
0.0
 20
0.0
 30
0.0
  3
*MODEL_SPACE
  1

  0
ENDBLK
  5
21
330
1F
100
AcDbEntity
  8
0
100
AcDbBlockEnd
  0
BLOCK
  5
1C
330
1B
100
AcDbEntity
 67
     1
  8
0
100
AcDbBlockBegin
  2
*PAPER_SPACE
  1

  0
ENDBLK
  5
1D
330
1B
100
AcDbEntity
 67
     1
  8
0
100
AcDbBlockEnd
  0
ENDSEC
  0
SECTION
  2
ENTITIES
  0
LINE
  5
100
100
AcDbEntity
  8
Layer_1
 62
7
100
AcDbLine
 10
377.371412
 20
313.993653
 30
0.0
 11
387.371412
 21
313.993653
 31
0.0
  0
LINE
  5
101
100
AcDbEntity
  8
Layer_1
 62
7
100
AcDbLine
 10
387.371412
 20
313.993653
 30
0.0
 11
387.371412
 21
303.993653
 31
0.0
  0
LINE
  5
102
100
AcDbEntity
  8
Layer_1
 62
7
100
AcDbLine
 10
387.371412
 20
303.993653
 30
0.0
 11
377.371412
 21
303.993653
 31
0.0
  0
LINE
  5
103
100
AcDbEntity
  8
Layer_1
 62
7
100
AcDbLine
 10
377.371412
 20
303.993653
 30
0.0
 11
377.371412
 21
313.993653
 31
0.0
  0
SPLINE
  5
104
100
AcDbEntity
  8
Layer_1
 62
1
100
AcDbSpline
 70
8
 71
3
 72
8
 73
4
 74
0
 40
0
 40
0
 40
0
 40
0
 40
1
 40
1
 40
1
 40
1
 10
145.057154
 20
326.768297
 30
0.0
 10
144.683012
 20
326.768297
 30
0.0
 10
144.378607
 20
327.072696
 30
0.0
 10
144.378607
 20
327.446824
 30
0.0
  0
SPLINE
  5
105
100
AcDbEntity
  8
Layer_1
 62
1
100
AcDbSpline
 70
8
 71
3
 72
8
 73
4
 74
0
 40
0
 40
0
 40
0
 40
0
 40
1
 40
1
 40
1
 40
1
 10
144.378607
 20
327.446824
 30
0.0
 10
144.378607
 20
327.821308
 30
0.0
 10
144.683012
 20
328.125707
 30
0.0
 10
145.057154
 20
328.125707
 30
0.0
  0
SPLINE
  5
106
100
AcDbEntity
  8
Layer_1
 62
1
100
AcDbSpline
 70
8
 71
3
 72
8
 73
4
 74
0
 40
0
 40
0
 40
0
 40
0
 40
1
 40
1
 40
1
 40
1
 10
145.057154
 20
328.125707
 30
0.0
 10
145.431634
 20
328.125707
 30
0.0
 10
145.736039
 20
327.821308
 30
0.0
 10
145.736039
 20
327.446824
 30
0.0
  0
SPLINE
  5
107
100
AcDbEntity
  8
Layer_1
 62
1
100
AcDbSpline
 70
8
 71
3
 72
8
 73
4
 74
0
 40
0
 40
0
 40
0
 40
0
 40
1
 40
1
 40
1
 40
1
 10
145.736039
 20
327.446824
 30
0.0
 10
145.736039
 20
327.072696
 30
0.0
 10
145.431634
 20
326.768297
 30
0.0
 10
145.057154
 20
326.768297
 30
0.0
  0
LINE
  5
108
100
AcDbEntity
  8
Layer_1
 62
1
100
AcDbLine
 10
145.057154
 20
326.768297
 30
0.0
 11
145.057154
 21
326.768297
 31
0.0
  0
SPLINE
  5
109
100
AcDbEntity
  8
Layer_1
 62
1
100
AcDbSpline
 70
8
 71
3
 72
8
 73
4
 74
0
 40
0
 40
0
 40
0
 40
0
 40
1
 40
1
 40
1
 40
1
 10
145.057154
 20
327.771752
 30
0.0
 10
144.878055
 20
327.771752
 30
0.0
 10
144.732570
 20
327.625925
 30
0.0
 10
144.732570
 20
327.446824
 30
0.0
  0
SPLINE
  5
10a
100
AcDbEntity
  8
Layer_1
 62
1
100
AcDbSpline
 70
8
 71
3
 72
8
 73
4
 74
0
 40
0
 40
0
 40
0
 40
0
 40
1
 40
1
 40
1
 40
1
 10
144.732570
 20
327.446824
 30
0.0
 10
144.732570
 20
327.267726
 30
0.0
 10
144.878055
 20
327.122249
 30
0.0
 10
145.057154
 20
327.122249
 30
0.0
  0
SPLINE
  5
10b
100
AcDbEntity
  8
Layer_1
 62
1
100
AcDbSpline
 70
8
 71
3
 72
8
 73
4
 74
0
 40
0
 40
0
 40
0
 40
0
 40
1
 40
1
 40
1
 40
1
 10
145.057154
 20
327.122249
 30
0.0
 10
145.236252
 20
327.122249
 30
0.0
 10
145.382076
 20
327.267726
 30
0.0
 10
145.382076
 20
327.446824
 30
0.0
  0
SPLINE
  5
10c
100
AcDbEntity
  8
Layer_1
 62
1
100
AcDbSpline
 70
8
 71
3
 72
8
 73
4
 74
0
 40
0
 40
0
 40
0
 40
0
 40
1
 40
1
 40
1
 40
1
 10
145.382076
 20
327.446824
 30
0.0
 10
145.382076
 20
327.625925
 30
0.0
 10
145.236590
 20
327.771752
 30
0.0
 10
145.057154
 20
327.771752
 30
0.0
  0
LINE
  5
10d
100
AcDbEntity
  8
Layer_1
 62
1
100
AcDbLine
 10
145.057154
 20
327.771752
 30
0.0
 11
145.057154
 21
327.771752
 31
0.0
  0
SPLINE
  5
10e
100
AcDbEntity
  8
Layer_1
 62
1
100
AcDbSpline
 70
8
 71
3
 72
8
 73
4
 74
0
 40
0
 40
0
 40
0
 40
0
 40
1
 40
1
 40
1
 40
1
 10
145.057154
 20
328.774855
 30
0.0
 10
144.683012
 20
328.774855
 30
0.0
 10
144.378607
 20
329.079257
 30
0.0
 10
144.378607
 20
329.453385
 30
0.0
  0
SPLINE
  5
10f
100
AcDbEntity
  8
Layer_1
 62
1
100
AcDbSpline
 70
8
 71
3
 72
8
 73
4
 74
0
 40
0
 40
0
 40
0
 40
0
 40
1
 40
1
 40
1
 40
1
 10
144.378607
 20
329.453385
 30
0.0
 10
144.378607
 20
329.827865
 30
0.0
 10
144.683012
 20
330.132265
 30
0.0
 10
145.057154
 20
330.132265
 30
0.0
  0
SPLINE
  5
110
100
AcDbEntity
  8
Layer_1
 62
1
100
AcDbSpline
 70
8
 71
3
 72
8
 73
4
 74
0
 40
0
 40
0
 40
0
 40
0
 40
1
 40
1
 40
1
 40
1
 10
145.057154
 20
330.132265
 30
0.0
 10
145.431634
 20
330.132265
 30
0.0
 10
145.736039
 20
329.827865
 30
0.0
 10
145.736039
 20
329.453385
 30
0.0
  0
SPLINE
  5
111
100
AcDbEntity
  8
Layer_1
 62
1
100
AcDbSpline
 70
8
 71
3
 72
8
 73
4
 74
0
 40
0
 40
0
 40
0
 40
0
 40
1
 40
1
 40
1
 40
1
 10
145.736039
 20
329.453385
 30
0.0
 10
145.736039
 20
329.079257
 30
0.0
 10
145.431634
 20
328.774855
 30
0.0
 10
145.057154
 20
328.774855
 30
0.0
  0
LINE
  5
112
100
AcDbEntity
  8
Layer_1
 62
1
100
AcDbLine
 10
145.057154
 20
328.774855
 30
0.0
 11
145.057154
 21
328.774855
 31
0.0
  0
SPLINE
  5
113
100
AcDbEntity
  8
Layer_1
 62
1
100
AcDbSpline
 70
8
 71
3
 72
8
 73
4
 74
0
 40
0
 40
0
 40
0
 40
0
 40
1
 40
1
 40
1
 40
1
 10
145.057154
 20
329.778313
 30
0.0
 10
144.878055
 20
329.778313
 30
0.0
 10
144.732570
 20
329.632483
 30
0.0
 10
144.732570
 20
329.453385
 30
0.0
  0
SPLINE
  5
114
100
AcDbEntity
  8
Layer_1
 62
1
100
AcDbSpline
 70
8
 71
3
 72
8
 73
4
 74
0
 40
0
 40
0
 40
0
 40
0
 40
1
 40
1
 40
1
 40
1
 10
144.732570
 20
329.453385
 30
0.0
 10
144.732570
 20
329.274284
 30
0.0
 10
144.878055
 20
329.128809
 30
0.0
 10
145.057154
 20
329.128809
 30
0.0
  0
SPLINE
  5
115
100
AcDbEntity
  8
Layer_1
 62
1
100
AcDbSpline
 70
8
 71
3
 72
8
 73
4
 74
0
 40
0
 40
0
 40
0
 40
0
 40
1
 40
1
 40
1
 40
1
 10
145.057154
 20
329.128809
 30
0.0
 10
145.236252
 20
329.128809
 30
0.0
 10
145.382076
 20
329.274284
 30
0.0
 10
145.382076
 20
329.453385
 30
0.0
  0
SPLINE
  5
116
100
AcDbEntity
  8
Layer_1
 62
1
100
AcDbSpline
 70
8
 71
3
 72
8
 73
4
 74
0
 40
0
 40
0
 40
0
 40
0
 40
1
 40
1
 40
1
 40
1
 10
145.382076
 20
329.453385
 30
0.0
 10
145.382076
 20
329.632483
 30
0.0
 10
145.236590
 20
329.778313
 30
0.0
 10
145.057154
 20
329.778313
 30
0.0
  0
LINE
  5
117
100
AcDbEntity
  8
Layer_1
 62
1
100
AcDbLine
 10
145.057154
 20
329.778313
 30
0.0
 11
145.057154
 21
329.778313
 31
0.0
  0
SPLINE
  5
118
100
AcDbEntity
  8
Layer_1
 62
1
100
AcDbSpline
 70
8
 71
3
 72
8
 73
4
 74
0
 40
0
 40
0
 40
0
 40
0
 40
1
 40
1
 40
1
 40
1
 10
145.057154
 20
330.781415
 30
0.0
 10
144.683012
 20
330.781415
 30
0.0
 10
144.378607
 20
331.085814
 30
0.0
 10
144.378607
 20
331.459942
 30
0.0
  0
SPLINE
  5
119
100
AcDbEntity
  8
Layer_1
 62
1
100
AcDbSpline
 70
8
 71
3
 72
8
 73
4
 74
0
 40
0
 40
0
 40
0
 40
0
 40
1
 40
1
 40
1
 40
1
 10
144.378607
 20
331.459942
 30
0.0
 10
144.378607
 20
331.834426
 30
0.0
 10
144.683012
 20
332.138825
 30
0.0
 10
145.057154
 20
332.138825
 30
0.0
  0
SPLINE
  5
11a
100
AcDbEntity
  8
Layer_1
 62
1
100
AcDbSpline
 70
8
 71
3
 72
8
 73
4
 74
0
 40
0
 40
0
 40
0
 40
0
 40
1
 40
1
 40
1
 40
1
 10
145.057154
 20
332.138825
 30
0.0
 10
145.431634
 20
332.138825
 30
0.0
 10
145.736039
 20
331.834426
 30
0.0
 10
145.736039
 20
331.459942
 30
0.0
  0
SPLINE
  5
11b
100
AcDbEntity
  8
Layer_1
 62
1
100
AcDbSpline
 70
8
 71
3
 72
8
 73
4
 74
0
 40
0
 40
0
 40
0
 40
0
 40
1
 40
1
 40
1
 40
1
 10
145.736039
 20
331.459942
 30
0.0
 10
145.736039
 20
331.085814
 30
0.0
 10
145.431634
 20
330.781415
 30
0.0
 10
145.057154
 20
330.781415
 30
0.0
  0
LINE
  5
11c
100
AcDbEntity
  8
Layer_1
 62
1
100
AcDbLine
 10
145.057154
 20
330.781415
 30
0.0
 11
145.057154
 21
330.781415
 31
0.0
  0
SPLINE
  5
11d
100
AcDbEntity
  8
Layer_1
 62
1
100
AcDbSpline
 70
8
 71
3
 72
8
 73
4
 74
0
 40
0
 40
0
 40
0
 40
0
 40
1
 40
1
 40
1
 40
1
 10
145.057154
 20
331.784870
 30
0.0
 10
144.878055
 20
331.784870
 30
0.0
 10
144.732570
 20
331.639043
 30
0.0
 10
144.732570
 20
331.459942
 30
0.0
  0
SPLINE
  5
11e
100
AcDbEntity
  8
Layer_1
 62
1
100
AcDbSpline
 70
8
 71
3
 72
8
 73
4
 74
0
 40
0
 40
0
 40
0
 40
0
 40
1
 40
1
 40
1
 40
1
 10
144.732570
 20
331.459942
 30
0.0
 10
144.732570
 20
331.280841
 30
0.0
 10
144.878055
 20
331.135367
 30
0.0
 10
145.057154
 20
331.135367
 30
0.0
  0
SPLINE
  5
11f
100
AcDbEntity
  8
Layer_1
 62
1
100
AcDbSpline
 70
8
 71
3
 72
8
 73
4
 74
0
 40
0
 40
0
 40
0
 40
0
 40
1
 40
1
 40
1
 40
1
 10
145.057154
 20
331.135367
 30
0.0
 10
145.236252
 20
331.135367
 30
0.0
 10
145.382076
 20
331.280841
 30
0.0
 10
145.382076
 20
331.459942
 30
0.0
  0
SPLINE
  5
120
100
AcDbEntity
  8
Layer_1
 62
1
100
AcDbSpline
 70
8
 71
3
 72
8
 73
4
 74
0
 40
0
 40
0
 40
0
 40
0
 40
1
 40
1
 40
1
 40
1
 10
145.382076
 20
331.459942
 30
0.0
 10
145.382076
 20
331.639043
 30
0.0
 10
145.236590
 20
331.784870
 30
0.0
 10
145.057154
 20
331.784870
 30
0.0
  0
LINE
  5
121
100
AcDbEntity
  8
Layer_1
 62
1
100
AcDbLine
 10
145.057154
 20
331.784870
 30
0.0
 11
145.057154
 21
331.784870
 31
0.0
  0
SPLINE
  5
122
100
AcDbEntity
  8
Layer_1
 62
1
100
AcDbSpline
 70
8
 71
3
 72
8
 73
4
 74
0
 40
0
 40
0
 40
0
 40
0
 40
1
 40
1
 40
1
 40
1
 10
145.057154
 20
356.868454
 30
0.0
 10
144.683012
 20
356.868454
 30
0.0
 10
144.378607
 20
357.172853
 30
0.0
 10
144.378607
 20
357.546981
 30
0.0
  0
SPLINE
  5
123
100
AcDbEntity
  8
Layer_1
 62
1
100
AcDbSpline
 70
8
 71
3
 72
8
 73
4
 74
0
 40
0
 40
0
 40
0
 40
0
 40
1
 40
1
 40
1
 40
1
 10
144.378607
 20
357.546981
 30
0.0
 10
144.378607
 20
357.921465
 30
0.0
 10
144.683012
 20
358.225864
 30
0.0
 10
145.057154
 20
358.225864
 30
0.0
  0
SPLINE
  5
124
100
AcDbEntity
  8
Layer_1
 62
1
100
AcDbSpline
 70
8
 71
3
 72
8
 73
4
 74
0
 40
0
 40
0
 40
0
 40
0
 40
1
 40
1
 40
1
 40
1
 10
145.057154
 20
358.225864
 30
0.0
 10
145.431634
 20
358.225864
 30
0.0
 10
145.736039
 20
357.921465
 30
0.0
 10
145.736039
 20
357.546981
 30
0.0
  0
SPLINE
  5
125
100
AcDbEntity
  8
Layer_1
 62
1
100
AcDbSpline
 70
8
 71
3
 72
8
 73
4
 74
0
 40
0
 40
0
 40
0
 40
0
 40
1
 40
1
 40
1
 40
1
 10
145.736039
 20
357.546981
 30
0.0
 10
145.736039
 20
357.172853
 30
0.0
 10
145.431634
 20
356.868454
 30
0.0
 10
145.057154
 20
356.868454
 30
0.0
  0
LINE
  5
126
100
AcDbEntity
  8
Layer_1
 62
1
100
AcDbLine
 10
145.057154
 20
356.868454
 30
0.0
 11
145.057154
 21
356.868454
 31
0.0
  0
SPLINE
  5
127
100
AcDbEntity
  8
Layer_1
 62
1
100
AcDbSpline
 70
8
 71
3
 72
8
 73
4
 74
0
 40
0
 40
0
 40
0
 40
0
 40
1
 40
1
 40
1
 40
1
 10
145.057154
 20
357.871909
 30
0.0
 10
144.878055
 20
357.871909
 30
0.0
 10
144.732570
 20
357.726082
 30
0.0
 10
144.732570
 20
357.546981
 30
0.0
  0
SPLINE
  5
128
100
AcDbEntity
  8
Layer_1
 62
1
100
AcDbSpline
 70
8
 71
3
 72
8
 73
4
 74
0
 40
0
 40
0
 40
0
 40
0
 40
1
 40
1
 40
1
 40
1
 10
144.732570
 20
357.546981
 30
0.0
 10
144.732570
 20
357.367880
 30
0.0
 10
144.878055
 20
357.222406
 30
0.0
 10
145.057154
 20
357.222406
 30
0.0
  0
SPLINE
  5
129
100
AcDbEntity
  8
Layer_1
 62
1
100
AcDbSpline
 70
8
 71
3
 72
8
 73
4
 74
0
 40
0
 40
0
 40
0
 40
0
 40
1
 40
1
 40
1
 40
1
 10
145.057154
 20
357.222406
 30
0.0
 10
145.236252
 20
357.222406
 30
0.0
 10
145.382076
 20
357.367880
 30
0.0
 10
145.382076
 20
357.546981
 30
0.0
  0
SPLINE
  5
12a
100
AcDbEntity
  8
Layer_1
 62
1
100
AcDbSpline
 70
8
 71
3
 72
8
 73
4
 74
0
 40
0
 40
0
 40
0
 40
0
 40
1
 40
1
 40
1
 40
1
 10
145.382076
 20
357.546981
 30
0.0
 10
145.382076
 20
357.726082
 30
0.0
 10
145.236590
 20
357.871909
 30
0.0
 10
145.057154
 20
357.871909
 30
0.0
  0
LINE
  5
12b
100
AcDbEntity
  8
Layer_1
 62
1
100
AcDbLine
 10
145.057154
 20
357.871909
 30
0.0
 11
145.057154
 21
357.871909
 31
0.0
  0
SPLINE
  5
12c
100
AcDbEntity
  8
Layer_1
 62
1
100
AcDbSpline
 70
8
 71
3
 72
8
 73
4
 74
0
 40
0
 40
0
 40
0
 40
0
 40
1
 40
1
 40
1
 40
1
 10
145.057154
 20
358.875012
 30
0.0
 10
144.683012
 20
358.875012
 30
0.0
 10
144.378607
 20
359.179411
 30
0.0
 10
144.378607
 20
359.553539
 30
0.0
  0
SPLINE
  5
12d
100
AcDbEntity
  8
Layer_1
 62
1
100
AcDbSpline
 70
8
 71
3
 72
8
 73
4
 74
0
 40
0
 40
0
 40
0
 40
0
 40
1
 40
1
 40
1
 40
1
 10
144.378607
 20
359.553539
 30
0.0
 10
144.378607
 20
359.928022
 30
0.0
 10
144.683012
 20
360.232422
 30
0.0
 10
145.057154
 20
360.232422
 30
0.0
  0
SPLINE
  5
12e
100
AcDbEntity
  8
Layer_1
 62
1
100
AcDbSpline
 70
8
 71
3
 72
8
 73
4
 74
0
 40
0
 40
0
 40
0
 40
0
 40
1
 40
1
 40
1
 40
1
 10
145.057154
 20
360.232422
 30
0.0
 10
145.431634
 20
360.232422
 30
0.0
 10
145.736039
 20
359.928022
 30
0.0
 10
145.736039
 20
359.553539
 30
0.0
  0
SPLINE
  5
12f
100
AcDbEntity
  8
Layer_1
 62
1
100
AcDbSpline
 70
8
 71
3
 72
8
 73
4
 74
0
 40
0
 40
0
 40
0
 40
0
 40
1
 40
1
 40
1
 40
1
 10
145.736039
 20
359.553539
 30
0.0
 10
145.736039
 20
359.179411
 30
0.0
 10
145.431634
 20
358.875012
 30
0.0
 10
145.057154
 20
358.875012
 30
0.0
  0
LINE
  5
130
100
AcDbEntity
  8
Layer_1
 62
1
100
AcDbLine
 10
145.057154
 20
358.875012
 30
0.0
 11
145.057154
 21
358.875012
 31
0.0
  0
SPLINE
  5
131
100
AcDbEntity
  8
Layer_1
 62
1
100
AcDbSpline
 70
8
 71
3
 72
8
 73
4
 74
0
 40
0
 40
0
 40
0
 40
0
 40
1
 40
1
 40
1
 40
1
 10
145.057154
 20
359.878467
 30
0.0
 10
144.878055
 20
359.878467
 30
0.0
 10
144.732570
 20
359.732640
 30
0.0
 10
144.732570
 20
359.553539
 30
0.0
  0
SPLINE
  5
132
100
AcDbEntity
  8
Layer_1
 62
1
100
AcDbSpline
 70
8
 71
3
 72
8
 73
4
 74
0
 40
0
 40
0
 40
0
 40
0
 40
1
 40
1
 40
1
 40
1
 10
144.732570
 20
359.553539
 30
0.0
 10
144.732570
 20
359.374441
 30
0.0
 10
144.878055
 20
359.228966
 30
0.0
 10
145.057154
 20
359.228966
 30
0.0
  0
SPLINE
  5
133
100
AcDbEntity
  8
Layer_1
 62
1
100
AcDbSpline
 70
8
 71
3
 72
8
 73
4
 74
0
 40
0
 40
0
 40
0
 40
0
 40
1
 40
1
 40
1
 40
1
 10
145.057154
 20
359.228966
 30
0.0
 10
145.236252
 20
359.228966
 30
0.0
 10
145.382076
 20
359.374441
 30
0.0
 10
145.382076
 20
359.553539
 30
0.0
  0
SPLINE
  5
134
100
AcDbEntity
  8
Layer_1
 62
1
100
AcDbSpline
 70
8
 71
3
 72
8
 73
4
 74
0
 40
0
 40
0
 40
0
 40
0
 40
1
 40
1
 40
1
 40
1
 10
145.382076
 20
359.553539
 30
0.0
 10
145.382076
 20
359.732640
 30
0.0
 10
145.236590
 20
359.878467
 30
0.0
 10
145.057154
 20
359.878467
 30
0.0
  0
LINE
  5
135
100
AcDbEntity
  8
Layer_1
 62
1
100
AcDbLine
 10
145.057154
 20
359.878467
 30
0.0
 11
145.057154
 21
359.878467
 31
0.0
  0
SPLINE
  5
136
100
AcDbEntity
  8
Layer_1
 62
1
100
AcDbSpline
 70
8
 71
3
 72
8
 73
4
 74
0
 40
0
 40
0
 40
0
 40
0
 40
1
 40
1
 40
1
 40
1
 10
145.057154
 20
360.881572
 30
0.0
 10
144.683012
 20
360.881572
 30
0.0
 10
144.378607
 20
361.185972
 30
0.0
 10
144.378607
 20
361.560099
 30
0.0
  0
SPLINE
  5
137
100
AcDbEntity
  8
Layer_1
 62
1
100
AcDbSpline
 70
8
 71
3
 72
8
 73
4
 74
0
 40
0
 40
0
 40
0
 40
0
 40
1
 40
1
 40
1
 40
1
 10
144.378607
 20
361.560099
 30
0.0
 10
144.378607
 20
361.934580
 30
0.0
 10
144.683012
 20
362.238982
 30
0.0
 10
145.057154
 20
362.238982
 30
0.0
  0
SPLINE
  5
138
100
AcDbEntity
  8
Layer_1
 62
1
100
AcDbSpline
 70
8
 71
3
 72
8
 73
4
 74
0
 40
0
 40
0
 40
0
 40
0
 40
1
 40
1
 40
1
 40
1
 10
145.057154
 20
362.238982
 30
0.0
 10
145.431634
 20
362.238982
 30
0.0
 10
145.736039
 20
361.934580
 30
0.0
 10
145.736039
 20
361.560099
 30
0.0
  0
SPLINE
  5
139
100
AcDbEntity
  8
Layer_1
 62
1
100
AcDbSpline
 70
8
 71
3
 72
8
 73
4
 74
0
 40
0
 40
0
 40
0
 40
0
 40
1
 40
1
 40
1
 40
1
 10
145.736039
 20
361.560099
 30
0.0
 10
145.736039
 20
361.185972
 30
0.0
 10
145.431634
 20
360.881572
 30
0.0
 10
145.057154
 20
360.881572
 30
0.0
  0
LINE
  5
13a
100
AcDbEntity
  8
Layer_1
 62
1
100
AcDbLine
 10
145.057154
 20
360.881572
 30
0.0
 11
145.057154
 21
360.881572
 31
0.0
  0
SPLINE
  5
13b
100
AcDbEntity
  8
Layer_1
 62
1
100
AcDbSpline
 70
8
 71
3
 72
8
 73
4
 74
0
 40
0
 40
0
 40
0
 40
0
 40
1
 40
1
 40
1
 40
1
 10
145.057154
 20
361.885028
 30
0.0
 10
144.878055
 20
361.885028
 30
0.0
 10
144.732570
 20
361.739200
 30
0.0
 10
144.732570
 20
361.560099
 30
0.0
  0
SPLINE
  5
13c
100
AcDbEntity
  8
Layer_1
 62
1
100
AcDbSpline
 70
8
 71
3
 72
8
 73
4
 74
0
 40
0
 40
0
 40
0
 40
0
 40
1
 40
1
 40
1
 40
1
 10
144.732570
 20
361.560099
 30
0.0
 10
144.732570
 20
361.380998
 30
0.0
 10
144.878055
 20
361.235524
 30
0.0
 10
145.057154
 20
361.235524
 30
0.0
  0
SPLINE
  5
13d
100
AcDbEntity
  8
Layer_1
 62
1
100
AcDbSpline
 70
8
 71
3
 72
8
 73
4
 74
0
 40
0
 40
0
 40
0
 40
0
 40
1
 40
1
 40
1
 40
1
 10
145.057154
 20
361.235524
 30
0.0
 10
145.236252
 20
361.235524
 30
0.0
 10
145.382076
 20
361.380998
 30
0.0
 10
145.382076
 20
361.560099
 30
0.0
  0
SPLINE
  5
13e
100
AcDbEntity
  8
Layer_1
 62
1
100
AcDbSpline
 70
8
 71
3
 72
8
 73
4
 74
0
 40
0
 40
0
 40
0
 40
0
 40
1
 40
1
 40
1
 40
1
 10
145.382076
 20
361.560099
 30
0.0
 10
145.382076
 20
361.739200
 30
0.0
 10
145.236590
 20
361.885028
 30
0.0
 10
145.057154
 20
361.885028
 30
0.0
  0
LINE
  5
13f
100
AcDbEntity
  8
Layer_1
 62
1
100
AcDbLine
 10
145.057154
 20
361.885028
 30
0.0
 11
145.057154
 21
361.885028
 31
0.0
  0
SPLINE
  5
140
100
AcDbEntity
  8
Layer_1
 62
1
100
AcDbSpline
 70
8
 71
3
 72
8
 73
4
 74
0
 40
0
 40
0
 40
0
 40
0
 40
1
 40
1
 40
1
 40
1
 10
213.900636
 20
356.868454
 30
0.0
 10
213.526522
 20
356.868454
 30
0.0
 10
213.222118
 20
357.172853
 30
0.0
 10
213.222118
 20
357.546981
 30
0.0
  0
SPLINE
  5
141
100
AcDbEntity
  8
Layer_1
 62
1
100
AcDbSpline
 70
8
 71
3
 72
8
 73
4
 74
0
 40
0
 40
0
 40
0
 40
0
 40
1
 40
1
 40
1
 40
1
 10
213.222118
 20
357.546981
 30
0.0
 10
213.222118
 20
357.921465
 30
0.0
 10
213.526522
 20
358.225864
 30
0.0
 10
213.900636
 20
358.225864
 30
0.0
  0
SPLINE
  5
142
100
AcDbEntity
  8
Layer_1
 62
1
100
AcDbSpline
 70
8
 71
3
 72
8
 73
4
 74
0
 40
0
 40
0
 40
0
 40
0
 40
1
 40
1
 40
1
 40
1
 10
213.900636
 20
358.225864
 30
0.0
 10
214.275117
 20
358.225864
 30
0.0
 10
214.579522
 20
357.921465
 30
0.0
 10
214.579522
 20
357.546981
 30
0.0
  0
SPLINE
  5
143
100
AcDbEntity
  8
Layer_1
 62
1
100
AcDbSpline
 70
8
 71
3
 72
8
 73
4
 74
0
 40
0
 40
0
 40
0
 40
0
 40
1
 40
1
 40
1
 40
1
 10
214.579522
 20
357.546981
 30
0.0
 10
214.579522
 20
357.172853
 30
0.0
 10
214.275117
 20
356.868454
 30
0.0
 10
213.900636
 20
356.868454
 30
0.0
  0
LINE
  5
144
100
AcDbEntity
  8
Layer_1
 62
1
100
AcDbLine
 10
213.900636
 20
356.868454
 30
0.0
 11
213.900636
 21
356.868454
 31
0.0
  0
SPLINE
  5
145
100
AcDbEntity
  8
Layer_1
 62
1
100
AcDbSpline
 70
8
 71
3
 72
8
 73
4
 74
0
 40
0
 40
0
 40
0
 40
0
 40
1
 40
1
 40
1
 40
1
 10
213.900636
 20
357.871909
 30
0.0
 10
213.721538
 20
357.871909
 30
0.0
 10
213.576081
 20
357.726082
 30
0.0
 10
213.576081
 20
357.546981
 30
0.0
  0
SPLINE
  5
146
100
AcDbEntity
  8
Layer_1
 62
1
100
AcDbSpline
 70
8
 71
3
 72
8
 73
4
 74
0
 40
0
 40
0
 40
0
 40
0
 40
1
 40
1
 40
1
 40
1
 10
213.576081
 20
357.546981
 30
0.0
 10
213.576081
 20
357.367880
 30
0.0
 10
213.721538
 20
357.222406
 30
0.0
 10
213.900636
 20
357.222406
 30
0.0
  0
SPLINE
  5
147
100
AcDbEntity
  8
Layer_1
 62
1
100
AcDbSpline
 70
8
 71
3
 72
8
 73
4
 74
0
 40
0
 40
0
 40
0
 40
0
 40
1
 40
1
 40
1
 40
1
 10
213.900636
 20
357.222406
 30
0.0
 10
214.079734
 20
357.222406
 30
0.0
 10
214.225587
 20
357.367880
 30
0.0
 10
214.225587
 20
357.546981
 30
0.0
  0
SPLINE
  5
148
100
AcDbEntity
  8
Layer_1
 62
1
100
AcDbSpline
 70
8
 71
3
 72
8
 73
4
 74
0
 40
0
 40
0
 40
0
 40
0
 40
1
 40
1
 40
1
 40
1
 10
214.225587
 20
357.546981
 30
0.0
 10
214.225587
 20
357.726082
 30
0.0
 10
214.080101
 20
357.871909
 30
0.0
 10
213.900636
 20
357.871909
 30
0.0
  0
LINE
  5
149
100
AcDbEntity
  8
Layer_1
 62
1
100
AcDbLine
 10
213.900636
 20
357.871909
 30
0.0
 11
213.900636
 21
357.871909
 31
0.0
  0
SPLINE
  5
14a
100
AcDbEntity
  8
Layer_1
 62
1
100
AcDbSpline
 70
8
 71
3
 72
8
 73
4
 74
0
 40
0
 40
0
 40
0
 40
0
 40
1
 40
1
 40
1
 40
1
 10
213.900636
 20
358.875012
 30
0.0
 10
213.526522
 20
358.875012
 30
0.0
 10
213.222118
 20
359.179411
 30
0.0
 10
213.222118
 20
359.553539
 30
0.0
  0
SPLINE
  5
14b
100
AcDbEntity
  8
Layer_1
 62
1
100
AcDbSpline
 70
8
 71
3
 72
8
 73
4
 74
0
 40
0
 40
0
 40
0
 40
0
 40
1
 40
1
 40
1
 40
1
 10
213.222118
 20
359.553539
 30
0.0
 10
213.222118
 20
359.928022
 30
0.0
 10
213.526522
 20
360.232422
 30
0.0
 10
213.900636
 20
360.232422
 30
0.0
  0
SPLINE
  5
14c
100
AcDbEntity
  8
Layer_1
 62
1
100
AcDbSpline
 70
8
 71
3
 72
8
 73
4
 74
0
 40
0
 40
0
 40
0
 40
0
 40
1
 40
1
 40
1
 40
1
 10
213.900636
 20
360.232422
 30
0.0
 10
214.275117
 20
360.232422
 30
0.0
 10
214.579522
 20
359.928022
 30
0.0
 10
214.579522
 20
359.553539
 30
0.0
  0
SPLINE
  5
14d
100
AcDbEntity
  8
Layer_1
 62
1
100
AcDbSpline
 70
8
 71
3
 72
8
 73
4
 74
0
 40
0
 40
0
 40
0
 40
0
 40
1
 40
1
 40
1
 40
1
 10
214.579522
 20
359.553539
 30
0.0
 10
214.579522
 20
359.179411
 30
0.0
 10
214.275117
 20
358.875012
 30
0.0
 10
213.900636
 20
358.875012
 30
0.0
  0
LINE
  5
14e
100
AcDbEntity
  8
Layer_1
 62
1
100
AcDbLine
 10
213.900636
 20
358.875012
 30
0.0
 11
213.900636
 21
358.875012
 31
0.0
  0
SPLINE
  5
14f
100
AcDbEntity
  8
Layer_1
 62
1
100
AcDbSpline
 70
8
 71
3
 72
8
 73
4
 74
0
 40
0
 40
0
 40
0
 40
0
 40
1
 40
1
 40
1
 40
1
 10
213.900636
 20
359.878467
 30
0.0
 10
213.721538
 20
359.878467
 30
0.0
 10
213.576081
 20
359.732640
 30
0.0
 10
213.576081
 20
359.553539
 30
0.0
  0
SPLINE
  5
150
100
AcDbEntity
  8
Layer_1
 62
1
100
AcDbSpline
 70
8
 71
3
 72
8
 73
4
 74
0
 40
0
 40
0
 40
0
 40
0
 40
1
 40
1
 40
1
 40
1
 10
213.576081
 20
359.553539
 30
0.0
 10
213.576081
 20
359.374441
 30
0.0
 10
213.721538
 20
359.228966
 30
0.0
 10
213.900636
 20
359.228966
 30
0.0
  0
SPLINE
  5
151
100
AcDbEntity
  8
Layer_1
 62
1
100
AcDbSpline
 70
8
 71
3
 72
8
 73
4
 74
0
 40
0
 40
0
 40
0
 40
0
 40
1
 40
1
 40
1
 40
1
 10
213.900636
 20
359.228966
 30
0.0
 10
214.079734
 20
359.228966
 30
0.0
 10
214.225587
 20
359.374441
 30
0.0
 10
214.225587
 20
359.553539
 30
0.0
  0
SPLINE
  5
152
100
AcDbEntity
  8
Layer_1
 62
1
100
AcDbSpline
 70
8
 71
3
 72
8
 73
4
 74
0
 40
0
 40
0
 40
0
 40
0
 40
1
 40
1
 40
1
 40
1
 10
214.225587
 20
359.553539
 30
0.0
 10
214.225587
 20
359.732640
 30
0.0
 10
214.080101
 20
359.878467
 30
0.0
 10
213.900636
 20
359.878467
 30
0.0
  0
LINE
  5
153
100
AcDbEntity
  8
Layer_1
 62
1
100
AcDbLine
 10
213.900636
 20
359.878467
 30
0.0
 11
213.900636
 21
359.878467
 31
0.0
  0
SPLINE
  5
154
100
AcDbEntity
  8
Layer_1
 62
1
100
AcDbSpline
 70
8
 71
3
 72
8
 73
4
 74
0
 40
0
 40
0
 40
0
 40
0
 40
1
 40
1
 40
1
 40
1
 10
213.900636
 20
360.881572
 30
0.0
 10
213.526522
 20
360.881572
 30
0.0
 10
213.222118
 20
361.185972
 30
0.0
 10
213.222118
 20
361.560099
 30
0.0
  0
SPLINE
  5
155
100
AcDbEntity
  8
Layer_1
 62
1
100
AcDbSpline
 70
8
 71
3
 72
8
 73
4
 74
0
 40
0
 40
0
 40
0
 40
0
 40
1
 40
1
 40
1
 40
1
 10
213.222118
 20
361.560099
 30
0.0
 10
213.222118
 20
361.934580
 30
0.0
 10
213.526522
 20
362.238982
 30
0.0
 10
213.900636
 20
362.238982
 30
0.0
  0
SPLINE
  5
156
100
AcDbEntity
  8
Layer_1
 62
1
100
AcDbSpline
 70
8
 71
3
 72
8
 73
4
 74
0
 40
0
 40
0
 40
0
 40
0
 40
1
 40
1
 40
1
 40
1
 10
213.900636
 20
362.238982
 30
0.0
 10
214.275117
 20
362.238982
 30
0.0
 10
214.579522
 20
361.934580
 30
0.0
 10
214.579522
 20
361.560099
 30
0.0
  0
SPLINE
  5
157
100
AcDbEntity
  8
Layer_1
 62
1
100
AcDbSpline
 70
8
 71
3
 72
8
 73
4
 74
0
 40
0
 40
0
 40
0
 40
0
 40
1
 40
1
 40
1
 40
1
 10
214.579522
 20
361.560099
 30
0.0
 10
214.579522
 20
361.185972
 30
0.0
 10
214.275117
 20
360.881572
 30
0.0
 10
213.900636
 20
360.881572
 30
0.0
  0
LINE
  5
158
100
AcDbEntity
  8
Layer_1
 62
1
100
AcDbLine
 10
213.900636
 20
360.881572
 30
0.0
 11
213.900636
 21
360.881572
 31
0.0
  0
SPLINE
  5
159
100
AcDbEntity
  8
Layer_1
 62
1
100
AcDbSpline
 70
8
 71
3
 72
8
 73
4
 74
0
 40
0
 40
0
 40
0
 40
0
 40
1
 40
1
 40
1
 40
1
 10
213.900636
 20
361.885028
 30
0.0
 10
213.721538
 20
361.885028
 30
0.0
 10
213.576081
 20
361.739200
 30
0.0
 10
213.576081
 20
361.560099
 30
0.0
  0
SPLINE
  5
15a
100
AcDbEntity
  8
Layer_1
 62
1
100
AcDbSpline
 70
8
 71
3
 72
8
 73
4
 74
0
 40
0
 40
0
 40
0
 40
0
 40
1
 40
1
 40
1
 40
1
 10
213.576081
 20
361.560099
 30
0.0
 10
213.576081
 20
361.380998
 30
0.0
 10
213.721538
 20
361.235524
 30
0.0
 10
213.900636
 20
361.235524
 30
0.0
  0
SPLINE
  5
15b
100
AcDbEntity
  8
Layer_1
 62
1
100
AcDbSpline
 70
8
 71
3
 72
8
 73
4
 74
0
 40
0
 40
0
 40
0
 40
0
 40
1
 40
1
 40
1
 40
1
 10
213.900636
 20
361.235524
 30
0.0
 10
214.079734
 20
361.235524
 30
0.0
 10
214.225587
 20
361.380998
 30
0.0
 10
214.225587
 20
361.560099
 30
0.0
  0
SPLINE
  5
15c
100
AcDbEntity
  8
Layer_1
 62
1
100
AcDbSpline
 70
8
 71
3
 72
8
 73
4
 74
0
 40
0
 40
0
 40
0
 40
0
 40
1
 40
1
 40
1
 40
1
 10
214.225587
 20
361.560099
 30
0.0
 10
214.225587
 20
361.739200
 30
0.0
 10
214.080101
 20
361.885028
 30
0.0
 10
213.900636
 20
361.885028
 30
0.0
  0
LINE
  5
15d
100
AcDbEntity
  8
Layer_1
 62
1
100
AcDbLine
 10
213.900636
 20
361.885028
 30
0.0
 11
213.900636
 21
361.885028
 31
0.0
  0
SPLINE
  5
15e
100
AcDbEntity
  8
Layer_1
 62
1
100
AcDbSpline
 70
8
 71
3
 72
8
 73
4
 74
0
 40
0
 40
0
 40
0
 40
0
 40
1
 40
1
 40
1
 40
1
 10
213.900636
 20
397.002114
 30
0.0
 10
213.526522
 20
397.002114
 30
0.0
 10
213.222118
 20
397.306513
 30
0.0
 10
213.222118
 20
397.680641
 30
0.0
  0
SPLINE
  5
15f
100
AcDbEntity
  8
Layer_1
 62
1
100
AcDbSpline
 70
8
 71
3
 72
8
 73
4
 74
0
 40
0
 40
0
 40
0
 40
0
 40
1
 40
1
 40
1
 40
1
 10
213.222118
 20
397.680641
 30
0.0
 10
213.222118
 20
398.055124
 30
0.0
 10
213.526522
 20
398.359523
 30
0.0
 10
213.900636
 20
398.359523
 30
0.0
  0
SPLINE
  5
160
100
AcDbEntity
  8
Layer_1
 62
1
100
AcDbSpline
 70
8
 71
3
 72
8
 73
4
 74
0
 40
0
 40
0
 40
0
 40
0
 40
1
 40
1
 40
1
 40
1
 10
213.900636
 20
398.359523
 30
0.0
 10
214.275117
 20
398.359523
 30
0.0
 10
214.579522
 20
398.055124
 30
0.0
 10
214.579522
 20
397.680641
 30
0.0
  0
SPLINE
  5
161
100
AcDbEntity
  8
Layer_1
 62
1
100
AcDbSpline
 70
8
 71
3
 72
8
 73
4
 74
0
 40
0
 40
0
 40
0
 40
0
 40
1
 40
1
 40
1
 40
1
 10
214.579522
 20
397.680641
 30
0.0
 10
214.579522
 20
397.306513
 30
0.0
 10
214.275117
 20
397.002114
 30
0.0
 10
213.900636
 20
397.002114
 30
0.0
  0
LINE
  5
162
100
AcDbEntity
  8
Layer_1
 62
1
100
AcDbLine
 10
213.900636
 20
397.002114
 30
0.0
 11
213.900636
 21
397.002114
 31
0.0
  0
SPLINE
  5
163
100
AcDbEntity
  8
Layer_1
 62
1
100
AcDbSpline
 70
8
 71
3
 72
8
 73
4
 74
0
 40
0
 40
0
 40
0
 40
0
 40
1
 40
1
 40
1
 40
1
 10
213.900636
 20
398.005569
 30
0.0
 10
213.721538
 20
398.005569
 30
0.0
 10
213.576081
 20
397.859742
 30
0.0
 10
213.576081
 20
397.680641
 30
0.0
  0
SPLINE
  5
164
100
AcDbEntity
  8
Layer_1
 62
1
100
AcDbSpline
 70
8
 71
3
 72
8
 73
4
 74
0
 40
0
 40
0
 40
0
 40
0
 40
1
 40
1
 40
1
 40
1
 10
213.576081
 20
397.680641
 30
0.0
 10
213.576081
 20
397.501540
 30
0.0
 10
213.721538
 20
397.356065
 30
0.0
 10
213.900636
 20
397.356065
 30
0.0
  0
SPLINE
  5
165
100
AcDbEntity
  8
Layer_1
 62
1
100
AcDbSpline
 70
8
 71
3
 72
8
 73
4
 74
0
 40
0
 40
0
 40
0
 40
0
 40
1
 40
1
 40
1
 40
1
 10
213.900636
 20
397.356065
 30
0.0
 10
214.079734
 20
397.356065
 30
0.0
 10
214.225587
 20
397.501540
 30
0.0
 10
214.225587
 20
397.680641
 30
0.0
  0
SPLINE
  5
166
100
AcDbEntity
  8
Layer_1
 62
1
100
AcDbSpline
 70
8
 71
3
 72
8
 73
4
 74
0
 40
0
 40
0
 40
0
 40
0
 40
1
 40
1
 40
1
 40
1
 10
214.225587
 20
397.680641
 30
0.0
 10
214.225587
 20
397.859742
 30
0.0
 10
214.080101
 20
398.005569
 30
0.0
 10
213.900636
 20
398.005569
 30
0.0
  0
LINE
  5
167
100
AcDbEntity
  8
Layer_1
 62
1
100
AcDbLine
 10
213.900636
 20
398.005569
 30
0.0
 11
213.900636
 21
398.005569
 31
0.0
  0
SPLINE
  5
168
100
AcDbEntity
  8
Layer_1
 62
1
100
AcDbSpline
 70
8
 71
3
 72
8
 73
4
 74
0
 40
0
 40
0
 40
0
 40
0
 40
1
 40
1
 40
1
 40
1
 10
213.900636
 20
399.008671
 30
0.0
 10
213.526522
 20
399.008671
 30
0.0
 10
213.222118
 20
399.313073
 30
0.0
 10
213.222118
 20
399.687201
 30
0.0
  0
SPLINE
  5
169
100
AcDbEntity
  8
Layer_1
 62
1
100
AcDbSpline
 70
8
 71
3
 72
8
 73
4
 74
0
 40
0
 40
0
 40
0
 40
0
 40
1
 40
1
 40
1
 40
1
 10
213.222118
 20
399.687201
 30
0.0
 10
213.222118
 20
400.061682
 30
0.0
 10
213.526522
 20
400.366081
 30
0.0
 10
213.900636
 20
400.366081
 30
0.0
  0
SPLINE
  5
16a
100
AcDbEntity
  8
Layer_1
 62
1
100
AcDbSpline
 70
8
 71
3
 72
8
 73
4
 74
0
 40
0
 40
0
 40
0
 40
0
 40
1
 40
1
 40
1
 40
1
 10
213.900636
 20
400.366081
 30
0.0
 10
214.275117
 20
400.366081
 30
0.0
 10
214.579522
 20
400.061682
 30
0.0
 10
214.579522
 20
399.687201
 30
0.0
  0
SPLINE
  5
16b
100
AcDbEntity
  8
Layer_1
 62
1
100
AcDbSpline
 70
8
 71
3
 72
8
 73
4
 74
0
 40
0
 40
0
 40
0
 40
0
 40
1
 40
1
 40
1
 40
1
 10
214.579522
 20
399.687201
 30
0.0
 10
214.579522
 20
399.313073
 30
0.0
 10
214.275117
 20
399.008671
 30
0.0
 10
213.900636
 20
399.008671
 30
0.0
  0
LINE
  5
16c
100
AcDbEntity
  8
Layer_1
 62
1
100
AcDbLine
 10
213.900636
 20
399.008671
 30
0.0
 11
213.900636
 21
399.008671
 31
0.0
  0
SPLINE
  5
16d
100
AcDbEntity
  8
Layer_1
 62
1
100
AcDbSpline
 70
8
 71
3
 72
8
 73
4
 74
0
 40
0
 40
0
 40
0
 40
0
 40
1
 40
1
 40
1
 40
1
 10
213.900636
 20
400.012129
 30
0.0
 10
213.721538
 20
400.012129
 30
0.0
 10
213.576081
 20
399.866299
 30
0.0
 10
213.576081
 20
399.687201
 30
0.0
  0
SPLINE
  5
16e
100
AcDbEntity
  8
Layer_1
 62
1
100
AcDbSpline
 70
8
 71
3
 72
8
 73
4
 74
0
 40
0
 40
0
 40
0
 40
0
 40
1
 40
1
 40
1
 40
1
 10
213.576081
 20
399.687201
 30
0.0
 10
213.576081
 20
399.508100
 30
0.0
 10
213.721538
 20
399.362626
 30
0.0
 10
213.900636
 20
399.362626
 30
0.0
  0
SPLINE
  5
16f
100
AcDbEntity
  8
Layer_1
 62
1
100
AcDbSpline
 70
8
 71
3
 72
8
 73
4
 74
0
 40
0
 40
0
 40
0
 40
0
 40
1
 40
1
 40
1
 40
1
 10
213.900636
 20
399.362626
 30
0.0
 10
214.079734
 20
399.362626
 30
0.0
 10
214.225587
 20
399.508100
 30
0.0
 10
214.225587
 20
399.687201
 30
0.0
  0
SPLINE
  5
170
100
AcDbEntity
  8
Layer_1
 62
1
100
AcDbSpline
 70
8
 71
3
 72
8
 73
4
 74
0
 40
0
 40
0
 40
0
 40
0
 40
1
 40
1
 40
1
 40
1
 10
214.225587
 20
399.687201
 30
0.0
 10
214.225587
 20
399.866299
 30
0.0
 10
214.080101
 20
400.012129
 30
0.0
 10
213.900636
 20
400.012129
 30
0.0
  0
LINE
  5
171
100
AcDbEntity
  8
Layer_1
 62
1
100
AcDbLine
 10
213.900636
 20
400.012129
 30
0.0
 11
213.900636
 21
400.012129
 31
0.0
  0
SPLINE
  5
172
100
AcDbEntity
  8
Layer_1
 62
1
100
AcDbSpline
 70
8
 71
3
 72
8
 73
4
 74
0
 40
0
 40
0
 40
0
 40
0
 40
1
 40
1
 40
1
 40
1
 10
213.900636
 20
401.015232
 30
0.0
 10
213.526522
 20
401.015232
 30
0.0
 10
213.222118
 20
401.319631
 30
0.0
 10
213.222118
 20
401.693759
 30
0.0
  0
SPLINE
  5
173
100
AcDbEntity
  8
Layer_1
 62
1
100
AcDbSpline
 70
8
 71
3
 72
8
 73
4
 74
0
 40
0
 40
0
 40
0
 40
0
 40
1
 40
1
 40
1
 40
1
 10
213.222118
 20
401.693759
 30
0.0
 10
213.222118
 20
402.068242
 30
0.0
 10
213.526522
 20
402.372642
 30
0.0
 10
213.900636
 20
402.372642
 30
0.0
  0
SPLINE
  5
174
100
AcDbEntity
  8
Layer_1
 62
1
100
AcDbSpline
 70
8
 71
3
 72
8
 73
4
 74
0
 40
0
 40
0
 40
0
 40
0
 40
1
 40
1
 40
1
 40
1
 10
213.900636
 20
402.372642
 30
0.0
 10
214.275117
 20
402.372642
 30
0.0
 10
214.579522
 20
402.068242
 30
0.0
 10
214.579522
 20
401.693759
 30
0.0
  0
SPLINE
  5
175
100
AcDbEntity
  8
Layer_1
 62
1
100
AcDbSpline
 70
8
 71
3
 72
8
 73
4
 74
0
 40
0
 40
0
 40
0
 40
0
 40
1
 40
1
 40
1
 40
1
 10
214.579522
 20
401.693759
 30
0.0
 10
214.579522
 20
401.319631
 30
0.0
 10
214.275117
 20
401.015232
 30
0.0
 10
213.900636
 20
401.015232
 30
0.0
  0
LINE
  5
176
100
AcDbEntity
  8
Layer_1
 62
1
100
AcDbLine
 10
213.900636
 20
401.015232
 30
0.0
 11
213.900636
 21
401.015232
 31
0.0
  0
SPLINE
  5
177
100
AcDbEntity
  8
Layer_1
 62
1
100
AcDbSpline
 70
8
 71
3
 72
8
 73
4
 74
0
 40
0
 40
0
 40
0
 40
0
 40
1
 40
1
 40
1
 40
1
 10
213.900636
 20
402.018690
 30
0.0
 10
213.721538
 20
402.018690
 30
0.0
 10
213.576081
 20
401.872860
 30
0.0
 10
213.576081
 20
401.693759
 30
0.0
  0
SPLINE
  5
178
100
AcDbEntity
  8
Layer_1
 62
1
100
AcDbSpline
 70
8
 71
3
 72
8
 73
4
 74
0
 40
0
 40
0
 40
0
 40
0
 40
1
 40
1
 40
1
 40
1
 10
213.576081
 20
401.693759
 30
0.0
 10
213.576081
 20
401.514661
 30
0.0
 10
213.721538
 20
401.369184
 30
0.0
 10
213.900636
 20
401.369184
 30
0.0
  0
SPLINE
  5
179
100
AcDbEntity
  8
Layer_1
 62
1
100
AcDbSpline
 70
8
 71
3
 72
8
 73
4
 74
0
 40
0
 40
0
 40
0
 40
0
 40
1
 40
1
 40
1
 40
1
 10
213.900636
 20
401.369184
 30
0.0
 10
214.079734
 20
401.369184
 30
0.0
 10
214.225587
 20
401.514661
 30
0.0
 10
214.225587
 20
401.693759
 30
0.0
  0
SPLINE
  5
17a
100
AcDbEntity
  8
Layer_1
 62
1
100
AcDbSpline
 70
8
 71
3
 72
8
 73
4
 74
0
 40
0
 40
0
 40
0
 40
0
 40
1
 40
1
 40
1
 40
1
 10
214.225587
 20
401.693759
 30
0.0
 10
214.225587
 20
401.872860
 30
0.0
 10
214.080101
 20
402.018690
 30
0.0
 10
213.900636
 20
402.018690
 30
0.0
  0
LINE
  5
17b
100
AcDbEntity
  8
Layer_1
 62
1
100
AcDbLine
 10
213.900636
 20
402.018690
 30
0.0
 11
213.900636
 21
402.018690
 31
0.0
  0
LINE
  5
17c
100
AcDbEntity
  8
Layer_1
 62
7
100
AcDbLine
 10
211.955335
 20
394.746723
 30
0.0
 11
229.760932
 21
394.746723
 31
0.0
  0
LINE
  5
17d
100
AcDbEntity
  8
Layer_1
 62
7
100
AcDbLine
 10
229.760932
 20
394.746723
 30
0.0
 11
229.760932
 21
397.404201
 31
0.0
  0
LINE
  5
17e
100
AcDbEntity
  8
Layer_1
 62
7
100
AcDbLine
 10
229.760932
 20
397.404201
 30
0.0
 11
233.526285
 21
397.404201
 31
0.0
  0
LINE
  5
17f
100
AcDbEntity
  8
Layer_1
 62
7
100
AcDbLine
 10
233.526285
 20
397.404201
 30
0.0
 11
233.526285
 21
395.800795
 31
0.0
  0
LINE
  5
180
100
AcDbEntity
  8
Layer_1
 62
7
100
AcDbLine
 10
233.526285
 20
395.800795
 30
0.0
 11
235.179599
 21
395.800795
 31
0.0
  0
LINE
  5
181
100
AcDbEntity
  8
Layer_1
 62
7
100
AcDbLine
 10
235.179599
 20
395.800795
 30
0.0
 11
235.183832
 21
405.920454
 31
0.0
  0
SPLINE
  5
182
100
AcDbEntity
  8
Layer_1
 62
7
100
AcDbSpline
 70
8
 71
3
 72
8
 73
4
 74
0
 40
0
 40
0
 40
0
 40
0
 40
1
 40
1
 40
1
 40
1
 10
235.183832
 20
405.920454
 30
0.0
 10
235.183832
 20
408.552448
 30
0.0
 10
234.159140
 20
411.026580
 30
0.0
 10
232.298759
 20
412.888019
 30
0.0
  0
LINE
  5
183
100
AcDbEntity
  8
Layer_1
 62
7
100
AcDbLine
 10
232.298759
 20
412.888019
 30
0.0
 11
217.813224
 21
434.903040
 31
0.0
  0
SPLINE
  5
184
100
AcDbEntity
  8
Layer_1
 62
7
100
AcDbSpline
 70
8
 71
3
 72
8
 73
4
 74
0
 40
0
 40
0
 40
0
 40
0
 40
1
 40
1
 40
1
 40
1
 10
217.813224
 20
434.903040
 30
0.0
 10
215.986851
 20
436.659001
 30
0.0
 10
213.558724
 20
437.638388
 30
0.0
 10
210.995384
 20
437.638388
 30
0.0
  0
LINE
  5
185
100
AcDbEntity
  8
Layer_1
 62
7
100
AcDbLine
 10
210.995384
 20
437.638388
 30
0.0
 11
193.583346
 21
437.638671
 31
0.0
  0
LINE
  5
186
100
AcDbEntity
  8
Layer_1
 62
7
100
AcDbLine
 10
193.583346
 20
437.638671
 30
0.0
 11
193.583346
 21
422.690886
 31
0.0
  0
LINE
  5
187
100
AcDbEntity
  8
Layer_1
 62
7
100
AcDbLine
 10
193.583346
 20
422.690886
 30
0.0
 11
211.955674
 21
422.690886
 31
0.0
  0
LINE
  5
188
100
AcDbEntity
  8
Layer_1
 62
7
100
AcDbLine
 10
211.955674
 20
422.690886
 30
0.0
 11
211.955674
 21
394.746656
 31
0.0
  0
LINE
  5
189
100
AcDbEntity
  8
Layer_1
 62
7
100
AcDbLine
 10
211.955674
 20
394.746656
 30
0.0
 11
211.955391
 21
394.746723
 31
0.0
  0
LINE
  5
18a
100
AcDbEntity
  8
Layer_1
 62
7
100
AcDbLine
 10
128.181027
 20
337.296766
 30
0.0
 11
142.542300
 21
316.700849
 31
0.0
  0
SPLINE
  5
18b
100
AcDbEntity
  8
Layer_1
 62
7
100
AcDbSpline
 70
8
 71
3
 72
8
 73
4
 74
0
 40
0
 40
0
 40
0
 40
0
 40
1
 40
1
 40
1
 40
1
 10
142.542328
 20
316.700849
 30
0.0
 10
144.368701
 20
314.944891
 30
0.0
 10
146.796828
 20
312.711339
 30
0.0
 10
149.360168
 20
312.711339
 30
0.0
  0
LINE
  5
18c
100
AcDbEntity
  8
Layer_1
 62
7
100
AcDbLine
 10
149.360168
 20
312.711339
 30
0.0
 11
210.995046
 21
312.711339
 31
0.0
  0
SPLINE
  5
18d
100
AcDbEntity
  8
Layer_1
 62
7
100
AcDbSpline
 70
8
 71
3
 72
8
 73
4
 74
0
 40
0
 40
0
 40
0
 40
0
 40
1
 40
1
 40
1
 40
1
 10
210.995046
 20
312.711339
 30
0.0
 10
213.558385
 20
312.711339
 30
0.0
 10
215.986851
 20
314.944891
 30
0.0
 10
217.832359
 20
316.722795
 30
0.0
  0
LINE
  5
18e
100
AcDbEntity
  8
Layer_1
 62
7
100
AcDbLine
 10
217.832359
 20
316.722795
 30
0.0
 11
232.281431
 21
337.442243
 31
0.0
  0
SPLINE
  5
18f
100
AcDbEntity
  8
Layer_1
 62
7
100
AcDbSpline
 70
8
 71
3
 72
8
 73
4
 74
0
 40
0
 40
0
 40
0
 40
0
 40
1
 40
1
 40
1
 40
1
 10
232.281431
 20
337.442243
 30
0.0
 10
234.158801
 20
339.323500
 30
0.0
 10
235.183494
 20
341.797988
 30
0.0
 10
235.183494
 20
344.429273
 30
0.0
  0
LINE
  5
190
100
AcDbEntity
  8
Layer_1
 62
7
100
AcDbLine
 10
235.183494
 20
344.429273
 30
0.0
 11
235.179543
 21
349.393322
 31
0.0
  0
LINE
  5
191
100
AcDbEntity
  8
Layer_1
 62
7
100
AcDbLine
 10
235.179599
 20
349.393322
 30
0.0
 11
233.525918
 21
349.393322
 31
0.0
  0
LINE
  5
192
100
AcDbEntity
  8
Layer_1
 62
7
100
AcDbLine
 10
233.525918
 20
349.393322
 30
0.0
 11
233.525918
 21
347.685855
 31
0.0
  0
LINE
  5
193
100
AcDbEntity
  8
Layer_1
 62
7
100
AcDbLine
 10
233.525918
 20
347.685855
 30
0.0
 11
229.760932
 21
347.685855
 31
0.0
  0
LINE
  5
194
100
AcDbEntity
  8
Layer_1
 62
7
100
AcDbLine
 10
229.760932
 20
347.685855
 30
0.0
 11
229.760932
 21
350.446329
 31
0.0
  0
LINE
  5
195
100
AcDbEntity
  8
Layer_1
 62
7
100
AcDbLine
 10
229.760932
 20
350.446329
 30
0.0
 11
211.955335
 21
350.446329
 31
0.0
  0
LINE
  5
196
100
AcDbEntity
  8
Layer_1
 62
7
100
AcDbLine
 10
211.955335
 20
350.446329
 30
0.0
 11
211.955335
 21
319.997176
 31
0.0
  0
LINE
  5
197
100
AcDbEntity
  8
Layer_1
 62
7
100
AcDbLine
 10
211.955335
 20
319.997176
 30
0.0
 11
148.391383
 21
319.997176
 31
0.0
  0
LINE
  5
198
100
AcDbEntity
  8
Layer_1
 62
7
100
AcDbLine
 10
148.391383
 20
319.997176
 30
0.0
 11
148.391383
 21
350.446329
 31
0.0
  0
LINE
  5
199
100
AcDbEntity
  8
Layer_1
 62
7
100
AcDbLine
 10
148.391383
 20
350.446329
 30
0.0
 11
130.584011
 21
350.446329
 31
0.0
  0
LINE
  5
19a
100
AcDbEntity
  8
Layer_1
 62
7
100
AcDbLine
 10
130.584011
 20
350.446329
 30
0.0
 11
130.584011
 21
347.685855
 31
0.0
  0
LINE
  5
19b
100
AcDbEntity
  8
Layer_1
 62
7
100
AcDbLine
 10
130.584011
 20
347.685855
 30
0.0
 11
126.818658
 21
347.685855
 31
0.0
  0
LINE
  5
19c
100
AcDbEntity
  8
Layer_1
 62
7
100
AcDbLine
 10
126.818658
 20
347.685855
 30
0.0
 11
126.818658
 21
349.393322
 31
0.0
  0
LINE
  5
19d
100
AcDbEntity
  8
Layer_1
 62
7
100
AcDbLine
 10
126.818658
 20
349.393322
 30
0.0
 11
125.166763
 21
349.393322
 31
0.0
  0
LINE
  5
19e
100
AcDbEntity
  8
Layer_1
 62
7
100
AcDbLine
 10
125.166763
 20
349.393322
 30
0.0
 11
125.183048
 21
344.429273
 31
0.0
  0
SPLINE
  5
19f
100
AcDbEntity
  8
Layer_1
 62
7
100
AcDbSpline
 70
8
 71
3
 72
8
 73
4
 74
0
 40
0
 40
0
 40
0
 40
0
 40
1
 40
1
 40
1
 40
1
 10
125.183048
 20
344.429273
 30
0.0
 10
125.183048
 20
341.797632
 30
0.0
 10
126.207743
 20
339.323500
 30
0.0
 10
128.068121
 20
337.461708
 30
0.0
  0
LINE
  5
1a0
100
AcDbEntity
  8
Layer_1
 62
7
100
AcDbLine
 10
128.068121
 20
337.461708
 30
0.0
 11
128.210053
 21
337.319420
 31
0.0
  0
LINE
  5
1a1
100
AcDbEntity
  8
Layer_1
 62
7
100
AcDbLine
 10
128.210053
 20
337.319420
 30
0.0
 11
128.181027
 21
337.296758
 31
0.0
  0
LINE
  5
1a2
100
AcDbEntity
  8
Layer_1
 62
7
100
AcDbLine
 10
130.585427
 20
354.613064
 30
0.0
 11
148.391750
 21
354.613064
 31
0.0
  0
LINE
  5
1a3
100
AcDbEntity
  8
Layer_1
 62
7
100
AcDbLine
 10
148.391750
 20
354.613064
 30
0.0
 11
148.391750
 21
390.579992
 31
0.0
  0
LINE
  5
1a4
100
AcDbEntity
  8
Layer_1
 62
7
100
AcDbLine
 10
148.391750
 20
390.579992
 30
0.0
 11
130.585427
 21
390.579992
 31
0.0
  0
LINE
  5
1a5
100
AcDbEntity
  8
Layer_1
 62
7
100
AcDbLine
 10
130.585427
 20
390.579992
 30
0.0
 11
130.584016
 21
387.819511
 31
0.0
  0
LINE
  5
1a6
100
AcDbEntity
  8
Layer_1
 62
7
100
AcDbLine
 10
130.584016
 20
387.819511
 30
0.0
 11
126.818661
 21
387.819511
 31
0.0
  0
LINE
  5
1a7
100
AcDbEntity
  8
Layer_1
 62
7
100
AcDbLine
 10
126.818661
 20
387.819511
 30
0.0
 11
126.818661
 21
389.526978
 31
0.0
  0
LINE
  5
1a8
100
AcDbEntity
  8
Layer_1
 62
7
100
AcDbLine
 10
126.818661
 20
389.526978
 30
0.0
 11
125.166896
 21
389.526978
 31
0.0
  0
LINE
  5
1a9
100
AcDbEntity
  8
Layer_1
 62
7
100
AcDbLine
 10
125.166896
 20
389.526978
 30
0.0
 11
125.166896
 21
355.667139
 31
0.0
  0
LINE
  5
1aa
100
AcDbEntity
  8
Layer_1
 62
7
100
AcDbLine
 10
125.166896
 20
355.667139
 30
0.0
 11
126.818791
 21
355.667139
 31
0.0
  0
LINE
  5
1ab
100
AcDbEntity
  8
Layer_1
 62
7
100
AcDbLine
 10
126.818791
 20
355.667139
 30
0.0
 11
126.818791
 21
357.270545
 31
0.0
  0
LINE
  5
1ac
100
AcDbEntity
  8
Layer_1
 62
7
100
AcDbLine
 10
126.818791
 20
357.270545
 30
0.0
 11
130.584146
 21
357.270545
 31
0.0
  0
LINE
  5
1ad
100
AcDbEntity
  8
Layer_1
 62
7
100
AcDbLine
 10
130.584146
 20
357.270545
 30
0.0
 11
130.585557
 21
354.613064
 31
0.0
  0
LINE
  5
1ae
100
AcDbEntity
  8
Layer_1
 62
7
100
AcDbLine
 10
130.585557
 20
354.613064
 30
0.0
 11
130.585427
 21
354.613064
 31
0.0
  0
LINE
  5
1af
100
AcDbEntity
  8
Layer_1
 62
7
100
AcDbLine
 10
211.955335
 20
354.613064
 30
0.0
 11
229.760932
 21
354.613064
 31
0.0
  0
LINE
  5
1b0
100
AcDbEntity
  8
Layer_1
 62
7
100
AcDbLine
 10
229.760932
 20
354.613064
 30
0.0
 11
229.760932
 21
357.270545
 31
0.0
  0
LINE
  5
1b1
100
AcDbEntity
  8
Layer_1
 62
7
100
AcDbLine
 10
229.760932
 20
357.270545
 30
0.0
 11
233.526285
 21
357.270545
 31
0.0
  0
LINE
  5
1b2
100
AcDbEntity
  8
Layer_1
 62
7
100
AcDbLine
 10
233.526285
 20
357.270545
 30
0.0
 11
233.526285
 21
355.667139
 31
0.0
  0
LINE
  5
1b3
100
AcDbEntity
  8
Layer_1
 62
7
100
AcDbLine
 10
233.526285
 20
355.667139
 30
0.0
 11
235.179599
 21
355.667139
 31
0.0
  0
LINE
  5
1b4
100
AcDbEntity
  8
Layer_1
 62
7
100
AcDbLine
 10
235.179599
 20
355.667139
 30
0.0
 11
235.179599
 21
389.526978
 31
0.0
  0
LINE
  5
1b5
100
AcDbEntity
  8
Layer_1
 62
7
100
AcDbLine
 10
235.179599
 20
389.526978
 30
0.0
 11
233.526285
 21
389.526978
 31
0.0
  0
LINE
  5
1b6
100
AcDbEntity
  8
Layer_1
 62
7
100
AcDbLine
 10
233.526285
 20
389.526978
 30
0.0
 11
233.526285
 21
387.819511
 31
0.0
  0
LINE
  5
1b7
100
AcDbEntity
  8
Layer_1
 62
7
100
AcDbLine
 10
233.526285
 20
387.819511
 30
0.0
 11
229.760932
 21
387.819511
 31
0.0
  0
LINE
  5
1b8
100
AcDbEntity
  8
Layer_1
 62
7
100
AcDbLine
 10
229.760932
 20
387.819511
 30
0.0
 11
229.760932
 21
390.579992
 31
0.0
  0
LINE
  5
1b9
100
AcDbEntity
  8
Layer_1
 62
7
100
AcDbLine
 10
229.760932
 20
390.579992
 30
0.0
 11
211.955335
 21
390.579992
 31
0.0
  0
LINE
  5
1ba
100
AcDbEntity
  8
Layer_1
 62
7
100
AcDbLine
 10
211.955335
 20
390.579992
 30
0.0
 11
211.955335
 21
354.613064
 31
0.0
  0
LINE
  5
1bb
100
AcDbEntity
  8
Layer_1
 62
7
100
AcDbLine
 10
211.955335
 20
354.613064
 30
0.0
 11
211.955335
 21
354.613064
 31
0.0
  0
SPLINE
  5
1bc
100
AcDbEntity
  8
Layer_1
 62
1
100
AcDbSpline
 70
8
 71
3
 72
8
 73
4
 74
0
 40
0
 40
0
 40
0
 40
0
 40
1
 40
1
 40
1
 40
1
 10
145.057154
 20
397.002114
 30
0.0
 10
144.683012
 20
397.002114
 30
0.0
 10
144.378607
 20
397.306513
 30
0.0
 10
144.378607
 20
397.680641
 30
0.0
  0
SPLINE
  5
1bd
100
AcDbEntity
  8
Layer_1
 62
1
100
AcDbSpline
 70
8
 71
3
 72
8
 73
4
 74
0
 40
0
 40
0
 40
0
 40
0
 40
1
 40
1
 40
1
 40
1
 10
144.378607
 20
397.680641
 30
0.0
 10
144.378607
 20
398.055124
 30
0.0
 10
144.683012
 20
398.359523
 30
0.0
 10
145.057154
 20
398.359523
 30
0.0
  0
SPLINE
  5
1be
100
AcDbEntity
  8
Layer_1
 62
1
100
AcDbSpline
 70
8
 71
3
 72
8
 73
4
 74
0
 40
0
 40
0
 40
0
 40
0
 40
1
 40
1
 40
1
 40
1
 10
145.057154
 20
398.359523
 30
0.0
 10
145.431634
 20
398.359523
 30
0.0
 10
145.736039
 20
398.055124
 30
0.0
 10
145.736039
 20
397.680641
 30
0.0
  0
SPLINE
  5
1bf
100
AcDbEntity
  8
Layer_1
 62
1
100
AcDbSpline
 70
8
 71
3
 72
8
 73
4
 74
0
 40
0
 40
0
 40
0
 40
0
 40
1
 40
1
 40
1
 40
1
 10
145.736039
 20
397.680641
 30
0.0
 10
145.736039
 20
397.306513
 30
0.0
 10
145.431634
 20
397.002114
 30
0.0
 10
145.057154
 20
397.002114
 30
0.0
  0
LINE
  5
1c0
100
AcDbEntity
  8
Layer_1
 62
1
100
AcDbLine
 10
145.057154
 20
397.002114
 30
0.0
 11
145.057154
 21
397.002114
 31
0.0
  0
SPLINE
  5
1c1
100
AcDbEntity
  8
Layer_1
 62
1
100
AcDbSpline
 70
8
 71
3
 72
8
 73
4
 74
0
 40
0
 40
0
 40
0
 40
0
 40
1
 40
1
 40
1
 40
1
 10
145.057154
 20
398.005569
 30
0.0
 10
144.878055
 20
398.005569
 30
0.0
 10
144.732570
 20
397.859742
 30
0.0
 10
144.732570
 20
397.680641
 30
0.0
  0
SPLINE
  5
1c2
100
AcDbEntity
  8
Layer_1
 62
1
100
AcDbSpline
 70
8
 71
3
 72
8
 73
4
 74
0
 40
0
 40
0
 40
0
 40
0
 40
1
 40
1
 40
1
 40
1
 10
144.732570
 20
397.680641
 30
0.0
 10
144.732570
 20
397.501540
 30
0.0
 10
144.878055
 20
397.356065
 30
0.0
 10
145.057154
 20
397.356065
 30
0.0
  0
SPLINE
  5
1c3
100
AcDbEntity
  8
Layer_1
 62
1
100
AcDbSpline
 70
8
 71
3
 72
8
 73
4
 74
0
 40
0
 40
0
 40
0
 40
0
 40
1
 40
1
 40
1
 40
1
 10
145.057154
 20
397.356065
 30
0.0
 10
145.236252
 20
397.356065
 30
0.0
 10
145.382076
 20
397.501540
 30
0.0
 10
145.382076
 20
397.680641
 30
0.0
  0
SPLINE
  5
1c4
100
AcDbEntity
  8
Layer_1
 62
1
100
AcDbSpline
 70
8
 71
3
 72
8
 73
4
 74
0
 40
0
 40
0
 40
0
 40
0
 40
1
 40
1
 40
1
 40
1
 10
145.382076
 20
397.680641
 30
0.0
 10
145.382076
 20
397.859742
 30
0.0
 10
145.236590
 20
398.005569
 30
0.0
 10
145.057154
 20
398.005569
 30
0.0
  0
LINE
  5
1c5
100
AcDbEntity
  8
Layer_1
 62
1
100
AcDbLine
 10
145.057154
 20
398.005569
 30
0.0
 11
145.057154
 21
398.005569
 31
0.0
  0
SPLINE
  5
1c6
100
AcDbEntity
  8
Layer_1
 62
1
100
AcDbSpline
 70
8
 71
3
 72
8
 73
4
 74
0
 40
0
 40
0
 40
0
 40
0
 40
1
 40
1
 40
1
 40
1
 10
145.057154
 20
399.008671
 30
0.0
 10
144.683012
 20
399.008671
 30
0.0
 10
144.378607
 20
399.313073
 30
0.0
 10
144.378607
 20
399.687201
 30
0.0
  0
SPLINE
  5
1c7
100
AcDbEntity
  8
Layer_1
 62
1
100
AcDbSpline
 70
8
 71
3
 72
8
 73
4
 74
0
 40
0
 40
0
 40
0
 40
0
 40
1
 40
1
 40
1
 40
1
 10
144.378607
 20
399.687201
 30
0.0
 10
144.378607
 20
400.061682
 30
0.0
 10
144.683012
 20
400.366081
 30
0.0
 10
145.057154
 20
400.366081
 30
0.0
  0
SPLINE
  5
1c8
100
AcDbEntity
  8
Layer_1
 62
1
100
AcDbSpline
 70
8
 71
3
 72
8
 73
4
 74
0
 40
0
 40
0
 40
0
 40
0
 40
1
 40
1
 40
1
 40
1
 10
145.057154
 20
400.366081
 30
0.0
 10
145.431634
 20
400.366081
 30
0.0
 10
145.736039
 20
400.061682
 30
0.0
 10
145.736039
 20
399.687201
 30
0.0
  0
SPLINE
  5
1c9
100
AcDbEntity
  8
Layer_1
 62
1
100
AcDbSpline
 70
8
 71
3
 72
8
 73
4
 74
0
 40
0
 40
0
 40
0
 40
0
 40
1
 40
1
 40
1
 40
1
 10
145.736039
 20
399.687201
 30
0.0
 10
145.736039
 20
399.313073
 30
0.0
 10
145.431634
 20
399.008671
 30
0.0
 10
145.057154
 20
399.008671
 30
0.0
  0
LINE
  5
1ca
100
AcDbEntity
  8
Layer_1
 62
1
100
AcDbLine
 10
145.057154
 20
399.008671
 30
0.0
 11
145.057154
 21
399.008671
 31
0.0
  0
SPLINE
  5
1cb
100
AcDbEntity
  8
Layer_1
 62
1
100
AcDbSpline
 70
8
 71
3
 72
8
 73
4
 74
0
 40
0
 40
0
 40
0
 40
0
 40
1
 40
1
 40
1
 40
1
 10
145.057154
 20
400.012129
 30
0.0
 10
144.878055
 20
400.012129
 30
0.0
 10
144.732570
 20
399.866299
 30
0.0
 10
144.732570
 20
399.687201
 30
0.0
  0
SPLINE
  5
1cc
100
AcDbEntity
  8
Layer_1
 62
1
100
AcDbSpline
 70
8
 71
3
 72
8
 73
4
 74
0
 40
0
 40
0
 40
0
 40
0
 40
1
 40
1
 40
1
 40
1
 10
144.732570
 20
399.687201
 30
0.0
 10
144.732570
 20
399.508100
 30
0.0
 10
144.878055
 20
399.362626
 30
0.0
 10
145.057154
 20
399.362626
 30
0.0
  0
SPLINE
  5
1cd
100
AcDbEntity
  8
Layer_1
 62
1
100
AcDbSpline
 70
8
 71
3
 72
8
 73
4
 74
0
 40
0
 40
0
 40
0
 40
0
 40
1
 40
1
 40
1
 40
1
 10
145.057154
 20
399.362626
 30
0.0
 10
145.236252
 20
399.362626
 30
0.0
 10
145.382076
 20
399.508100
 30
0.0
 10
145.382076
 20
399.687201
 30
0.0
  0
SPLINE
  5
1ce
100
AcDbEntity
  8
Layer_1
 62
1
100
AcDbSpline
 70
8
 71
3
 72
8
 73
4
 74
0
 40
0
 40
0
 40
0
 40
0
 40
1
 40
1
 40
1
 40
1
 10
145.382076
 20
399.687201
 30
0.0
 10
145.382076
 20
399.866299
 30
0.0
 10
145.236590
 20
400.012129
 30
0.0
 10
145.057154
 20
400.012129
 30
0.0
  0
LINE
  5
1cf
100
AcDbEntity
  8
Layer_1
 62
1
100
AcDbLine
 10
145.057154
 20
400.012129
 30
0.0
 11
145.057154
 21
400.012129
 31
0.0
  0
SPLINE
  5
1d0
100
AcDbEntity
  8
Layer_1
 62
1
100
AcDbSpline
 70
8
 71
3
 72
8
 73
4
 74
0
 40
0
 40
0
 40
0
 40
0
 40
1
 40
1
 40
1
 40
1
 10
145.057154
 20
401.015232
 30
0.0
 10
144.683012
 20
401.015232
 30
0.0
 10
144.378607
 20
401.319631
 30
0.0
 10
144.378607
 20
401.693759
 30
0.0
  0
SPLINE
  5
1d1
100
AcDbEntity
  8
Layer_1
 62
1
100
AcDbSpline
 70
8
 71
3
 72
8
 73
4
 74
0
 40
0
 40
0
 40
0
 40
0
 40
1
 40
1
 40
1
 40
1
 10
144.378607
 20
401.693759
 30
0.0
 10
144.378607
 20
402.068242
 30
0.0
 10
144.683012
 20
402.372642
 30
0.0
 10
145.057154
 20
402.372642
 30
0.0
  0
SPLINE
  5
1d2
100
AcDbEntity
  8
Layer_1
 62
1
100
AcDbSpline
 70
8
 71
3
 72
8
 73
4
 74
0
 40
0
 40
0
 40
0
 40
0
 40
1
 40
1
 40
1
 40
1
 10
145.057154
 20
402.372642
 30
0.0
 10
145.431634
 20
402.372642
 30
0.0
 10
145.736039
 20
402.068242
 30
0.0
 10
145.736039
 20
401.693759
 30
0.0
  0
SPLINE
  5
1d3
100
AcDbEntity
  8
Layer_1
 62
1
100
AcDbSpline
 70
8
 71
3
 72
8
 73
4
 74
0
 40
0
 40
0
 40
0
 40
0
 40
1
 40
1
 40
1
 40
1
 10
145.736039
 20
401.693759
 30
0.0
 10
145.736039
 20
401.319631
 30
0.0
 10
145.431634
 20
401.015232
 30
0.0
 10
145.057154
 20
401.015232
 30
0.0
  0
LINE
  5
1d4
100
AcDbEntity
  8
Layer_1
 62
1
100
AcDbLine
 10
145.057154
 20
401.015232
 30
0.0
 11
145.057154
 21
401.015232
 31
0.0
  0
SPLINE
  5
1d5
100
AcDbEntity
  8
Layer_1
 62
1
100
AcDbSpline
 70
8
 71
3
 72
8
 73
4
 74
0
 40
0
 40
0
 40
0
 40
0
 40
1
 40
1
 40
1
 40
1
 10
145.057154
 20
402.018690
 30
0.0
 10
144.878055
 20
402.018690
 30
0.0
 10
144.732570
 20
401.872860
 30
0.0
 10
144.732570
 20
401.693759
 30
0.0
  0
SPLINE
  5
1d6
100
AcDbEntity
  8
Layer_1
 62
1
100
AcDbSpline
 70
8
 71
3
 72
8
 73
4
 74
0
 40
0
 40
0
 40
0
 40
0
 40
1
 40
1
 40
1
 40
1
 10
144.732570
 20
401.693759
 30
0.0
 10
144.732570
 20
401.514661
 30
0.0
 10
144.878055
 20
401.369184
 30
0.0
 10
145.057154
 20
401.369184
 30
0.0
  0
SPLINE
  5
1d7
100
AcDbEntity
  8
Layer_1
 62
1
100
AcDbSpline
 70
8
 71
3
 72
8
 73
4
 74
0
 40
0
 40
0
 40
0
 40
0
 40
1
 40
1
 40
1
 40
1
 10
145.057154
 20
401.369184
 30
0.0
 10
145.236252
 20
401.369184
 30
0.0
 10
145.382076
 20
401.514661
 30
0.0
 10
145.382076
 20
401.693759
 30
0.0
  0
SPLINE
  5
1d8
100
AcDbEntity
  8
Layer_1
 62
1
100
AcDbSpline
 70
8
 71
3
 72
8
 73
4
 74
0
 40
0
 40
0
 40
0
 40
0
 40
1
 40
1
 40
1
 40
1
 10
145.382076
 20
401.693759
 30
0.0
 10
145.382076
 20
401.872860
 30
0.0
 10
145.236590
 20
402.018690
 30
0.0
 10
145.057154
 20
402.018690
 30
0.0
  0
LINE
  5
1d9
100
AcDbEntity
  8
Layer_1
 62
1
100
AcDbLine
 10
145.057154
 20
402.018690
 30
0.0
 11
145.057154
 21
402.018690
 31
0.0
  0
LINE
  5
1da
100
AcDbEntity
  8
Layer_1
 62
7
100
AcDbLine
 10
130.585427
 20
394.746723
 30
0.0
 11
148.391750
 21
394.746723
 31
0.0
  0
LINE
  5
1db
100
AcDbEntity
  8
Layer_1
 62
7
100
AcDbLine
 10
148.391750
 20
394.746723
 30
0.0
 11
148.391750
 21
422.690957
 31
0.0
  0
LINE
  5
1dc
100
AcDbEntity
  8
Layer_1
 62
7
100
AcDbLine
 10
148.391750
 20
422.690957
 30
0.0
 11
156.139710
 21
422.690957
 31
0.0
  0
LINE
  5
1dd
100
AcDbEntity
  8
Layer_1
 62
7
100
AcDbLine
 10
156.139710
 20
422.690957
 30
0.0
 11
156.139710
 21
437.638388
 31
0.0
  0
LINE
  5
1de
100
AcDbEntity
  8
Layer_1
 62
7
100
AcDbLine
 10
156.139710
 20
437.638388
 30
0.0
 11
155.975118
 21
437.638671
 31
0.0
  0
LINE
  5
1df
100
AcDbEntity
  8
Layer_1
 62
7
100
AcDbLine
 10
155.975118
 20
437.638671
 30
0.0
 11
149.536782
 21
437.638953
 31
0.0
  0
LINE
  5
1e0
100
AcDbEntity
  8
Layer_1
 62
7
100
AcDbLine
 10
149.536782
 20
437.638953
 30
0.0
 11
149.360506
 21
437.637824
 31
0.0
  0
SPLINE
  5
1e1
100
AcDbEntity
  8
Layer_1
 62
7
100
AcDbSpline
 70
8
 71
3
 72
8
 73
4
 74
0
 40
0
 40
0
 40
0
 40
0
 40
1
 40
1
 40
1
 40
1
 10
149.360506
 20
437.637824
 30
0.0
 10
146.797195
 20
437.637824
 30
0.0
 10
144.368701
 20
436.658437
 30
0.0
 10
142.523193
 20
434.880532
 30
0.0
  0
LINE
  5
1e2
100
AcDbEntity
  8
Layer_1
 62
7
100
AcDbLine
 10
142.523193
 20
434.880532
 30
0.0
 11
128.181027
 21
413.052396
 31
0.0
  0
LINE
  5
1e3
100
AcDbEntity
  8
Layer_1
 62
7
100
AcDbLine
 10
128.181027
 20
413.052396
 30
0.0
 11
128.202984
 21
413.035745
 31
0.0
  0
LINE
  5
1e4
100
AcDbEntity
  8
Layer_1
 62
7
100
AcDbLine
 10
128.202984
 20
413.035745
 30
0.0
 11
128.068482
 21
412.887793
 31
0.0
  0
SPLINE
  5
1e5
100
AcDbEntity
  8
Layer_1
 62
7
100
AcDbSpline
 70
8
 71
3
 72
8
 73
4
 74
0
 40
0
 40
0
 40
0
 40
0
 40
1
 40
1
 40
1
 40
1
 10
128.068482
 20
412.887793
 30
0.0
 10
126.208104
 20
411.026354
 30
0.0
 10
125.183409
 20
408.551869
 30
0.0
 10
125.183409
 20
405.920229
 30
0.0
  0
LINE
  5
1e6
100
AcDbEntity
  8
Layer_1
 62
7
100
AcDbLine
 10
125.183409
 20
405.920229
 30
0.0
 11
125.167125
 21
395.800569
 31
0.0
  0
LINE
  5
1e7
100
AcDbEntity
  8
Layer_1
 62
7
100
AcDbLine
 10
125.167125
 20
395.800569
 30
0.0
 11
126.819022
 21
395.800569
 31
0.0
  0
LINE
  5
1e8
100
AcDbEntity
  8
Layer_1
 62
7
100
AcDbLine
 10
126.819022
 20
395.800569
 30
0.0
 11
126.819022
 21
397.403978
 31
0.0
  0
LINE
  5
1e9
100
AcDbEntity
  8
Layer_1
 62
7
100
AcDbLine
 10
126.819022
 20
397.403978
 30
0.0
 11
130.584372
 21
397.403978
 31
0.0
  0
LINE
  5
1ea
100
AcDbEntity
  8
Layer_1
 62
7
100
AcDbLine
 10
130.584372
 20
397.403978
 30
0.0
 11
130.585501
 21
394.746723
 31
0.0
  0
SPLINE
  5
1eb
100
AcDbEntity
  8
Layer_1
 62
7
100
AcDbSpline
 70
8
 71
3
 72
8
 73
4
 74
0
 40
0
 40
0
 40
0
 40
0
 40
1
 40
1
 40
1
 40
1
 10
141.538802
 20
417.748362
 30
0.0
 10
141.538802
 20
417.204308
 30
0.0
 10
141.252883
 20
416.701583
 30
0.0
 10
140.788796
 20
416.429558
 30
0.0
  0
SPLINE
  5
1ec
100
AcDbEntity
  8
Layer_1
 62
7
100
AcDbSpline
 70
8
 71
3
 72
8
 73
4
 74
0
 40
0
 40
0
 40
0
 40
0
 40
1
 40
1
 40
1
 40
1
 10
140.788796
 20
416.429558
 30
0.0
 10
140.324710
 20
416.157532
 30
0.0
 10
139.752900
 20
416.157532
 30
0.0
 10
139.288814
 20
416.429558
 30
0.0
  0
SPLINE
  5
1ed
100
AcDbEntity
  8
Layer_1
 62
7
100
AcDbSpline
 70
8
 71
3
 72
8
 73
4
 74
0
 40
0
 40
0
 40
0
 40
0
 40
1
 40
1
 40
1
 40
1
 10
139.288814
 20
416.429558
 30
0.0
 10
138.824699
 20
416.701583
 30
0.0
 10
138.538808
 20
417.204308
 30
0.0
 10
138.538808
 20
417.748362
 30
0.0
  0
SPLINE
  5
1ee
100
AcDbEntity
  8
Layer_1
 62
7
100
AcDbSpline
 70
8
 71
3
 72
8
 73
4
 74
0
 40
0
 40
0
 40
0
 40
0
 40
1
 40
1
 40
1
 40
1
 10
138.538808
 20
417.748362
 30
0.0
 10
138.538808
 20
418.292413
 30
0.0
 10
138.824699
 20
418.795139
 30
0.0
 10
139.288814
 20
419.067164
 30
0.0
  0
SPLINE
  5
1ef
100
AcDbEntity
  8
Layer_1
 62
7
100
AcDbSpline
 70
8
 71
3
 72
8
 73
4
 74
0
 40
0
 40
0
 40
0
 40
0
 40
1
 40
1
 40
1
 40
1
 10
139.288814
 20
419.067164
 30
0.0
 10
139.752900
 20
419.339193
 30
0.0
 10
140.324710
 20
419.339193
 30
0.0
 10
140.788796
 20
419.067164
 30
0.0
  0
SPLINE
  5
1f0
100
AcDbEntity
  8
Layer_1
 62
7
100
AcDbSpline
 70
8
 71
3
 72
8
 73
4
 74
0
 40
0
 40
0
 40
0
 40
0
 40
1
 40
1
 40
1
 40
1
 10
140.788796
 20
419.067164
 30
0.0
 10
141.252883
 20
418.795139
 30
0.0
 10
141.538802
 20
418.292413
 30
0.0
 10
141.538802
 20
417.748362
 30
0.0
  0
LINE
  5
1f1
100
AcDbEntity
  8
Layer_1
 62
7
100
AcDbLine
 10
141.538802
 20
417.748362
 30
0.0
 11
141.538802
 21
417.748362
 31
0.0
  0
SPLINE
  5
1f2
100
AcDbEntity
  8
Layer_1
 62
7
100
AcDbSpline
 70
8
 71
3
 72
8
 73
4
 74
0
 40
0
 40
0
 40
0
 40
0
 40
1
 40
1
 40
1
 40
1
 10
136.521850
 20
372.598477
 30
0.0
 10
136.521850
 20
372.054426
 30
0.0
 10
136.235959
 20
371.551700
 30
0.0
 10
135.771873
 20
371.279675
 30
0.0
  0
SPLINE
  5
1f3
100
AcDbEntity
  8
Layer_1
 62
7
100
AcDbSpline
 70
8
 71
3
 72
8
 73
4
 74
0
 40
0
 40
0
 40
0
 40
0
 40
1
 40
1
 40
1
 40
1
 10
135.771873
 20
371.279675
 30
0.0
 10
135.307759
 20
371.007646
 30
0.0
 10
134.735976
 20
371.007646
 30
0.0
 10
134.271890
 20
371.279675
 30
0.0
  0
SPLINE
  5
1f4
100
AcDbEntity
  8
Layer_1
 62
7
100
AcDbSpline
 70
8
 71
3
 72
8
 73
4
 74
0
 40
0
 40
0
 40
0
 40
0
 40
1
 40
1
 40
1
 40
1
 10
134.271890
 20
371.279675
 30
0.0
 10
133.807776
 20
371.551700
 30
0.0
 10
133.521885
 20
372.054426
 30
0.0
 10
133.521885
 20
372.598477
 30
0.0
  0
SPLINE
  5
1f5
100
AcDbEntity
  8
Layer_1
 62
7
100
AcDbSpline
 70
8
 71
3
 72
8
 73
4
 74
0
 40
0
 40
0
 40
0
 40
0
 40
1
 40
1
 40
1
 40
1
 10
133.521885
 20
372.598477
 30
0.0
 10
133.521885
 20
373.142530
 30
0.0
 10
133.807776
 20
373.645256
 30
0.0
 10
134.271890
 20
373.917281
 30
0.0
  0
SPLINE
  5
1f6
100
AcDbEntity
  8
Layer_1
 62
7
100
AcDbSpline
 70
8
 71
3
 72
8
 73
4
 74
0
 40
0
 40
0
 40
0
 40
0
 40
1
 40
1
 40
1
 40
1
 10
134.271890
 20
373.917281
 30
0.0
 10
134.735976
 20
374.189307
 30
0.0
 10
135.307759
 20
374.189307
 30
0.0
 10
135.771873
 20
373.917281
 30
0.0
  0
SPLINE
  5
1f7
100
AcDbEntity
  8
Layer_1
 62
7
100
AcDbSpline
 70
8
 71
3
 72
8
 73
4
 74
0
 40
0
 40
0
 40
0
 40
0
 40
1
 40
1
 40
1
 40
1
 10
135.771873
 20
373.917281
 30
0.0
 10
136.235959
 20
373.645256
 30
0.0
 10
136.521850
 20
373.142530
 30
0.0
 10
136.521850
 20
372.598477
 30
0.0
  0
LINE
  5
1f8
100
AcDbEntity
  8
Layer_1
 62
7
100
AcDbLine
 10
136.521850
 20
372.598477
 30
0.0
 11
136.521850
 21
372.598477
 31
0.0
  0
SPLINE
  5
1f9
100
AcDbEntity
  8
Layer_1
 62
7
100
AcDbSpline
 70
8
 71
3
 72
8
 73
4
 74
0
 40
0
 40
0
 40
0
 40
0
 40
1
 40
1
 40
1
 40
1
 10
141.538802
 20
337.481393
 30
0.0
 10
141.538802
 20
336.937342
 30
0.0
 10
141.252883
 20
336.434617
 30
0.0
 10
140.788796
 20
336.162591
 30
0.0
  0
SPLINE
  5
1fa
100
AcDbEntity
  8
Layer_1
 62
7
100
AcDbSpline
 70
8
 71
3
 72
8
 73
4
 74
0
 40
0
 40
0
 40
0
 40
0
 40
1
 40
1
 40
1
 40
1
 10
140.788796
 20
336.162591
 30
0.0
 10
140.324710
 20
335.890563
 30
0.0
 10
139.752900
 20
335.890563
 30
0.0
 10
139.288814
 20
336.162591
 30
0.0
  0
SPLINE
  5
1fb
100
AcDbEntity
  8
Layer_1
 62
7
100
AcDbSpline
 70
8
 71
3
 72
8
 73
4
 74
0
 40
0
 40
0
 40
0
 40
0
 40
1
 40
1
 40
1
 40
1
 10
139.288814
 20
336.162591
 30
0.0
 10
138.824699
 20
336.434617
 30
0.0
 10
138.538808
 20
336.937342
 30
0.0
 10
138.538808
 20
337.481393
 30
0.0
  0
SPLINE
  5
1fc
100
AcDbEntity
  8
Layer_1
 62
7
100
AcDbSpline
 70
8
 71
3
 72
8
 73
4
 74
0
 40
0
 40
0
 40
0
 40
0
 40
1
 40
1
 40
1
 40
1
 10
138.538808
 20
337.481393
 30
0.0
 10
138.538808
 20
338.025447
 30
0.0
 10
138.824699
 20
338.528172
 30
0.0
 10
139.288814
 20
338.800198
 30
0.0
  0
SPLINE
  5
1fd
100
AcDbEntity
  8
Layer_1
 62
7
100
AcDbSpline
 70
8
 71
3
 72
8
 73
4
 74
0
 40
0
 40
0
 40
0
 40
0
 40
1
 40
1
 40
1
 40
1
 10
139.288814
 20
338.800198
 30
0.0
 10
139.752900
 20
339.072224
 30
0.0
 10
140.324710
 20
339.072224
 30
0.0
 10
140.788796
 20
338.800198
 30
0.0
  0
SPLINE
  5
1fe
100
AcDbEntity
  8
Layer_1
 62
7
100
AcDbSpline
 70
8
 71
3
 72
8
 73
4
 74
0
 40
0
 40
0
 40
0
 40
0
 40
1
 40
1
 40
1
 40
1
 10
140.788796
 20
338.800198
 30
0.0
 10
141.252883
 20
338.528172
 30
0.0
 10
141.538802
 20
338.025447
 30
0.0
 10
141.538802
 20
337.481393
 30
0.0
  0
LINE
  5
1ff
100
AcDbEntity
  8
Layer_1
 62
7
100
AcDbLine
 10
141.538802
 20
337.481393
 30
0.0
 11
141.538802
 21
337.481393
 31
0.0
  0
SPLINE
  5
200
100
AcDbEntity
  8
Layer_1
 62
7
100
AcDbSpline
 70
8
 71
3
 72
8
 73
4
 74
0
 40
0
 40
0
 40
0
 40
0
 40
1
 40
1
 40
1
 40
1
 10
221.805765
 20
417.748362
 30
0.0
 10
221.805765
 20
417.204308
 30
0.0
 10
221.519874
 20
416.701583
 30
0.0
 10
221.055788
 20
416.429558
 30
0.0
  0
SPLINE
  5
201
100
AcDbEntity
  8
Layer_1
 62
7
100
AcDbSpline
 70
8
 71
3
 72
8
 73
4
 74
0
 40
0
 40
0
 40
0
 40
0
 40
1
 40
1
 40
1
 40
1
 10
221.055788
 20
416.429558
 30
0.0
 10
220.591674
 20
416.157532
 30
0.0
 10
220.019891
 20
416.157532
 30
0.0
 10
219.555777
 20
416.429558
 30
0.0
  0
SPLINE
  5
202
100
AcDbEntity
  8
Layer_1
 62
7
100
AcDbSpline
 70
8
 71
3
 72
8
 73
4
 74
0
 40
0
 40
0
 40
0
 40
0
 40
1
 40
1
 40
1
 40
1
 10
219.555777
 20
416.429558
 30
0.0
 10
219.091691
 20
416.701583
 30
0.0
 10
218.805800
 20
417.204308
 30
0.0
 10
218.805800
 20
417.748362
 30
0.0
  0
SPLINE
  5
203
100
AcDbEntity
  8
Layer_1
 62
7
100
AcDbSpline
 70
8
 71
3
 72
8
 73
4
 74
0
 40
0
 40
0
 40
0
 40
0
 40
1
 40
1
 40
1
 40
1
 10
218.805800
 20
417.748362
 30
0.0
 10
218.805800
 20
418.292413
 30
0.0
 10
219.091691
 20
418.795139
 30
0.0
 10
219.555777
 20
419.067164
 30
0.0
  0
SPLINE
  5
204
100
AcDbEntity
  8
Layer_1
 62
7
100
AcDbSpline
 70
8
 71
3
 72
8
 73
4
 74
0
 40
0
 40
0
 40
0
 40
0
 40
1
 40
1
 40
1
 40
1
 10
219.555777
 20
419.067164
 30
0.0
 10
220.019891
 20
419.339193
 30
0.0
 10
220.591674
 20
419.339193
 30
0.0
 10
221.055788
 20
419.067164
 30
0.0
  0
SPLINE
  5
205
100
AcDbEntity
  8
Layer_1
 62
7
100
AcDbSpline
 70
8
 71
3
 72
8
 73
4
 74
0
 40
0
 40
0
 40
0
 40
0
 40
1
 40
1
 40
1
 40
1
 10
221.055788
 20
419.067164
 30
0.0
 10
221.519874
 20
418.795139
 30
0.0
 10
221.805765
 20
418.292413
 30
0.0
 10
221.805765
 20
417.748362
 30
0.0
  0
LINE
  5
206
100
AcDbEntity
  8
Layer_1
 62
7
100
AcDbLine
 10
221.805765
 20
417.748362
 30
0.0
 11
221.805765
 21
417.748362
 31
0.0
  0
SPLINE
  5
207
100
AcDbEntity
  8
Layer_1
 62
7
100
AcDbSpline
 70
8
 71
3
 72
8
 73
4
 74
0
 40
0
 40
0
 40
0
 40
0
 40
1
 40
1
 40
1
 40
1
 10
226.823056
 20
372.598477
 30
0.0
 10
226.823056
 20
372.054426
 30
0.0
 10
226.537164
 20
371.551700
 30
0.0
 10
226.073050
 20
371.279675
 30
0.0
  0
SPLINE
  5
208
100
AcDbEntity
  8
Layer_1
 62
7
100
AcDbSpline
 70
8
 71
3
 72
8
 73
4
 74
0
 40
0
 40
0
 40
0
 40
0
 40
1
 40
1
 40
1
 40
1
 10
226.073050
 20
371.279675
 30
0.0
 10
225.608964
 20
371.007646
 30
0.0
 10
225.037182
 20
371.007646
 30
0.0
 10
224.573067
 20
371.279675
 30
0.0
  0
SPLINE
  5
209
100
AcDbEntity
  8
Layer_1
 62
7
100
AcDbSpline
 70
8
 71
3
 72
8
 73
4
 74
0
 40
0
 40
0
 40
0
 40
0
 40
1
 40
1
 40
1
 40
1
 10
224.573067
 20
371.279675
 30
0.0
 10
224.108981
 20
371.551700
 30
0.0
 10
223.823090
 20
372.054426
 30
0.0
 10
223.823090
 20
372.598477
 30
0.0
  0
SPLINE
  5
20a
100
AcDbEntity
  8
Layer_1
 62
7
100
AcDbSpline
 70
8
 71
3
 72
8
 73
4
 74
0
 40
0
 40
0
 40
0
 40
0
 40
1
 40
1
 40
1
 40
1
 10
223.823090
 20
372.598477
 30
0.0
 10
223.823090
 20
373.142530
 30
0.0
 10
224.108981
 20
373.645256
 30
0.0
 10
224.573067
 20
373.917281
 30
0.0
  0
SPLINE
  5
20b
100
AcDbEntity
  8
Layer_1
 62
7
100
AcDbSpline
 70
8
 71
3
 72
8
 73
4
 74
0
 40
0
 40
0
 40
0
 40
0
 40
1
 40
1
 40
1
 40
1
 10
224.573067
 20
373.917281
 30
0.0
 10
225.037182
 20
374.189307
 30
0.0
 10
225.608964
 20
374.189307
 30
0.0
 10
226.073050
 20
373.917281
 30
0.0
  0
SPLINE
  5
20c
100
AcDbEntity
  8
Layer_1
 62
7
100
AcDbSpline
 70
8
 71
3
 72
8
 73
4
 74
0
 40
0
 40
0
 40
0
 40
0
 40
1
 40
1
 40
1
 40
1
 10
226.073050
 20
373.917281
 30
0.0
 10
226.537164
 20
373.645256
 30
0.0
 10
226.823056
 20
373.142530
 30
0.0
 10
226.823056
 20
372.598477
 30
0.0
  0
LINE
  5
20d
100
AcDbEntity
  8
Layer_1
 62
7
100
AcDbLine
 10
226.823056
 20
372.598477
 30
0.0
 11
226.823056
 21
372.598477
 31
0.0
  0
SPLINE
  5
20e
100
AcDbEntity
  8
Layer_1
 62
7
100
AcDbSpline
 70
8
 71
3
 72
8
 73
4
 74
0
 40
0
 40
0
 40
0
 40
0
 40
1
 40
1
 40
1
 40
1
 10
221.805765
 20
337.481393
 30
0.0
 10
221.805765
 20
336.937342
 30
0.0
 10
221.519874
 20
336.434617
 30
0.0
 10
221.055788
 20
336.162591
 30
0.0
  0
SPLINE
  5
20f
100
AcDbEntity
  8
Layer_1
 62
7
100
AcDbSpline
 70
8
 71
3
 72
8
 73
4
 74
0
 40
0
 40
0
 40
0
 40
0
 40
1
 40
1
 40
1
 40
1
 10
221.055788
 20
336.162591
 30
0.0
 10
220.591674
 20
335.890563
 30
0.0
 10
220.019891
 20
335.890563
 30
0.0
 10
219.555777
 20
336.162591
 30
0.0
  0
SPLINE
  5
210
100
AcDbEntity
  8
Layer_1
 62
7
100
AcDbSpline
 70
8
 71
3
 72
8
 73
4
 74
0
 40
0
 40
0
 40
0
 40
0
 40
1
 40
1
 40
1
 40
1
 10
219.555777
 20
336.162591
 30
0.0
 10
219.091691
 20
336.434617
 30
0.0
 10
218.805800
 20
336.937342
 30
0.0
 10
218.805800
 20
337.481393
 30
0.0
  0
SPLINE
  5
211
100
AcDbEntity
  8
Layer_1
 62
7
100
AcDbSpline
 70
8
 71
3
 72
8
 73
4
 74
0
 40
0
 40
0
 40
0
 40
0
 40
1
 40
1
 40
1
 40
1
 10
218.805800
 20
337.481393
 30
0.0
 10
218.805800
 20
338.025447
 30
0.0
 10
219.091691
 20
338.528172
 30
0.0
 10
219.555777
 20
338.800198
 30
0.0
  0
SPLINE
  5
212
100
AcDbEntity
  8
Layer_1
 62
7
100
AcDbSpline
 70
8
 71
3
 72
8
 73
4
 74
0
 40
0
 40
0
 40
0
 40
0
 40
1
 40
1
 40
1
 40
1
 10
219.555777
 20
338.800198
 30
0.0
 10
220.019891
 20
339.072224
 30
0.0
 10
220.591674
 20
339.072224
 30
0.0
 10
221.055788
 20
338.800198
 30
0.0
  0
SPLINE
  5
213
100
AcDbEntity
  8
Layer_1
 62
7
100
AcDbSpline
 70
8
 71
3
 72
8
 73
4
 74
0
 40
0
 40
0
 40
0
 40
0
 40
1
 40
1
 40
1
 40
1
 10
221.055788
 20
338.800198
 30
0.0
 10
221.519874
 20
338.528172
 30
0.0
 10
221.805765
 20
338.025447
 30
0.0
 10
221.805765
 20
337.481393
 30
0.0
  0
LINE
  5
214
100
AcDbEntity
  8
Layer_1
 62
7
100
AcDbLine
 10
221.805765
 20
337.481393
 30
0.0
 11
221.805765
 21
337.481393
 31
0.0
  0
ENDSEC
  0
SECTION
  2
OBJECTS
  0
DICTIONARY
  5
C
330
0
100
AcDbDictionary
  3
ACAD_GROUP
350
D
  3
ACAD_MLINESTYLE
350
17
  0
DICTIONARY
  5
D
330
C
100
AcDbDictionary
  0
DICTIONARY
  5
1A
330
C
100
AcDbDictionary
  0
DICTIONARY
  5
17
330
C
100
AcDbDictionary
  3
STANDARD
350
18
  0
DICTIONARY
  5
19
330
C
100
AcDbDictionary
  0
ENDSEC
  0
EOF
