  0
SECTION
  2
HEADER
  9
$ACADVER
  1
AC1014
  9
$HANDSEED
  5
FFFF
  9
$MEASUREMENT
 70
     1
  0
ENDSEC
  0
SECTION
  2
TABLES
  0
TABLE
  2
VPORT
  5
8
330
0
100
AcDbSymbolTable
 70
     4
  0
VPORT
  5
2E
330
8
100
AcDbSymbolTableRecord
100
AcDbViewportTableRecord
  2
*ACTIVE
 70
     0
 10
0.0
 20
0.0
 11
1.0
 21
1.0
 12
210.0
 22
148.5
 13
0.0
 23
0.0
 14
10.0
 24
10.0
 15
10.0
 25
10.0
 16
0.0
 26
0.0
 36
1.0
 17
0.0
 27
0.0
 37
0.0
 40
341.0
 41
1.24
 42
50.0
 43
0.0
 44
0.0
 50
0.0
 51
0.0
 71
     0
 72
   100
 73
     1
 74
     3
 75
     0
 76
     0
 77
     0
 78
     0
  0
ENDTAB
  0
TABLE
  2
LTYPE
  5
5
330
0
100
AcDbSymbolTable
 70
     1
  0
LTYPE
  5
14
330
5
100
AcDbSymbolTableRecord
100
AcDbLinetypeTableRecord
  2
BYBLOCK
 70
     0
  3

 72
    65
 73
     0
 40
0.0
  0
LTYPE
  5
15
330
5
100
AcDbSymbolTableRecord
100
AcDbLinetypeTableRecord
  2
BYLAYER
 70
     0
  3

 72
    65
 73
     0
 40
0.0
  0
LTYPE
  5
16
330
5
100
AcDbSymbolTableRecord
100
AcDbLinetypeTableRecord
  2
CONTINUOUS
 70
     0
  3
Solid line
 72
    65
 73
     0
 40
0.0
  0
ENDTAB
  0
TABLE
  2
LAYER
  5
2
100
AcDbSymbolTable
 70
2
  0
LAYER
  5
50
100
AcDbSymbolTableRecord
100
AcDbLayerTableRecord
  2
0
 70
0
  6
CONTINUOUS
  0
LAYER
  5
51
100
AcDbSymbolTableRecord
100
AcDbLayerTableRecord
  2
Layer_1
 70
0
  6
CONTINUOUS
  0
ENDTAB
  0
TABLE
  2
STYLE
  5
3
330
0
100
AcDbSymbolTable
 70
     1
  0
STYLE
  5
11
330
3
100
AcDbSymbolTableRecord
100
AcDbTextStyleTableRecord
  2
STANDARD
 70
     0
 40
0.0
 41
1.0
 50
0.0
 71
     0
 42
2.5
  3
txt
  4

  0
ENDTAB
  0
TABLE
  2
VIEW
  5
6
330
0
100
AcDbSymbolTable
 70
     0
  0
ENDTAB
  0
TABLE
  2
UCS
  5
7
330
0
100
AcDbSymbolTable
 70
     0
  0
ENDTAB
  0
TABLE
  2
APPID
  5
9
330
0
100
AcDbSymbolTable
 70
     2
  0
APPID
  5
12
330
9
100
AcDbSymbolTableRecord
100
AcDbRegAppTableRecord
  2
ACAD
 70
     0
  0
ENDTAB
  0
TABLE
  2
DIMSTYLE
  5
A
330
0
100
AcDbSymbolTable
 70
     1
  0
DIMSTYLE
105
27
330
A
100
AcDbSymbolTableRecord
100
AcDbDimStyleTableRecord
  2
ISO-25
 70
     0
  3

  4

  5

  6

  7

 40
1.0
 41
2.5
 42
0.625
 43
3.75
 44
1.25
 45
0.0
 46
0.0
 47
0.0
 48
0.0
140
2.5
141
2.5
142
0.0
143
0.03937007874016
144
1.0
145
0.0
146
1.0
147
0.625
 71
     0
 72
     0
 73
     0
 74
     0
 75
     0
 76
     0
 77
     1
 78
     8
170
     0
171
     3
172
     1
173
     0
174
     0
175
     0
176
     0
177
     0
178
     0
270
     2
271
     2
272
     2
273
     2
274
     3
340
11
275
     0
280
     0
281
     0
282
     0
283
     0
284
     8
285
     0
286
     0
287
     3
288
     0
  0
ENDTAB
  0
TABLE
  2
BLOCK_RECORD
  5
1
330
0
100
AcDbSymbolTable
 70
     1
  0
BLOCK_RECORD
  5
1F
330
1
100
AcDbSymbolTableRecord
100
AcDbBlockTableRecord
  2
*MODEL_SPACE
  0
BLOCK_RECORD
  5
1B
330
1
100
AcDbSymbolTableRecord
100
AcDbBlockTableRecord
  2
*PAPER_SPACE
  0
ENDTAB
  0
ENDSEC
  0
SECTION
  2
BLOCKS
  0
BLOCK
  5
20
330
1F
100
AcDbEntity
  8
0
100
AcDbBlockBegin
  2
*MODEL_SPACE
 70
     0
 10
0.0
 20
0.0
 30
0.0
  3
*MODEL_SPACE
  1

  0
ENDBLK
  5
21
330
1F
100
AcDbEntity
  8
0
100
AcDbBlockEnd
  0
BLOCK
  5
1C
330
1B
100
AcDbEntity
 67
     1
  8
0
100
AcDbBlockBegin
  2
*PAPER_SPACE
  1

  0
ENDBLK
  5
1D
330
1B
100
AcDbEntity
 67
     1
  8
0
100
AcDbBlockEnd
  0
ENDSEC
  0
SECTION
  2
ENTITIES
  0
LINE
  5
100
100
AcDbEntity
  8
Layer_1
 62
1
100
AcDbLine
 10
210.691436
 20
320.498940
 30
0.0
 11
149.635622
 21
320.498940
 31
0.0
  0
LINE
  5
101
100
AcDbEntity
  8
Layer_1
 62
1
100
AcDbLine
 10
149.635622
 20
320.498940
 30
0.0
 11
149.635622
 21
338.559038
 31
0.0
  0
LINE
  5
102
100
AcDbEntity
  8
Layer_1
 62
1
100
AcDbLine
 10
149.635622
 20
338.559038
 30
0.0
 11
149.134085
 21
338.559038
 31
0.0
  0
LINE
  5
103
100
AcDbEntity
  8
Layer_1
 62
1
100
AcDbLine
 10
149.134085
 20
338.559038
 30
0.0
 11
149.134085
 21
343.929916
 31
0.0
  0
LINE
  5
104
100
AcDbEntity
  8
Layer_1
 62
1
100
AcDbLine
 10
149.134085
 20
343.929916
 30
0.0
 11
149.635622
 21
343.929916
 31
0.0
  0
LINE
  5
105
100
AcDbEntity
  8
Layer_1
 62
1
100
AcDbLine
 10
149.635622
 20
343.929916
 30
0.0
 11
149.635622
 21
398.257442
 31
0.0
  0
LINE
  5
106
100
AcDbEntity
  8
Layer_1
 62
1
100
AcDbLine
 10
149.635622
 20
398.257442
 30
0.0
 11
149.134085
 21
398.257442
 31
0.0
  0
LINE
  5
107
100
AcDbEntity
  8
Layer_1
 62
1
100
AcDbLine
 10
149.134085
 20
398.257442
 30
0.0
 11
149.134085
 21
403.628329
 31
0.0
  0
LINE
  5
108
100
AcDbEntity
  8
Layer_1
 62
1
100
AcDbLine
 10
149.134085
 20
403.628329
 30
0.0
 11
149.635622
 21
403.628329
 31
0.0
  0
LINE
  5
109
100
AcDbEntity
  8
Layer_1
 62
1
100
AcDbLine
 10
149.635622
 20
403.628329
 30
0.0
 11
149.635622
 21
421.687712
 31
0.0
  0
LINE
  5
10a
100
AcDbEntity
  8
Layer_1
 62
1
100
AcDbLine
 10
149.635622
 20
421.687712
 30
0.0
 11
210.691098
 21
421.687712
 31
0.0
  0
LINE
  5
10b
100
AcDbEntity
  8
Layer_1
 62
1
100
AcDbLine
 10
210.691098
 20
421.687712
 30
0.0
 11
210.691098
 21
403.628329
 31
0.0
  0
LINE
  5
10c
100
AcDbEntity
  8
Layer_1
 62
1
100
AcDbLine
 10
210.691098
 20
403.628329
 30
0.0
 11
211.193002
 21
403.628329
 31
0.0
  0
LINE
  5
10d
100
AcDbEntity
  8
Layer_1
 62
1
100
AcDbLine
 10
211.193002
 20
403.628329
 30
0.0
 11
211.193002
 21
398.257801
 31
0.0
  0
LINE
  5
10e
100
AcDbEntity
  8
Layer_1
 62
1
100
AcDbLine
 10
211.193002
 20
398.257801
 30
0.0
 11
210.691098
 21
398.257801
 31
0.0
  0
LINE
  5
10f
100
AcDbEntity
  8
Layer_1
 62
1
100
AcDbLine
 10
210.691098
 20
398.257801
 30
0.0
 11
210.691098
 21
343.929916
 31
0.0
  0
LINE
  5
110
100
AcDbEntity
  8
Layer_1
 62
1
100
AcDbLine
 10
210.691098
 20
343.929916
 30
0.0
 11
211.193002
 21
343.929916
 31
0.0
  0
LINE
  5
111
100
AcDbEntity
  8
Layer_1
 62
1
100
AcDbLine
 10
211.193002
 20
343.929916
 30
0.0
 11
211.193002
 21
338.559038
 31
0.0
  0
LINE
  5
112
100
AcDbEntity
  8
Layer_1
 62
1
100
AcDbLine
 10
211.193002
 20
338.559038
 30
0.0
 11
210.691098
 21
338.559038
 31
0.0
  0
LINE
  5
113
100
AcDbEntity
  8
Layer_1
 62
1
100
AcDbLine
 10
210.691098
 20
338.559038
 30
0.0
 11
210.691098
 21
320.498940
 31
0.0
  0
LINE
  5
114
100
AcDbEntity
  8
Layer_1
 62
1
100
AcDbLine
 10
210.691098
 20
320.498940
 30
0.0
 11
210.691098
 21
320.498940
 31
0.0
  0
SPLINE
  5
115
100
AcDbEntity
  8
Layer_1
 62
7
100
AcDbSpline
 70
8
 71
3
 72
8
 73
4
 74
0
 40
0
 40
0
 40
0
 40
0
 40
1
 40
1
 40
1
 40
1
 10
162.613300
 20
365.900487
 30
0.0
 10
162.227870
 20
365.900487
 30
0.0
 10
161.832504
 20
366.074985
 30
0.0
 10
161.528805
 20
366.378673
 30
0.0
  0
SPLINE
  5
116
100
AcDbEntity
  8
Layer_1
 62
7
100
AcDbSpline
 70
8
 71
3
 72
8
 73
4
 74
0
 40
0
 40
0
 40
0
 40
0
 40
1
 40
1
 40
1
 40
1
 10
161.528805
 20
366.378673
 30
0.0
 10
160.971332
 20
366.936858
 30
0.0
 10
160.891688
 20
367.765109
 30
0.0
 10
161.351457
 20
368.224892
 30
0.0
  0
LINE
  5
117
100
AcDbEntity
  8
Layer_1
 62
7
100
AcDbLine
 10
161.351457
 20
368.224892
 30
0.0
 11
198.344496
 21
405.218281
 31
0.0
  0
SPLINE
  5
118
100
AcDbEntity
  8
Layer_1
 62
7
100
AcDbSpline
 70
8
 71
3
 72
8
 73
4
 74
0
 40
0
 40
0
 40
0
 40
0
 40
1
 40
1
 40
1
 40
1
 10
198.344496
 20
405.218281
 30
0.0
 10
198.538468
 20
405.412250
 30
0.0
 10
198.808893
 20
405.518789
 30
0.0
 10
199.106214
 20
405.518789
 30
0.0
  0
SPLINE
  5
119
100
AcDbEntity
  8
Layer_1
 62
7
100
AcDbSpline
 70
8
 71
3
 72
8
 73
4
 74
0
 40
0
 40
0
 40
0
 40
0
 40
1
 40
1
 40
1
 40
1
 10
199.106214
 20
405.518789
 30
0.0
 10
199.491673
 20
405.518789
 30
0.0
 10
199.887038
 20
405.344643
 30
0.0
 10
200.190710
 20
405.040600
 30
0.0
  0
SPLINE
  5
11a
100
AcDbEntity
  8
Layer_1
 62
7
100
AcDbSpline
 70
8
 71
3
 72
8
 73
4
 74
0
 40
0
 40
0
 40
0
 40
0
 40
1
 40
1
 40
1
 40
1
 10
200.190710
 20
405.040600
 30
0.0
 10
200.748550
 20
404.482771
 30
0.0
 10
200.828560
 20
403.654166
 30
0.0
 10
200.368397
 20
403.194025
 30
0.0
  0
LINE
  5
11b
100
AcDbEntity
  8
Layer_1
 62
7
100
AcDbLine
 10
200.368397
 20
403.194025
 30
0.0
 11
163.375018
 21
366.200991
 31
0.0
  0
SPLINE
  5
11c
100
AcDbEntity
  8
Layer_1
 62
7
100
AcDbSpline
 70
8
 71
3
 72
8
 73
4
 74
0
 40
0
 40
0
 40
0
 40
0
 40
1
 40
1
 40
1
 40
1
 10
163.375018
 20
366.200991
 30
0.0
 10
163.181047
 20
366.007023
 30
0.0
 10
162.910622
 20
365.900487
 30
0.0
 10
162.613300
 20
365.900487
 30
0.0
  0
LINE
  5
11d
100
AcDbEntity
  8
Layer_1
 62
7
100
AcDbLine
 10
162.613300
 20
365.900487
 30
0.0
 11
162.613300
 21
365.900487
 31
0.0
  0
SPLINE
  5
11e
100
AcDbEntity
  8
Layer_1
 62
7
100
AcDbSpline
 70
8
 71
3
 72
8
 73
4
 74
0
 40
0
 40
0
 40
0
 40
0
 40
1
 40
1
 40
1
 40
1
 10
162.613300
 20
373.927076
 30
0.0
 10
162.227870
 20
373.927076
 30
0.0
 10
161.832504
 20
374.101574
 30
0.0
 10
161.528805
 20
374.405265
 30
0.0
  0
SPLINE
  5
11f
100
AcDbEntity
  8
Layer_1
 62
7
100
AcDbSpline
 70
8
 71
3
 72
8
 73
4
 74
0
 40
0
 40
0
 40
0
 40
0
 40
1
 40
1
 40
1
 40
1
 10
161.528805
 20
374.405265
 30
0.0
 10
160.971332
 20
374.963447
 30
0.0
 10
160.891688
 20
375.791701
 30
0.0
 10
161.351457
 20
376.251486
 30
0.0
  0
LINE
  5
120
100
AcDbEntity
  8
Layer_1
 62
7
100
AcDbLine
 10
161.351457
 20
376.251486
 30
0.0
 11
196.337953
 21
411.238313
 31
0.0
  0
SPLINE
  5
121
100
AcDbEntity
  8
Layer_1
 62
7
100
AcDbSpline
 70
8
 71
3
 72
8
 73
4
 74
0
 40
0
 40
0
 40
0
 40
0
 40
1
 40
1
 40
1
 40
1
 10
196.337953
 20
411.238313
 30
0.0
 10
196.531924
 20
411.432278
 30
0.0
 10
196.802321
 20
411.538820
 30
0.0
 10
197.099642
 20
411.538820
 30
0.0
  0
SPLINE
  5
122
100
AcDbEntity
  8
Layer_1
 62
7
100
AcDbSpline
 70
8
 71
3
 72
8
 73
4
 74
0
 40
0
 40
0
 40
0
 40
0
 40
1
 40
1
 40
1
 40
1
 10
197.099642
 20
411.538820
 30
0.0
 10
197.485102
 20
411.538820
 30
0.0
 10
197.880467
 20
411.364675
 30
0.0
 10
198.184166
 20
411.060628
 30
0.0
  0
SPLINE
  5
123
100
AcDbEntity
  8
Layer_1
 62
7
100
AcDbSpline
 70
8
 71
3
 72
8
 73
4
 74
0
 40
0
 40
0
 40
0
 40
0
 40
1
 40
1
 40
1
 40
1
 10
198.184166
 20
411.060628
 30
0.0
 10
198.742006
 20
410.502799
 30
0.0
 10
198.821988
 20
409.674195
 30
0.0
 10
198.361853
 20
409.214057
 30
0.0
  0
LINE
  5
124
100
AcDbEntity
  8
Layer_1
 62
7
100
AcDbLine
 10
198.361853
 20
409.214057
 30
0.0
 11
163.375018
 21
374.227583
 31
0.0
  0
SPLINE
  5
125
100
AcDbEntity
  8
Layer_1
 62
7
100
AcDbSpline
 70
8
 71
3
 72
8
 73
4
 74
0
 40
0
 40
0
 40
0
 40
0
 40
1
 40
1
 40
1
 40
1
 10
163.375018
 20
374.227583
 30
0.0
 10
163.181047
 20
374.033970
 30
0.0
 10
162.910622
 20
373.927076
 30
0.0
 10
162.613300
 20
373.927076
 30
0.0
  0
LINE
  5
126
100
AcDbEntity
  8
Layer_1
 62
7
100
AcDbLine
 10
162.613300
 20
373.927076
 30
0.0
 11
162.613300
 21
373.927076
 31
0.0
  0
SPLINE
  5
127
100
AcDbEntity
  8
Layer_1
 62
7
100
AcDbSpline
 70
8
 71
3
 72
8
 73
4
 74
0
 40
0
 40
0
 40
0
 40
0
 40
1
 40
1
 40
1
 40
1
 10
162.613300
 20
381.954018
 30
0.0
 10
162.227870
 20
381.954018
 30
0.0
 10
161.832504
 20
382.128516
 30
0.0
 10
161.528805
 20
382.432212
 30
0.0
  0
SPLINE
  5
128
100
AcDbEntity
  8
Layer_1
 62
7
100
AcDbSpline
 70
8
 71
3
 72
8
 73
4
 74
0
 40
0
 40
0
 40
0
 40
0
 40
1
 40
1
 40
1
 40
1
 10
161.528805
 20
382.432212
 30
0.0
 10
160.971332
 20
382.990394
 30
0.0
 10
160.891688
 20
383.818646
 30
0.0
 10
161.351457
 20
384.278428
 30
0.0
  0
LINE
  5
129
100
AcDbEntity
  8
Layer_1
 62
7
100
AcDbLine
 10
161.351457
 20
384.278428
 30
0.0
 11
188.310988
 21
411.238313
 31
0.0
  0
SPLINE
  5
12a
100
AcDbEntity
  8
Layer_1
 62
7
100
AcDbSpline
 70
8
 71
3
 72
8
 73
4
 74
0
 40
0
 40
0
 40
0
 40
0
 40
1
 40
1
 40
1
 40
1
 10
188.310988
 20
411.238313
 30
0.0
 10
188.504960
 20
411.432278
 30
0.0
 10
188.775385
 20
411.538820
 30
0.0
 10
189.072706
 20
411.538820
 30
0.0
  0
SPLINE
  5
12b
100
AcDbEntity
  8
Layer_1
 62
7
100
AcDbSpline
 70
8
 71
3
 72
8
 73
4
 74
0
 40
0
 40
0
 40
0
 40
0
 40
1
 40
1
 40
1
 40
1
 10
189.072706
 20
411.538820
 30
0.0
 10
189.458165
 20
411.538820
 30
0.0
 10
189.853530
 20
411.364675
 30
0.0
 10
190.157230
 20
411.060628
 30
0.0
  0
SPLINE
  5
12c
100
AcDbEntity
  8
Layer_1
 62
7
100
AcDbSpline
 70
8
 71
3
 72
8
 73
4
 74
0
 40
0
 40
0
 40
0
 40
0
 40
1
 40
1
 40
1
 40
1
 10
190.157230
 20
411.060628
 30
0.0
 10
190.715042
 20
410.502799
 30
0.0
 10
190.795052
 20
409.674195
 30
0.0
 10
190.334917
 20
409.214057
 30
0.0
  0
LINE
  5
12d
100
AcDbEntity
  8
Layer_1
 62
7
100
AcDbLine
 10
190.334917
 20
409.214057
 30
0.0
 11
163.375018
 21
382.254522
 31
0.0
  0
SPLINE
  5
12e
100
AcDbEntity
  8
Layer_1
 62
7
100
AcDbSpline
 70
8
 71
3
 72
8
 73
4
 74
0
 40
0
 40
0
 40
0
 40
0
 40
1
 40
1
 40
1
 40
1
 10
163.375018
 20
382.254522
 30
0.0
 10
163.181047
 20
382.060915
 30
0.0
 10
162.910622
 20
381.954018
 30
0.0
 10
162.613300
 20
381.954018
 30
0.0
  0
LINE
  5
12f
100
AcDbEntity
  8
Layer_1
 62
7
100
AcDbLine
 10
162.613300
 20
381.954018
 30
0.0
 11
162.613300
 21
381.954018
 31
0.0
  0
SPLINE
  5
130
100
AcDbEntity
  8
Layer_1
 62
7
100
AcDbSpline
 70
8
 71
3
 72
8
 73
4
 74
0
 40
0
 40
0
 40
0
 40
0
 40
1
 40
1
 40
1
 40
1
 10
162.613300
 20
389.980962
 30
0.0
 10
162.227870
 20
389.980962
 30
0.0
 10
161.832504
 20
390.155463
 30
0.0
 10
161.528805
 20
390.459154
 30
0.0
  0
SPLINE
  5
131
100
AcDbEntity
  8
Layer_1
 62
7
100
AcDbSpline
 70
8
 71
3
 72
8
 73
4
 74
0
 40
0
 40
0
 40
0
 40
0
 40
1
 40
1
 40
1
 40
1
 10
161.528805
 20
390.459154
 30
0.0
 10
160.971332
 20
391.017339
 30
0.0
 10
160.891688
 20
391.845588
 30
0.0
 10
161.351457
 20
392.305373
 30
0.0
  0
LINE
  5
132
100
AcDbEntity
  8
Layer_1
 62
7
100
AcDbLine
 10
161.351457
 20
392.305373
 30
0.0
 11
180.284052
 21
411.238313
 31
0.0
  0
SPLINE
  5
133
100
AcDbEntity
  8
Layer_1
 62
7
100
AcDbSpline
 70
8
 71
3
 72
8
 73
4
 74
0
 40
0
 40
0
 40
0
 40
0
 40
1
 40
1
 40
1
 40
1
 10
180.284052
 20
411.238313
 30
0.0
 10
180.478024
 20
411.432278
 30
0.0
 10
180.748449
 20
411.538820
 30
0.0
 10
181.045770
 20
411.538820
 30
0.0
  0
SPLINE
  5
134
100
AcDbEntity
  8
Layer_1
 62
7
100
AcDbSpline
 70
8
 71
3
 72
8
 73
4
 74
0
 40
0
 40
0
 40
0
 40
0
 40
1
 40
1
 40
1
 40
1
 10
181.045770
 20
411.538820
 30
0.0
 10
181.431229
 20
411.538820
 30
0.0
 10
181.826594
 20
411.364675
 30
0.0
 10
182.130265
 20
411.060628
 30
0.0
  0
SPLINE
  5
135
100
AcDbEntity
  8
Layer_1
 62
7
100
AcDbSpline
 70
8
 71
3
 72
8
 73
4
 74
0
 40
0
 40
0
 40
0
 40
0
 40
1
 40
1
 40
1
 40
1
 10
182.130265
 20
411.060628
 30
0.0
 10
182.688106
 20
410.502799
 30
0.0
 10
182.768088
 20
409.674195
 30
0.0
 10
182.307952
 20
409.214057
 30
0.0
  0
LINE
  5
136
100
AcDbEntity
  8
Layer_1
 62
7
100
AcDbLine
 10
182.307952
 20
409.214057
 30
0.0
 11
163.375018
 21
390.281117
 31
0.0
  0
SPLINE
  5
137
100
AcDbEntity
  8
Layer_1
 62
7
100
AcDbSpline
 70
8
 71
3
 72
8
 73
4
 74
0
 40
0
 40
0
 40
0
 40
0
 40
1
 40
1
 40
1
 40
1
 10
163.375018
 20
390.281117
 30
0.0
 10
163.181047
 20
390.087860
 30
0.0
 10
162.910622
 20
389.980962
 30
0.0
 10
162.613300
 20
389.980962
 30
0.0
  0
LINE
  5
138
100
AcDbEntity
  8
Layer_1
 62
7
100
AcDbLine
 10
162.613300
 20
389.980962
 30
0.0
 11
162.613300
 21
389.980962
 31
0.0
  0
SPLINE
  5
139
100
AcDbEntity
  8
Layer_1
 62
7
100
AcDbSpline
 70
8
 71
3
 72
8
 73
4
 74
0
 40
0
 40
0
 40
0
 40
0
 40
1
 40
1
 40
1
 40
1
 10
162.613300
 20
398.007910
 30
0.0
 10
162.227870
 20
398.007910
 30
0.0
 10
161.832504
 20
398.182408
 30
0.0
 10
161.528805
 20
398.486099
 30
0.0
  0
SPLINE
  5
13a
100
AcDbEntity
  8
Layer_1
 62
7
100
AcDbSpline
 70
8
 71
3
 72
8
 73
4
 74
0
 40
0
 40
0
 40
0
 40
0
 40
1
 40
1
 40
1
 40
1
 10
161.528805
 20
398.486099
 30
0.0
 10
160.971332
 20
399.044281
 30
0.0
 10
160.891688
 20
399.872530
 30
0.0
 10
161.351457
 20
400.332315
 30
0.0
  0
LINE
  5
13b
100
AcDbEntity
  8
Layer_1
 62
7
100
AcDbLine
 10
161.351457
 20
400.332315
 30
0.0
 11
172.257455
 21
411.238313
 31
0.0
  0
SPLINE
  5
13c
100
AcDbEntity
  8
Layer_1
 62
7
100
AcDbSpline
 70
8
 71
3
 72
8
 73
4
 74
0
 40
0
 40
0
 40
0
 40
0
 40
1
 40
1
 40
1
 40
1
 10
172.257455
 20
411.238313
 30
0.0
 10
172.451426
 20
411.432278
 30
0.0
 10
172.721851
 20
411.538820
 30
0.0
 10
173.019172
 20
411.538820
 30
0.0
  0
SPLINE
  5
13d
100
AcDbEntity
  8
Layer_1
 62
7
100
AcDbSpline
 70
8
 71
3
 72
8
 73
4
 74
0
 40
0
 40
0
 40
0
 40
0
 40
1
 40
1
 40
1
 40
1
 10
173.019172
 20
411.538820
 30
0.0
 10
173.404632
 20
411.538820
 30
0.0
 10
173.799997
 20
411.364675
 30
0.0
 10
174.103696
 20
411.060628
 30
0.0
  0
SPLINE
  5
13e
100
AcDbEntity
  8
Layer_1
 62
7
100
AcDbSpline
 70
8
 71
3
 72
8
 73
4
 74
0
 40
0
 40
0
 40
0
 40
0
 40
1
 40
1
 40
1
 40
1
 10
174.103696
 20
411.060628
 30
0.0
 10
174.661508
 20
410.502799
 30
0.0
 10
174.741518
 20
409.674195
 30
0.0
 10
174.281355
 20
409.214057
 30
0.0
  0
LINE
  5
13f
100
AcDbEntity
  8
Layer_1
 62
7
100
AcDbLine
 10
174.281355
 20
409.214057
 30
0.0
 11
163.375018
 21
398.308412
 31
0.0
  0
SPLINE
  5
140
100
AcDbEntity
  8
Layer_1
 62
7
100
AcDbSpline
 70
8
 71
3
 72
8
 73
4
 74
0
 40
0
 40
0
 40
0
 40
0
 40
1
 40
1
 40
1
 40
1
 10
163.375018
 20
398.308412
 30
0.0
 10
163.181047
 20
398.114449
 30
0.0
 10
162.910622
 20
398.007910
 30
0.0
 10
162.613300
 20
398.007910
 30
0.0
  0
LINE
  5
141
100
AcDbEntity
  8
Layer_1
 62
7
100
AcDbLine
 10
162.613300
 20
398.007910
 30
0.0
 11
162.613300
 21
398.007910
 31
0.0
  0
SPLINE
  5
142
100
AcDbEntity
  8
Layer_1
 62
7
100
AcDbSpline
 70
8
 71
3
 72
8
 73
4
 74
0
 40
0
 40
0
 40
0
 40
0
 40
1
 40
1
 40
1
 40
1
 10
162.613300
 20
406.034499
 30
0.0
 10
162.227870
 20
406.034499
 30
0.0
 10
161.832504
 20
406.209000
 30
0.0
 10
161.528805
 20
406.512691
 30
0.0
  0
SPLINE
  5
143
100
AcDbEntity
  8
Layer_1
 62
7
100
AcDbSpline
 70
8
 71
3
 72
8
 73
4
 74
0
 40
0
 40
0
 40
0
 40
0
 40
1
 40
1
 40
1
 40
1
 10
161.528805
 20
406.512691
 30
0.0
 10
160.971332
 20
407.070870
 30
0.0
 10
160.891688
 20
407.899124
 30
0.0
 10
161.351457
 20
408.358907
 30
0.0
  0
LINE
  5
144
100
AcDbEntity
  8
Layer_1
 62
7
100
AcDbLine
 10
161.351457
 20
408.358907
 30
0.0
 11
164.230518
 21
411.238313
 31
0.0
  0
SPLINE
  5
145
100
AcDbEntity
  8
Layer_1
 62
7
100
AcDbSpline
 70
8
 71
3
 72
8
 73
4
 74
0
 40
0
 40
0
 40
0
 40
0
 40
1
 40
1
 40
1
 40
1
 10
164.230518
 20
411.238313
 30
0.0
 10
164.424490
 20
411.432278
 30
0.0
 10
164.694915
 20
411.538820
 30
0.0
 10
164.992236
 20
411.538820
 30
0.0
  0
SPLINE
  5
146
100
AcDbEntity
  8
Layer_1
 62
7
100
AcDbSpline
 70
8
 71
3
 72
8
 73
4
 74
0
 40
0
 40
0
 40
0
 40
0
 40
1
 40
1
 40
1
 40
1
 10
164.992236
 20
411.538820
 30
0.0
 10
165.377695
 20
411.538820
 30
0.0
 10
165.773060
 20
411.364675
 30
0.0
 10
166.076732
 20
411.060628
 30
0.0
  0
SPLINE
  5
147
100
AcDbEntity
  8
Layer_1
 62
7
100
AcDbSpline
 70
8
 71
3
 72
8
 73
4
 74
0
 40
0
 40
0
 40
0
 40
0
 40
1
 40
1
 40
1
 40
1
 10
166.076732
 20
411.060628
 30
0.0
 10
166.634572
 20
410.502799
 30
0.0
 10
166.714554
 20
409.674195
 30
0.0
 10
166.254419
 20
409.214057
 30
0.0
  0
LINE
  5
148
100
AcDbEntity
  8
Layer_1
 62
7
100
AcDbLine
 10
166.254419
 20
409.214057
 30
0.0
 11
163.375018
 21
406.335004
 31
0.0
  0
SPLINE
  5
149
100
AcDbEntity
  8
Layer_1
 62
7
100
AcDbSpline
 70
8
 71
3
 72
8
 73
4
 74
0
 40
0
 40
0
 40
0
 40
0
 40
1
 40
1
 40
1
 40
1
 10
163.375018
 20
406.335004
 30
0.0
 10
163.181047
 20
406.141391
 30
0.0
 10
162.910622
 20
406.034499
 30
0.0
 10
162.613300
 20
406.034499
 30
0.0
  0
LINE
  5
14a
100
AcDbEntity
  8
Layer_1
 62
7
100
AcDbLine
 10
162.613300
 20
406.034499
 30
0.0
 11
162.613300
 21
406.034499
 31
0.0
  0
SPLINE
  5
14b
100
AcDbEntity
  8
Layer_1
 62
7
100
AcDbSpline
 70
8
 71
3
 72
8
 73
4
 74
0
 40
0
 40
0
 40
0
 40
0
 40
1
 40
1
 40
1
 40
1
 10
162.613300
 20
357.874248
 30
0.0
 10
162.227870
 20
357.874248
 30
0.0
 10
161.832504
 20
358.048746
 30
0.0
 10
161.528805
 20
358.352436
 30
0.0
  0
SPLINE
  5
14c
100
AcDbEntity
  8
Layer_1
 62
7
100
AcDbSpline
 70
8
 71
3
 72
8
 73
4
 74
0
 40
0
 40
0
 40
0
 40
0
 40
1
 40
1
 40
1
 40
1
 10
161.528805
 20
358.352436
 30
0.0
 10
160.971332
 20
358.910624
 30
0.0
 10
160.891688
 20
359.738873
 30
0.0
 10
161.351457
 20
360.198658
 30
0.0
  0
LINE
  5
14d
100
AcDbEntity
  8
Layer_1
 62
7
100
AcDbLine
 10
161.351457
 20
360.198658
 30
0.0
 11
198.344496
 21
397.192048
 31
0.0
  0
SPLINE
  5
14e
100
AcDbEntity
  8
Layer_1
 62
7
100
AcDbSpline
 70
8
 71
3
 72
8
 73
4
 74
0
 40
0
 40
0
 40
0
 40
0
 40
1
 40
1
 40
1
 40
1
 10
198.344496
 20
397.192048
 30
0.0
 10
198.538468
 20
397.386011
 30
0.0
 10
198.808893
 20
397.492552
 30
0.0
 10
199.106214
 20
397.492552
 30
0.0
  0
SPLINE
  5
14f
100
AcDbEntity
  8
Layer_1
 62
7
100
AcDbSpline
 70
8
 71
3
 72
8
 73
4
 74
0
 40
0
 40
0
 40
0
 40
0
 40
1
 40
1
 40
1
 40
1
 10
199.106214
 20
397.492552
 30
0.0
 10
199.491673
 20
397.492552
 30
0.0
 10
199.887038
 20
397.318410
 30
0.0
 10
200.190710
 20
397.014361
 30
0.0
  0
SPLINE
  5
150
100
AcDbEntity
  8
Layer_1
 62
7
100
AcDbSpline
 70
8
 71
3
 72
8
 73
4
 74
0
 40
0
 40
0
 40
0
 40
0
 40
1
 40
1
 40
1
 40
1
 10
200.190710
 20
397.014361
 30
0.0
 10
200.748550
 20
396.456534
 30
0.0
 10
200.828560
 20
395.627930
 30
0.0
 10
200.368397
 20
395.167792
 30
0.0
  0
LINE
  5
151
100
AcDbEntity
  8
Layer_1
 62
7
100
AcDbLine
 10
200.368397
 20
395.167792
 30
0.0
 11
163.375018
 21
358.175108
 31
0.0
  0
SPLINE
  5
152
100
AcDbEntity
  8
Layer_1
 62
7
100
AcDbSpline
 70
8
 71
3
 72
8
 73
4
 74
0
 40
0
 40
0
 40
0
 40
0
 40
1
 40
1
 40
1
 40
1
 10
163.375018
 20
358.175108
 30
0.0
 10
163.181047
 20
357.981142
 30
0.0
 10
162.910622
 20
357.874248
 30
0.0
 10
162.613300
 20
357.874248
 30
0.0
  0
LINE
  5
153
100
AcDbEntity
  8
Layer_1
 62
7
100
AcDbLine
 10
162.613300
 20
357.874248
 30
0.0
 11
162.613300
 21
357.874248
 31
0.0
  0
SPLINE
  5
154
100
AcDbEntity
  8
Layer_1
 62
7
100
AcDbSpline
 70
8
 71
3
 72
8
 73
4
 74
0
 40
0
 40
0
 40
0
 40
0
 40
1
 40
1
 40
1
 40
1
 10
162.613300
 20
349.848008
 30
0.0
 10
162.227870
 20
349.848008
 30
0.0
 10
161.832504
 20
350.022509
 30
0.0
 10
161.528805
 20
350.326203
 30
0.0
  0
SPLINE
  5
155
100
AcDbEntity
  8
Layer_1
 62
7
100
AcDbSpline
 70
8
 71
3
 72
8
 73
4
 74
0
 40
0
 40
0
 40
0
 40
0
 40
1
 40
1
 40
1
 40
1
 10
161.528805
 20
350.326203
 30
0.0
 10
160.971332
 20
350.884388
 30
0.0
 10
160.891688
 20
351.712634
 30
0.0
 10
161.351457
 20
352.172422
 30
0.0
  0
LINE
  5
156
100
AcDbEntity
  8
Layer_1
 62
7
100
AcDbLine
 10
161.351457
 20
352.172422
 30
0.0
 11
198.344158
 21
389.165809
 31
0.0
  0
SPLINE
  5
157
100
AcDbEntity
  8
Layer_1
 62
7
100
AcDbSpline
 70
8
 71
3
 72
8
 73
4
 74
0
 40
0
 40
0
 40
0
 40
0
 40
1
 40
1
 40
1
 40
1
 10
198.344158
 20
389.165809
 30
0.0
 10
198.538129
 20
389.359777
 30
0.0
 10
198.808526
 20
389.466316
 30
0.0
 10
199.105847
 20
389.466316
 30
0.0
  0
SPLINE
  5
158
100
AcDbEntity
  8
Layer_1
 62
7
100
AcDbSpline
 70
8
 71
3
 72
8
 73
4
 74
0
 40
0
 40
0
 40
0
 40
0
 40
1
 40
1
 40
1
 40
1
 10
199.105847
 20
389.466316
 30
0.0
 10
199.491306
 20
389.466316
 30
0.0
 10
199.886672
 20
389.292174
 30
0.0
 10
200.190371
 20
388.988127
 30
0.0
  0
SPLINE
  5
159
100
AcDbEntity
  8
Layer_1
 62
7
100
AcDbSpline
 70
8
 71
3
 72
8
 73
4
 74
0
 40
0
 40
0
 40
0
 40
0
 40
1
 40
1
 40
1
 40
1
 10
200.190371
 20
388.988127
 30
0.0
 10
200.748211
 20
388.430298
 30
0.0
 10
200.828193
 20
387.601691
 30
0.0
 10
200.368058
 20
387.141556
 30
0.0
  0
LINE
  5
15a
100
AcDbEntity
  8
Layer_1
 62
7
100
AcDbLine
 10
200.368058
 20
387.141556
 30
0.0
 11
163.375018
 21
350.148869
 31
0.0
  0
SPLINE
  5
15b
100
AcDbEntity
  8
Layer_1
 62
7
100
AcDbSpline
 70
8
 71
3
 72
8
 73
4
 74
0
 40
0
 40
0
 40
0
 40
0
 40
1
 40
1
 40
1
 40
1
 10
163.375018
 20
350.148869
 30
0.0
 10
163.181047
 20
349.954906
 30
0.0
 10
162.910622
 20
349.848008
 30
0.0
 10
162.613300
 20
349.848008
 30
0.0
  0
LINE
  5
15c
100
AcDbEntity
  8
Layer_1
 62
7
100
AcDbLine
 10
162.613300
 20
349.848008
 30
0.0
 11
162.613300
 21
349.848008
 31
0.0
  0
SPLINE
  5
15d
100
AcDbEntity
  8
Layer_1
 62
7
100
AcDbSpline
 70
8
 71
3
 72
8
 73
4
 74
0
 40
0
 40
0
 40
0
 40
0
 40
1
 40
1
 40
1
 40
1
 10
162.613300
 20
341.821775
 30
0.0
 10
162.227870
 20
341.821775
 30
0.0
 10
161.832504
 20
341.996276
 30
0.0
 10
161.528805
 20
342.299967
 30
0.0
  0
SPLINE
  5
15e
100
AcDbEntity
  8
Layer_1
 62
7
100
AcDbSpline
 70
8
 71
3
 72
8
 73
4
 74
0
 40
0
 40
0
 40
0
 40
0
 40
1
 40
1
 40
1
 40
1
 10
161.528805
 20
342.299967
 30
0.0
 10
160.971332
 20
342.858149
 30
0.0
 10
160.891688
 20
343.686400
 30
0.0
 10
161.351457
 20
344.146183
 30
0.0
  0
LINE
  5
15f
100
AcDbEntity
  8
Layer_1
 62
7
100
AcDbLine
 10
161.351457
 20
344.146183
 30
0.0
 11
198.344496
 21
381.139575
 31
0.0
  0
SPLINE
  5
160
100
AcDbEntity
  8
Layer_1
 62
7
100
AcDbSpline
 70
8
 71
3
 72
8
 73
4
 74
0
 40
0
 40
0
 40
0
 40
0
 40
1
 40
1
 40
1
 40
1
 10
198.344496
 20
381.139575
 30
0.0
 10
198.538468
 20
381.333541
 30
0.0
 10
198.808893
 20
381.440080
 30
0.0
 10
199.106214
 20
381.440080
 30
0.0
  0
SPLINE
  5
161
100
AcDbEntity
  8
Layer_1
 62
7
100
AcDbSpline
 70
8
 71
3
 72
8
 73
4
 74
0
 40
0
 40
0
 40
0
 40
0
 40
1
 40
1
 40
1
 40
1
 10
199.106214
 20
381.440080
 30
0.0
 10
199.491673
 20
381.440080
 30
0.0
 10
199.887038
 20
381.265937
 30
0.0
 10
200.190710
 20
380.961891
 30
0.0
  0
SPLINE
  5
162
100
AcDbEntity
  8
Layer_1
 62
7
100
AcDbSpline
 70
8
 71
3
 72
8
 73
4
 74
0
 40
0
 40
0
 40
0
 40
0
 40
1
 40
1
 40
1
 40
1
 10
200.190710
 20
380.961891
 30
0.0
 10
200.748550
 20
380.404062
 30
0.0
 10
200.828560
 20
379.575457
 30
0.0
 10
200.368397
 20
379.115319
 30
0.0
  0
LINE
  5
163
100
AcDbEntity
  8
Layer_1
 62
7
100
AcDbLine
 10
200.368397
 20
379.115319
 30
0.0
 11
163.375018
 21
342.122632
 31
0.0
  0
SPLINE
  5
164
100
AcDbEntity
  8
Layer_1
 62
7
100
AcDbSpline
 70
8
 71
3
 72
8
 73
4
 74
0
 40
0
 40
0
 40
0
 40
0
 40
1
 40
1
 40
1
 40
1
 10
163.375018
 20
342.122632
 30
0.0
 10
163.181047
 20
341.928667
 30
0.0
 10
162.910622
 20
341.821775
 30
0.0
 10
162.613300
 20
341.821775
 30
0.0
  0
LINE
  5
165
100
AcDbEntity
  8
Layer_1
 62
7
100
AcDbLine
 10
162.613300
 20
341.821775
 30
0.0
 11
162.613300
 21
341.821775
 31
0.0
  0
SPLINE
  5
166
100
AcDbEntity
  8
Layer_1
 62
7
100
AcDbSpline
 70
8
 71
3
 72
8
 73
4
 74
0
 40
0
 40
0
 40
0
 40
0
 40
1
 40
1
 40
1
 40
1
 10
162.613300
 20
333.795894
 30
0.0
 10
162.227870
 20
333.795894
 30
0.0
 10
161.832504
 20
333.970389
 30
0.0
 10
161.528805
 20
334.274083
 30
0.0
  0
SPLINE
  5
167
100
AcDbEntity
  8
Layer_1
 62
7
100
AcDbSpline
 70
8
 71
3
 72
8
 73
4
 74
0
 40
0
 40
0
 40
0
 40
0
 40
1
 40
1
 40
1
 40
1
 10
161.528805
 20
334.274083
 30
0.0
 10
160.971332
 20
334.832268
 30
0.0
 10
160.891688
 20
335.660517
 30
0.0
 10
161.351457
 20
336.120302
 30
0.0
  0
LINE
  5
168
100
AcDbEntity
  8
Layer_1
 62
7
100
AcDbLine
 10
161.351457
 20
336.120302
 30
0.0
 11
198.344496
 21
373.113689
 31
0.0
  0
SPLINE
  5
169
100
AcDbEntity
  8
Layer_1
 62
7
100
AcDbSpline
 70
8
 71
3
 72
8
 73
4
 74
0
 40
0
 40
0
 40
0
 40
0
 40
1
 40
1
 40
1
 40
1
 10
198.344496
 20
373.113689
 30
0.0
 10
198.538468
 20
373.307657
 30
0.0
 10
198.808893
 20
373.414199
 30
0.0
 10
199.106214
 20
373.414199
 30
0.0
  0
SPLINE
  5
16a
100
AcDbEntity
  8
Layer_1
 62
7
100
AcDbSpline
 70
8
 71
3
 72
8
 73
4
 74
0
 40
0
 40
0
 40
0
 40
0
 40
1
 40
1
 40
1
 40
1
 10
199.106214
 20
373.414199
 30
0.0
 10
199.491673
 20
373.414199
 30
0.0
 10
199.887038
 20
373.240054
 30
0.0
 10
200.190710
 20
372.936007
 30
0.0
  0
SPLINE
  5
16b
100
AcDbEntity
  8
Layer_1
 62
7
100
AcDbSpline
 70
8
 71
3
 72
8
 73
4
 74
0
 40
0
 40
0
 40
0
 40
0
 40
1
 40
1
 40
1
 40
1
 10
200.190710
 20
372.936007
 30
0.0
 10
200.748550
 20
372.378178
 30
0.0
 10
200.828560
 20
371.549574
 30
0.0
 10
200.368397
 20
371.089436
 30
0.0
  0
LINE
  5
16c
100
AcDbEntity
  8
Layer_1
 62
7
100
AcDbLine
 10
200.368397
 20
371.089436
 30
0.0
 11
163.375018
 21
334.096399
 31
0.0
  0
SPLINE
  5
16d
100
AcDbEntity
  8
Layer_1
 62
7
100
AcDbSpline
 70
8
 71
3
 72
8
 73
4
 74
0
 40
0
 40
0
 40
0
 40
0
 40
1
 40
1
 40
1
 40
1
 10
163.375018
 20
334.096399
 30
0.0
 10
163.181047
 20
333.902433
 30
0.0
 10
162.910622
 20
333.795894
 30
0.0
 10
162.613300
 20
333.795894
 30
0.0
  0
LINE
  5
16e
100
AcDbEntity
  8
Layer_1
 62
7
100
AcDbLine
 10
162.613300
 20
333.795894
 30
0.0
 11
162.613300
 21
333.795894
 31
0.0
  0
SPLINE
  5
16f
100
AcDbEntity
  8
Layer_1
 62
7
100
AcDbSpline
 70
8
 71
3
 72
8
 73
4
 74
0
 40
0
 40
0
 40
0
 40
0
 40
1
 40
1
 40
1
 40
1
 10
167.629518
 20
330.785876
 30
0.0
 10
167.243720
 20
330.785876
 30
0.0
 10
166.848355
 20
330.960374
 30
0.0
 10
166.545023
 20
331.264065
 30
0.0
  0
SPLINE
  5
170
100
AcDbEntity
  8
Layer_1
 62
7
100
AcDbSpline
 70
8
 71
3
 72
8
 73
4
 74
0
 40
0
 40
0
 40
0
 40
0
 40
1
 40
1
 40
1
 40
1
 10
166.545023
 20
331.264065
 30
0.0
 10
165.987182
 20
331.821897
 30
0.0
 10
165.907201
 20
332.650148
 30
0.0
 10
166.367336
 20
333.110286
 30
0.0
  0
LINE
  5
171
100
AcDbEntity
  8
Layer_1
 62
7
100
AcDbLine
 10
166.367336
 20
333.110286
 30
0.0
 11
198.344158
 21
365.087100
 31
0.0
  0
SPLINE
  5
172
100
AcDbEntity
  8
Layer_1
 62
7
100
AcDbSpline
 70
8
 71
3
 72
8
 73
4
 74
0
 40
0
 40
0
 40
0
 40
0
 40
1
 40
1
 40
1
 40
1
 10
198.344158
 20
365.087100
 30
0.0
 10
198.538129
 20
365.281068
 30
0.0
 10
198.808526
 20
365.387607
 30
0.0
 10
199.105847
 20
365.387607
 30
0.0
  0
SPLINE
  5
173
100
AcDbEntity
  8
Layer_1
 62
7
100
AcDbSpline
 70
8
 71
3
 72
8
 73
4
 74
0
 40
0
 40
0
 40
0
 40
0
 40
1
 40
1
 40
1
 40
1
 10
199.105847
 20
365.387607
 30
0.0
 10
199.491306
 20
365.387607
 30
0.0
 10
199.886672
 20
365.213462
 30
0.0
 10
200.190371
 20
364.909418
 30
0.0
  0
SPLINE
  5
174
100
AcDbEntity
  8
Layer_1
 62
7
100
AcDbSpline
 70
8
 71
3
 72
8
 73
4
 74
0
 40
0
 40
0
 40
0
 40
0
 40
1
 40
1
 40
1
 40
1
 10
200.190371
 20
364.909418
 30
0.0
 10
200.748211
 20
364.351586
 30
0.0
 10
200.828193
 20
363.522985
 30
0.0
 10
200.368058
 20
363.062844
 30
0.0
  0
LINE
  5
175
100
AcDbEntity
  8
Layer_1
 62
7
100
AcDbLine
 10
200.368058
 20
363.062844
 30
0.0
 11
168.391236
 21
331.086028
 31
0.0
  0
SPLINE
  5
176
100
AcDbEntity
  8
Layer_1
 62
7
100
AcDbSpline
 70
8
 71
3
 72
8
 73
4
 74
0
 40
0
 40
0
 40
0
 40
0
 40
1
 40
1
 40
1
 40
1
 10
168.391236
 20
331.086028
 30
0.0
 10
168.197632
 20
330.892773
 30
0.0
 10
167.926839
 20
330.785876
 30
0.0
 10
167.629518
 20
330.785876
 30
0.0
  0
LINE
  5
177
100
AcDbEntity
  8
Layer_1
 62
7
100
AcDbLine
 10
167.629518
 20
330.785876
 30
0.0
 11
167.629518
 21
330.785876
 31
0.0
  0
SPLINE
  5
178
100
AcDbEntity
  8
Layer_1
 62
7
100
AcDbSpline
 70
8
 71
3
 72
8
 73
4
 74
0
 40
0
 40
0
 40
0
 40
0
 40
1
 40
1
 40
1
 40
1
 10
175.655777
 20
330.785876
 30
0.0
 10
175.269951
 20
330.785876
 30
0.0
 10
174.874586
 20
330.960374
 30
0.0
 10
174.571254
 20
331.264065
 30
0.0
  0
SPLINE
  5
179
100
AcDbEntity
  8
Layer_1
 62
7
100
AcDbSpline
 70
8
 71
3
 72
8
 73
4
 74
0
 40
0
 40
0
 40
0
 40
0
 40
1
 40
1
 40
1
 40
1
 10
174.571254
 20
331.264065
 30
0.0
 10
174.013413
 20
331.821897
 30
0.0
 10
173.933431
 20
332.650148
 30
0.0
 10
174.393566
 20
333.110286
 30
0.0
  0
LINE
  5
17a
100
AcDbEntity
  8
Layer_1
 62
7
100
AcDbLine
 10
174.393566
 20
333.110286
 30
0.0
 11
198.344158
 21
357.061219
 31
0.0
  0
SPLINE
  5
17b
100
AcDbEntity
  8
Layer_1
 62
7
100
AcDbSpline
 70
8
 71
3
 72
8
 73
4
 74
0
 40
0
 40
0
 40
0
 40
0
 40
1
 40
1
 40
1
 40
1
 10
198.344158
 20
357.061219
 30
0.0
 10
198.538129
 20
357.255185
 30
0.0
 10
198.808526
 20
357.361724
 30
0.0
 10
199.105847
 20
357.361724
 30
0.0
  0
SPLINE
  5
17c
100
AcDbEntity
  8
Layer_1
 62
7
100
AcDbSpline
 70
8
 71
3
 72
8
 73
4
 74
0
 40
0
 40
0
 40
0
 40
0
 40
1
 40
1
 40
1
 40
1
 10
199.105847
 20
357.361724
 30
0.0
 10
199.491306
 20
357.361724
 30
0.0
 10
199.886672
 20
357.187578
 30
0.0
 10
200.190371
 20
356.883535
 30
0.0
  0
SPLINE
  5
17d
100
AcDbEntity
  8
Layer_1
 62
7
100
AcDbSpline
 70
8
 71
3
 72
8
 73
4
 74
0
 40
0
 40
0
 40
0
 40
0
 40
1
 40
1
 40
1
 40
1
 10
200.190371
 20
356.883535
 30
0.0
 10
200.748211
 20
356.325703
 30
0.0
 10
200.828193
 20
355.497101
 30
0.0
 10
200.368058
 20
355.036963
 30
0.0
  0
LINE
  5
17e
100
AcDbEntity
  8
Layer_1
 62
7
100
AcDbLine
 10
200.368058
 20
355.036963
 30
0.0
 11
176.417467
 21
331.086380
 31
0.0
  0
SPLINE
  5
17f
100
AcDbEntity
  8
Layer_1
 62
7
100
AcDbSpline
 70
8
 71
3
 72
8
 73
4
 74
0
 40
0
 40
0
 40
0
 40
0
 40
1
 40
1
 40
1
 40
1
 10
176.417467
 20
331.086380
 30
0.0
 10
176.223862
 20
330.892773
 30
0.0
 10
175.953098
 20
330.785876
 30
0.0
 10
175.655777
 20
330.785876
 30
0.0
  0
LINE
  5
180
100
AcDbEntity
  8
Layer_1
 62
7
100
AcDbLine
 10
175.655777
 20
330.785876
 30
0.0
 11
175.655777
 21
330.785876
 31
0.0
  0
SPLINE
  5
181
100
AcDbEntity
  8
Layer_1
 62
7
100
AcDbSpline
 70
8
 71
3
 72
8
 73
4
 74
0
 40
0
 40
0
 40
0
 40
0
 40
1
 40
1
 40
1
 40
1
 10
183.682008
 20
330.785876
 30
0.0
 10
183.296182
 20
330.785876
 30
0.0
 10
182.900817
 20
330.960374
 30
0.0
 10
182.597484
 20
331.264065
 30
0.0
  0
SPLINE
  5
182
100
AcDbEntity
  8
Layer_1
 62
7
100
AcDbSpline
 70
8
 71
3
 72
8
 73
4
 74
0
 40
0
 40
0
 40
0
 40
0
 40
1
 40
1
 40
1
 40
1
 10
182.597484
 20
331.264065
 30
0.0
 10
182.039672
 20
331.821897
 30
0.0
 10
181.959662
 20
332.650148
 30
0.0
 10
182.419797
 20
333.110286
 30
0.0
  0
LINE
  5
183
100
AcDbEntity
  8
Layer_1
 62
7
100
AcDbLine
 10
182.419797
 20
333.110286
 30
0.0
 11
198.344158
 21
349.034983
 31
0.0
  0
SPLINE
  5
184
100
AcDbEntity
  8
Layer_1
 62
7
100
AcDbSpline
 70
8
 71
3
 72
8
 73
4
 74
0
 40
0
 40
0
 40
0
 40
0
 40
1
 40
1
 40
1
 40
1
 10
198.344158
 20
349.034983
 30
0.0
 10
198.538129
 20
349.228946
 30
0.0
 10
198.808526
 20
349.335490
 30
0.0
 10
199.105847
 20
349.335490
 30
0.0
  0
SPLINE
  5
185
100
AcDbEntity
  8
Layer_1
 62
7
100
AcDbSpline
 70
8
 71
3
 72
8
 73
4
 74
0
 40
0
 40
0
 40
0
 40
0
 40
1
 40
1
 40
1
 40
1
 10
199.105847
 20
349.335490
 30
0.0
 10
199.491306
 20
349.335490
 30
0.0
 10
199.886672
 20
349.161345
 30
0.0
 10
200.190371
 20
348.857296
 30
0.0
  0
SPLINE
  5
186
100
AcDbEntity
  8
Layer_1
 62
7
100
AcDbSpline
 70
8
 71
3
 72
8
 73
4
 74
0
 40
0
 40
0
 40
0
 40
0
 40
1
 40
1
 40
1
 40
1
 10
200.190371
 20
348.857296
 30
0.0
 10
200.748211
 20
348.299469
 30
0.0
 10
200.828193
 20
347.470865
 30
0.0
 10
200.368058
 20
347.010727
 30
0.0
  0
LINE
  5
187
100
AcDbEntity
  8
Layer_1
 62
7
100
AcDbLine
 10
200.368058
 20
347.010727
 30
0.0
 11
184.443697
 21
331.086380
 31
0.0
  0
SPLINE
  5
188
100
AcDbEntity
  8
Layer_1
 62
7
100
AcDbSpline
 70
8
 71
3
 72
8
 73
4
 74
0
 40
0
 40
0
 40
0
 40
0
 40
1
 40
1
 40
1
 40
1
 10
184.443697
 20
331.086380
 30
0.0
 10
184.249754
 20
330.892773
 30
0.0
 10
183.979329
 20
330.785876
 30
0.0
 10
183.682008
 20
330.785876
 30
0.0
  0
LINE
  5
189
100
AcDbEntity
  8
Layer_1
 62
7
100
AcDbLine
 10
183.682008
 20
330.785876
 30
0.0
 11
183.682008
 21
330.785876
 31
0.0
  0
SPLINE
  5
18a
100
AcDbEntity
  8
Layer_1
 62
7
100
AcDbSpline
 70
8
 71
3
 72
8
 73
4
 74
0
 40
0
 40
0
 40
0
 40
0
 40
1
 40
1
 40
1
 40
1
 10
191.708944
 20
330.786587
 30
0.0
 10
191.323146
 20
330.786587
 30
0.0
 10
190.927781
 20
330.961085
 30
0.0
 10
190.624449
 20
331.264776
 30
0.0
  0
SPLINE
  5
18b
100
AcDbEntity
  8
Layer_1
 62
7
100
AcDbSpline
 70
8
 71
3
 72
8
 73
4
 74
0
 40
0
 40
0
 40
0
 40
0
 40
1
 40
1
 40
1
 40
1
 10
190.624449
 20
331.264776
 30
0.0
 10
190.066608
 20
331.822605
 30
0.0
 10
189.986626
 20
332.650854
 30
0.0
 10
190.446762
 20
333.110992
 30
0.0
  0
LINE
  5
18c
100
AcDbEntity
  8
Layer_1
 62
7
100
AcDbLine
 10
190.446762
 20
333.110992
 30
0.0
 11
198.344158
 21
341.008744
 31
0.0
  0
SPLINE
  5
18d
100
AcDbEntity
  8
Layer_1
 62
7
100
AcDbSpline
 70
8
 71
3
 72
8
 73
4
 74
0
 40
0
 40
0
 40
0
 40
0
 40
1
 40
1
 40
1
 40
1
 10
198.344158
 20
341.008744
 30
0.0
 10
198.538129
 20
341.202712
 30
0.0
 10
198.808526
 20
341.309254
 30
0.0
 10
199.105847
 20
341.309254
 30
0.0
  0
SPLINE
  5
18e
100
AcDbEntity
  8
Layer_1
 62
7
100
AcDbSpline
 70
8
 71
3
 72
8
 73
4
 74
0
 40
0
 40
0
 40
0
 40
0
 40
1
 40
1
 40
1
 40
1
 10
199.105847
 20
341.309254
 30
0.0
 10
199.491306
 20
341.309254
 30
0.0
 10
199.886672
 20
341.135106
 30
0.0
 10
200.190371
 20
340.831062
 30
0.0
  0
SPLINE
  5
18f
100
AcDbEntity
  8
Layer_1
 62
7
100
AcDbSpline
 70
8
 71
3
 72
8
 73
4
 74
0
 40
0
 40
0
 40
0
 40
0
 40
1
 40
1
 40
1
 40
1
 10
200.190371
 20
340.831062
 30
0.0
 10
200.748211
 20
340.273233
 30
0.0
 10
200.828193
 20
339.444626
 30
0.0
 10
200.368058
 20
338.984488
 30
0.0
  0
LINE
  5
190
100
AcDbEntity
  8
Layer_1
 62
7
100
AcDbLine
 10
200.368058
 20
338.984488
 30
0.0
 11
192.470662
 21
331.087089
 31
0.0
  0
SPLINE
  5
191
100
AcDbEntity
  8
Layer_1
 62
7
100
AcDbSpline
 70
8
 71
3
 72
8
 73
4
 74
0
 40
0
 40
0
 40
0
 40
0
 40
1
 40
1
 40
1
 40
1
 10
192.470662
 20
331.087089
 30
0.0
 10
192.276690
 20
330.893476
 30
0.0
 10
192.005926
 20
330.786587
 30
0.0
 10
191.708944
 20
330.786587
 30
0.0
  0
LINE
  5
192
100
AcDbEntity
  8
Layer_1
 62
7
100
AcDbLine
 10
191.708944
 20
330.786587
 30
0.0
 11
191.708944
 21
330.786587
 31
0.0
  0
SPLINE
  5
193
100
AcDbEntity
  8
Layer_1
 62
1
100
AcDbSpline
 70
8
 71
3
 72
8
 73
4
 74
0
 40
0
 40
0
 40
0
 40
0
 40
1
 40
1
 40
1
 40
1
 10
145.049454
 20
326.768157
 30
0.0
 10
144.675341
 20
326.768157
 30
0.0
 10
144.370936
 20
327.072557
 30
0.0
 10
144.370936
 20
327.446684
 30
0.0
  0
SPLINE
  5
194
100
AcDbEntity
  8
Layer_1
 62
1
100
AcDbSpline
 70
8
 71
3
 72
8
 73
4
 74
0
 40
0
 40
0
 40
0
 40
0
 40
1
 40
1
 40
1
 40
1
 10
144.370936
 20
327.446684
 30
0.0
 10
144.370936
 20
327.821168
 30
0.0
 10
144.675341
 20
328.125567
 30
0.0
 10
145.049454
 20
328.125567
 30
0.0
  0
SPLINE
  5
195
100
AcDbEntity
  8
Layer_1
 62
1
100
AcDbSpline
 70
8
 71
3
 72
8
 73
4
 74
0
 40
0
 40
0
 40
0
 40
0
 40
1
 40
1
 40
1
 40
1
 10
145.049454
 20
328.125567
 30
0.0
 10
145.423935
 20
328.125567
 30
0.0
 10
145.728340
 20
327.821168
 30
0.0
 10
145.728340
 20
327.446684
 30
0.0
  0
SPLINE
  5
196
100
AcDbEntity
  8
Layer_1
 62
1
100
AcDbSpline
 70
8
 71
3
 72
8
 73
4
 74
0
 40
0
 40
0
 40
0
 40
0
 40
1
 40
1
 40
1
 40
1
 10
145.728340
 20
327.446684
 30
0.0
 10
145.728340
 20
327.072557
 30
0.0
 10
145.423935
 20
326.768157
 30
0.0
 10
145.049454
 20
326.768157
 30
0.0
  0
LINE
  5
197
100
AcDbEntity
  8
Layer_1
 62
1
100
AcDbLine
 10
145.049454
 20
326.768157
 30
0.0
 11
145.049454
 21
326.768157
 31
0.0
  0
SPLINE
  5
198
100
AcDbEntity
  8
Layer_1
 62
1
100
AcDbSpline
 70
8
 71
3
 72
8
 73
4
 74
0
 40
0
 40
0
 40
0
 40
0
 40
1
 40
1
 40
1
 40
1
 10
145.049454
 20
327.771613
 30
0.0
 10
144.870356
 20
327.771613
 30
0.0
 10
144.724871
 20
327.625786
 30
0.0
 10
144.724871
 20
327.446684
 30
0.0
  0
SPLINE
  5
199
100
AcDbEntity
  8
Layer_1
 62
1
100
AcDbSpline
 70
8
 71
3
 72
8
 73
4
 74
0
 40
0
 40
0
 40
0
 40
0
 40
1
 40
1
 40
1
 40
1
 10
144.724871
 20
327.446684
 30
0.0
 10
144.724871
 20
327.267586
 30
0.0
 10
144.870356
 20
327.122109
 30
0.0
 10
145.049454
 20
327.122109
 30
0.0
  0
SPLINE
  5
19a
100
AcDbEntity
  8
Layer_1
 62
1
100
AcDbSpline
 70
8
 71
3
 72
8
 73
4
 74
0
 40
0
 40
0
 40
0
 40
0
 40
1
 40
1
 40
1
 40
1
 10
145.049454
 20
327.122109
 30
0.0
 10
145.228553
 20
327.122109
 30
0.0
 10
145.374377
 20
327.267586
 30
0.0
 10
145.374377
 20
327.446684
 30
0.0
  0
SPLINE
  5
19b
100
AcDbEntity
  8
Layer_1
 62
1
100
AcDbSpline
 70
8
 71
3
 72
8
 73
4
 74
0
 40
0
 40
0
 40
0
 40
0
 40
1
 40
1
 40
1
 40
1
 10
145.374377
 20
327.446684
 30
0.0
 10
145.374377
 20
327.625786
 30
0.0
 10
145.228553
 20
327.771613
 30
0.0
 10
145.049454
 20
327.771613
 30
0.0
  0
LINE
  5
19c
100
AcDbEntity
  8
Layer_1
 62
1
100
AcDbLine
 10
145.049454
 20
327.771613
 30
0.0
 11
145.049454
 21
327.771613
 31
0.0
  0
LINE
  5
19d
100
AcDbEntity
  8
Layer_1
 62
7
100
AcDbLine
 10
128.173356
 20
337.296627
 30
0.0
 11
142.534629
 21
316.700708
 31
0.0
  0
SPLINE
  5
19e
100
AcDbEntity
  8
Layer_1
 62
7
100
AcDbSpline
 70
8
 71
3
 72
8
 73
4
 74
0
 40
0
 40
0
 40
0
 40
0
 40
1
 40
1
 40
1
 40
1
 10
142.534629
 20
316.700708
 30
0.0
 10
144.361030
 20
314.944750
 30
0.0
 10
146.789129
 20
312.711198
 30
0.0
 10
149.352468
 20
312.711198
 30
0.0
  0
LINE
  5
19f
100
AcDbEntity
  8
Layer_1
 62
7
100
AcDbLine
 10
149.352468
 20
312.711198
 30
0.0
 11
210.987375
 21
312.711198
 31
0.0
  0
SPLINE
  5
1a0
100
AcDbEntity
  8
Layer_1
 62
7
100
AcDbSpline
 70
8
 71
3
 72
8
 73
4
 74
0
 40
0
 40
0
 40
0
 40
0
 40
1
 40
1
 40
1
 40
1
 10
210.987375
 20
312.711198
 30
0.0
 10
213.550686
 20
312.711198
 30
0.0
 10
215.979180
 20
314.944750
 30
0.0
 10
217.824321
 20
316.722654
 30
0.0
  0
LINE
  5
1a1
100
AcDbEntity
  8
Layer_1
 62
7
100
AcDbLine
 10
217.824321
 20
316.722654
 30
0.0
 11
232.273365
 21
337.441751
 31
0.0
  0
SPLINE
  5
1a2
100
AcDbEntity
  8
Layer_1
 62
7
100
AcDbSpline
 70
8
 71
3
 72
8
 73
4
 74
0
 40
0
 40
0
 40
0
 40
0
 40
1
 40
1
 40
1
 40
1
 10
232.273365
 20
337.441751
 30
0.0
 10
234.151102
 20
339.323008
 30
0.0
 10
235.175428
 20
341.797493
 30
0.0
 10
235.175428
 20
344.428777
 30
0.0
  0
LINE
  5
1a3
100
AcDbEntity
  8
Layer_1
 62
7
100
AcDbLine
 10
235.175428
 20
344.428777
 30
0.0
 11
235.170912
 21
349.569802
 31
0.0
  0
LINE
  5
1a4
100
AcDbEntity
  8
Layer_1
 62
7
100
AcDbLine
 10
235.170912
 20
349.569802
 30
0.0
 11
235.175428
 21
405.920315
 31
0.0
  0
SPLINE
  5
1a5
100
AcDbEntity
  8
Layer_1
 62
7
100
AcDbSpline
 70
8
 71
3
 72
8
 73
4
 74
0
 40
0
 40
0
 40
0
 40
0
 40
1
 40
1
 40
1
 40
1
 10
235.175428
 20
405.920315
 30
0.0
 10
235.175428
 20
408.551952
 30
0.0
 10
234.150764
 20
411.026437
 30
0.0
 10
232.290355
 20
412.887876
 30
0.0
  0
LINE
  5
1a6
100
AcDbEntity
  8
Layer_1
 62
7
100
AcDbLine
 10
232.290355
 20
412.887876
 30
0.0
 11
217.804819
 21
434.902897
 31
0.0
  0
SPLINE
  5
1a7
100
AcDbEntity
  8
Layer_1
 62
7
100
AcDbSpline
 70
8
 71
3
 72
8
 73
4
 74
0
 40
0
 40
0
 40
0
 40
0
 40
1
 40
1
 40
1
 40
1
 10
217.804819
 20
434.902897
 30
0.0
 10
215.978813
 20
436.658858
 30
0.0
 10
213.550319
 20
437.638246
 30
0.0
 10
210.987008
 20
437.638246
 30
0.0
  0
LINE
  5
1a8
100
AcDbEntity
  8
Layer_1
 62
7
100
AcDbLine
 10
210.987008
 20
437.638246
 30
0.0
 11
187.940064
 21
437.638528
 31
0.0
  0
LINE
  5
1a9
100
AcDbEntity
  8
Layer_1
 62
7
100
AcDbLine
 10
187.940064
 20
437.638528
 30
0.0
 11
172.388067
 21
437.637964
 31
0.0
  0
LINE
  5
1aa
100
AcDbEntity
  8
Layer_1
 62
7
100
AcDbLine
 10
172.388067
 20
437.637964
 30
0.0
 11
149.527672
 21
437.639092
 31
0.0
  0
LINE
  5
1ab
100
AcDbEntity
  8
Layer_1
 62
7
100
AcDbLine
 10
149.527672
 20
437.639092
 30
0.0
 11
149.352130
 21
437.637964
 31
0.0
  0
SPLINE
  5
1ac
100
AcDbEntity
  8
Layer_1
 62
7
100
AcDbSpline
 70
8
 71
3
 72
8
 73
4
 74
0
 40
0
 40
0
 40
0
 40
0
 40
1
 40
1
 40
1
 40
1
 10
149.352130
 20
437.637964
 30
0.0
 10
146.788790
 20
437.637964
 30
0.0
 10
144.360324
 20
436.658576
 30
0.0
 10
142.515184
 20
434.880672
 30
0.0
  0
LINE
  5
1ad
100
AcDbEntity
  8
Layer_1
 62
7
100
AcDbLine
 10
142.515184
 20
434.880672
 30
0.0
 11
128.172989
 21
413.052536
 31
0.0
  0
LINE
  5
1ae
100
AcDbEntity
  8
Layer_1
 62
7
100
AcDbLine
 10
128.172989
 20
413.052536
 30
0.0
 11
128.194720
 21
413.035885
 31
0.0
  0
LINE
  5
1af
100
AcDbEntity
  8
Layer_1
 62
7
100
AcDbLine
 10
128.194720
 20
413.035885
 30
0.0
 11
128.060241
 21
412.887580
 31
0.0
  0
SPLINE
  5
1b0
100
AcDbEntity
  8
Layer_1
 62
7
100
AcDbSpline
 70
8
 71
3
 72
8
 73
4
 74
0
 40
0
 40
0
 40
0
 40
0
 40
1
 40
1
 40
1
 40
1
 10
128.060241
 20
412.887580
 30
0.0
 10
126.199860
 20
411.026141
 30
0.0
 10
125.175168
 20
408.551656
 30
0.0
 10
125.175168
 20
405.920016
 30
0.0
  0
LINE
  5
1b1
100
AcDbEntity
  8
Layer_1
 62
7
100
AcDbLine
 10
125.175168
 20
405.920016
 30
0.0
 11
125.175168
 21
344.428834
 31
0.0
  0
SPLINE
  5
1b2
100
AcDbEntity
  8
Layer_1
 62
7
100
AcDbSpline
 70
8
 71
3
 72
8
 73
4
 74
0
 40
0
 40
0
 40
0
 40
0
 40
1
 40
1
 40
1
 40
1
 10
125.175168
 20
344.428834
 30
0.0
 10
125.175168
 20
341.797196
 30
0.0
 10
126.199860
 20
339.323064
 30
0.0
 10
128.060241
 20
337.461275
 30
0.0
  0
LINE
  5
1b3
100
AcDbEntity
  8
Layer_1
 62
7
100
AcDbLine
 10
128.060241
 20
337.461275
 30
0.0
 11
128.202481
 21
337.318984
 31
0.0
  0
LINE
  5
1b4
100
AcDbEntity
  8
Layer_1
 62
7
100
AcDbLine
 10
128.202481
 20
337.318984
 30
0.0
 11
128.173356
 21
337.296632
 31
0.0
  0
LINE
  5
1b5
100
AcDbEntity
  8
Layer_1
 62
1
100
AcDbLine
 10
130.375282
 20
389.387740
 30
0.0
 11
127.011306
 21
389.387740
 31
0.0
  0
LINE
  5
1b6
100
AcDbEntity
  8
Layer_1
 62
1
100
AcDbLine
 10
127.011306
 20
389.387740
 30
0.0
 11
127.011306
 21
395.939052
 31
0.0
  0
LINE
  5
1b7
100
AcDbEntity
  8
Layer_1
 62
1
100
AcDbLine
 10
127.011306
 20
395.939052
 30
0.0
 11
130.375282
 21
395.939052
 31
0.0
  0
LINE
  5
1b8
100
AcDbEntity
  8
Layer_1
 62
1
100
AcDbLine
 10
130.375282
 20
395.939052
 30
0.0
 11
130.375282
 21
389.387740
 31
0.0
  0
LINE
  5
1b9
100
AcDbEntity
  8
Layer_1
 62
1
100
AcDbLine
 10
130.375282
 20
389.387740
 30
0.0
 11
130.375282
 21
389.387740
 31
0.0
  0
LINE
  5
1ba
100
AcDbEntity
  8
Layer_1
 62
1
100
AcDbLine
 10
130.375282
 20
349.254080
 30
0.0
 11
127.011306
 21
349.254080
 31
0.0
  0
LINE
  5
1bb
100
AcDbEntity
  8
Layer_1
 62
1
100
AcDbLine
 10
127.011306
 20
349.254080
 30
0.0
 11
127.011306
 21
355.805748
 31
0.0
  0
LINE
  5
1bc
100
AcDbEntity
  8
Layer_1
 62
1
100
AcDbLine
 10
127.011306
 20
355.805748
 30
0.0
 11
130.375282
 21
355.805748
 31
0.0
  0
LINE
  5
1bd
100
AcDbEntity
  8
Layer_1
 62
1
100
AcDbLine
 10
130.375282
 20
355.805748
 30
0.0
 11
130.375282
 21
349.254080
 31
0.0
  0
LINE
  5
1be
100
AcDbEntity
  8
Layer_1
 62
1
100
AcDbLine
 10
130.375282
 20
349.254080
 30
0.0
 11
130.375282
 21
349.254080
 31
0.0
  0
LINE
  5
1bf
100
AcDbEntity
  8
Layer_1
 62
1
100
AcDbLine
 10
233.318603
 20
389.387740
 30
0.0
 11
229.954627
 21
389.387740
 31
0.0
  0
LINE
  5
1c0
100
AcDbEntity
  8
Layer_1
 62
1
100
AcDbLine
 10
229.954627
 20
389.387740
 30
0.0
 11
229.954627
 21
395.939052
 31
0.0
  0
LINE
  5
1c1
100
AcDbEntity
  8
Layer_1
 62
1
100
AcDbLine
 10
229.954627
 20
395.939052
 30
0.0
 11
233.318603
 21
395.939052
 31
0.0
  0
LINE
  5
1c2
100
AcDbEntity
  8
Layer_1
 62
1
100
AcDbLine
 10
233.318603
 20
395.939052
 30
0.0
 11
233.318603
 21
389.387740
 31
0.0
  0
LINE
  5
1c3
100
AcDbEntity
  8
Layer_1
 62
1
100
AcDbLine
 10
233.318603
 20
389.387740
 30
0.0
 11
233.318603
 21
389.387740
 31
0.0
  0
LINE
  5
1c4
100
AcDbEntity
  8
Layer_1
 62
1
100
AcDbLine
 10
233.318603
 20
349.254080
 30
0.0
 11
229.954627
 21
349.254080
 31
0.0
  0
LINE
  5
1c5
100
AcDbEntity
  8
Layer_1
 62
1
100
AcDbLine
 10
229.954627
 20
349.254080
 30
0.0
 11
229.954627
 21
355.805748
 31
0.0
  0
LINE
  5
1c6
100
AcDbEntity
  8
Layer_1
 62
1
100
AcDbLine
 10
229.954627
 20
355.805748
 30
0.0
 11
233.318603
 21
355.805748
 31
0.0
  0
LINE
  5
1c7
100
AcDbEntity
  8
Layer_1
 62
1
100
AcDbLine
 10
233.318603
 20
355.805748
 30
0.0
 11
233.318603
 21
349.254080
 31
0.0
  0
LINE
  5
1c8
100
AcDbEntity
  8
Layer_1
 62
1
100
AcDbLine
 10
233.318603
 20
349.254080
 30
0.0
 11
233.318603
 21
349.254080
 31
0.0
  0
SPLINE
  5
1c9
100
AcDbEntity
  8
Layer_1
 62
7
100
AcDbSpline
 70
8
 71
3
 72
8
 73
4
 74
0
 40
0
 40
0
 40
0
 40
0
 40
1
 40
1
 40
1
 40
1
 10
155.326069
 20
417.497268
 30
0.0
 10
155.326069
 20
416.953214
 30
0.0
 10
155.040149
 20
416.450489
 30
0.0
 10
154.576063
 20
416.178463
 30
0.0
  0
SPLINE
  5
1ca
100
AcDbEntity
  8
Layer_1
 62
7
100
AcDbSpline
 70
8
 71
3
 72
8
 73
4
 74
0
 40
0
 40
0
 40
0
 40
0
 40
1
 40
1
 40
1
 40
1
 10
154.576063
 20
416.178463
 30
0.0
 10
154.111977
 20
415.906438
 30
0.0
 10
153.540166
 20
415.906438
 30
0.0
 10
153.076080
 20
416.178463
 30
0.0
  0
SPLINE
  5
1cb
100
AcDbEntity
  8
Layer_1
 62
7
100
AcDbSpline
 70
8
 71
3
 72
8
 73
4
 74
0
 40
0
 40
0
 40
0
 40
0
 40
1
 40
1
 40
1
 40
1
 10
153.076080
 20
416.178463
 30
0.0
 10
152.611966
 20
416.450489
 30
0.0
 10
152.326075
 20
416.953214
 30
0.0
 10
152.326075
 20
417.497268
 30
0.0
  0
SPLINE
  5
1cc
100
AcDbEntity
  8
Layer_1
 62
7
100
AcDbSpline
 70
8
 71
3
 72
8
 73
4
 74
0
 40
0
 40
0
 40
0
 40
0
 40
1
 40
1
 40
1
 40
1
 10
152.326075
 20
417.497268
 30
0.0
 10
152.326075
 20
418.041319
 30
0.0
 10
152.611966
 20
418.544044
 30
0.0
 10
153.076080
 20
418.816072
 30
0.0
  0
SPLINE
  5
1cd
100
AcDbEntity
  8
Layer_1
 62
7
100
AcDbSpline
 70
8
 71
3
 72
8
 73
4
 74
0
 40
0
 40
0
 40
0
 40
0
 40
1
 40
1
 40
1
 40
1
 10
153.076080
 20
418.816072
 30
0.0
 10
153.540166
 20
419.088098
 30
0.0
 10
154.111977
 20
419.088098
 30
0.0
 10
154.576063
 20
418.816072
 30
0.0
  0
SPLINE
  5
1ce
100
AcDbEntity
  8
Layer_1
 62
7
100
AcDbSpline
 70
8
 71
3
 72
8
 73
4
 74
0
 40
0
 40
0
 40
0
 40
0
 40
1
 40
1
 40
1
 40
1
 10
154.576063
 20
418.816072
 30
0.0
 10
155.040149
 20
418.544044
 30
0.0
 10
155.326069
 20
418.041319
 30
0.0
 10
155.326069
 20
417.497268
 30
0.0
  0
LINE
  5
1cf
100
AcDbEntity
  8
Layer_1
 62
7
100
AcDbLine
 10
155.326069
 20
417.497268
 30
0.0
 11
155.326069
 21
417.497268
 31
0.0
  0
SPLINE
  5
1d0
100
AcDbEntity
  8
Layer_1
 62
7
100
AcDbSpline
 70
8
 71
3
 72
8
 73
4
 74
0
 40
0
 40
0
 40
0
 40
0
 40
1
 40
1
 40
1
 40
1
 10
208.000984
 20
417.497268
 30
0.0
 10
208.000984
 20
416.953214
 30
0.0
 10
207.715064
 20
416.450489
 30
0.0
 10
207.250978
 20
416.178463
 30
0.0
  0
SPLINE
  5
1d1
100
AcDbEntity
  8
Layer_1
 62
7
100
AcDbSpline
 70
8
 71
3
 72
8
 73
4
 74
0
 40
0
 40
0
 40
0
 40
0
 40
1
 40
1
 40
1
 40
1
 10
207.250978
 20
416.178463
 30
0.0
 10
206.786892
 20
415.906438
 30
0.0
 10
206.215082
 20
415.906438
 30
0.0
 10
205.750995
 20
416.178463
 30
0.0
  0
SPLINE
  5
1d2
100
AcDbEntity
  8
Layer_1
 62
7
100
AcDbSpline
 70
8
 71
3
 72
8
 73
4
 74
0
 40
0
 40
0
 40
0
 40
0
 40
1
 40
1
 40
1
 40
1
 10
205.750995
 20
416.178463
 30
0.0
 10
205.286881
 20
416.450489
 30
0.0
 10
205.000990
 20
416.953214
 30
0.0
 10
205.000990
 20
417.497268
 30
0.0
  0
SPLINE
  5
1d3
100
AcDbEntity
  8
Layer_1
 62
7
100
AcDbSpline
 70
8
 71
3
 72
8
 73
4
 74
0
 40
0
 40
0
 40
0
 40
0
 40
1
 40
1
 40
1
 40
1
 10
205.000990
 20
417.497268
 30
0.0
 10
205.000990
 20
418.041319
 30
0.0
 10
205.286881
 20
418.544044
 30
0.0
 10
205.750995
 20
418.816072
 30
0.0
  0
SPLINE
  5
1d4
100
AcDbEntity
  8
Layer_1
 62
7
100
AcDbSpline
 70
8
 71
3
 72
8
 73
4
 74
0
 40
0
 40
0
 40
0
 40
0
 40
1
 40
1
 40
1
 40
1
 10
205.750995
 20
418.816072
 30
0.0
 10
206.215082
 20
419.088098
 30
0.0
 10
206.786892
 20
419.088098
 30
0.0
 10
207.250978
 20
418.816072
 30
0.0
  0
SPLINE
  5
1d5
100
AcDbEntity
  8
Layer_1
 62
7
100
AcDbSpline
 70
8
 71
3
 72
8
 73
4
 74
0
 40
0
 40
0
 40
0
 40
0
 40
1
 40
1
 40
1
 40
1
 10
207.250978
 20
418.816072
 30
0.0
 10
207.715064
 20
418.544044
 30
0.0
 10
208.000984
 20
418.041319
 30
0.0
 10
208.000984
 20
417.497268
 30
0.0
  0
LINE
  5
1d6
100
AcDbEntity
  8
Layer_1
 62
7
100
AcDbLine
 10
208.000984
 20
417.497268
 30
0.0
 11
208.000984
 21
417.497268
 31
0.0
  0
SPLINE
  5
1d7
100
AcDbEntity
  8
Layer_1
 62
7
100
AcDbSpline
 70
8
 71
3
 72
8
 73
4
 74
0
 40
0
 40
0
 40
0
 40
0
 40
1
 40
1
 40
1
 40
1
 10
155.326069
 20
324.689392
 30
0.0
 10
155.326069
 20
324.145341
 30
0.0
 10
155.040149
 20
323.642616
 30
0.0
 10
154.576063
 20
323.370590
 30
0.0
  0
SPLINE
  5
1d8
100
AcDbEntity
  8
Layer_1
 62
7
100
AcDbSpline
 70
8
 71
3
 72
8
 73
4
 74
0
 40
0
 40
0
 40
0
 40
0
 40
1
 40
1
 40
1
 40
1
 10
154.576063
 20
323.370590
 30
0.0
 10
154.111977
 20
323.098562
 30
0.0
 10
153.540166
 20
323.098562
 30
0.0
 10
153.076080
 20
323.370590
 30
0.0
  0
SPLINE
  5
1d9
100
AcDbEntity
  8
Layer_1
 62
7
100
AcDbSpline
 70
8
 71
3
 72
8
 73
4
 74
0
 40
0
 40
0
 40
0
 40
0
 40
1
 40
1
 40
1
 40
1
 10
153.076080
 20
323.370590
 30
0.0
 10
152.611966
 20
323.642616
 30
0.0
 10
152.326075
 20
324.145341
 30
0.0
 10
152.326075
 20
324.689392
 30
0.0
  0
SPLINE
  5
1da
100
AcDbEntity
  8
Layer_1
 62
7
100
AcDbSpline
 70
8
 71
3
 72
8
 73
4
 74
0
 40
0
 40
0
 40
0
 40
0
 40
1
 40
1
 40
1
 40
1
 10
152.326075
 20
324.689392
 30
0.0
 10
152.326075
 20
325.233447
 30
0.0
 10
152.611966
 20
325.736172
 30
0.0
 10
153.076080
 20
326.008198
 30
0.0
  0
SPLINE
  5
1db
100
AcDbEntity
  8
Layer_1
 62
7
100
AcDbSpline
 70
8
 71
3
 72
8
 73
4
 74
0
 40
0
 40
0
 40
0
 40
0
 40
1
 40
1
 40
1
 40
1
 10
153.076080
 20
326.008198
 30
0.0
 10
153.540166
 20
326.280226
 30
0.0
 10
154.111977
 20
326.280226
 30
0.0
 10
154.576063
 20
326.008198
 30
0.0
  0
SPLINE
  5
1dc
100
AcDbEntity
  8
Layer_1
 62
7
100
AcDbSpline
 70
8
 71
3
 72
8
 73
4
 74
0
 40
0
 40
0
 40
0
 40
0
 40
1
 40
1
 40
1
 40
1
 10
154.576063
 20
326.008198
 30
0.0
 10
155.040149
 20
325.736172
 30
0.0
 10
155.326069
 20
325.233447
 30
0.0
 10
155.326069
 20
324.689392
 30
0.0
  0
LINE
  5
1dd
100
AcDbEntity
  8
Layer_1
 62
7
100
AcDbLine
 10
155.326069
 20
324.689392
 30
0.0
 11
155.326069
 21
324.689392
 31
0.0
  0
SPLINE
  5
1de
100
AcDbEntity
  8
Layer_1
 62
7
100
AcDbSpline
 70
8
 71
3
 72
8
 73
4
 74
0
 40
0
 40
0
 40
0
 40
0
 40
1
 40
1
 40
1
 40
1
 10
208.000984
 20
324.689392
 30
0.0
 10
208.000984
 20
324.145341
 30
0.0
 10
207.715064
 20
323.642616
 30
0.0
 10
207.250978
 20
323.370590
 30
0.0
  0
SPLINE
  5
1df
100
AcDbEntity
  8
Layer_1
 62
7
100
AcDbSpline
 70
8
 71
3
 72
8
 73
4
 74
0
 40
0
 40
0
 40
0
 40
0
 40
1
 40
1
 40
1
 40
1
 10
207.250978
 20
323.370590
 30
0.0
 10
206.786892
 20
323.098562
 30
0.0
 10
206.215082
 20
323.098562
 30
0.0
 10
205.750995
 20
323.370590
 30
0.0
  0
SPLINE
  5
1e0
100
AcDbEntity
  8
Layer_1
 62
7
100
AcDbSpline
 70
8
 71
3
 72
8
 73
4
 74
0
 40
0
 40
0
 40
0
 40
0
 40
1
 40
1
 40
1
 40
1
 10
205.750995
 20
323.370590
 30
0.0
 10
205.286881
 20
323.642616
 30
0.0
 10
205.000990
 20
324.145341
 30
0.0
 10
205.000990
 20
324.689392
 30
0.0
  0
SPLINE
  5
1e1
100
AcDbEntity
  8
Layer_1
 62
7
100
AcDbSpline
 70
8
 71
3
 72
8
 73
4
 74
0
 40
0
 40
0
 40
0
 40
0
 40
1
 40
1
 40
1
 40
1
 10
205.000990
 20
324.689392
 30
0.0
 10
205.000990
 20
325.233447
 30
0.0
 10
205.286881
 20
325.736172
 30
0.0
 10
205.750995
 20
326.008198
 30
0.0
  0
SPLINE
  5
1e2
100
AcDbEntity
  8
Layer_1
 62
7
100
AcDbSpline
 70
8
 71
3
 72
8
 73
4
 74
0
 40
0
 40
0
 40
0
 40
0
 40
1
 40
1
 40
1
 40
1
 10
205.750995
 20
326.008198
 30
0.0
 10
206.215082
 20
326.280226
 30
0.0
 10
206.786892
 20
326.280226
 30
0.0
 10
207.250978
 20
326.008198
 30
0.0
  0
SPLINE
  5
1e3
100
AcDbEntity
  8
Layer_1
 62
7
100
AcDbSpline
 70
8
 71
3
 72
8
 73
4
 74
0
 40
0
 40
0
 40
0
 40
0
 40
1
 40
1
 40
1
 40
1
 10
207.250978
 20
326.008198
 30
0.0
 10
207.715064
 20
325.736172
 30
0.0
 10
208.000984
 20
325.233447
 30
0.0
 10
208.000984
 20
324.689392
 30
0.0
  0
LINE
  5
1e4
100
AcDbEntity
  8
Layer_1
 62
7
100
AcDbLine
 10
208.000984
 20
324.689392
 30
0.0
 11
208.000984
 21
324.689392
 31
0.0
  0
SPLINE
  5
1e5
100
AcDbEntity
  8
Layer_1
 62
7
100
AcDbSpline
 70
8
 71
3
 72
8
 73
4
 74
0
 40
0
 40
0
 40
0
 40
0
 40
1
 40
1
 40
1
 40
1
 10
141.531103
 20
417.748217
 30
0.0
 10
141.531103
 20
417.204163
 30
0.0
 10
141.245184
 20
416.701438
 30
0.0
 10
140.781097
 20
416.429412
 30
0.0
  0
SPLINE
  5
1e6
100
AcDbEntity
  8
Layer_1
 62
7
100
AcDbSpline
 70
8
 71
3
 72
8
 73
4
 74
0
 40
0
 40
0
 40
0
 40
0
 40
1
 40
1
 40
1
 40
1
 10
140.781097
 20
416.429412
 30
0.0
 10
140.317011
 20
416.157387
 30
0.0
 10
139.745201
 20
416.157387
 30
0.0
 10
139.281114
 20
416.429412
 30
0.0
  0
SPLINE
  5
1e7
100
AcDbEntity
  8
Layer_1
 62
7
100
AcDbSpline
 70
8
 71
3
 72
8
 73
4
 74
0
 40
0
 40
0
 40
0
 40
0
 40
1
 40
1
 40
1
 40
1
 10
139.281114
 20
416.429412
 30
0.0
 10
138.817000
 20
416.701438
 30
0.0
 10
138.531109
 20
417.204163
 30
0.0
 10
138.531109
 20
417.748217
 30
0.0
  0
SPLINE
  5
1e8
100
AcDbEntity
  8
Layer_1
 62
7
100
AcDbSpline
 70
8
 71
3
 72
8
 73
4
 74
0
 40
0
 40
0
 40
0
 40
0
 40
1
 40
1
 40
1
 40
1
 10
138.531109
 20
417.748217
 30
0.0
 10
138.531109
 20
418.292268
 30
0.0
 10
138.817000
 20
418.794993
 30
0.0
 10
139.281114
 20
419.067019
 30
0.0
  0
SPLINE
  5
1e9
100
AcDbEntity
  8
Layer_1
 62
7
100
AcDbSpline
 70
8
 71
3
 72
8
 73
4
 74
0
 40
0
 40
0
 40
0
 40
0
 40
1
 40
1
 40
1
 40
1
 10
139.281114
 20
419.067019
 30
0.0
 10
139.745201
 20
419.339047
 30
0.0
 10
140.317011
 20
419.339047
 30
0.0
 10
140.781097
 20
419.067019
 30
0.0
  0
SPLINE
  5
1ea
100
AcDbEntity
  8
Layer_1
 62
7
100
AcDbSpline
 70
8
 71
3
 72
8
 73
4
 74
0
 40
0
 40
0
 40
0
 40
0
 40
1
 40
1
 40
1
 40
1
 10
140.781097
 20
419.067019
 30
0.0
 10
141.245184
 20
418.794993
 30
0.0
 10
141.531103
 20
418.292268
 30
0.0
 10
141.531103
 20
417.748217
 30
0.0
  0
LINE
  5
1eb
100
AcDbEntity
  8
Layer_1
 62
7
100
AcDbLine
 10
141.531103
 20
417.748217
 30
0.0
 11
141.531103
 21
417.748217
 31
0.0
  0
SPLINE
  5
1ec
100
AcDbEntity
  8
Layer_1
 62
7
100
AcDbSpline
 70
8
 71
3
 72
8
 73
4
 74
0
 40
0
 40
0
 40
0
 40
0
 40
1
 40
1
 40
1
 40
1
 10
136.513813
 20
372.598337
 30
0.0
 10
136.513813
 20
372.054286
 30
0.0
 10
136.227893
 20
371.551561
 30
0.0
 10
135.763807
 20
371.279535
 30
0.0
  0
SPLINE
  5
1ed
100
AcDbEntity
  8
Layer_1
 62
7
100
AcDbSpline
 70
8
 71
3
 72
8
 73
4
 74
0
 40
0
 40
0
 40
0
 40
0
 40
1
 40
1
 40
1
 40
1
 10
135.763807
 20
371.279535
 30
0.0
 10
135.299721
 20
371.007507
 30
0.0
 10
134.727910
 20
371.007507
 30
0.0
 10
134.263824
 20
371.279535
 30
0.0
  0
SPLINE
  5
1ee
100
AcDbEntity
  8
Layer_1
 62
7
100
AcDbSpline
 70
8
 71
3
 72
8
 73
4
 74
0
 40
0
 40
0
 40
0
 40
0
 40
1
 40
1
 40
1
 40
1
 10
134.263824
 20
371.279535
 30
0.0
 10
133.799710
 20
371.551561
 30
0.0
 10
133.513819
 20
372.054286
 30
0.0
 10
133.513819
 20
372.598337
 30
0.0
  0
SPLINE
  5
1ef
100
AcDbEntity
  8
Layer_1
 62
7
100
AcDbSpline
 70
8
 71
3
 72
8
 73
4
 74
0
 40
0
 40
0
 40
0
 40
0
 40
1
 40
1
 40
1
 40
1
 10
133.513819
 20
372.598337
 30
0.0
 10
133.513819
 20
373.142391
 30
0.0
 10
133.799710
 20
373.645116
 30
0.0
 10
134.263824
 20
373.917142
 30
0.0
  0
SPLINE
  5
1f0
100
AcDbEntity
  8
Layer_1
 62
7
100
AcDbSpline
 70
8
 71
3
 72
8
 73
4
 74
0
 40
0
 40
0
 40
0
 40
0
 40
1
 40
1
 40
1
 40
1
 10
134.263824
 20
373.917142
 30
0.0
 10
134.727910
 20
374.189167
 30
0.0
 10
135.299721
 20
374.189167
 30
0.0
 10
135.763807
 20
373.917142
 30
0.0
  0
SPLINE
  5
1f1
100
AcDbEntity
  8
Layer_1
 62
7
100
AcDbSpline
 70
8
 71
3
 72
8
 73
4
 74
0
 40
0
 40
0
 40
0
 40
0
 40
1
 40
1
 40
1
 40
1
 10
135.763807
 20
373.917142
 30
0.0
 10
136.227893
 20
373.645116
 30
0.0
 10
136.513813
 20
373.142391
 30
0.0
 10
136.513813
 20
372.598337
 30
0.0
  0
LINE
  5
1f2
100
AcDbEntity
  8
Layer_1
 62
7
100
AcDbLine
 10
136.513813
 20
372.598337
 30
0.0
 11
136.513813
 21
372.598337
 31
0.0
  0
SPLINE
  5
1f3
100
AcDbEntity
  8
Layer_1
 62
7
100
AcDbSpline
 70
8
 71
3
 72
8
 73
4
 74
0
 40
0
 40
0
 40
0
 40
0
 40
1
 40
1
 40
1
 40
1
 10
141.531103
 20
337.481251
 30
0.0
 10
141.531103
 20
336.937200
 30
0.0
 10
141.245184
 20
336.434474
 30
0.0
 10
140.781097
 20
336.162449
 30
0.0
  0
SPLINE
  5
1f4
100
AcDbEntity
  8
Layer_1
 62
7
100
AcDbSpline
 70
8
 71
3
 72
8
 73
4
 74
0
 40
0
 40
0
 40
0
 40
0
 40
1
 40
1
 40
1
 40
1
 10
140.781097
 20
336.162449
 30
0.0
 10
140.317011
 20
335.890421
 30
0.0
 10
139.745201
 20
335.890421
 30
0.0
 10
139.281114
 20
336.162449
 30
0.0
  0
SPLINE
  5
1f5
100
AcDbEntity
  8
Layer_1
 62
7
100
AcDbSpline
 70
8
 71
3
 72
8
 73
4
 74
0
 40
0
 40
0
 40
0
 40
0
 40
1
 40
1
 40
1
 40
1
 10
139.281114
 20
336.162449
 30
0.0
 10
138.817000
 20
336.434474
 30
0.0
 10
138.531109
 20
336.937200
 30
0.0
 10
138.531109
 20
337.481251
 30
0.0
  0
SPLINE
  5
1f6
100
AcDbEntity
  8
Layer_1
 62
7
100
AcDbSpline
 70
8
 71
3
 72
8
 73
4
 74
0
 40
0
 40
0
 40
0
 40
0
 40
1
 40
1
 40
1
 40
1
 10
138.531109
 20
337.481251
 30
0.0
 10
138.531109
 20
338.025305
 30
0.0
 10
138.817000
 20
338.528030
 30
0.0
 10
139.281114
 20
338.800056
 30
0.0
  0
SPLINE
  5
1f7
100
AcDbEntity
  8
Layer_1
 62
7
100
AcDbSpline
 70
8
 71
3
 72
8
 73
4
 74
0
 40
0
 40
0
 40
0
 40
0
 40
1
 40
1
 40
1
 40
1
 10
139.281114
 20
338.800056
 30
0.0
 10
139.745201
 20
339.072081
 30
0.0
 10
140.317011
 20
339.072081
 30
0.0
 10
140.781097
 20
338.800056
 30
0.0
  0
SPLINE
  5
1f8
100
AcDbEntity
  8
Layer_1
 62
7
100
AcDbSpline
 70
8
 71
3
 72
8
 73
4
 74
0
 40
0
 40
0
 40
0
 40
0
 40
1
 40
1
 40
1
 40
1
 10
140.781097
 20
338.800056
 30
0.0
 10
141.245184
 20
338.528030
 30
0.0
 10
141.531103
 20
338.025305
 30
0.0
 10
141.531103
 20
337.481251
 30
0.0
  0
LINE
  5
1f9
100
AcDbEntity
  8
Layer_1
 62
7
100
AcDbLine
 10
141.531103
 20
337.481251
 30
0.0
 11
141.531103
 21
337.481251
 31
0.0
  0
SPLINE
  5
1fa
100
AcDbEntity
  8
Layer_1
 62
7
100
AcDbSpline
 70
8
 71
3
 72
8
 73
4
 74
0
 40
0
 40
0
 40
0
 40
0
 40
1
 40
1
 40
1
 40
1
 10
221.798066
 20
417.748217
 30
0.0
 10
221.798066
 20
417.204163
 30
0.0
 10
221.512147
 20
416.701438
 30
0.0
 10
221.048061
 20
416.429412
 30
0.0
  0
SPLINE
  5
1fb
100
AcDbEntity
  8
Layer_1
 62
7
100
AcDbSpline
 70
8
 71
3
 72
8
 73
4
 74
0
 40
0
 40
0
 40
0
 40
0
 40
1
 40
1
 40
1
 40
1
 10
221.048061
 20
416.429412
 30
0.0
 10
220.583974
 20
416.157387
 30
0.0
 10
220.012164
 20
416.157387
 30
0.0
 10
219.548078
 20
416.429412
 30
0.0
  0
SPLINE
  5
1fc
100
AcDbEntity
  8
Layer_1
 62
7
100
AcDbSpline
 70
8
 71
3
 72
8
 73
4
 74
0
 40
0
 40
0
 40
0
 40
0
 40
1
 40
1
 40
1
 40
1
 10
219.548078
 20
416.429412
 30
0.0
 10
219.083963
 20
416.701438
 30
0.0
 10
218.798072
 20
417.204163
 30
0.0
 10
218.798072
 20
417.748217
 30
0.0
  0
SPLINE
  5
1fd
100
AcDbEntity
  8
Layer_1
 62
7
100
AcDbSpline
 70
8
 71
3
 72
8
 73
4
 74
0
 40
0
 40
0
 40
0
 40
0
 40
1
 40
1
 40
1
 40
1
 10
218.798072
 20
417.748217
 30
0.0
 10
218.798072
 20
418.292268
 30
0.0
 10
219.083963
 20
418.794993
 30
0.0
 10
219.548078
 20
419.067019
 30
0.0
  0
SPLINE
  5
1fe
100
AcDbEntity
  8
Layer_1
 62
7
100
AcDbSpline
 70
8
 71
3
 72
8
 73
4
 74
0
 40
0
 40
0
 40
0
 40
0
 40
1
 40
1
 40
1
 40
1
 10
219.548078
 20
419.067019
 30
0.0
 10
220.012164
 20
419.339047
 30
0.0
 10
220.583974
 20
419.339047
 30
0.0
 10
221.048061
 20
419.067019
 30
0.0
  0
SPLINE
  5
1ff
100
AcDbEntity
  8
Layer_1
 62
7
100
AcDbSpline
 70
8
 71
3
 72
8
 73
4
 74
0
 40
0
 40
0
 40
0
 40
0
 40
1
 40
1
 40
1
 40
1
 10
221.048061
 20
419.067019
 30
0.0
 10
221.512147
 20
418.794993
 30
0.0
 10
221.798066
 20
418.292268
 30
0.0
 10
221.798066
 20
417.748217
 30
0.0
  0
LINE
  5
200
100
AcDbEntity
  8
Layer_1
 62
7
100
AcDbLine
 10
221.798066
 20
417.748217
 30
0.0
 11
221.798066
 21
417.748217
 31
0.0
  0
SPLINE
  5
201
100
AcDbEntity
  8
Layer_1
 62
7
100
AcDbSpline
 70
8
 71
3
 72
8
 73
4
 74
0
 40
0
 40
0
 40
0
 40
0
 40
1
 40
1
 40
1
 40
1
 10
226.814990
 20
372.598337
 30
0.0
 10
226.814990
 20
372.054286
 30
0.0
 10
226.529070
 20
371.551561
 30
0.0
 10
226.064984
 20
371.279535
 30
0.0
  0
SPLINE
  5
202
100
AcDbEntity
  8
Layer_1
 62
7
100
AcDbSpline
 70
8
 71
3
 72
8
 73
4
 74
0
 40
0
 40
0
 40
0
 40
0
 40
1
 40
1
 40
1
 40
1
 10
226.064984
 20
371.279535
 30
0.0
 10
225.600898
 20
371.007507
 30
0.0
 10
225.029087
 20
371.007507
 30
0.0
 10
224.565001
 20
371.279535
 30
0.0
  0
SPLINE
  5
203
100
AcDbEntity
  8
Layer_1
 62
7
100
AcDbSpline
 70
8
 71
3
 72
8
 73
4
 74
0
 40
0
 40
0
 40
0
 40
0
 40
1
 40
1
 40
1
 40
1
 10
224.565001
 20
371.279535
 30
0.0
 10
224.100887
 20
371.551561
 30
0.0
 10
223.814996
 20
372.054286
 30
0.0
 10
223.814996
 20
372.598337
 30
0.0
  0
SPLINE
  5
204
100
AcDbEntity
  8
Layer_1
 62
7
100
AcDbSpline
 70
8
 71
3
 72
8
 73
4
 74
0
 40
0
 40
0
 40
0
 40
0
 40
1
 40
1
 40
1
 40
1
 10
223.814996
 20
372.598337
 30
0.0
 10
223.814996
 20
373.142391
 30
0.0
 10
224.100887
 20
373.645116
 30
0.0
 10
224.565001
 20
373.917142
 30
0.0
  0
SPLINE
  5
205
100
AcDbEntity
  8
Layer_1
 62
7
100
AcDbSpline
 70
8
 71
3
 72
8
 73
4
 74
0
 40
0
 40
0
 40
0
 40
0
 40
1
 40
1
 40
1
 40
1
 10
224.565001
 20
373.917142
 30
0.0
 10
225.029087
 20
374.189167
 30
0.0
 10
225.600898
 20
374.189167
 30
0.0
 10
226.064984
 20
373.917142
 30
0.0
  0
SPLINE
  5
206
100
AcDbEntity
  8
Layer_1
 62
7
100
AcDbSpline
 70
8
 71
3
 72
8
 73
4
 74
0
 40
0
 40
0
 40
0
 40
0
 40
1
 40
1
 40
1
 40
1
 10
226.064984
 20
373.917142
 30
0.0
 10
226.529070
 20
373.645116
 30
0.0
 10
226.814990
 20
373.142391
 30
0.0
 10
226.814990
 20
372.598337
 30
0.0
  0
LINE
  5
207
100
AcDbEntity
  8
Layer_1
 62
7
100
AcDbLine
 10
226.814990
 20
372.598337
 30
0.0
 11
226.814990
 21
372.598337
 31
0.0
  0
SPLINE
  5
208
100
AcDbEntity
  8
Layer_1
 62
7
100
AcDbSpline
 70
8
 71
3
 72
8
 73
4
 74
0
 40
0
 40
0
 40
0
 40
0
 40
1
 40
1
 40
1
 40
1
 10
221.798066
 20
337.481251
 30
0.0
 10
221.798066
 20
336.937200
 30
0.0
 10
221.512147
 20
336.434474
 30
0.0
 10
221.048061
 20
336.162449
 30
0.0
  0
SPLINE
  5
209
100
AcDbEntity
  8
Layer_1
 62
7
100
AcDbSpline
 70
8
 71
3
 72
8
 73
4
 74
0
 40
0
 40
0
 40
0
 40
0
 40
1
 40
1
 40
1
 40
1
 10
221.048061
 20
336.162449
 30
0.0
 10
220.583974
 20
335.890421
 30
0.0
 10
220.012164
 20
335.890421
 30
0.0
 10
219.548078
 20
336.162449
 30
0.0
  0
SPLINE
  5
20a
100
AcDbEntity
  8
Layer_1
 62
7
100
AcDbSpline
 70
8
 71
3
 72
8
 73
4
 74
0
 40
0
 40
0
 40
0
 40
0
 40
1
 40
1
 40
1
 40
1
 10
219.548078
 20
336.162449
 30
0.0
 10
219.083963
 20
336.434474
 30
0.0
 10
218.798072
 20
336.937200
 30
0.0
 10
218.798072
 20
337.481251
 30
0.0
  0
SPLINE
  5
20b
100
AcDbEntity
  8
Layer_1
 62
7
100
AcDbSpline
 70
8
 71
3
 72
8
 73
4
 74
0
 40
0
 40
0
 40
0
 40
0
 40
1
 40
1
 40
1
 40
1
 10
218.798072
 20
337.481251
 30
0.0
 10
218.798072
 20
338.025305
 30
0.0
 10
219.083963
 20
338.528030
 30
0.0
 10
219.548078
 20
338.800056
 30
0.0
  0
SPLINE
  5
20c
100
AcDbEntity
  8
Layer_1
 62
7
100
AcDbSpline
 70
8
 71
3
 72
8
 73
4
 74
0
 40
0
 40
0
 40
0
 40
0
 40
1
 40
1
 40
1
 40
1
 10
219.548078
 20
338.800056
 30
0.0
 10
220.012164
 20
339.072081
 30
0.0
 10
220.583974
 20
339.072081
 30
0.0
 10
221.048061
 20
338.800056
 30
0.0
  0
SPLINE
  5
20d
100
AcDbEntity
  8
Layer_1
 62
7
100
AcDbSpline
 70
8
 71
3
 72
8
 73
4
 74
0
 40
0
 40
0
 40
0
 40
0
 40
1
 40
1
 40
1
 40
1
 10
221.048061
 20
338.800056
 30
0.0
 10
221.512147
 20
338.528030
 30
0.0
 10
221.798066
 20
338.025305
 30
0.0
 10
221.798066
 20
337.481251
 30
0.0
  0
LINE
  5
20e
100
AcDbEntity
  8
Layer_1
 62
7
100
AcDbLine
 10
221.798066
 20
337.481251
 30
0.0
 11
221.798066
 21
337.481251
 31
0.0
  0
LINE
  5
20f
100
AcDbEntity
  8
Layer_1
 62
7
100
AcDbLine
 10
377.371412
 20
313.993653
 30
0.0
 11
387.371412
 21
313.993653
 31
0.0
  0
LINE
  5
210
100
AcDbEntity
  8
Layer_1
 62
7
100
AcDbLine
 10
387.371412
 20
313.993653
 30
0.0
 11
387.371412
 21
303.993653
 31
0.0
  0
LINE
  5
211
100
AcDbEntity
  8
Layer_1
 62
7
100
AcDbLine
 10
387.371412
 20
303.993653
 30
0.0
 11
377.371412
 21
303.993653
 31
0.0
  0
LINE
  5
212
100
AcDbEntity
  8
Layer_1
 62
7
100
AcDbLine
 10
377.371412
 20
303.993653
 30
0.0
 11
377.371412
 21
313.993653
 31
0.0
  0
ENDSEC
  0
SECTION
  2
OBJECTS
  0
DICTIONARY
  5
C
330
0
100
AcDbDictionary
  3
ACAD_GROUP
350
D
  3
ACAD_MLINESTYLE
350
17
  0
DICTIONARY
  5
D
330
C
100
AcDbDictionary
  0
DICTIONARY
  5
1A
330
C
100
AcDbDictionary
  0
DICTIONARY
  5
17
330
C
100
AcDbDictionary
  3
STANDARD
350
18
  0
DICTIONARY
  5
19
330
C
100
AcDbDictionary
  0
ENDSEC
  0
EOF
