<?xml version="1.0" encoding="UTF-8" standalone="no"?>
<!-- Created with Inkscape (http://www.inkscape.org/) -->

<svg
   xmlns:dc="http://purl.org/dc/elements/1.1/"
   xmlns:cc="http://creativecommons.org/ns#"
   xmlns:rdf="http://www.w3.org/1999/02/22-rdf-syntax-ns#"
   xmlns:svg="http://www.w3.org/2000/svg"
   xmlns="http://www.w3.org/2000/svg"
   xmlns:sodipodi="http://sodipodi.sourceforge.net/DTD/sodipodi-0.dtd"
   xmlns:inkscape="http://www.inkscape.org/namespaces/inkscape"
   width="750mm"
   height="550mm"
   viewBox="0 0 2657.4803 1948.8188"
   id="svg2"
   version="1.1"
   inkscape:version="0.91 r13725"
   sodipodi:docname="LUAC-Layer02.svg">
  <defs
     id="defs4" />
  <sodipodi:namedview
     id="base"
     pagecolor="#ffffff"
     bordercolor="#666666"
     borderopacity="1.0"
     inkscape:pageopacity="0.0"
     inkscape:pageshadow="2"
     inkscape:zoom="0.7"
     inkscape:cx="908.73318"
     inkscape:cy="1255.2527"
     inkscape:document-units="mm"
     inkscape:current-layer="layer1"
     showgrid="false"
     inkscape:window-width="1366"
     inkscape:window-height="715"
     inkscape:window-x="167"
     inkscape:window-y="1042"
     inkscape:window-maximized="1" />
  <metadata
     id="metadata7">
    <rdf:RDF>
      <cc:Work
         rdf:about="">
        <dc:format>image/svg+xml</dc:format>
        <dc:type
           rdf:resource="http://purl.org/dc/dcmitype/StillImage" />
        <dc:title></dc:title>
      </cc:Work>
    </rdf:RDF>
  </metadata>
  <g
     inkscape:label="Layer 1"
     inkscape:groupmode="layer"
     id="layer1"
     transform="translate(0,896.45665)">
    <rect
       style="fill:none;stroke:#000000;stroke-width:0.2375275;stroke-miterlimit:4;stroke-dasharray:none;stroke-opacity:1"
       id="rect12261"
       width="35.433071"
       height="35.433071"
       x="1337.1428"
       y="-60.213688" />
    <text
       xml:space="preserve"
       style="font-style:normal;font-weight:normal;font-size:40px;line-height:125%;font-family:sans-serif;letter-spacing:0px;word-spacing:0px;fill:#000000;fill-opacity:1;stroke:none;stroke-width:1px;stroke-linecap:butt;stroke-linejoin:miter;stroke-opacity:1"
       x="1335.7142"
       y="23.790796"
       id="text12263"
       sodipodi:linespacing="125%"><tspan
         sodipodi:role="line"
         id="tspan12265"
         x="1335.7142"
         y="23.790796">This square for scale: 10mm x 10mm</tspan></text>
    <g
       id="g14255">
      <path
         id="path9862"
         d="m 511.62197,-105.47492 c -1.3257,0 -2.4043,-1.07858 -2.4043,-2.40423"
         style="fill:none;stroke:#ff0000;stroke-opacity:1"
         inkscape:connector-curvature="0" />
      <path
         id="path9864"
         d="m 509.21767,-107.87915 c 0,-1.3269 1.0786,-2.40548 2.4043,-2.40548"
         style="fill:none;stroke:#ff0000;stroke-opacity:1"
         inkscape:connector-curvature="0" />
      <path
         id="path9866"
         d="m 511.62197,-110.28463 c 1.3269,0 2.4055,1.07858 2.4055,2.40548"
         style="fill:none;stroke:#ff0000;stroke-opacity:1"
         inkscape:connector-curvature="0" />
      <path
         id="path9868"
         d="m 514.02747,-107.87915 c 0,1.32565 -1.0786,2.40423 -2.4055,2.40423"
         style="fill:none;stroke:#ff0000;stroke-opacity:1"
         inkscape:connector-curvature="0" />
      <path
         id="path9870"
         d="m 511.62197,-105.47492 0,0"
         style="fill:none;stroke:#ff0000;stroke-opacity:1"
         inkscape:connector-curvature="0" />
      <path
         id="path9872"
         d="m 511.62197,-109.03047 c -0.6346,0 -1.1501,0.51671 -1.1501,1.15132"
         style="fill:none;stroke:#ff0000;stroke-opacity:1"
         inkscape:connector-curvature="0" />
      <path
         id="path9874"
         d="m 510.47187,-107.87915 c 0,0.63461 0.5155,1.15007 1.1501,1.15007"
         style="fill:none;stroke:#ff0000;stroke-opacity:1"
         inkscape:connector-curvature="0" />
      <path
         id="path9876"
         d="m 511.62197,-106.72908 c 0.6346,0 1.1513,-0.51546 1.1513,-1.15007"
         style="fill:none;stroke:#ff0000;stroke-opacity:1"
         inkscape:connector-curvature="0" />
      <path
         id="path9878"
         d="m 512.77327,-107.87915 c 0,-0.63461 -0.5167,-1.15132 -1.1513,-1.15132"
         style="fill:none;stroke:#ff0000;stroke-opacity:1"
         inkscape:connector-curvature="0" />
      <path
         id="path9880"
         d="m 511.62197,-109.03047 0,0"
         style="fill:none;stroke:#ff0000;stroke-opacity:1"
         inkscape:connector-curvature="0" />
      <path
         id="path9882"
         d="m 511.62197,-112.58477 c -1.3257,0 -2.4043,-1.07858 -2.4043,-2.40423"
         style="fill:none;stroke:#ff0000;stroke-opacity:1"
         inkscape:connector-curvature="0" />
      <path
         id="path9884"
         d="m 509.21767,-114.989 c 0,-1.32691 1.0786,-2.40549 2.4043,-2.40549"
         style="fill:none;stroke:#ff0000;stroke-opacity:1"
         inkscape:connector-curvature="0" />
      <path
         id="path9886"
         d="m 511.62197,-117.39449 c 1.3269,0 2.4055,1.07858 2.4055,2.40549"
         style="fill:none;stroke:#ff0000;stroke-opacity:1"
         inkscape:connector-curvature="0" />
      <path
         id="path9888"
         d="m 514.02747,-114.989 c 0,1.32565 -1.0786,2.40423 -2.4055,2.40423"
         style="fill:none;stroke:#ff0000;stroke-opacity:1"
         inkscape:connector-curvature="0" />
      <path
         id="path9890"
         d="m 511.62197,-112.58477 0,0"
         style="fill:none;stroke:#ff0000;stroke-opacity:1"
         inkscape:connector-curvature="0" />
      <path
         id="path9892"
         d="m 511.62197,-116.14032 c -0.6346,0 -1.1501,0.51671 -1.1501,1.15132"
         style="fill:none;stroke:#ff0000;stroke-opacity:1"
         inkscape:connector-curvature="0" />
      <path
         id="path9894"
         d="m 510.47187,-114.989 c 0,0.63461 0.5155,1.15006 1.1501,1.15006"
         style="fill:none;stroke:#ff0000;stroke-opacity:1"
         inkscape:connector-curvature="0" />
      <path
         id="path9896"
         d="m 511.62197,-113.83894 c 0.6346,0 1.1513,-0.51545 1.1513,-1.15006"
         style="fill:none;stroke:#ff0000;stroke-opacity:1"
         inkscape:connector-curvature="0" />
      <path
         id="path9898"
         d="m 512.77327,-114.989 c 0,-0.63461 -0.5167,-1.15132 -1.1513,-1.15132"
         style="fill:none;stroke:#ff0000;stroke-opacity:1"
         inkscape:connector-curvature="0" />
      <path
         id="path9900"
         d="m 511.62197,-116.14032 0,0"
         style="fill:none;stroke:#ff0000;stroke-opacity:1"
         inkscape:connector-curvature="0" />
      <path
         id="path9902"
         d="m 772.90427,-196.7485 c 0,-3.97499 3.1728,-7.19735 7.0639,-7.29399"
         style="fill:none;stroke:#000000"
         inkscape:connector-curvature="0" />
      <path
         id="path9904"
         d="m 779.96817,-204.04249 34.1358,-0.0966"
         style="fill:none;stroke:#000000"
         inkscape:connector-curvature="0" />
      <path
         id="path9906"
         d="m 814.10397,-204.13908 0,-5.6875"
         style="fill:none;stroke:#000000"
         inkscape:connector-curvature="0" />
      <path
         id="path9908"
         d="m 814.10397,-209.82658 13.3437,0"
         style="fill:none;stroke:#000000"
         inkscape:connector-curvature="0" />
      <path
         id="path9910"
         d="m 827.44767,-209.82658 0,1.96875"
         style="fill:none;stroke:#000000"
         inkscape:connector-curvature="0" />
      <path
         id="path9912"
         d="m 827.44767,-207.85783 5.875,0"
         style="fill:none;stroke:#000000"
         inkscape:connector-curvature="0" />
      <path
         id="path9914"
         d="m 833.32267,-207.85783 0,-120.00001"
         style="fill:none;stroke:#000000"
         inkscape:connector-curvature="0" />
      <path
         id="path9916"
         d="m 833.32267,-327.85784 -5.875,0"
         style="fill:none;stroke:#000000"
         inkscape:connector-curvature="0" />
      <path
         id="path9918"
         d="m 827.44767,-327.85784 0,1.96875"
         style="fill:none;stroke:#000000"
         inkscape:connector-curvature="0" />
      <path
         id="path9920"
         d="m 827.44767,-325.88909 -13.3437,0"
         style="fill:none;stroke:#000000"
         inkscape:connector-curvature="0" />
      <path
         id="path9922"
         d="m 814.10397,-325.88909 0,-5.6875"
         style="fill:none;stroke:#000000"
         inkscape:connector-curvature="0" />
      <path
         id="path9924"
         d="m 814.10397,-331.57659 -23.5227,-0.0888"
         style="fill:none;stroke:#000000"
         inkscape:connector-curvature="0" />
      <path
         id="path9926"
         d="m 790.58127,-331.66539 c -3.9079,-0.0888 -7.0807,-3.31118 -7.0807,-7.28618"
         style="fill:none;stroke:#000000"
         inkscape:connector-curvature="0" />
      <path
         id="path9928"
         d="m 783.50057,-338.95157 0,-2e-5"
         style="fill:none;stroke:#000000"
         inkscape:connector-curvature="0" />
      <path
         id="path9930"
         d="m 783.50057,-338.95159 c 0,-3.97499 3.1728,-7.19735 7.0807,-7.28617"
         style="fill:none;stroke:#000000"
         inkscape:connector-curvature="0" />
      <path
         id="path9932"
         d="m 790.58127,-346.23776 23.5227,-0.0888"
         style="fill:none;stroke:#000000"
         inkscape:connector-curvature="0" />
      <path
         id="path9934"
         d="m 814.10397,-346.32657 0,-5.71875"
         style="fill:none;stroke:#000000"
         inkscape:connector-curvature="0" />
      <path
         id="path9936"
         d="m 814.10397,-352.04532 13.3437,0"
         style="fill:none;stroke:#000000"
         inkscape:connector-curvature="0" />
      <path
         id="path9938"
         d="m 827.44767,-352.04532 0,1.96875"
         style="fill:none;stroke:#000000"
         inkscape:connector-curvature="0" />
      <path
         id="path9940"
         d="m 827.44767,-350.07657 5.875,0"
         style="fill:none;stroke:#000000"
         inkscape:connector-curvature="0" />
      <path
         id="path9942"
         d="m 833.32267,-350.07657 0,-35.84375"
         style="fill:none;stroke:#000000"
         inkscape:connector-curvature="0" />
      <path
         id="path9944"
         d="m 833.32267,-385.92032 c 0,-9.32596 -3.6271,-18.09186 -10.2187,-24.6875"
         style="fill:none;stroke:#000000"
         inkscape:connector-curvature="0" />
      <path
         id="path9946"
         d="m 823.10397,-410.60782 -51.3126,-78.03129"
         style="fill:none;stroke:#000000"
         inkscape:connector-curvature="0" />
      <path
         id="path9948"
         d="m 771.79137,-488.63911 c -6.4715,-6.22191 -15.0736,-9.6875 -24.1562,-9.6875"
         style="fill:none;stroke:#000000"
         inkscape:connector-curvature="0" />
      <path
         id="path9950"
         d="m 747.63517,-498.32661 -61.7188,0"
         style="fill:none;stroke:#000000"
         inkscape:connector-curvature="0" />
      <path
         id="path9952"
         d="m 685.91637,-498.32661 0,52.96873"
         style="fill:none;stroke:#000000"
         inkscape:connector-curvature="0" />
      <path
         id="path9954"
         d="m 685.91637,-445.35788 65.125,0"
         style="fill:none;stroke:#000000"
         inkscape:connector-curvature="0" />
      <path
         id="path9956"
         d="m 751.04137,-445.35788 0,363.87501"
         style="fill:none;stroke:#000000"
         inkscape:connector-curvature="0" />
      <path
         id="path9958"
         d="m 751.04137,-81.48287 -225.25,0"
         style="fill:none;stroke:#000000"
         inkscape:connector-curvature="0" />
      <path
         id="path9960"
         d="m 525.79137,-81.48287 0,-363.87501"
         style="fill:none;stroke:#000000"
         inkscape:connector-curvature="0" />
      <path
         id="path9962"
         d="m 525.79137,-445.35788 27.442,0"
         style="fill:none;stroke:#000000"
         inkscape:connector-curvature="0" />
      <path
         id="path9964"
         d="m 553.23337,-445.35788 0,-52.96873"
         style="fill:none;stroke:#000000"
         inkscape:connector-curvature="0" />
      <path
         id="path9966"
         d="m 553.23337,-498.32661 -23.3795,0"
         style="fill:none;stroke:#000000"
         inkscape:connector-curvature="0" />
      <path
         id="path9968"
         d="m 529.85387,-498.32661 -0.625,0"
         style="fill:none;stroke:#000000"
         inkscape:connector-curvature="0" />
      <path
         id="path9970"
         d="m 529.22887,-498.32661 c -9.0826,0 -17.6808,3.48158 -24.2187,9.78125"
         style="fill:none;stroke:#000000"
         inkscape:connector-curvature="0" />
      <path
         id="path9972"
         d="m 505.01017,-488.54536 -50.81252,77.34374"
         style="fill:none;stroke:#000000"
         inkscape:connector-curvature="0" />
      <path
         id="path9974"
         d="m 454.19765,-411.20162 0.0625,0.0625"
         style="fill:none;stroke:#000000"
         inkscape:connector-curvature="0" />
      <path
         id="path9976"
         d="m 454.26015,-411.13912 -0.46875,0.53124"
         style="fill:none;stroke:#000000"
         inkscape:connector-curvature="0" />
      <path
         id="path9978"
         d="m 453.7914,-410.60788 c -6.59189,6.59565 -10.21875,15.36279 -10.21875,24.6875"
         style="fill:none;stroke:#000000"
         inkscape:connector-curvature="0" />
      <path
         id="path9980"
         d="m 443.57265,-385.92038 -0.0625,35.84375"
         style="fill:none;stroke:#000000"
         inkscape:connector-curvature="0" />
      <path
         id="path9982"
         d="m 443.51015,-350.07663 5.84375,0"
         style="fill:none;stroke:#000000"
         inkscape:connector-curvature="0" />
      <path
         id="path9984"
         d="m 449.3539,-350.07663 0,-1.96875"
         style="fill:none;stroke:#000000"
         inkscape:connector-curvature="0" />
      <path
         id="path9986"
         d="m 449.3539,-352.04538 13.34375,0"
         style="fill:none;stroke:#000000"
         inkscape:connector-curvature="0" />
      <path
         id="path9988"
         d="m 462.69765,-352.04538 0,5.71875"
         style="fill:none;stroke:#000000"
         inkscape:connector-curvature="0" />
      <path
         id="path9990"
         d="m 462.69765,-346.32663 23.52368,0.0888"
         style="fill:none;stroke:#000000"
         inkscape:connector-curvature="0" />
      <path
         id="path9992"
         d="m 486.22133,-346.23782 c 3.87766,0.0888 7.05045,3.31118 7.05045,7.28618"
         style="fill:none;stroke:#000000"
         inkscape:connector-curvature="0" />
      <path
         id="path9994"
         d="m 493.27178,-338.95164 c 0,3.97497 -3.17279,7.19733 -7.05045,7.28617"
         style="fill:none;stroke:#000000"
         inkscape:connector-curvature="0" />
      <path
         id="path9996"
         d="m 486.22133,-331.66547 -23.52368,0.0889"
         style="fill:none;stroke:#000000"
         inkscape:connector-curvature="0" />
      <path
         id="path9998"
         d="m 462.69765,-331.57658 0,5.6875"
         style="fill:none;stroke:#000000"
         inkscape:connector-curvature="0" />
      <path
         id="path10000"
         d="m 462.69765,-325.88908 -13.34375,0"
         style="fill:none;stroke:#000000"
         inkscape:connector-curvature="0" />
      <path
         id="path10002"
         d="m 449.3539,-325.88908 0,-1.96875"
         style="fill:none;stroke:#000000"
         inkscape:connector-curvature="0" />
      <path
         id="path10004"
         d="m 449.3539,-327.85783 -5.84375,0"
         style="fill:none;stroke:#000000"
         inkscape:connector-curvature="0" />
      <path
         id="path10006"
         d="m 443.51015,-327.85783 0,120.00001"
         style="fill:none;stroke:#000000"
         inkscape:connector-curvature="0" />
      <path
         id="path10008"
         d="m 443.51015,-207.85782 5.84375,0"
         style="fill:none;stroke:#000000"
         inkscape:connector-curvature="0" />
      <path
         id="path10010"
         d="m 449.3539,-207.85782 0,-1.96875"
         style="fill:none;stroke:#000000"
         inkscape:connector-curvature="0" />
      <path
         id="path10012"
         d="m 449.3539,-209.82657 13.34375,0"
         style="fill:none;stroke:#000000"
         inkscape:connector-curvature="0" />
      <path
         id="path10014"
         d="m 462.69765,-209.82657 0,5.6875"
         style="fill:none;stroke:#000000"
         inkscape:connector-curvature="0" />
      <path
         id="path10016"
         d="m 462.69765,-204.13907 23.52368,0.0888"
         style="fill:none;stroke:#000000"
         inkscape:connector-curvature="0" />
      <path
         id="path10018"
         d="m 486.22133,-204.05028 c 3.87766,0.0888 7.05045,3.31117 7.05045,7.28615"
         style="fill:none;stroke:#000000"
         inkscape:connector-curvature="0" />
      <path
         id="path10020"
         d="m 493.27178,-196.76413 c 0,3.97498 -3.17279,7.19735 -7.05045,7.28618"
         style="fill:none;stroke:#000000"
         inkscape:connector-curvature="0" />
      <path
         id="path10022"
         d="m 486.22133,-189.47795 -23.52368,0.0888"
         style="fill:none;stroke:#000000"
         inkscape:connector-curvature="0" />
      <path
         id="path10024"
         d="m 462.69765,-189.38916 0,5.68751"
         style="fill:none;stroke:#000000"
         inkscape:connector-curvature="0" />
      <path
         id="path10026"
         d="m 462.69765,-183.70165 -13.34375,0"
         style="fill:none;stroke:#000000"
         inkscape:connector-curvature="0" />
      <path
         id="path10028"
         d="m 449.3539,-183.70165 0,-1.93751"
         style="fill:none;stroke:#000000"
         inkscape:connector-curvature="0" />
      <path
         id="path10030"
         d="m 449.3539,-185.63916 -5.84375,0"
         style="fill:none;stroke:#000000"
         inkscape:connector-curvature="0" />
      <path
         id="path10032"
         d="m 443.51015,-185.63916 0.0625,17.59375"
         style="fill:none;stroke:#000000"
         inkscape:connector-curvature="0" />
      <path
         id="path10034"
         d="m 443.57265,-168.04541 c 0,9.3247 3.62686,18.09059 10.21875,24.68751"
         style="fill:none;stroke:#000000"
         inkscape:connector-curvature="0" />
      <path
         id="path10036"
         d="m 453.7914,-143.3579 0.5,0.5"
         style="fill:none;stroke:#000000"
         inkscape:connector-curvature="0" />
      <path
         id="path10038"
         d="m 454.2914,-142.8579 -0.0937,0.0625"
         style="fill:none;stroke:#000000"
         inkscape:connector-curvature="0" />
      <path
         id="path10040"
         d="m 454.1977,-142.7954 50.87497,73"
         style="fill:none;stroke:#000000"
         inkscape:connector-curvature="0" />
      <path
         id="path10042"
         d="m 505.07267,-69.7954 c 6.4715,6.22189 15.0736,14.125 24.1563,14.125"
         style="fill:none;stroke:#000000"
         inkscape:connector-curvature="0" />
      <path
         id="path10044"
         d="m 529.22897,-55.6704 218.4062,0"
         style="fill:none;stroke:#000000"
         inkscape:connector-curvature="0" />
      <path
         id="path10046"
         d="m 747.63517,-55.6704 c 9.0827,0 17.6808,-7.9191 24.2188,-14.21876"
         style="fill:none;stroke:#000000"
         inkscape:connector-curvature="0" />
      <path
         id="path10048"
         d="m 771.85397,-69.88916 51.1874,-73.40621"
         style="fill:none;stroke:#000000"
         inkscape:connector-curvature="0" />
      <path
         id="path10050"
         d="m 823.04137,-143.29537 c 6.6521,-6.66588 10.2813,-15.42655 10.2813,-24.75"
         style="fill:none;stroke:#000000"
         inkscape:connector-curvature="0" />
      <path
         id="path10052"
         d="m 833.32267,-168.04537 0,-17.59375"
         style="fill:none;stroke:#000000"
         inkscape:connector-curvature="0" />
      <path
         id="path10054"
         d="m 833.32267,-185.63912 -5.875,0"
         style="fill:none;stroke:#000000"
         inkscape:connector-curvature="0" />
      <path
         id="path10056"
         d="m 827.44767,-185.63912 0,1.93749"
         style="fill:none;stroke:#000000"
         inkscape:connector-curvature="0" />
      <path
         id="path10058"
         d="m 827.44767,-183.70163 -13.3437,0"
         style="fill:none;stroke:#000000"
         inkscape:connector-curvature="0" />
      <path
         id="path10060"
         d="m 814.10397,-183.70163 0,-5.65624"
         style="fill:none;stroke:#000000"
         inkscape:connector-curvature="0" />
      <path
         id="path10062"
         d="m 814.10397,-189.35787 -34.1358,-0.0966"
         style="fill:none;stroke:#000000"
         inkscape:connector-curvature="0" />
      <path
         id="path10064"
         d="m 779.96817,-189.45448 c -3.8911,-0.0966 -7.0639,-3.31899 -7.0639,-7.29399"
         style="fill:none;stroke:#000000"
         inkscape:connector-curvature="0" />
      <path
         id="path10066"
         d="m 772.90427,-196.74847 0,-3e-5"
         style="fill:none;stroke:#000000"
         inkscape:connector-curvature="0" />
      <g
         transform="translate(-2.8661417e-6,0)"
         id="g13640">
        <g
           id="g13642">
          <path
             inkscape:connector-curvature="0"
             style="fill:none;stroke:#000000"
             d="m 501.48816,-427.84797 c 0,1.92775 -1.0131,3.70906 -2.6575,4.67293"
             id="path13644" />
          <path
             inkscape:connector-curvature="0"
             style="fill:none;stroke:#000000"
             d="m 498.83066,-423.17504 c -1.6444,0.96387 -3.6705,0.96387 -5.3149,0"
             id="path13646" />
          <path
             inkscape:connector-curvature="0"
             style="fill:none;stroke:#000000"
             d="m 493.51576,-423.17504 c -1.6445,-0.96387 -2.6575,-2.74518 -2.6575,-4.67293"
             id="path13648" />
          <path
             inkscape:connector-curvature="0"
             style="fill:none;stroke:#000000"
             d="m 490.85826,-427.84797 c 0,-1.92774 1.013,-3.70905 2.6575,-4.67292"
             id="path13650" />
          <path
             inkscape:connector-curvature="0"
             style="fill:none;stroke:#000000"
             d="m 493.51576,-432.52089 c 1.6444,-0.96388 3.6705,-0.96388 5.3149,0"
             id="path13652" />
          <path
             inkscape:connector-curvature="0"
             style="fill:none;stroke:#000000"
             d="m 501.48816,-427.84797 0,0"
             id="path13654" />
          <path
             inkscape:connector-curvature="0"
             style="fill:none;stroke:#000000"
             d="m 498.83066,-432.52089 c 1.6444,0.96387 2.6575,2.74518 2.6575,4.67292"
             id="path13656" />
        </g>
        <g
           id="g13658">
          <path
             inkscape:connector-curvature="0"
             style="fill:none;stroke:#000000"
             d="m 483.71036,-267.86808 c 0,1.92774 -1.0131,3.70905 -2.6575,4.67292"
             id="path13660" />
          <path
             inkscape:connector-curvature="0"
             style="fill:none;stroke:#000000"
             d="m 481.05286,-263.19516 c -1.6444,0.96388 -3.6705,0.96388 -5.3149,0"
             id="path13662" />
          <path
             inkscape:connector-curvature="0"
             style="fill:none;stroke:#000000"
             d="m 475.73796,-263.19516 c -1.6445,-0.96387 -2.6575,-2.74518 -2.6575,-4.67292"
             id="path13664" />
          <path
             inkscape:connector-curvature="0"
             style="fill:none;stroke:#000000"
             d="m 473.08046,-267.86808 c 0,-1.92775 1.013,-3.70906 2.6575,-4.67293"
             id="path13666" />
          <path
             inkscape:connector-curvature="0"
             style="fill:none;stroke:#000000"
             d="m 475.73796,-272.54101 c 1.6444,-0.96387 3.6705,-0.96387 5.3149,0"
             id="path13668" />
          <path
             inkscape:connector-curvature="0"
             style="fill:none;stroke:#000000"
             d="m 483.71036,-267.86808 0,0"
             id="path13670" />
          <path
             inkscape:connector-curvature="0"
             style="fill:none;stroke:#000000"
             d="m 481.05286,-272.54101 c 1.6444,0.96387 2.6575,2.74518 2.6575,4.67293"
             id="path13672" />
        </g>
        <g
           id="g13674">
          <path
             inkscape:connector-curvature="0"
             style="fill:none;stroke:#000000"
             d="m 501.48816,-143.43746 c 0,1.92774 -1.0131,3.70905 -2.6575,4.67292"
             id="path13676" />
          <path
             inkscape:connector-curvature="0"
             style="fill:none;stroke:#000000"
             d="m 498.83066,-138.76454 c -1.6444,0.96388 -3.6705,0.96388 -5.3149,0"
             id="path13678" />
          <path
             inkscape:connector-curvature="0"
             style="fill:none;stroke:#000000"
             d="m 493.51576,-138.76454 c -1.6445,-0.96387 -2.6575,-2.74518 -2.6575,-4.67292"
             id="path13680" />
          <path
             inkscape:connector-curvature="0"
             style="fill:none;stroke:#000000"
             d="m 490.85826,-143.43746 c 0,-1.92775 1.013,-3.70906 2.6575,-4.67293"
             id="path13682" />
          <path
             inkscape:connector-curvature="0"
             style="fill:none;stroke:#000000"
             d="m 493.51576,-148.11039 c 1.6444,-0.96387 3.6705,-0.96387 5.3149,0"
             id="path13684" />
          <path
             inkscape:connector-curvature="0"
             style="fill:none;stroke:#000000"
             d="m 501.48816,-143.43746 0,0"
             id="path13686" />
          <path
             inkscape:connector-curvature="0"
             style="fill:none;stroke:#000000"
             d="m 498.83066,-148.11039 c 1.6444,0.96387 2.6575,2.74518 2.6575,4.67293"
             id="path13688" />
        </g>
        <g
           id="g13690">
          <path
             inkscape:connector-curvature="0"
             style="fill:none;stroke:#000000"
             d="m 785.89866,-427.84797 c 0,1.92775 -1.0131,3.70906 -2.6575,4.67293"
             id="path13692" />
          <path
             inkscape:connector-curvature="0"
             style="fill:none;stroke:#000000"
             d="m 783.24116,-423.17504 c -1.6444,0.96387 -3.6705,0.96387 -5.3149,0"
             id="path13694" />
          <path
             inkscape:connector-curvature="0"
             style="fill:none;stroke:#000000"
             d="m 777.92626,-423.17504 c -1.6445,-0.96387 -2.6575,-2.74518 -2.6575,-4.67293"
             id="path13696" />
          <path
             inkscape:connector-curvature="0"
             style="fill:none;stroke:#000000"
             d="m 775.26876,-427.84797 c 0,-1.92774 1.013,-3.70905 2.6575,-4.67292"
             id="path13698" />
          <path
             inkscape:connector-curvature="0"
             style="fill:none;stroke:#000000"
             d="m 777.92626,-432.52089 c 1.6444,-0.96388 3.6705,-0.96388 5.3149,0"
             id="path13700" />
          <path
             inkscape:connector-curvature="0"
             style="fill:none;stroke:#000000"
             d="m 785.89866,-427.84797 0,0"
             id="path13702" />
          <path
             inkscape:connector-curvature="0"
             style="fill:none;stroke:#000000"
             d="m 783.24116,-432.52089 c 1.6444,0.96387 2.6575,2.74518 2.6575,4.67292"
             id="path13704" />
        </g>
        <g
           id="g13706">
          <path
             inkscape:connector-curvature="0"
             style="fill:none;stroke:#000000"
             d="m 803.67516,-267.86808 c 0,1.92774 -1.0131,3.70905 -2.6575,4.67292"
             id="path13708" />
          <path
             inkscape:connector-curvature="0"
             style="fill:none;stroke:#000000"
             d="m 801.01766,-263.19516 c -1.6444,0.96388 -3.6705,0.96388 -5.3149,0"
             id="path13710" />
          <path
             inkscape:connector-curvature="0"
             style="fill:none;stroke:#000000"
             d="m 795.70276,-263.19516 c -1.6445,-0.96387 -2.6575,-2.74518 -2.6575,-4.67292"
             id="path13712" />
          <path
             inkscape:connector-curvature="0"
             style="fill:none;stroke:#000000"
             d="m 793.04526,-267.86808 c 0,-1.92775 1.013,-3.70906 2.6575,-4.67293"
             id="path13714" />
          <path
             inkscape:connector-curvature="0"
             style="fill:none;stroke:#000000"
             d="m 795.70276,-272.54101 c 1.6444,-0.96387 3.6705,-0.96387 5.3149,0"
             id="path13716" />
          <path
             inkscape:connector-curvature="0"
             style="fill:none;stroke:#000000"
             d="m 803.67516,-267.86808 0,0"
             id="path13718" />
          <path
             inkscape:connector-curvature="0"
             style="fill:none;stroke:#000000"
             d="m 801.01766,-272.54101 c 1.6444,0.96387 2.6575,2.74518 2.6575,4.67293"
             id="path13720" />
        </g>
        <g
           id="g13722">
          <path
             inkscape:connector-curvature="0"
             style="fill:none;stroke:#000000"
             d="m 785.89866,-143.43746 c 0,1.92774 -1.0131,3.70905 -2.6575,4.67292"
             id="path13724" />
          <path
             inkscape:connector-curvature="0"
             style="fill:none;stroke:#000000"
             d="m 783.24116,-138.76454 c -1.6444,0.96388 -3.6705,0.96388 -5.3149,0"
             id="path13726" />
          <path
             inkscape:connector-curvature="0"
             style="fill:none;stroke:#000000"
             d="m 777.92626,-138.76454 c -1.6445,-0.96387 -2.6575,-2.74518 -2.6575,-4.67292"
             id="path13728" />
          <path
             inkscape:connector-curvature="0"
             style="fill:none;stroke:#000000"
             d="m 775.26876,-143.43746 c 0,-1.92775 1.013,-3.70906 2.6575,-4.67293"
             id="path13730" />
          <path
             inkscape:connector-curvature="0"
             style="fill:none;stroke:#000000"
             d="m 777.92626,-148.11039 c 1.6444,-0.96387 3.6705,-0.96387 5.3149,0"
             id="path13732" />
          <path
             inkscape:connector-curvature="0"
             style="fill:none;stroke:#000000"
             d="m 783.24116,-148.11039 c 1.6444,0.96387 2.6575,2.74518 2.6575,4.67293"
             id="path13734" />
          <path
             inkscape:connector-curvature="0"
             style="fill:none;stroke:#000000"
             d="m 785.89866,-143.43746 0,0"
             id="path13736" />
        </g>
      </g>
    </g>
  </g>
</svg>
